<?xml version="1.0" encoding="utf-8"?>
<COLLADA xmlns="http://www.collada.org/2005/11/COLLADASchema" version="1.4.1" xmlns:xsi="http://www.w3.org/2001/XMLSchema-instance">
  <asset>
    <contributor>
      <author>Blender User</author>
      <authoring_tool>Blender 3.4.1 commit date:2022-12-19, commit time:17:00, hash:55485cb379f7</authoring_tool>
    </contributor>
    <created>2025-12-20T16:45:51</created>
    <modified>2025-12-20T16:45:51</modified>
    <unit name="meter" meter="1"/>
    <up_axis>Z_UP</up_axis>
  </asset>
  <library_effects>
    <effect id="candyCaneRed_001-effect">
      <profile_COMMON>
        <technique sid="common">
          <lambert>
            <emission>
              <color sid="emission">0 0 0 1</color>
            </emission>
            <diffuse>
              <color sid="diffuse">1 0 0 1</color>
            </diffuse>
            <index_of_refraction>
              <float sid="ior">1</float>
            </index_of_refraction>
          </lambert>
        </technique>
      </profile_COMMON>
    </effect>
    <effect id="candyCaneWhite_001-effect">
      <profile_COMMON>
        <technique sid="common">
          <lambert>
            <emission>
              <color sid="emission">0 0 0 1</color>
            </emission>
            <diffuse>
              <color sid="diffuse">1 1 1 1</color>
            </diffuse>
            <index_of_refraction>
              <float sid="ior">1</float>
            </index_of_refraction>
          </lambert>
        </technique>
      </profile_COMMON>
    </effect>
  </library_effects>
  <library_images/>
  <library_materials>
    <material id="candyCaneRed_001-material" name="candyCaneRed.001">
      <instance_effect url="#candyCaneRed_001-effect"/>
    </material>
    <material id="candyCaneWhite_001-material" name="candyCaneWhite.001">
      <instance_effect url="#candyCaneWhite_001-effect"/>
    </material>
  </library_materials>
  <library_geometries>
    <geometry id="candyCane_002-mesh" name="candyCane.002">
      <mesh>
        <source id="candyCane_002-mesh-positions">
          <float_array id="candyCane_002-mesh-positions-array" count="390">-0.04974073 1.246 -1.66893e-6 -0.2774897 1.340337 -1.66893e-6 -0.5052388 1.246 -1.66893e-6 -0.5995758 1.01825 -1.66893e-6 0.04459625 1.01825 -1.66893e-6 0.01696622 1.312706 0.2277483 -0.2774897 1.434673 0.2277483 -0.5719458 1.312706 0.2277483 -0.6939128 1.01825 0.2277483 0.1389332 1.01825 0.2277483 0.1780092 1.473749 0.3220854 -0.2774897 1.662423 0.3220854 -0.7329887 1.473749 0.3220854 -0.9216628 1.01825 0.3220854 0.3666833 1.01825 0.3220854 0.3390522 1.634792 0.2277483 -0.2774897 1.890172 0.2277483 -0.8940318 1.634792 0.2277483 -1.149412 1.01825 0.2277483 0.5944322 1.01825 0.2277483 0.4057582 1.701498 -1.66893e-6 -0.2774897 1.984509 -1.66893e-6 -0.9607377 1.701498 -1.66893e-6 -1.243749 1.01825 -1.66893e-6 0.6887692 1.01825 -1.66893e-6 0.3390522 1.634792 -0.2277505 -0.2774897 1.890172 -0.2277505 -0.8940318 1.634792 -0.2277505 -1.149412 1.01825 -0.2277505 0.5944322 1.01825 -0.2277505 0.1780092 1.473749 -0.3220877 -0.2774897 1.662423 -0.3220877 -0.7329887 1.473749 -0.3220877 -0.9216628 1.01825 -0.3220877 0.3666833 1.01825 -0.3220877 0.01696622 1.312706 -0.2277505 -0.2774897 1.434673 -0.2277505 -0.5719458 1.312706 -0.2277505 -0.6939128 1.01825 -0.2277505 0.1389332 1.01825 -0.2277505 -0.7437878 0.4608812 -1.66893e-6 -0.7958868 0.4608812 0.1257743 0.04459625 0.5762923 -1.66893e-6 0.1389332 0.5762923 0.2277483 -0.9216628 0.4608812 0.1778723 0.3666833 0.5762923 0.3220854 -1.047439 0.4608812 0.1257743 0.5944322 0.5762923 0.2277483 -1.099537 0.4608812 -1.66893e-6 0.6887692 0.5762923 -1.66893e-6 -1.047439 0.4608812 -0.1257776 0.5944322 0.5762923 -0.2277505 -0.9216628 0.4608812 -0.1778756 0.3666833 0.5762923 -0.3220877 -0.7958868 0.4608812 -0.1257776 0.1389332 0.5762923 -0.2277505 0.08540123 -1.801349 -1.66893e-6 0.1652182 -1.80057 0.2014633 0.3666833 -1.801349 0.2812804 0.5681483 -1.80057 0.2014633 0.6479652 -1.801349 -1.66893e-6 0.5681483 -1.80057 -0.2014656 0.3666833 -1.801349 -0.2812836 0.1652182 -1.80057 -0.2014656 -0.9216628 0.4207573 -1.66893e-6 0.3666833 -1.907469 0.1920443 0.3666833 -1.94862 -1.66893e-6 0.5587282 -1.907469 -1.66893e-6 0.5024792 -1.907469 0.1357952 0.1746371 -1.907469 -1.66893e-6 0.2308862 -1.907469 0.1357952 0.2308862 -1.907469 -0.1357976 0.3666833 -1.907469 -0.1920466 0.5024792 -1.907469 -0.1357976 0.3666833 -1.656075 0.3220854 0.5944322 -1.656075 0.2277483 0.6887692 -1.656075 -1.66893e-6 0.5944322 -1.656075 -0.2277505 0.3666833 -1.656075 -0.3220877 0.1389332 -1.656075 -0.2277505 0.04459625 -1.656075 -1.66893e-6 0.1389332 -1.656075 0.2277483 -0.9216628 0.6628032 0.3220854 -0.6939128 0.6628032 0.2277483 -0.5995758 0.6628032 -1.66893e-6 -0.6939128 0.6628032 -0.2277505 -0.9216628 0.6628032 -0.3220877 -1.149412 0.6628032 -0.2277505 -1.243749 0.6628032 -1.66893e-6 -1.149412 0.6628032 0.2277483 0.5944322 0.18867 0.2277483 0.6887692 0.18867 -1.66893e-6 0.5944322 0.18867 -0.2277505 0.3666833 0.18867 -0.3220877 0.1389332 0.18867 -0.2277505 0.04459625 0.18867 -1.66893e-6 0.1389332 0.18867 0.2277483 0.3666833 0.18867 0.3220854 0.5944322 -0.1965297 0.2277483 0.6887692 -0.1965297 -1.66893e-6 0.5944322 -0.1965297 -0.2277505 0.3666833 -0.1965297 -0.3220877 0.1389332 -0.1965297 -0.2277505 0.04459625 -0.1965297 -1.66893e-6 0.1389332 -0.1965297 0.2277483 0.3666833 -0.1965297 0.3220854 0.5944322 -0.5643048 0.2277483 0.6887692 -0.5643048 -1.66893e-6 0.5944322 -0.5643048 -0.2277505 0.3666833 -0.5643048 -0.3220877 0.1389332 -0.5643048 -0.2277505 0.04459625 -0.5643048 -1.66893e-6 0.1389332 -0.5643048 0.2277483 0.3666833 -0.5643048 0.3220854 0.5944322 -0.9321559 0.2277483 0.6887692 -0.9321559 -1.66893e-6 0.5944322 -0.9321559 -0.2277505 0.3666833 -0.9321559 -0.3220877 0.1389332 -0.9321559 -0.2277505 0.04459625 -0.9321559 -1.66893e-6 0.1389332 -0.9321559 0.2277483 0.3666833 -0.9321559 0.3220854 0.5944322 -1.286582 0.2277483 0.6887692 -1.286582 -1.66893e-6 0.5944322 -1.286582 -0.2277505 0.3666833 -1.286582 -0.3220877 0.1389332 -1.286582 -0.2277505 0.04459625 -1.286582 -1.66893e-6 0.1389332 -1.286582 0.2277483 0.3666833 -1.286582 0.3220854</float_array>
          <technique_common>
            <accessor source="#candyCane_002-mesh-positions-array" count="130" stride="3">
              <param name="X" type="float"/>
              <param name="Y" type="float"/>
              <param name="Z" type="float"/>
            </accessor>
          </technique_common>
        </source>
        <source id="candyCane_002-mesh-normals">
          <float_array id="candyCane_002-mesh-normals-array" count="654">-0.3574082 -0.862857 0.3574035 0.8628569 -0.3574049 0.3574069 -0.1565569 -0.3779639 0.9124874 0.3779644 -0.156558 0.912487 0.1565585 0.3779656 0.9124864 -0.3779656 0.1565586 0.9124864 0.3574073 0.8628563 0.357406 -0.8628562 0.3574075 0.3574062 0.3574071 0.8628559 -0.3574075 -0.8628557 0.3574073 -0.3574076 0.1565584 0.3779656 -0.9124864 -0.3779656 0.1565585 -0.9124864 -0.1565581 -0.3779644 -0.912487 0.3779644 -0.156558 -0.912487 -0.3574079 -0.8628565 -0.357405 0.8628565 -0.3574048 -0.3574081 -0.9238798 0 0.3826829 -0.3826831 0 0.9238798 0.3826849 0 0.923879 0.9238798 0 0.382683 0.9238791 0 -0.3826844 0.3826849 0 -0.923879 -0.3826831 0 -0.9238798 -0.9238792 0 -0.3826844 0.2191365 -0.9714629 -0.0907703 -0.09076941 -0.9714627 -0.2191374 0.09076952 -0.9714627 0.2191374 -0.09076941 -0.9714627 0.2191374 0.3194152 -0.5507467 0.7711369 0.7711384 -0.5507442 0.3194156 0.7711347 -0.550747 -0.3194199 0.3194152 -0.5507451 -0.7711381 -0.3194153 -0.550743 -0.7711395 -0.771138 -0.550744 -0.3194169 -0.7711382 -0.5507447 0.3194155 -0.3194161 -0.5507475 0.771136 0.9238798 0 0.382683 0.9238792 0 -0.3826845 0.3826848 0 -0.923879 -0.3826831 0 -0.9238797 -0.9238792 0 -0.3826843 -0.9238798 0 0.3826828 -0.3826833 0 0.9238797 0.3826848 0 0.923879 0.9238798 0 0.3826829 0.9238792 0 -0.3826844 0.3826848 0 -0.923879 -0.3826832 0 -0.9238797 -0.9238793 0 -0.3826843 -0.9238799 0 0.3826828 -0.3826833 0 0.9238796 0.3826848 0 0.923879 0.9238798 0 0.3826829 0.9238792 0 -0.3826844 0.382685 0 -0.923879 -0.382683 0 -0.9238798 -0.9238792 0 -0.3826844 -0.9238798 0 0.3826829 -0.382683 0 0.9238798 0.382685 0 0.923879 -0.3574053 -0.8628575 0.3574053 0.8628562 -0.3574059 0.3574076 -0.1565586 -0.3779659 0.9124863 0.3779661 -0.1565578 0.9124863 0.1565586 0.3779659 0.9124863 -0.3779655 0.1565585 0.9124865 0.3574068 0.8628563 0.3574066 -0.8628568 0.3574076 0.3574045 0.3574067 0.862856 -0.3574076 -0.8628563 0.3574074 -0.3574059 0.1565586 0.3779659 -0.9124863 -0.3779653 0.1565585 -0.9124866 -0.1565579 -0.3779662 -0.9124863 0.3779659 -0.1565578 -0.9124865 -0.3574051 -0.862857 -0.3574063 0.8628556 -0.3574059 -0.3574091 -0.9238799 0 0.3826828 0.9238798 0 0.3826829 0.9238792 0 -0.3826844 -0.9238792 0 -0.3826842 0.09076958 -0.9714627 -0.2191374 -0.2191372 -0.9714627 -0.09076929 0.2191364 -0.9714629 0.09077024 -0.2191373 -0.9714627 0.09076958 0.3194145 -0.5507475 0.7711365 0.771134 -0.5507482 0.3194196 0.771138 -0.550744 -0.3194169 0.3194159 -0.5507441 -0.7711384 -0.3194169 -0.5507444 -0.7711379 -0.7711387 -0.5507439 -0.3194156 -0.7711384 -0.5507445 0.3194153 -0.3194146 -0.5507455 0.771138 -0.9238798 0 0.3826828 -0.3826831 0 0.9238797 0.3826849 0 0.9238789 0.9238797 0 0.382683 0.9238791 0 -0.3826845 -0.9238793 0 -0.3826843 -0.9238799 0 0.3826828 -0.3826832 0 0.9238797 0.382685 0 0.9238789 -0.3826833 0 -0.9238796 -0.9238793 0 -0.3826842 -0.9238799 0 0.3826826 -0.3826833 0 0.9238796 0.3574052 -0.8628578 0.3574044 -0.8628562 -0.357406 0.3574076 0.1565577 -0.3779663 0.9124863 -0.377966 -0.1565577 0.9124864 -0.1565584 0.3779654 0.9124865 0.3779655 0.1565586 0.9124865 -0.3574067 0.8628565 0.3574061 0.8628569 0.3574072 0.3574048 -0.3574066 0.862856 -0.3574075 0.8628562 0.3574073 -0.3574064 -0.1565585 0.3779656 -0.9124864 0.3779652 0.1565585 -0.9124866 0.1565579 -0.3779665 -0.9124863 -0.3779657 -0.1565577 -0.9124865 0.357405 -0.8628574 -0.357406 -0.8628557 -0.3574058 -0.3574091 0.9238798 0 0.3826831 0.3826832 0 0.9238797 -0.3826844 0 0.9238792 -0.9238798 0 0.382683 -0.9238791 0 -0.3826845 -0.3826844 0 -0.9238792 0.3826833 0 -0.9238796 -0.9238798 0 0.3826828 -0.3826832 0 0.9238797 0.3826849 0 0.923879 0.9238798 0 0.3826829 0.9238792 0 -0.3826844 0.3826849 0 -0.923879 -0.3826832 0 -0.9238797 0.0864619 -0.9741427 0.2087352 -0.08646118 -0.9741427 0.2087357 -0.0864616 -0.9741424 -0.2087368 0.2087369 -0.9741423 -0.08646249 0.7295773 -0.6135065 0.3022031 0.2899308 -0.6239165 0.7257192 -0.7257213 -0.6239145 0.2899301 -0.3022022 -0.6135028 0.7295808 -0.7295803 -0.613502 -0.3022051 -0.2899338 -0.623915 -0.7257193 0.3022029 -0.6135062 -0.7295776 0.7257171 -0.62392 -0.2899287 0.3592339 -0.2298812 0.904492 0.8942612 -0.2511765 0.370415 0.9044927 -0.2298774 -0.3592348 0.3704159 -0.2511766 -0.8942609 -0.3592374 -0.2298841 -0.9044899 -0.8942593 -0.251182 -0.3704159 -0.9044916 -0.2298835 0.3592334 -0.3704137 -0.251182 0.8942602 0.3826848 0 -0.923879 -0.3826833 0 -0.9238797 -0.9238792 0 -0.3826842 0.382685 0 0.9238789 0.9238798 0 0.3826828 0.9238792 0 -0.3826844 -0.3826832 0 -0.9238798 -0.9238793 0 -0.3826842 -0.9238799 0 0.3826827 -0.3826832 0 0.9238798 0.3574079 -0.8628572 0.3574033 -0.8628571 -0.3574051 0.3574061 0.1565579 -0.3779641 0.9124872 -0.3779643 -0.156558 0.9124871 -0.1565586 0.3779663 0.9124862 0.3779661 0.1565585 0.9124863 -0.3574071 0.862856 0.3574071 0.8628563 0.3574071 0.3574063 -0.3574069 0.8628554 -0.3574086 0.862856 0.3574067 -0.3574076 -0.1565586 0.3779663 -0.9124862 0.3779661 0.1565585 -0.9124863 0.156558 -0.3779641 -0.9124872 -0.3779644 -0.156558 -0.912487 0.3574076 -0.8628567 -0.3574047 -0.8628566 -0.3574049 -0.3574078 0.9238798 0 0.3826829 0.3826835 0 0.9238796 -0.9238798 0 0.3826829 -0.9238792 0 -0.3826844 -0.3826845 0 -0.9238792 0.3826835 0 -0.9238796 -0.9238798 0 0.3826828 -0.3826832 0 0.9238796 0.9238792 0 -0.3826845 -0.3826832 0 -0.9238796 0.2087369 -0.9741423 0.08646184 -0.2087357 -0.9741427 0.08646076 -0.2087357 -0.9741427 -0.08646196 0.08646237 -0.9741424 -0.2087364 0.7257179 -0.6239196 0.2899277 0.3022045 -0.6135022 0.7295804 -0.7295808 -0.6135025 0.302203 -0.2899311 -0.6239144 0.7257209 -0.7257206 -0.6239148 -0.2899312 -0.3022007 -0.6135067 -0.7295782 0.2899335 -0.6239171 -0.7257177 0.7295771 -0.6135057 -0.3022053 0.3704154 -0.2511819 0.8942596 0.9044934 -0.2298763 0.3592332 0.8942606 -0.2511767 -0.3704164 0.3592376 -0.2298815 -0.9044904 -0.3704142 -0.2511767 -0.8942615 -0.9044909 -0.2298836 -0.359235 -0.8942599 -0.2511822 0.3704144 -0.3592337 -0.2298839 0.9044914 0.3826849 0 -0.9238789 0.9238798 0 0.382683 0.3826848 0 -0.923879 -0.3826832 0 -0.9238796 -0.9238792 0 -0.3826844 -0.3826832 0 0.9238796 0.3826848 0 0.923879</float_array>
          <technique_common>
            <accessor source="#candyCane_002-mesh-normals-array" count="218" stride="3">
              <param name="X" type="float"/>
              <param name="Y" type="float"/>
              <param name="Z" type="float"/>
            </accessor>
          </technique_common>
        </source>
        <source id="candyCane_002-mesh-map-0">
          <float_array id="candyCane_002-mesh-map-0-array" count="1536">0 1 0.125 0.8750001 0.125 1 0.375 1 0.25 0.8750001 0.375 0.8750001 0 0.8750001 0.125 0.75 0.125 0.8750001 0.375 0.8750001 0.25 0.75 0.375 0.75 0.125 0.75 0 0.625 0.125 0.625 0.375 0.75 0.25 0.625 0.375 0.625 0.125 0.625 0 0.5 0.125 0.5 0.375 0.625 0.25 0.5 0.375 0.5 0 0.5 0.125 0.375 0.125 0.5 0.25 0.5 0.375 0.375 0.375 0.5 0 0.375 0.125 0.25 0.125 0.375 0.25 0.375 0.375 0.25 0.375 0.375 0 0.25 0.125 0.125 0.125 0.25 0.25 0.25 0.375 0.125 0.375 0.25 0.125 0.125 0 0 0.125 0 0.25 0.125 0.375 0 0.375 0.125 1 0 0 1 0 0 1 0 0 1 0 0 1 0 0 1 0 0 1 0 0 1 0 0 1 0 0 1 0 0 1 0 0 1 0 0 1 0 0 1 0 0 1 0 0 1 0 0 0 1 0 1 0 1 0 1 0 1 0 1 0 1 0 1 0 1 0 1 0 1 0 1 1 0.804254 0 1 0 0.804254 1 0.804254 0 1 0 0.804254 0 0.804254 1 1 0 1 0 0.804254 1 1 0 1 0 0.804254 1 1 0 1 1 0.804254 0 1 0 0.804254 1 0.804254 0 1 0 0.804254 1 0.804254 0 1 0 0.804254 1 0.161562 0 0.322115 0 0.161562 1 0.161562 0 0.322115 0 0.161562 1 0.161562 0 0.322115 0 0.161562 1 0.161562 0 0.322115 0 0.161562 1 0.161562 0 0.322115 0 0.161562 1 0.161562 0 0.322115 0 0.161562 1 0.161562 0 0.322115 0 0.161562 1 0.161562 0 0.322115 0 0.161562 1 0.497963 0 0.644238 0 0.497963 1 0.497963 0 0.644238 0 0.497963 1 0.497963 0 0.644238 0 0.497963 1 0.497963 0 0.644238 0 0.497963 1 0.497963 0 0.644238 0 0.497963 1 0.497963 0 0.644238 0 0.497963 1 0.497963 0 0.644238 0 0.497963 1 0.497963 0 0.644238 0 0.497963 1 0.785175 0 0.966233 0 0.785175 1 0.785175 0 0.966233 0 0.785175 1 0.785175 0 0.966233 0 0.785175 1 0.785175 0 0.966233 0 0.785175 1 0.785175 0 0.966233 0 0.785175 1 0.785175 0 0.966233 0 0.785175 1 0.785175 0 0.966233 0 0.785175 1 0.785175 0 0.966233 0 0.785175 0 1 0 0.8750001 0.125 0.8750001 0.375 1 0.25 1 0.25 0.8750001 0 0.8750001 0 0.75 0.125 0.75 0.375 0.8750001 0.25 0.8750001 0.25 0.75 0.125 0.75 0 0.75 0 0.625 0.375 0.75 0.25 0.75 0.25 0.625 0.125 0.625 0 0.625 0 0.5 0.375 0.625 0.25 0.625 0.25 0.5 0 0.5 0 0.375 0.125 0.375 0.25 0.5 0.25 0.375 0.375 0.375 0 0.375 0 0.25 0.125 0.25 0.25 0.375 0.25 0.25 0.375 0.25 0 0.25 0 0.125 0.125 0.125 0.25 0.25 0.25 0.125 0.375 0.125 0.125 0.125 0 0.125 0 0 0.25 0.125 0.25 0 0.375 0 1 0 1 1 0 1 1 0 1 1 0 1 1 0 1 1 0 1 1 0 1 1 0 1 1 0 1 1 0 1 1 0 1 1 0 1 1 0 1 1 0 1 1 0 1 1 0 1 0 1 0 1 0 1 0 1 0 1 0 1 0 1 0 1 0 1 0 1 0 1 0 1 1 0.804254 1 1 0 1 1 0.804254 1 1 0 1 0 0.804254 1 0.804254 1 1 0 0.804254 1 0.804254 1 1 0 0.804254 1 0.804254 1 1 1 0.804254 1 1 0 1 1 0.804254 1 1 0 1 1 0.804254 1 1 0 1 1 0.161562 1 0.322115 0 0.322115 1 0.161562 1 0.322115 0 0.322115 1 0.161562 1 0.322115 0 0.322115 1 0.161562 1 0.322115 0 0.322115 1 0.161562 1 0.322115 0 0.322115 1 0.161562 1 0.322115 0 0.322115 1 0.161562 1 0.322115 0 0.322115 1 0.161562 1 0.322115 0 0.322115 1 0.497963 1 0.644238 0 0.644238 1 0.497963 1 0.644238 0 0.644238 1 0.497963 1 0.644238 0 0.644238 1 0.497963 1 0.644238 0 0.644238 1 0.497963 1 0.644238 0 0.644238 1 0.497963 1 0.644238 0 0.644238 1 0.497963 1 0.644238 0 0.644238 1 0.497963 1 0.644238 0 0.644238 1 0.785175 1 0.966233 0 0.966233 1 0.785175 1 0.966233 0 0.966233 1 0.785175 1 0.966233 0 0.966233 1 0.785175 1 0.966233 0 0.966233 1 0.785175 1 0.966233 0 0.966233 1 0.785175 1 0.966233 0 0.966233 1 0.785175 1 0.966233 0 0.966233 1 0.785175 1 0.966233 0 0.966233 0.25 1 0.125 0.8750001 0.25 0.8750001 0.8750001 1 1 0.8750001 1 1 0.125 0.8750001 0.25 0.75 0.25 0.8750001 0.8750001 0.8750001 1 0.75 1 0.8750001 0.125 0.75 0.25 0.625 0.25 0.75 0.8750001 0.75 1 0.625 1 0.75 0.125 0.625 0.25 0.5 0.25 0.625 0.8750001 0.625 1 0.5 1 0.625 0.25 0.5 0.125 0.375 0.25 0.375 0.8750001 0.5 1 0.375 1 0.5 0.25 0.375 0.125 0.25 0.25 0.25 1 0.375 0.8750001 0.25 1 0.25 0.25 0.25 0.125 0.125 0.25 0.125 1 0.25 0.8750001 0.125 1 0.125 0.125 0.125 0.25 0 0.25 0.125 1 0.125 0.8750001 0 1 0 1 0 0 0.804254 0 0 1 0 0 0.804254 0 0 1 0 0 0.804254 0 0 1 0 0 0.804254 0 0 1 0 0 0.804254 0 0 1 0 0 0.804254 0 0 1 0 0 0.804254 0 0 1 0 0 0.804254 0 0 1 0 0 0.161562 0 0 1 0 0 0.161562 0 0 1 0 0 0.161562 0 0 1 0 0 0.161562 0 0 1 0 0 0.161562 0 0 1 0 0 0.161562 0 0 1 0 0 0.161562 0 0 1 0 0 0.161562 0 0 0 1 0 1 0 1 0 1 0 1 0 1 0 1 0 1 0 1 0 1 0 1 0 1 0 1 0 1 0 1 0 1 0 1 0 1 0 1 0 1 0 1 0 1 0 1 0 1 0 1 0 1 0 1 0 1 0 1 0 1 0 1 0 1 0 1 0 1 0 1 0 1 0 0.966233 1 1 0 1 1 0.966233 0 1 0 0.966233 0 0.966233 1 1 0 1 1 0.966233 0 1 0 0.966233 0 0.966233 1 1 0 1 1 0.966233 0 1 0 0.966233 0 0.966233 1 1 0 1 1 0.966233 0 1 0 0.966233 1 0.322115 0 0.497963 0 0.322115 1 0.322115 0 0.497963 0 0.322115 1 0.322115 0 0.497963 0 0.322115 1 0.322115 0 0.497963 0 0.322115 1 0.322115 0 0.497963 0 0.322115 1 0.322115 0 0.497963 0 0.322115 1 0.322115 0 0.497963 0 0.322115 1 0.322115 0 0.497963 0 0.322115 1 0.644238 0 0.785175 0 0.644238 1 0.644238 0 0.785175 0 0.644238 1 0.644238 0 0.785175 0 0.644238 1 0.644238 0 0.785175 0 0.644238 1 0.644238 0 0.785175 0 0.644238 1 0.644238 0 0.785175 0 0.644238 1 0.644238 0 0.785175 0 0.644238 1 0.644238 0 0.785175 0 0.644238 0.25 1 0.125 1 0.125 0.8750001 0.8750001 1 0.8750001 0.8750001 1 0.8750001 0.125 0.8750001 0.125 0.75 0.25 0.75 0.8750001 0.8750001 0.8750001 0.75 1 0.75 0.125 0.75 0.125 0.625 0.25 0.625 0.8750001 0.75 0.8750001 0.625 1 0.625 0.125 0.625 0.125 0.5 0.25 0.5 0.8750001 0.625 0.8750001 0.5 1 0.5 0.25 0.5 0.125 0.5 0.125 0.375 0.8750001 0.5 0.8750001 0.375 1 0.375 0.25 0.375 0.125 0.375 0.125 0.25 1 0.375 0.8750001 0.375 0.8750001 0.25 0.25 0.25 0.125 0.25 0.125 0.125 1 0.25 0.8750001 0.25 0.8750001 0.125 0.125 0.125 0.125 0 0.25 0 1 0.125 0.8750001 0.125 0.8750001 0 1 0 1 0.804254 0 0.804254 1 0 1 0.804254 0 0.804254 1 0 1 0.804254 0 0.804254 1 0 1 0.804254 0 0.804254 1 0 1 0.804254 0 0.804254 1 0 1 0.804254 0 0.804254 1 0 1 0.804254 0 0.804254 1 0 1 0.804254 0 0.804254 1 0 1 0.161562 0 0.161562 1 0 1 0.161562 0 0.161562 1 0 1 0.161562 0 0.161562 1 0 1 0.161562 0 0.161562 1 0 1 0.161562 0 0.161562 1 0 1 0.161562 0 0.161562 1 0 1 0.161562 0 0.161562 1 0 1 0.161562 0 0.161562 0 1 0 1 0 1 0 1 0 1 0 1 0 1 0 1 0 1 0 1 0 1 0 1 0 1 0 1 0 1 0 1 0 1 0 1 0 1 0 1 0 1 0 1 0 1 0 1 0 1 0 1 0 1 0 1 0 1 0 1 0 1 0 1 0 1 0 1 0 1 0 1 0 0.966233 1 0.966233 1 1 1 0.966233 1 1 0 1 0 0.966233 1 0.966233 1 1 1 0.966233 1 1 0 1 0 0.966233 1 0.966233 1 1 1 0.966233 1 1 0 1 0 0.966233 1 0.966233 1 1 1 0.966233 1 1 0 1 1 0.322115 1 0.497963 0 0.497963 1 0.322115 1 0.497963 0 0.497963 1 0.322115 1 0.497963 0 0.497963 1 0.322115 1 0.497963 0 0.497963 1 0.322115 1 0.497963 0 0.497963 1 0.322115 1 0.497963 0 0.497963 1 0.322115 1 0.497963 0 0.497963 1 0.322115 1 0.497963 0 0.497963 1 0.644238 1 0.785175 0 0.785175 1 0.644238 1 0.785175 0 0.785175 1 0.644238 1 0.785175 0 0.785175 1 0.644238 1 0.785175 0 0.785175 1 0.644238 1 0.785175 0 0.785175 1 0.644238 1 0.785175 0 0.785175 1 0.644238 1 0.785175 0 0.785175 1 0.644238 1 0.785175 0 0.785175</float_array>
          <technique_common>
            <accessor source="#candyCane_002-mesh-map-0-array" count="768" stride="2">
              <param name="S" type="float"/>
              <param name="T" type="float"/>
            </accessor>
          </technique_common>
        </source>
        <vertices id="candyCane_002-mesh-vertices">
          <input semantic="POSITION" source="#candyCane_002-mesh-positions"/>
        </vertices>
        <triangles count="256">
          <input semantic="VERTEX" source="#candyCane_002-mesh-vertices" offset="0"/>
          <input semantic="NORMAL" source="#candyCane_002-mesh-normals" offset="1"/>
          <input semantic="TEXCOORD" source="#candyCane_002-mesh-map-0" offset="2" set="0"/>
          <p>0 0 0 6 0 1 1 0 2 3 1 3 7 1 4 8 1 5 5 2 6 11 2 7 6 2 8 8 3 9 12 3 10 13 3 11 11 4 12 15 4 13 16 4 14 13 5 15 17 5 16 18 5 17 16 6 18 20 6 19 21 6 20 18 7 21 22 7 22 23 7 23 20 8 24 26 8 25 21 8 26 22 9 27 28 9 28 23 9 29 25 10 30 31 10 31 26 10 32 27 11 33 33 11 34 28 11 35 30 12 36 36 12 37 31 12 38 32 13 39 38 13 40 33 13 41 36 14 42 0 14 43 1 14 44 37 15 45 3 15 46 38 15 47 4 16 48 43 16 49 9 16 50 9 17 51 45 17 52 14 17 53 14 18 54 47 18 55 19 18 56 19 19 57 49 19 58 24 19 59 24 20 60 51 20 61 29 20 62 29 21 63 53 21 64 34 21 65 34 22 66 55 22 67 39 22 68 39 23 69 42 23 70 4 23 71 64 24 72 54 24 73 40 24 74 64 25 75 50 25 76 52 25 77 64 26 78 41 26 79 44 26 80 46 27 81 64 27 82 44 27 83 82 28 84 41 28 85 83 28 86 83 29 87 40 29 88 84 29 89 85 30 90 40 30 91 54 30 92 86 31 93 54 31 94 52 31 95 87 32 96 52 32 97 50 32 98 87 33 99 48 33 100 88 33 101 88 34 102 46 34 103 89 34 104 89 35 105 44 35 106 82 35 107 90 36 108 99 36 109 91 36 110 91 37 111 100 37 112 92 37 113 92 38 114 101 38 115 93 38 116 93 39 117 102 39 118 94 39 119 94 40 120 103 40 121 95 40 122 95 41 123 104 41 124 96 41 125 96 42 126 105 42 127 97 42 128 97 43 129 98 43 130 90 43 131 106 44 132 115 44 133 107 44 134 107 45 135 116 45 136 108 45 137 108 46 138 117 46 139 109 46 140 109 47 141 118 47 142 110 47 143 110 48 144 119 48 145 111 48 146 111 49 147 120 49 148 112 49 149 112 50 150 121 50 151 113 50 152 113 51 153 114 51 154 106 51 155 122 52 156 76 52 157 123 52 158 123 53 159 77 53 160 124 53 161 124 54 162 78 54 163 125 54 164 125 55 165 79 55 166 126 55 167 126 56 168 80 56 169 127 56 170 127 57 171 81 57 172 128 57 173 128 58 174 74 58 175 129 58 176 129 59 177 75 59 178 122 59 179 0 60 180 5 60 181 6 60 182 3 61 183 2 61 184 7 61 185 5 62 186 10 62 187 11 62 188 8 63 189 7 63 190 12 63 191 11 64 192 10 64 193 15 64 194 13 65 195 12 65 196 17 65 197 16 66 198 15 66 199 20 66 200 18 67 201 17 67 202 22 67 203 20 68 204 25 68 205 26 68 206 22 69 207 27 69 208 28 69 209 25 70 210 30 70 211 31 70 212 27 71 213 32 71 214 33 71 215 30 72 216 35 72 217 36 72 218 32 73 219 37 73 220 38 73 221 36 74 222 35 74 223 0 74 224 37 75 225 2 75 226 3 75 227 4 76 228 42 76 229 43 76 230 9 17 231 43 17 232 45 17 233 14 18 234 45 18 235 47 18 236 19 77 237 47 77 238 49 77 239 24 78 240 49 78 241 51 78 242 29 21 243 51 21 244 53 21 245 34 22 246 53 22 247 55 22 248 39 79 249 55 79 250 42 79 251 64 80 252 52 80 253 54 80 254 64 81 255 48 81 256 50 81 257 64 82 258 40 82 259 41 82 260 46 83 261 48 83 262 64 83 263 82 84 264 44 84 265 41 84 266 83 85 267 41 85 268 40 85 269 85 86 270 84 86 271 40 86 272 86 87 273 85 87 274 54 87 275 87 88 276 86 88 277 52 88 278 87 89 279 50 89 280 48 89 281 88 90 282 48 90 283 46 90 284 89 91 285 46 91 286 44 91 287 90 36 288 98 36 289 99 36 290 91 37 291 99 37 292 100 37 293 92 38 294 100 38 295 101 38 296 93 39 297 101 39 298 102 39 299 94 48 300 102 48 301 103 48 302 95 92 303 103 92 304 104 92 305 96 93 306 104 93 307 105 93 308 97 94 309 105 94 310 98 94 311 106 95 312 114 95 313 115 95 314 107 96 315 115 96 316 116 96 317 108 46 318 116 46 319 117 46 320 109 47 321 117 47 322 118 47 323 110 97 324 118 97 325 119 97 326 111 98 327 119 98 328 120 98 329 112 99 330 120 99 331 121 99 332 113 100 333 121 100 334 114 100 335 122 52 336 75 52 337 76 52 338 123 53 339 76 53 340 77 53 341 124 54 342 77 54 343 78 54 344 125 101 345 78 101 346 79 101 347 126 102 348 79 102 349 80 102 350 127 103 351 80 103 352 81 103 353 128 104 354 81 104 355 74 104 356 129 59 357 74 59 358 75 59 359 2 105 360 6 105 361 7 105 362 4 106 363 5 106 364 0 106 365 6 107 366 12 107 367 7 107 368 9 108 369 10 108 370 5 108 371 11 109 372 17 109 373 12 109 374 14 110 375 15 110 376 10 110 377 16 111 378 22 111 379 17 111 380 19 112 381 20 112 382 15 112 383 22 113 384 26 113 385 27 113 386 24 114 387 25 114 388 20 114 389 27 115 390 31 115 391 32 115 392 25 116 393 34 116 394 30 116 395 32 117 396 36 117 397 37 117 398 30 118 399 39 118 400 35 118 401 36 119 402 2 119 403 37 119 404 35 120 405 4 120 406 0 120 407 8 121 408 84 121 409 3 121 410 13 122 411 83 122 412 8 122 413 18 123 414 82 123 415 13 123 416 23 124 417 89 124 418 18 124 419 28 125 420 88 125 421 23 125 422 33 126 423 87 126 424 28 126 425 38 127 426 86 127 427 33 127 428 3 96 429 85 96 430 38 96 431 42 128 432 96 128 433 43 128 434 43 129 435 97 129 436 45 129 437 45 130 438 90 130 439 47 130 440 47 131 441 91 131 442 49 131 443 49 132 444 92 132 445 51 132 446 51 133 447 93 133 448 53 133 449 53 134 450 94 134 451 55 134 452 55 40 453 95 40 454 42 40 455 66 135 456 68 135 457 65 135 458 70 136 459 66 136 460 65 136 461 66 137 462 71 137 463 72 137 464 66 138 465 73 138 466 67 138 467 60 139 468 68 139 469 67 139 470 58 140 471 68 140 472 59 140 473 56 141 474 70 141 475 57 141 476 58 142 477 70 142 478 65 142 479 56 143 480 71 143 481 69 143 482 62 144 483 71 144 484 63 144 485 62 145 486 73 145 487 72 145 488 60 146 489 73 146 490 61 146 491 75 147 492 58 147 493 59 147 494 75 148 495 60 148 496 76 148 497 77 149 498 60 149 499 61 149 500 77 150 501 62 150 502 78 150 503 79 151 504 62 151 505 63 151 506 79 152 507 56 152 508 80 152 509 81 153 510 56 153 511 57 153 512 81 154 513 58 154 514 74 154 515 98 44 516 107 44 517 99 44 518 99 53 519 108 53 520 100 53 521 100 155 522 109 155 523 101 155 524 101 156 525 110 156 526 102 156 527 102 157 528 111 157 529 103 157 530 103 92 531 112 92 532 104 92 533 104 93 534 113 93 535 105 93 536 105 158 537 106 158 538 98 158 539 114 159 540 123 159 541 115 159 542 115 160 543 124 160 544 116 160 545 116 46 546 125 46 547 117 46 548 117 161 549 126 161 550 118 161 551 118 162 552 127 162 553 119 162 554 119 163 555 128 163 556 120 163 557 120 164 558 129 164 559 121 164 560 121 51 561 122 51 562 114 51 563 2 165 564 1 165 565 6 165 566 4 166 567 9 166 568 5 166 569 6 167 570 11 167 571 12 167 572 9 168 573 14 168 574 10 168 575 11 169 576 16 169 577 17 169 578 14 170 579 19 170 580 15 170 581 16 171 582 21 171 583 22 171 584 19 172 585 24 172 586 20 172 587 22 173 588 21 173 589 26 173 590 24 174 591 29 174 592 25 174 593 27 175 594 26 175 595 31 175 596 25 176 597 29 176 598 34 176 599 32 177 600 31 177 601 36 177 602 30 178 603 34 178 604 39 178 605 36 179 606 1 179 607 2 179 608 35 180 609 39 180 610 4 180 611 8 181 612 83 181 613 84 181 614 13 182 615 82 182 616 83 182 617 18 123 618 89 123 619 82 123 620 23 183 621 88 183 622 89 183 623 28 184 624 87 184 625 88 184 626 33 185 627 86 185 628 87 185 629 38 186 630 85 186 631 86 186 632 3 45 633 84 45 634 85 45 635 42 187 636 95 187 637 96 187 638 43 188 639 96 188 640 97 188 641 45 43 642 97 43 643 90 43 644 47 131 645 90 131 646 91 131 647 49 189 648 91 189 649 92 189 650 51 38 651 92 38 652 93 38 653 53 190 654 93 190 655 94 190 656 55 157 657 94 157 658 95 157 659 66 191 660 67 191 661 68 191 662 70 192 663 69 192 664 66 192 665 66 193 666 69 193 667 71 193 668 66 194 669 72 194 670 73 194 671 60 195 672 59 195 673 68 195 674 58 196 675 65 196 676 68 196 677 56 197 678 69 197 679 70 197 680 58 198 681 57 198 682 70 198 683 56 199 684 63 199 685 71 199 686 62 200 687 72 200 688 71 200 689 62 201 690 61 201 691 73 201 692 60 202 693 67 202 694 73 202 695 75 203 696 74 203 697 58 203 698 75 204 699 59 204 700 60 204 701 77 205 702 76 205 703 60 205 704 77 206 705 61 206 706 62 206 707 79 207 708 78 207 709 62 207 710 79 208 711 63 208 712 56 208 713 81 209 714 80 209 715 56 209 716 81 210 717 57 210 718 58 210 719 98 36 720 106 36 721 107 36 722 99 53 723 107 53 724 108 53 725 100 211 726 108 211 727 109 211 728 101 39 729 109 39 730 110 39 731 102 40 732 110 40 733 111 40 734 103 49 735 111 49 736 112 49 737 104 42 738 112 42 739 113 42 740 105 43 741 113 43 742 106 43 743 114 212 744 122 212 745 123 212 746 115 189 747 123 189 748 124 189 749 116 213 750 124 213 751 125 213 752 117 214 753 125 214 754 126 214 755 118 215 756 126 215 757 127 215 758 119 41 759 127 41 760 128 41 761 120 216 762 128 216 763 129 216 764 121 217 765 129 217 766 122 217 767</p>
        </triangles>
      </mesh>
    </geometry>
    <geometry id="candyCane-mesh" name="candyCane">
      <mesh>
        <source id="candyCane-mesh-positions">
          <float_array id="candyCane-mesh-positions-array" count="390">-0.04974073 1.246 -1.66893e-6 -0.2774897 1.340337 -1.66893e-6 -0.5052388 1.246 -1.66893e-6 -0.5995758 1.01825 -1.66893e-6 0.04459625 1.01825 -1.66893e-6 0.01696622 1.312706 0.2277483 -0.2774897 1.434673 0.2277483 -0.5719458 1.312706 0.2277483 -0.6939128 1.01825 0.2277483 0.1389332 1.01825 0.2277483 0.1780092 1.473749 0.3220854 -0.2774897 1.662423 0.3220854 -0.7329887 1.473749 0.3220854 -0.9216628 1.01825 0.3220854 0.3666833 1.01825 0.3220854 0.3390522 1.634792 0.2277483 -0.2774897 1.890172 0.2277483 -0.8940318 1.634792 0.2277483 -1.149412 1.01825 0.2277483 0.5944322 1.01825 0.2277483 0.4057582 1.701498 -1.66893e-6 -0.2774897 1.984509 -1.66893e-6 -0.9607377 1.701498 -1.66893e-6 -1.243749 1.01825 -1.66893e-6 0.6887692 1.01825 -1.66893e-6 0.3390522 1.634792 -0.2277505 -0.2774897 1.890172 -0.2277505 -0.8940318 1.634792 -0.2277505 -1.149412 1.01825 -0.2277505 0.5944322 1.01825 -0.2277505 0.1780092 1.473749 -0.3220877 -0.2774897 1.662423 -0.3220877 -0.7329887 1.473749 -0.3220877 -0.9216628 1.01825 -0.3220877 0.3666833 1.01825 -0.3220877 0.01696622 1.312706 -0.2277505 -0.2774897 1.434673 -0.2277505 -0.5719458 1.312706 -0.2277505 -0.6939128 1.01825 -0.2277505 0.1389332 1.01825 -0.2277505 -0.7437878 0.4608812 -1.66893e-6 -0.7958868 0.4608812 0.1257743 0.04459625 0.5762923 -1.66893e-6 0.1389332 0.5762923 0.2277483 -0.9216628 0.4608812 0.1778723 0.3666833 0.5762923 0.3220854 -1.047439 0.4608812 0.1257743 0.5944322 0.5762923 0.2277483 -1.099537 0.4608812 -1.66893e-6 0.6887692 0.5762923 -1.66893e-6 -1.047439 0.4608812 -0.1257776 0.5944322 0.5762923 -0.2277505 -0.9216628 0.4608812 -0.1778756 0.3666833 0.5762923 -0.3220877 -0.7958868 0.4608812 -0.1257776 0.1389332 0.5762923 -0.2277505 0.08540123 -1.801349 -1.66893e-6 0.1652182 -1.80057 0.2014633 0.3666833 -1.801349 0.2812804 0.5681483 -1.80057 0.2014633 0.6479652 -1.801349 -1.66893e-6 0.5681483 -1.80057 -0.2014656 0.3666833 -1.801349 -0.2812836 0.1652182 -1.80057 -0.2014656 -0.9216628 0.4207573 -1.66893e-6 0.3666833 -1.907469 0.1920443 0.3666833 -1.94862 -1.66893e-6 0.5587282 -1.907469 -1.66893e-6 0.5024792 -1.907469 0.1357952 0.1746371 -1.907469 -1.66893e-6 0.2308862 -1.907469 0.1357952 0.2308862 -1.907469 -0.1357976 0.3666833 -1.907469 -0.1920466 0.5024792 -1.907469 -0.1357976 0.3666833 -1.656075 0.3220854 0.5944322 -1.656075 0.2277483 0.6887692 -1.656075 -1.66893e-6 0.5944322 -1.656075 -0.2277505 0.3666833 -1.656075 -0.3220877 0.1389332 -1.656075 -0.2277505 0.04459625 -1.656075 -1.66893e-6 0.1389332 -1.656075 0.2277483 -0.9216628 0.6628032 0.3220854 -0.6939128 0.6628032 0.2277483 -0.5995758 0.6628032 -1.66893e-6 -0.6939128 0.6628032 -0.2277505 -0.9216628 0.6628032 -0.3220877 -1.149412 0.6628032 -0.2277505 -1.243749 0.6628032 -1.66893e-6 -1.149412 0.6628032 0.2277483 0.5944322 0.18867 0.2277483 0.6887692 0.18867 -1.66893e-6 0.5944322 0.18867 -0.2277505 0.3666833 0.18867 -0.3220877 0.1389332 0.18867 -0.2277505 0.04459625 0.18867 -1.66893e-6 0.1389332 0.18867 0.2277483 0.3666833 0.18867 0.3220854 0.5944322 -0.1965297 0.2277483 0.6887692 -0.1965297 -1.66893e-6 0.5944322 -0.1965297 -0.2277505 0.3666833 -0.1965297 -0.3220877 0.1389332 -0.1965297 -0.2277505 0.04459625 -0.1965297 -1.66893e-6 0.1389332 -0.1965297 0.2277483 0.3666833 -0.1965297 0.3220854 0.5944322 -0.5643048 0.2277483 0.6887692 -0.5643048 -1.66893e-6 0.5944322 -0.5643048 -0.2277505 0.3666833 -0.5643048 -0.3220877 0.1389332 -0.5643048 -0.2277505 0.04459625 -0.5643048 -1.66893e-6 0.1389332 -0.5643048 0.2277483 0.3666833 -0.5643048 0.3220854 0.5944322 -0.9321559 0.2277483 0.6887692 -0.9321559 -1.66893e-6 0.5944322 -0.9321559 -0.2277505 0.3666833 -0.9321559 -0.3220877 0.1389332 -0.9321559 -0.2277505 0.04459625 -0.9321559 -1.66893e-6 0.1389332 -0.9321559 0.2277483 0.3666833 -0.9321559 0.3220854 0.5944322 -1.286582 0.2277483 0.6887692 -1.286582 -1.66893e-6 0.5944322 -1.286582 -0.2277505 0.3666833 -1.286582 -0.3220877 0.1389332 -1.286582 -0.2277505 0.04459625 -1.286582 -1.66893e-6 0.1389332 -1.286582 0.2277483 0.3666833 -1.286582 0.3220854</float_array>
          <technique_common>
            <accessor source="#candyCane-mesh-positions-array" count="130" stride="3">
              <param name="X" type="float"/>
              <param name="Y" type="float"/>
              <param name="Z" type="float"/>
            </accessor>
          </technique_common>
        </source>
        <source id="candyCane-mesh-normals">
          <float_array id="candyCane-mesh-normals-array" count="654">-0.3574082 -0.862857 0.3574035 0.8628569 -0.3574049 0.3574069 -0.1565569 -0.3779639 0.9124874 0.3779644 -0.156558 0.912487 0.1565585 0.3779656 0.9124864 -0.3779656 0.1565586 0.9124864 0.3574073 0.8628563 0.357406 -0.8628562 0.3574075 0.3574062 0.3574071 0.8628559 -0.3574075 -0.8628557 0.3574073 -0.3574076 0.1565584 0.3779656 -0.9124864 -0.3779656 0.1565585 -0.9124864 -0.1565581 -0.3779644 -0.912487 0.3779644 -0.156558 -0.912487 -0.3574079 -0.8628565 -0.357405 0.8628565 -0.3574048 -0.3574081 -0.9238798 0 0.3826829 -0.3826831 0 0.9238798 0.3826849 0 0.923879 0.9238798 0 0.382683 0.9238791 0 -0.3826844 0.3826849 0 -0.923879 -0.3826831 0 -0.9238798 -0.9238792 0 -0.3826844 0.2191365 -0.9714629 -0.0907703 -0.09076941 -0.9714627 -0.2191374 0.09076952 -0.9714627 0.2191374 -0.09076941 -0.9714627 0.2191374 0.3194152 -0.5507467 0.7711369 0.7711384 -0.5507442 0.3194156 0.7711347 -0.550747 -0.3194199 0.3194152 -0.5507451 -0.7711381 -0.3194153 -0.550743 -0.7711395 -0.771138 -0.550744 -0.3194169 -0.7711382 -0.5507447 0.3194155 -0.3194161 -0.5507475 0.771136 0.9238798 0 0.382683 0.9238792 0 -0.3826845 0.3826848 0 -0.923879 -0.3826831 0 -0.9238797 -0.9238792 0 -0.3826843 -0.9238798 0 0.3826828 -0.3826833 0 0.9238797 0.3826848 0 0.923879 0.9238798 0 0.3826829 0.9238792 0 -0.3826844 0.3826848 0 -0.923879 -0.3826832 0 -0.9238797 -0.9238793 0 -0.3826843 -0.9238799 0 0.3826828 -0.3826833 0 0.9238796 0.3826848 0 0.923879 0.9238798 0 0.3826829 0.9238792 0 -0.3826844 0.382685 0 -0.923879 -0.382683 0 -0.9238798 -0.9238792 0 -0.3826844 -0.9238798 0 0.3826829 -0.382683 0 0.9238798 0.382685 0 0.923879 -0.3574053 -0.8628575 0.3574053 0.8628562 -0.3574059 0.3574076 -0.1565586 -0.3779659 0.9124863 0.3779661 -0.1565578 0.9124863 0.1565586 0.3779659 0.9124863 -0.3779655 0.1565585 0.9124865 0.3574068 0.8628563 0.3574066 -0.8628568 0.3574076 0.3574045 0.3574067 0.862856 -0.3574076 -0.8628563 0.3574074 -0.3574059 0.1565586 0.3779659 -0.9124863 -0.3779653 0.1565585 -0.9124866 -0.1565579 -0.3779662 -0.9124863 0.3779659 -0.1565578 -0.9124865 -0.3574051 -0.862857 -0.3574063 0.8628556 -0.3574059 -0.3574091 -0.9238799 0 0.3826828 0.9238798 0 0.3826829 0.9238792 0 -0.3826844 -0.9238792 0 -0.3826842 0.09076958 -0.9714627 -0.2191374 -0.2191372 -0.9714627 -0.09076929 0.2191364 -0.9714629 0.09077024 -0.2191373 -0.9714627 0.09076958 0.3194145 -0.5507475 0.7711365 0.771134 -0.5507482 0.3194196 0.771138 -0.550744 -0.3194169 0.3194159 -0.5507441 -0.7711384 -0.3194169 -0.5507444 -0.7711379 -0.7711387 -0.5507439 -0.3194156 -0.7711384 -0.5507445 0.3194153 -0.3194146 -0.5507455 0.771138 -0.9238798 0 0.3826828 -0.3826831 0 0.9238797 0.3826849 0 0.9238789 0.9238797 0 0.382683 0.9238791 0 -0.3826845 -0.9238793 0 -0.3826843 -0.9238799 0 0.3826828 -0.3826832 0 0.9238797 0.382685 0 0.9238789 -0.3826833 0 -0.9238796 -0.9238793 0 -0.3826842 -0.9238799 0 0.3826826 -0.3826833 0 0.9238796 0.3574052 -0.8628578 0.3574044 -0.8628562 -0.357406 0.3574076 0.1565577 -0.3779663 0.9124863 -0.377966 -0.1565577 0.9124864 -0.1565584 0.3779654 0.9124865 0.3779655 0.1565586 0.9124865 -0.3574067 0.8628565 0.3574061 0.8628569 0.3574072 0.3574048 -0.3574066 0.862856 -0.3574075 0.8628562 0.3574073 -0.3574064 -0.1565585 0.3779656 -0.9124864 0.3779652 0.1565585 -0.9124866 0.1565579 -0.3779665 -0.9124863 -0.3779657 -0.1565577 -0.9124865 0.357405 -0.8628574 -0.357406 -0.8628557 -0.3574058 -0.3574091 0.9238798 0 0.3826831 0.3826832 0 0.9238797 -0.3826844 0 0.9238792 -0.9238798 0 0.382683 -0.9238791 0 -0.3826845 -0.3826844 0 -0.9238792 0.3826833 0 -0.9238796 -0.9238798 0 0.3826828 -0.3826832 0 0.9238797 0.3826849 0 0.923879 0.9238798 0 0.3826829 0.9238792 0 -0.3826844 0.3826849 0 -0.923879 -0.3826832 0 -0.9238797 0.0864619 -0.9741427 0.2087352 -0.08646118 -0.9741427 0.2087357 -0.0864616 -0.9741424 -0.2087368 0.2087369 -0.9741423 -0.08646249 0.7295773 -0.6135065 0.3022031 0.2899308 -0.6239165 0.7257192 -0.7257213 -0.6239145 0.2899301 -0.3022022 -0.6135028 0.7295808 -0.7295803 -0.613502 -0.3022051 -0.2899338 -0.623915 -0.7257193 0.3022029 -0.6135062 -0.7295776 0.7257171 -0.62392 -0.2899287 0.3592339 -0.2298812 0.904492 0.8942612 -0.2511765 0.370415 0.9044927 -0.2298774 -0.3592348 0.3704159 -0.2511766 -0.8942609 -0.3592374 -0.2298841 -0.9044899 -0.8942593 -0.251182 -0.3704159 -0.9044916 -0.2298835 0.3592334 -0.3704137 -0.251182 0.8942602 0.3826848 0 -0.923879 -0.3826833 0 -0.9238797 -0.9238792 0 -0.3826842 0.382685 0 0.9238789 0.9238798 0 0.3826828 0.9238792 0 -0.3826844 -0.3826832 0 -0.9238798 -0.9238793 0 -0.3826842 -0.9238799 0 0.3826827 -0.3826832 0 0.9238798 0.3574079 -0.8628572 0.3574033 -0.8628571 -0.3574051 0.3574061 0.1565579 -0.3779641 0.9124872 -0.3779643 -0.156558 0.9124871 -0.1565586 0.3779663 0.9124862 0.3779661 0.1565585 0.9124863 -0.3574071 0.862856 0.3574071 0.8628563 0.3574071 0.3574063 -0.3574069 0.8628554 -0.3574086 0.862856 0.3574067 -0.3574076 -0.1565586 0.3779663 -0.9124862 0.3779661 0.1565585 -0.9124863 0.156558 -0.3779641 -0.9124872 -0.3779644 -0.156558 -0.912487 0.3574076 -0.8628567 -0.3574047 -0.8628566 -0.3574049 -0.3574078 0.9238798 0 0.3826829 0.3826835 0 0.9238796 -0.9238798 0 0.3826829 -0.9238792 0 -0.3826844 -0.3826845 0 -0.9238792 0.3826835 0 -0.9238796 -0.9238798 0 0.3826828 -0.3826832 0 0.9238796 0.9238792 0 -0.3826845 -0.3826832 0 -0.9238796 0.2087369 -0.9741423 0.08646184 -0.2087357 -0.9741427 0.08646076 -0.2087357 -0.9741427 -0.08646196 0.08646237 -0.9741424 -0.2087364 0.7257179 -0.6239196 0.2899277 0.3022045 -0.6135022 0.7295804 -0.7295808 -0.6135025 0.302203 -0.2899311 -0.6239144 0.7257209 -0.7257206 -0.6239148 -0.2899312 -0.3022007 -0.6135067 -0.7295782 0.2899335 -0.6239171 -0.7257177 0.7295771 -0.6135057 -0.3022053 0.3704154 -0.2511819 0.8942596 0.9044934 -0.2298763 0.3592332 0.8942606 -0.2511767 -0.3704164 0.3592376 -0.2298815 -0.9044904 -0.3704142 -0.2511767 -0.8942615 -0.9044909 -0.2298836 -0.359235 -0.8942599 -0.2511822 0.3704144 -0.3592337 -0.2298839 0.9044914 0.3826849 0 -0.9238789 0.9238798 0 0.382683 0.3826848 0 -0.923879 -0.3826832 0 -0.9238796 -0.9238792 0 -0.3826844 -0.3826832 0 0.9238796 0.3826848 0 0.923879</float_array>
          <technique_common>
            <accessor source="#candyCane-mesh-normals-array" count="218" stride="3">
              <param name="X" type="float"/>
              <param name="Y" type="float"/>
              <param name="Z" type="float"/>
            </accessor>
          </technique_common>
        </source>
        <source id="candyCane-mesh-map-0">
          <float_array id="candyCane-mesh-map-0-array" count="1536">0 1 0.125 0.8750001 0.125 1 0.375 1 0.25 0.8750001 0.375 0.8750001 0 0.8750001 0.125 0.75 0.125 0.8750001 0.375 0.8750001 0.25 0.75 0.375 0.75 0.125 0.75 0 0.625 0.125 0.625 0.375 0.75 0.25 0.625 0.375 0.625 0.125 0.625 0 0.5 0.125 0.5 0.375 0.625 0.25 0.5 0.375 0.5 0 0.5 0.125 0.375 0.125 0.5 0.25 0.5 0.375 0.375 0.375 0.5 0 0.375 0.125 0.25 0.125 0.375 0.25 0.375 0.375 0.25 0.375 0.375 0 0.25 0.125 0.125 0.125 0.25 0.25 0.25 0.375 0.125 0.375 0.25 0.125 0.125 0 0 0.125 0 0.25 0.125 0.375 0 0.375 0.125 1 0 0 1 0 0 1 0 0 1 0 0 1 0 0 1 0 0 1 0 0 1 0 0 1 0 0 1 0 0 1 0 0 1 0 0 1 0 0 1 0 0 1 0 0 1 0 0 0 1 0 1 0 1 0 1 0 1 0 1 0 1 0 1 0 1 0 1 0 1 0 1 1 0.804254 0 1 0 0.804254 1 0.804254 0 1 0 0.804254 0 0.804254 1 1 0 1 0 0.804254 1 1 0 1 0 0.804254 1 1 0 1 1 0.804254 0 1 0 0.804254 1 0.804254 0 1 0 0.804254 1 0.804254 0 1 0 0.804254 1 0.161562 0 0.322115 0 0.161562 1 0.161562 0 0.322115 0 0.161562 1 0.161562 0 0.322115 0 0.161562 1 0.161562 0 0.322115 0 0.161562 1 0.161562 0 0.322115 0 0.161562 1 0.161562 0 0.322115 0 0.161562 1 0.161562 0 0.322115 0 0.161562 1 0.161562 0 0.322115 0 0.161562 1 0.497963 0 0.644238 0 0.497963 1 0.497963 0 0.644238 0 0.497963 1 0.497963 0 0.644238 0 0.497963 1 0.497963 0 0.644238 0 0.497963 1 0.497963 0 0.644238 0 0.497963 1 0.497963 0 0.644238 0 0.497963 1 0.497963 0 0.644238 0 0.497963 1 0.497963 0 0.644238 0 0.497963 1 0.785175 0 0.966233 0 0.785175 1 0.785175 0 0.966233 0 0.785175 1 0.785175 0 0.966233 0 0.785175 1 0.785175 0 0.966233 0 0.785175 1 0.785175 0 0.966233 0 0.785175 1 0.785175 0 0.966233 0 0.785175 1 0.785175 0 0.966233 0 0.785175 1 0.785175 0 0.966233 0 0.785175 0 1 0 0.8750001 0.125 0.8750001 0.375 1 0.25 1 0.25 0.8750001 0 0.8750001 0 0.75 0.125 0.75 0.375 0.8750001 0.25 0.8750001 0.25 0.75 0.125 0.75 0 0.75 0 0.625 0.375 0.75 0.25 0.75 0.25 0.625 0.125 0.625 0 0.625 0 0.5 0.375 0.625 0.25 0.625 0.25 0.5 0 0.5 0 0.375 0.125 0.375 0.25 0.5 0.25 0.375 0.375 0.375 0 0.375 0 0.25 0.125 0.25 0.25 0.375 0.25 0.25 0.375 0.25 0 0.25 0 0.125 0.125 0.125 0.25 0.25 0.25 0.125 0.375 0.125 0.125 0.125 0 0.125 0 0 0.25 0.125 0.25 0 0.375 0 1 0 1 1 0 1 1 0 1 1 0 1 1 0 1 1 0 1 1 0 1 1 0 1 1 0 1 1 0 1 1 0 1 1 0 1 1 0 1 1 0 1 1 0 1 1 0 1 0 1 0 1 0 1 0 1 0 1 0 1 0 1 0 1 0 1 0 1 0 1 0 1 1 0.804254 1 1 0 1 1 0.804254 1 1 0 1 0 0.804254 1 0.804254 1 1 0 0.804254 1 0.804254 1 1 0 0.804254 1 0.804254 1 1 1 0.804254 1 1 0 1 1 0.804254 1 1 0 1 1 0.804254 1 1 0 1 1 0.161562 1 0.322115 0 0.322115 1 0.161562 1 0.322115 0 0.322115 1 0.161562 1 0.322115 0 0.322115 1 0.161562 1 0.322115 0 0.322115 1 0.161562 1 0.322115 0 0.322115 1 0.161562 1 0.322115 0 0.322115 1 0.161562 1 0.322115 0 0.322115 1 0.161562 1 0.322115 0 0.322115 1 0.497963 1 0.644238 0 0.644238 1 0.497963 1 0.644238 0 0.644238 1 0.497963 1 0.644238 0 0.644238 1 0.497963 1 0.644238 0 0.644238 1 0.497963 1 0.644238 0 0.644238 1 0.497963 1 0.644238 0 0.644238 1 0.497963 1 0.644238 0 0.644238 1 0.497963 1 0.644238 0 0.644238 1 0.785175 1 0.966233 0 0.966233 1 0.785175 1 0.966233 0 0.966233 1 0.785175 1 0.966233 0 0.966233 1 0.785175 1 0.966233 0 0.966233 1 0.785175 1 0.966233 0 0.966233 1 0.785175 1 0.966233 0 0.966233 1 0.785175 1 0.966233 0 0.966233 1 0.785175 1 0.966233 0 0.966233 0.25 1 0.125 0.8750001 0.25 0.8750001 0.8750001 1 1 0.8750001 1 1 0.125 0.8750001 0.25 0.75 0.25 0.8750001 0.8750001 0.8750001 1 0.75 1 0.8750001 0.125 0.75 0.25 0.625 0.25 0.75 0.8750001 0.75 1 0.625 1 0.75 0.125 0.625 0.25 0.5 0.25 0.625 0.8750001 0.625 1 0.5 1 0.625 0.25 0.5 0.125 0.375 0.25 0.375 0.8750001 0.5 1 0.375 1 0.5 0.25 0.375 0.125 0.25 0.25 0.25 1 0.375 0.8750001 0.25 1 0.25 0.25 0.25 0.125 0.125 0.25 0.125 1 0.25 0.8750001 0.125 1 0.125 0.125 0.125 0.25 0 0.25 0.125 1 0.125 0.8750001 0 1 0 1 0 0 0.804254 0 0 1 0 0 0.804254 0 0 1 0 0 0.804254 0 0 1 0 0 0.804254 0 0 1 0 0 0.804254 0 0 1 0 0 0.804254 0 0 1 0 0 0.804254 0 0 1 0 0 0.804254 0 0 1 0 0 0.161562 0 0 1 0 0 0.161562 0 0 1 0 0 0.161562 0 0 1 0 0 0.161562 0 0 1 0 0 0.161562 0 0 1 0 0 0.161562 0 0 1 0 0 0.161562 0 0 1 0 0 0.161562 0 0 0 1 0 1 0 1 0 1 0 1 0 1 0 1 0 1 0 1 0 1 0 1 0 1 0 1 0 1 0 1 0 1 0 1 0 1 0 1 0 1 0 1 0 1 0 1 0 1 0 1 0 1 0 1 0 1 0 1 0 1 0 1 0 1 0 1 0 1 0 1 0 1 0 0.966233 1 1 0 1 1 0.966233 0 1 0 0.966233 0 0.966233 1 1 0 1 1 0.966233 0 1 0 0.966233 0 0.966233 1 1 0 1 1 0.966233 0 1 0 0.966233 0 0.966233 1 1 0 1 1 0.966233 0 1 0 0.966233 1 0.322115 0 0.497963 0 0.322115 1 0.322115 0 0.497963 0 0.322115 1 0.322115 0 0.497963 0 0.322115 1 0.322115 0 0.497963 0 0.322115 1 0.322115 0 0.497963 0 0.322115 1 0.322115 0 0.497963 0 0.322115 1 0.322115 0 0.497963 0 0.322115 1 0.322115 0 0.497963 0 0.322115 1 0.644238 0 0.785175 0 0.644238 1 0.644238 0 0.785175 0 0.644238 1 0.644238 0 0.785175 0 0.644238 1 0.644238 0 0.785175 0 0.644238 1 0.644238 0 0.785175 0 0.644238 1 0.644238 0 0.785175 0 0.644238 1 0.644238 0 0.785175 0 0.644238 1 0.644238 0 0.785175 0 0.644238 0.25 1 0.125 1 0.125 0.8750001 0.8750001 1 0.8750001 0.8750001 1 0.8750001 0.125 0.8750001 0.125 0.75 0.25 0.75 0.8750001 0.8750001 0.8750001 0.75 1 0.75 0.125 0.75 0.125 0.625 0.25 0.625 0.8750001 0.75 0.8750001 0.625 1 0.625 0.125 0.625 0.125 0.5 0.25 0.5 0.8750001 0.625 0.8750001 0.5 1 0.5 0.25 0.5 0.125 0.5 0.125 0.375 0.8750001 0.5 0.8750001 0.375 1 0.375 0.25 0.375 0.125 0.375 0.125 0.25 1 0.375 0.8750001 0.375 0.8750001 0.25 0.25 0.25 0.125 0.25 0.125 0.125 1 0.25 0.8750001 0.25 0.8750001 0.125 0.125 0.125 0.125 0 0.25 0 1 0.125 0.8750001 0.125 0.8750001 0 1 0 1 0.804254 0 0.804254 1 0 1 0.804254 0 0.804254 1 0 1 0.804254 0 0.804254 1 0 1 0.804254 0 0.804254 1 0 1 0.804254 0 0.804254 1 0 1 0.804254 0 0.804254 1 0 1 0.804254 0 0.804254 1 0 1 0.804254 0 0.804254 1 0 1 0.161562 0 0.161562 1 0 1 0.161562 0 0.161562 1 0 1 0.161562 0 0.161562 1 0 1 0.161562 0 0.161562 1 0 1 0.161562 0 0.161562 1 0 1 0.161562 0 0.161562 1 0 1 0.161562 0 0.161562 1 0 1 0.161562 0 0.161562 0 1 0 1 0 1 0 1 0 1 0 1 0 1 0 1 0 1 0 1 0 1 0 1 0 1 0 1 0 1 0 1 0 1 0 1 0 1 0 1 0 1 0 1 0 1 0 1 0 1 0 1 0 1 0 1 0 1 0 1 0 1 0 1 0 1 0 1 0 1 0 1 0 0.966233 1 0.966233 1 1 1 0.966233 1 1 0 1 0 0.966233 1 0.966233 1 1 1 0.966233 1 1 0 1 0 0.966233 1 0.966233 1 1 1 0.966233 1 1 0 1 0 0.966233 1 0.966233 1 1 1 0.966233 1 1 0 1 1 0.322115 1 0.497963 0 0.497963 1 0.322115 1 0.497963 0 0.497963 1 0.322115 1 0.497963 0 0.497963 1 0.322115 1 0.497963 0 0.497963 1 0.322115 1 0.497963 0 0.497963 1 0.322115 1 0.497963 0 0.497963 1 0.322115 1 0.497963 0 0.497963 1 0.322115 1 0.497963 0 0.497963 1 0.644238 1 0.785175 0 0.785175 1 0.644238 1 0.785175 0 0.785175 1 0.644238 1 0.785175 0 0.785175 1 0.644238 1 0.785175 0 0.785175 1 0.644238 1 0.785175 0 0.785175 1 0.644238 1 0.785175 0 0.785175 1 0.644238 1 0.785175 0 0.785175 1 0.644238 1 0.785175 0 0.785175</float_array>
          <technique_common>
            <accessor source="#candyCane-mesh-map-0-array" count="768" stride="2">
              <param name="S" type="float"/>
              <param name="T" type="float"/>
            </accessor>
          </technique_common>
        </source>
        <vertices id="candyCane-mesh-vertices">
          <input semantic="POSITION" source="#candyCane-mesh-positions"/>
        </vertices>
        <triangles material="candyCaneRed_001-material" count="120">
          <input semantic="VERTEX" source="#candyCane-mesh-vertices" offset="0"/>
          <input semantic="NORMAL" source="#candyCane-mesh-normals" offset="1"/>
          <input semantic="TEXCOORD" source="#candyCane-mesh-map-0" offset="2" set="0"/>
          <p>0 0 0 6 0 1 1 0 2 3 1 3 7 1 4 8 1 5 5 2 6 11 2 7 6 2 8 8 3 9 12 3 10 13 3 11 11 4 12 15 4 13 16 4 14 13 5 15 17 5 16 18 5 17 16 6 18 20 6 19 21 6 20 18 7 21 22 7 22 23 7 23 20 8 24 26 8 25 21 8 26 22 9 27 28 9 28 23 9 29 25 10 30 31 10 31 26 10 32 27 11 33 33 11 34 28 11 35 30 12 36 36 12 37 31 12 38 32 13 39 38 13 40 33 13 41 36 14 42 0 14 43 1 14 44 37 15 45 3 15 46 38 15 47 4 16 48 43 16 49 9 16 50 9 17 51 45 17 52 14 17 53 14 18 54 47 18 55 19 18 56 19 19 57 49 19 58 24 19 59 24 20 60 51 20 61 29 20 62 29 21 63 53 21 64 34 21 65 34 22 66 55 22 67 39 22 68 39 23 69 42 23 70 4 23 71 64 24 72 54 24 73 40 24 74 64 25 75 50 25 76 52 25 77 64 26 78 41 26 79 44 26 80 46 27 81 64 27 82 44 27 83 82 28 84 41 28 85 83 28 86 83 29 87 40 29 88 84 29 89 85 30 90 40 30 91 54 30 92 86 31 93 54 31 94 52 31 95 87 32 96 52 32 97 50 32 98 87 33 99 48 33 100 88 33 101 88 34 102 46 34 103 89 34 104 89 35 105 44 35 106 82 35 107 90 36 108 99 36 109 91 36 110 91 37 111 100 37 112 92 37 113 92 38 114 101 38 115 93 38 116 93 39 117 102 39 118 94 39 119 94 40 120 103 40 121 95 40 122 95 41 123 104 41 124 96 41 125 96 42 126 105 42 127 97 42 128 97 43 129 98 43 130 90 43 131 106 44 132 115 44 133 107 44 134 107 45 135 116 45 136 108 45 137 108 46 138 117 46 139 109 46 140 109 47 141 118 47 142 110 47 143 110 48 144 119 48 145 111 48 146 111 49 147 120 49 148 112 49 149 112 50 150 121 50 151 113 50 152 113 51 153 114 51 154 106 51 155 122 52 156 76 52 157 123 52 158 123 53 159 77 53 160 124 53 161 124 54 162 78 54 163 125 54 164 125 55 165 79 55 166 126 55 167 126 56 168 80 56 169 127 56 170 127 57 171 81 57 172 128 57 173 128 58 174 74 58 175 129 58 176 129 59 177 75 59 178 122 59 179 0 60 180 5 60 181 6 60 182 3 61 183 2 61 184 7 61 185 5 62 186 10 62 187 11 62 188 8 63 189 7 63 190 12 63 191 11 64 192 10 64 193 15 64 194 13 65 195 12 65 196 17 65 197 16 66 198 15 66 199 20 66 200 18 67 201 17 67 202 22 67 203 20 68 204 25 68 205 26 68 206 22 69 207 27 69 208 28 69 209 25 70 210 30 70 211 31 70 212 27 71 213 32 71 214 33 71 215 30 72 216 35 72 217 36 72 218 32 73 219 37 73 220 38 73 221 36 74 222 35 74 223 0 74 224 37 75 225 2 75 226 3 75 227 4 76 228 42 76 229 43 76 230 9 17 231 43 17 232 45 17 233 14 18 234 45 18 235 47 18 236 19 77 237 47 77 238 49 77 239 24 78 240 49 78 241 51 78 242 29 21 243 51 21 244 53 21 245 34 22 246 53 22 247 55 22 248 39 79 249 55 79 250 42 79 251 64 80 252 52 80 253 54 80 254 64 81 255 48 81 256 50 81 257 64 82 258 40 82 259 41 82 260 46 83 261 48 83 262 64 83 263 82 84 264 44 84 265 41 84 266 83 85 267 41 85 268 40 85 269 85 86 270 84 86 271 40 86 272 86 87 273 85 87 274 54 87 275 87 88 276 86 88 277 52 88 278 87 89 279 50 89 280 48 89 281 88 90 282 48 90 283 46 90 284 89 91 285 46 91 286 44 91 287 90 36 288 98 36 289 99 36 290 91 37 291 99 37 292 100 37 293 92 38 294 100 38 295 101 38 296 93 39 297 101 39 298 102 39 299 94 48 300 102 48 301 103 48 302 95 92 303 103 92 304 104 92 305 96 93 306 104 93 307 105 93 308 97 94 309 105 94 310 98 94 311 106 95 312 114 95 313 115 95 314 107 96 315 115 96 316 116 96 317 108 46 318 116 46 319 117 46 320 109 47 321 117 47 322 118 47 323 110 97 324 118 97 325 119 97 326 111 98 327 119 98 328 120 98 329 112 99 330 120 99 331 121 99 332 113 100 333 121 100 334 114 100 335 122 52 336 75 52 337 76 52 338 123 53 339 76 53 340 77 53 341 124 54 342 77 54 343 78 54 344 125 101 345 78 101 346 79 101 347 126 102 348 79 102 349 80 102 350 127 103 351 80 103 352 81 103 353 128 104 354 81 104 355 74 104 356 129 59 357 74 59 358 75 59 359</p>
        </triangles>
        <triangles material="candyCaneWhite_001-material" count="136">
          <input semantic="VERTEX" source="#candyCane-mesh-vertices" offset="0"/>
          <input semantic="NORMAL" source="#candyCane-mesh-normals" offset="1"/>
          <input semantic="TEXCOORD" source="#candyCane-mesh-map-0" offset="2" set="0"/>
          <p>2 105 360 6 105 361 7 105 362 4 106 363 5 106 364 0 106 365 6 107 366 12 107 367 7 107 368 9 108 369 10 108 370 5 108 371 11 109 372 17 109 373 12 109 374 14 110 375 15 110 376 10 110 377 16 111 378 22 111 379 17 111 380 19 112 381 20 112 382 15 112 383 22 113 384 26 113 385 27 113 386 24 114 387 25 114 388 20 114 389 27 115 390 31 115 391 32 115 392 25 116 393 34 116 394 30 116 395 32 117 396 36 117 397 37 117 398 30 118 399 39 118 400 35 118 401 36 119 402 2 119 403 37 119 404 35 120 405 4 120 406 0 120 407 8 121 408 84 121 409 3 121 410 13 122 411 83 122 412 8 122 413 18 123 414 82 123 415 13 123 416 23 124 417 89 124 418 18 124 419 28 125 420 88 125 421 23 125 422 33 126 423 87 126 424 28 126 425 38 127 426 86 127 427 33 127 428 3 96 429 85 96 430 38 96 431 42 128 432 96 128 433 43 128 434 43 129 435 97 129 436 45 129 437 45 130 438 90 130 439 47 130 440 47 131 441 91 131 442 49 131 443 49 132 444 92 132 445 51 132 446 51 133 447 93 133 448 53 133 449 53 134 450 94 134 451 55 134 452 55 40 453 95 40 454 42 40 455 66 135 456 68 135 457 65 135 458 70 136 459 66 136 460 65 136 461 66 137 462 71 137 463 72 137 464 66 138 465 73 138 466 67 138 467 60 139 468 68 139 469 67 139 470 58 140 471 68 140 472 59 140 473 56 141 474 70 141 475 57 141 476 58 142 477 70 142 478 65 142 479 56 143 480 71 143 481 69 143 482 62 144 483 71 144 484 63 144 485 62 145 486 73 145 487 72 145 488 60 146 489 73 146 490 61 146 491 75 147 492 58 147 493 59 147 494 75 148 495 60 148 496 76 148 497 77 149 498 60 149 499 61 149 500 77 150 501 62 150 502 78 150 503 79 151 504 62 151 505 63 151 506 79 152 507 56 152 508 80 152 509 81 153 510 56 153 511 57 153 512 81 154 513 58 154 514 74 154 515 98 44 516 107 44 517 99 44 518 99 53 519 108 53 520 100 53 521 100 155 522 109 155 523 101 155 524 101 156 525 110 156 526 102 156 527 102 157 528 111 157 529 103 157 530 103 92 531 112 92 532 104 92 533 104 93 534 113 93 535 105 93 536 105 158 537 106 158 538 98 158 539 114 159 540 123 159 541 115 159 542 115 160 543 124 160 544 116 160 545 116 46 546 125 46 547 117 46 548 117 161 549 126 161 550 118 161 551 118 162 552 127 162 553 119 162 554 119 163 555 128 163 556 120 163 557 120 164 558 129 164 559 121 164 560 121 51 561 122 51 562 114 51 563 2 165 564 1 165 565 6 165 566 4 166 567 9 166 568 5 166 569 6 167 570 11 167 571 12 167 572 9 168 573 14 168 574 10 168 575 11 169 576 16 169 577 17 169 578 14 170 579 19 170 580 15 170 581 16 171 582 21 171 583 22 171 584 19 172 585 24 172 586 20 172 587 22 173 588 21 173 589 26 173 590 24 174 591 29 174 592 25 174 593 27 175 594 26 175 595 31 175 596 25 176 597 29 176 598 34 176 599 32 177 600 31 177 601 36 177 602 30 178 603 34 178 604 39 178 605 36 179 606 1 179 607 2 179 608 35 180 609 39 180 610 4 180 611 8 181 612 83 181 613 84 181 614 13 182 615 82 182 616 83 182 617 18 123 618 89 123 619 82 123 620 23 183 621 88 183 622 89 183 623 28 184 624 87 184 625 88 184 626 33 185 627 86 185 628 87 185 629 38 186 630 85 186 631 86 186 632 3 45 633 84 45 634 85 45 635 42 187 636 95 187 637 96 187 638 43 188 639 96 188 640 97 188 641 45 43 642 97 43 643 90 43 644 47 131 645 90 131 646 91 131 647 49 189 648 91 189 649 92 189 650 51 38 651 92 38 652 93 38 653 53 190 654 93 190 655 94 190 656 55 157 657 94 157 658 95 157 659 66 191 660 67 191 661 68 191 662 70 192 663 69 192 664 66 192 665 66 193 666 69 193 667 71 193 668 66 194 669 72 194 670 73 194 671 60 195 672 59 195 673 68 195 674 58 196 675 65 196 676 68 196 677 56 197 678 69 197 679 70 197 680 58 198 681 57 198 682 70 198 683 56 199 684 63 199 685 71 199 686 62 200 687 72 200 688 71 200 689 62 201 690 61 201 691 73 201 692 60 202 693 67 202 694 73 202 695 75 203 696 74 203 697 58 203 698 75 204 699 59 204 700 60 204 701 77 205 702 76 205 703 60 205 704 77 206 705 61 206 706 62 206 707 79 207 708 78 207 709 62 207 710 79 208 711 63 208 712 56 208 713 81 209 714 80 209 715 56 209 716 81 210 717 57 210 718 58 210 719 98 36 720 106 36 721 107 36 722 99 53 723 107 53 724 108 53 725 100 211 726 108 211 727 109 211 728 101 39 729 109 39 730 110 39 731 102 40 732 110 40 733 111 40 734 103 49 735 111 49 736 112 49 737 104 42 738 112 42 739 113 42 740 105 43 741 113 43 742 106 43 743 114 212 744 122 212 745 123 212 746 115 189 747 123 189 748 124 189 749 116 213 750 124 213 751 125 213 752 117 214 753 125 214 754 126 214 755 118 215 756 126 215 757 127 215 758 119 41 759 127 41 760 128 41 761 120 216 762 128 216 763 129 216 764 121 217 765 129 217 766 122 217 767</p>
        </triangles>
      </mesh>
    </geometry>
  </library_geometries>
  <library_visual_scenes>
    <visual_scene id="Scene" name="Scene">
      <node id="base00" name="base00" type="NODE">
        <matrix sid="transform">1 0 0 0 0 1 0 0 0 0 1 0 0 0 0 1</matrix>
        <node id="start01" name="start01" type="NODE">
          <matrix sid="transform">1 0 0 0 0 1 0 0 0 0 1 0 0 0 0 1</matrix>
          <node id="candyCane" name="candyCane" type="NODE">
            <matrix sid="transform">1 0 0 0 0 -2.8213e-7 -1 0 0 1 -2.8213e-7 0 0 0 0 1</matrix>
            <instance_geometry url="#candyCane-mesh" name="candyCane">
              <bind_material>
                <technique_common>
                  <instance_material symbol="candyCaneRed_001-material" target="#candyCaneRed_001-material">
                    <bind_vertex_input semantic="candyCane-mesh-map-0" input_semantic="TEXCOORD" input_set="0"/>
                  </instance_material>
                  <instance_material symbol="candyCaneWhite_001-material" target="#candyCaneWhite_001-material">
                    <bind_vertex_input semantic="candyCane-mesh-map-0" input_semantic="TEXCOORD" input_set="0"/>
                  </instance_material>
                </technique_common>
              </bind_material>
            </instance_geometry>
          </node>
          <node id="Colmesh-1" name="Colmesh-1" type="NODE">
            <matrix sid="transform">1 0 0 0 0 -2.8213e-7 -1 0 0 1 -2.8213e-7 0 0 0 0 1</matrix>
            <instance_geometry url="#candyCane_002-mesh" name="Colmesh-1"/>
          </node>
        </node>
      </node>
    </visual_scene>
  </library_visual_scenes>
  <scene>
    <instance_visual_scene url="#Scene"/>
  </scene>
</COLLADA>