<?xml version="1.0" encoding="utf-8"?>
<COLLADA xmlns="http://www.collada.org/2005/11/COLLADASchema" version="1.4.1" xmlns:xsi="http://www.w3.org/2001/XMLSchema-instance">
  <asset>
    <contributor>
      <author>Blender User</author>
      <authoring_tool>Blender 3.4.1 commit date:2022-12-19, commit time:17:00, hash:55485cb379f7</authoring_tool>
    </contributor>
    <created>2025-12-20T16:38:22</created>
    <modified>2025-12-20T16:38:22</modified>
    <unit name="meter" meter="1"/>
    <up_axis>Z_UP</up_axis>
  </asset>
  <library_effects>
    <effect id="deadTree_001-effect">
      <profile_COMMON>
        <technique sid="common">
          <lambert>
            <emission>
              <color sid="emission">0 0 0 1</color>
            </emission>
            <diffuse>
              <color sid="diffuse">1 1 1 1</color>
            </diffuse>
            <index_of_refraction>
              <float sid="ior">1.45</float>
            </index_of_refraction>
          </lambert>
        </technique>
      </profile_COMMON>
    </effect>
    <effect id="deadTree_002-effect">
      <profile_COMMON>
        <technique sid="common">
          <lambert>
            <emission>
              <color sid="emission">0 0 0 1</color>
            </emission>
            <diffuse>
              <color sid="diffuse">0.0684 0.0206 0 1</color>
            </diffuse>
            <index_of_refraction>
              <float sid="ior">1.45</float>
            </index_of_refraction>
          </lambert>
        </technique>
      </profile_COMMON>
    </effect>
  </library_effects>
  <library_images/>
  <library_materials>
    <material id="deadTree_001-material" name="deadTree.001">
      <instance_effect url="#deadTree_001-effect"/>
    </material>
    <material id="deadTree_002-material" name="deadTree.002">
      <instance_effect url="#deadTree_002-effect"/>
    </material>
  </library_materials>
  <library_geometries>
    <geometry id="Mesh_007-mesh" name="Mesh.007">
      <mesh>
        <source id="Mesh_007-mesh-positions">
          <float_array id="Mesh_007-mesh-positions-array" count="450">2.733668 0.1315277 -0.2173213 2.529982 0.0409516 -0.1206769 2.518857 -0.08875524 -0.139182 2.592102 -0.1809445 -0.1977167 2.70681 -0.1816121 -0.2619953 2.795788 -0.09036791 -0.2943621 2.806913 0.03933894 -0.2758579 2.899108 0.07513558 0.07850456 2.695422 -0.01544106 0.1751489 2.684298 -0.1451479 0.1566448 2.757543 -0.2373377 0.09810924 2.872251 -0.2380052 0.03383255 2.961229 -0.1467605 0.001464843 2.972353 -0.01705324 0.01996898 3.191688 0.07156217 0.7944088 3.05644 0.01141965 0.8585806 3.060979 -0.07483875 0.8713026 3.12154 -0.1361867 0.8574438 3.202646 -0.136685 0.8251219 3.256787 -0.0760442 0.793273 3.252248 0.01021564 0.78055 3.586656 0.3381122 1.543779 3.560413 0.3456501 1.561889 3.543719 0.3307422 1.585815 3.546348 0.3021196 1.601539 3.566762 0.2765492 1.599852 3.593005 0.2690119 1.581741 3.609699 0.2839187 1.557815 3.60707 0.3125423 1.542092 3.130699 -0.07893717 0.370389 3.127637 -0.1862827 0.3679562 3.056588 -0.2617766 0.4000568 2.959174 -0.2611963 0.4478884 2.892457 -0.1848798 0.4834299 2.89552 -0.07753431 0.4858637 3.063983 -0.002621293 0.4059315 3.401753 0.2360042 1.372548 3.394266 0.1709522 1.360677 3.347899 0.1247667 1.37629 3.289811 0.1245015 1.410239 3.25403 0.1703132 1.442639 3.261518 0.2353638 1.454511 3.365973 0.281814 1.404948 3.275869 0.05033624 1.124003 3.282804 -0.02257788 1.145251 3.235676 -0.0750128 1.177775 3.162096 -0.07625544 1.202523 3.105163 -0.02557528 1.205 3.098229 0.04733741 1.183753 3.218937 0.1010144 1.12648 2.725417 0.1554464 -0.232294 2.598089 0.1659778 -0.165369 2.774268 0.1135953 0.1568498 2.902994 0.11597 0.08522891 2.508392 0.05893838 -0.129321 2.672806 0.01360833 0.1944475 2.786894 0.04616296 -0.3116541 2.775769 -0.08354437 -0.3301582 2.686792 -0.1747881 -0.2977915 2.572083 -0.1741205 -0.2335138 2.498838 -0.08193171 -0.1749773 2.952831 0.03653609 0.4609623 3.064676 0.03815305 0.4062586 2.869972 -0.04842913 0.498642 3.189515 0.1127122 0.7892065 3.094532 0.1103948 0.8254385 3.124037 0.1350964 1.146089 3.213874 0.1398323 1.115511 3.026569 0.04005372 0.8617544 3.067665 0.07550752 1.183681 3.236986 0.2654041 1.463655 3.290296 0.3192209 1.439406 3.525068 0.3624901 1.605124 3.549231 0.3814048 1.565757 3.359792 0.3198089 1.389926 3.582942 0.3778728 1.532207 -2.468254 -0.3947441 -0.5004206 -2.465718 -0.06098711 -0.6634679 -2.470903 0.2749449 -0.5050163 -2.489544 0.2801974 0.2711487 -2.49208 -0.05355966 0.4341965 -2.486895 -0.3894916 0.2757454 -2.477025 -0.5308158 -0.1113862 4.798594 -0.1576749 -0.01882171 4.808657 -0.01584702 -0.07369899 4.806146 0.119621 0.003025054 4.775783 0.1042689 0.3207312 4.765718 -0.03755831 0.3756085 4.768231 -0.1730271 0.2988834 4.781849 -0.2227808 0.1355066 6.121784 -0.1819171 0.7093105 6.127724 -0.1273161 0.6906576 6.110511 -0.1315681 0.7713108 6.123581 -0.07520651 0.7192507 6.111786 -0.05611115 0.7783423 6.099242 -0.08121919 0.833312 6.093302 -0.1358218 0.851964 6.097445 -0.1879305 0.8233729 6.109234 -0.2070246 0.7642813 -0.03684711 -0.3186166 0.2842283 -0.03458356 -0.1839278 0.5805369 -0.02910709 0.09386599 0.6812086 -0.02362346 0.3520384 0.5272713 -0.02361011 0.3046658 -0.08740806 -0.02908706 0.02687132 -0.1880807 -0.03457069 -0.2313002 -0.03414344 2.386873 -0.420037 -0.299798 2.377356 -0.3210545 -0.07512378 2.378101 -0.1117707 0.005687713 2.388671 0.08521735 -0.1047039 2.41239 0.05553305 -0.5663061 2.411645 -0.15375 -0.6471171 2.401075 -0.3507364 -0.536726 5.270663 0.0363487 0.2986469 5.294321 0.04831004 0.05110454 5.296278 -0.05724215 -0.008674621 5.288439 -0.1677486 0.03408241 5.275389 -0.2184768 0.1543283 5.264782 -0.1797107 0.2816258 5.262824 -0.07415854 0.341404 -3.194897 -0.396727 -0.5910835 -3.192361 -0.0629692 -0.7541304 -3.205542 -0.05925589 -0.2052984 -3.197546 0.2729628 -0.5956793 -3.207416 0.4142869 -0.2085494 -3.216187 0.2782146 0.1804866 -3.218723 -0.05554163 0.3435335 -3.213537 -0.3914744 0.1850824 -3.203668 -0.5327978 -0.2020502 -2.467913 0.3392065 -0.5296602 -2.480942 0.4851496 -0.1195325 -0.01778173 0.5081542 0.2077713 -0.02153158 0.3680135 -0.1143703 -2.492902 0.3455074 0.2928124 -0.01946926 0.4174514 0.5469751 4.814058 0.1843979 -0.01862621 4.797853 0.2380076 0.1693267 5.296025 0.154864 0.1791067 5.311474 0.112335 0.03327274 4.778299 0.1680551 0.3454323 5.271565 0.09918558 0.325449 2.392301 0.1503795 -0.08433341 2.406002 0.2230482 -0.3480244 2.415073 0.1191115 -0.5925875 6.091252 -0.01799619 0.8595095 6.119246 0.006893992 0.7830725 6.146492 -0.01241922 0.7025137 -3.194784 0.3376561 -0.619225 -3.207538 0.4791317 -0.2089891 -3.219192 0.3432107 0.2031517</float_array>
          <technique_common>
            <accessor source="#Mesh_007-mesh-positions-array" count="150" stride="3">
              <param name="X" type="float"/>
              <param name="Y" type="float"/>
              <param name="Z" type="float"/>
            </accessor>
          </technique_common>
        </source>
        <source id="Mesh_007-mesh-normals">
          <float_array id="Mesh_007-mesh-normals-array" count="1023">0.1074942 0.9898502 0.09296071 0.07519537 0.9865768 0.1449549 0.06310391 0.9872613 0.146058 -0.6003126 0.6750971 0.4287991 -0.5505272 0.7083319 0.4417984 -0.6095606 0.6591259 0.4404418 -0.7892065 -0.07106709 0.6100023 -0.8576271 0.001642048 0.5142697 -0.8571857 4.73266e-5 0.5150075 -0.6766812 -0.6939128 0.2461459 -0.6553053 -0.7003356 0.2830283 -0.6766758 -0.6939154 0.246153 -0.08460104 -0.9864266 -0.1407312 -0.05807632 -0.9939361 -0.09337151 -0.08460098 -0.9864268 -0.1407296 0.5570274 -0.7011047 -0.4451662 0.5825482 -0.7090582 -0.3973339 0.5821968 -0.7091732 -0.3976435 0.8723611 -0.005076944 -0.4888358 0.8923009 -0.0121423 -0.4512779 0.8918606 -0.0117771 -0.452157 0.7713535 0.622895 -0.1304438 0.6898112 0.6897683 -0.2199556 0.6161848 0.7248632 -0.3080418 -0.4996042 0.2333807 -0.8342237 -0.4814859 0.164122 -0.8609503 -0.4996025 0.2333806 -0.8342248 -7.95876e-4 0.9997041 0.0243147 0.001727879 0.9994539 0.033001 -0.5452787 0.7167198 0.4347228 -0.6082465 0.7299844 0.3117035 -0.8826846 0.01231908 0.4698044 -0.6558879 -0.7000749 0.2823228 -0.6034725 -0.7020934 0.3780027 -0.05806803 -0.9938914 -0.09385192 0.03859817 -0.9948453 0.0937705 0.6687161 -0.7146388 -0.2052075 0.6653147 -0.7161136 -0.2110396 0.935735 -0.01763153 -0.352263 0.9331479 -0.01883876 -0.3589988 0.6636466 0.6999517 -0.2638954 0.6660141 0.7008986 -0.2552774 -0.0738458 0.9892055 -0.126567 -0.1451613 0.9545431 -0.2603378 -0.07555776 0.9879961 -0.13474 -0.6979343 0.7122256 0.07498461 -0.7255765 0.6881376 -0.002335906 -0.6957341 0.7138531 0.07979917 -0.9555274 -0.006347 0.294834 -0.9531276 -9.66005e-4 0.3025673 -0.9569217 -0.006098151 0.2902824 -0.6263805 -0.6995605 0.3438935 -0.5949531 -0.6705448 0.4431709 -0.5714246 -0.6731314 0.469434 0.08219856 -0.9726501 0.2172449 0.1408368 -0.9209244 0.3634053 0.1359747 -0.9183813 0.3716 0.7414579 -0.6709336 -0.009401798 0.7680277 -0.6334614 0.09412837 0.76973 -0.6324859 0.08647125 0.9786043 0.01810169 -0.2049537 0.9728815 0.0214411 -0.2303083 0.9774542 0.02949327 -0.2090777 0.6591897 0.7093561 -0.2495655 0.6146995 0.694906 -0.3731625 0.6558899 0.7061462 -0.2667695 0.08611464 -0.9706358 0.2246116 -0.6194971 -0.6964402 0.3622078 0.756941 0.02603656 -0.6529643 0.674888 -0.2627825 -0.6895445 0.8571863 0.001986205 -0.5150027 0.6937442 -0.7166866 -0.07126933 0.560385 -0.8159988 -0.1418268 0.7289438 -0.6772018 0.1001936 0.2814885 -0.827528 0.4857589 0.1070629 -0.8681582 0.4846018 0.2869491 -0.8124029 0.5076041 -0.1969093 -0.652334 0.7319065 -0.3146577 -0.3683319 0.8748269 -0.3342265 -0.3252045 0.8846099 -0.613582 -0.06727153 0.7867603 -0.4929981 0.3353359 0.8028092 -0.4929985 0.3836729 0.7808635 -0.6285881 0.732282 0.2619925 -0.3544377 0.8957796 0.2682407 -0.3335267 0.9132225 0.2340614 -0.2326951 0.9148096 -0.3301157 -0.1183537 0.970012 -0.2122952 -0.1140962 0.9695439 -0.2167183 0.3268672 0.6844378 -0.6516923 0.4492785 0.4653349 -0.7626352 0.4744358 0.4294739 -0.768416 -0.2193871 -0.6571236 0.7211505 -0.7849159 -0.02927935 0.6189103 -0.7009752 0.7073295 0.0912072 -0.2405165 0.9036737 -0.3542963 0.5964716 0.6988574 -0.3947404 0.5933634 0.4287379 0.6812517 0.5791966 0.4214609 0.6977838 0.5933469 0.4287808 0.681239 0.8725176 -0.004741609 -0.4885598 0.8841285 -0.007235348 -0.4671881 0.883994 -0.007168889 -0.4674435 -0.6767681 -0.6936874 0.2465417 -0.6656348 -0.6964216 0.2681927 -0.6766982 -0.6937694 0.2465028 0.7186673 0.6666378 -0.197766 0.9036798 0.4027594 0.1454225 0.8723619 -0.005080878 -0.4888342 0.8723608 -0.005076944 -0.4888365 0.8723625 -0.005084574 -0.4888333 0.5570284 -0.7011041 -0.4451658 0.5570273 -0.7011049 -0.4451657 0.557029 -0.7011043 -0.4451647 -0.0846017 -0.9864265 -0.1407312 -0.08460223 -0.9864261 -0.1407342 -0.6766806 -0.6939139 0.2461441 -0.8400721 -0.02652025 0.5418263 -0.9084464 0.04687225 0.4153649 0.9255834 -0.01164418 -0.3783647 0.9256058 -0.01238626 -0.3782864 -0.6658664 -0.6963415 0.2678257 -0.6207255 -0.6990641 0.354978 0.9775044 0.02431052 -0.2095097 0.9565981 0.04053032 -0.2885784 0.9570813 0.04429793 -0.2864143 -0.6689883 -0.7246651 0.1652734 -0.6396297 -0.7029268 0.3110753 -0.6392219 -0.703433 0.3107692 -0.620121 -0.6996656 0.3548495 0.9776898 0.02280867 -0.2088124 -0.3706685 -0.5344999 0.759549 -0.1787019 -0.5752364 0.7982285 -0.3682145 -0.5292084 0.7644323 0.6361958 0.3798826 0.6715238 0.7545554 0.1472974 0.6394919 0.8142489 0.1349556 0.5646112 0.712412 0.2151954 0.6679522 0.6572783 0.2077558 0.7244465 0.7743973 -0.1174998 -0.6216933 0.5574088 -0.1875549 -0.808776 0.5565884 -0.1838194 -0.8101974 -0.4972252 -0.5432118 0.6765265 -0.4997817 -0.540543 0.6767803 0.7749558 -0.1199097 -0.6205363 0.1709865 -0.4448598 -0.8791264 0.02124488 -0.5063908 -0.8620424 0.02608412 -0.5105042 -0.8594796 0.1470735 0.4108352 -0.8997689 0.02278769 0.3475462 -0.9373859 0.1456588 0.4139004 -0.8985934 0.04207116 0.9376236 -0.3450974 0.03215116 0.9187629 -0.3934987 0.04231262 0.9391082 -0.3410067 -0.04927432 0.9492775 0.3105549 0.0477854 0.9634556 0.2635715 -0.04943346 0.948897 0.3116905 -0.1130451 0.4482567 0.8867281 0.05706357 0.5053083 0.8610501 0.06635081 0.5075744 0.8590494 -0.08411872 -0.4135259 0.9065982 0.0584644 -0.3481203 0.9356251 0.05703252 -0.343711 0.9373421 0.01092803 -0.93532 0.3536342 0.0406109 -0.9123452 0.4074026 0.03970855 -0.9108314 0.4108644 0.1070083 -0.942491 -0.3166388 0.0249288 -0.962626 -0.2696843 0.03035688 -0.9635065 -0.2659585 -0.999704 -0.004119575 -0.02398097 -0.999704 -0.00412029 -0.02398055 -0.999704 -0.004120409 -0.0239818 -0.9996318 0.005002319 -0.0266698 -0.9996752 -0.003441751 -0.02525657 -0.9995708 -0.01276922 -0.0263679 -0.9997039 -0.004120886 -0.0239827 -0.9997039 -0.004120826 -0.02398246 -0.999704 -0.004120945 -0.02398115 0.9777252 -0.03576344 0.2068204 0.9777345 -0.03572589 0.2067831 0.9777396 -0.03576266 0.2067515 0.9538506 -0.1593306 0.2545247 0.9551704 -0.108455 0.2754762 0.9730561 -0.01606082 0.2300086 0.977744 -0.03572046 0.2067385 0.9777546 -0.03573381 0.206686 0.9777392 -0.03580456 0.2067464 0.2151864 -0.395941 -0.892707 0.3725281 -0.357483 -0.8564047 0.4118171 -0.3536788 -0.8398322 0.1880509 0.4557609 -0.8700109 0.4406352 0.4493781 -0.7771099 0.4154964 0.4545832 -0.7878561 0.0703144 0.95246 -0.2964388 0.2603141 0.9353092 -0.2396528 0.2405108 0.9390537 -0.2456272 -0.04241222 0.9391183 0.3409664 0.009551465 0.9348631 0.35488 0.03603327 0.9325922 0.3591286 -0.125921 0.3935289 0.9106476 -0.2036516 0.3654738 0.9082704 -0.1240941 0.3969718 0.9094031 -0.1026827 -0.4597245 0.8821054 -0.2805512 -0.4774404 0.8326714 -0.1008756 -0.4639578 0.8800951 0.008690536 -0.9474145 0.3198912 -0.1109621 -0.9532873 0.2809463 0.008906781 -0.9486141 0.3163101 0.1267031 -0.9286304 -0.3487005 0.1725237 -0.9141249 -0.3668943 0.1262006 -0.9274748 -0.3519433 0.03650683 -0.9130698 0.406166 0.0870971 -0.3557339 0.9305201 0.104606 0.4863675 0.86747 0.09599083 0.4885914 0.8672164 0.07832819 0.9606208 0.2665944 0.07075661 0.9617606 0.2645943 0.03819102 0.9194785 -0.3912811 0.03992348 0.9184512 -0.3935145 -0.00493741 0.3566478 -0.9342259 -0.00272125 0.3546611 -0.934991 -0.03162139 -0.4939461 -0.8689173 -0.010755 -0.9604782 -0.2781473 -0.0200864 -0.4911137 -0.8708639 -0.05564713 0.953744 0.2954248 0.2752611 0.9506078 -0.1434441 0.6069083 0.4176968 -0.6761596 0.5936642 -0.3178111 -0.7392963 0.5937709 -0.3172076 -0.7394698 0.2676947 -0.8980366 -0.3490988 0.2676745 -0.898055 -0.3490667 -0.1842966 -0.9453587 0.268946 -0.1841871 -0.9454357 0.26875 -0.4921577 -0.4476268 0.7465997 -0.4920208 -0.4485251 0.7461506 -0.2475603 0.364198 0.8978161 -0.4762316 0.331306 0.8145182 0.1694965 -0.4423349 -0.8806877 0.1125444 -0.4368435 -0.8924694 0.1125442 -0.4368429 -0.8924698 0.1109071 0.4253706 -0.8981979 0.03642833 0.9440104 -0.3278984 -0.04494988 0.9482672 0.3142752 -0.112544 0.436845 0.8924687 -0.1135389 0.4453338 0.8881368 -0.08528238 -0.4162335 0.9052495 -0.1109072 -0.42537 0.8981981 -0.1109071 -0.4253698 0.8981983 0.007346093 -0.9362581 0.3512362 -0.04007768 -0.9389393 0.3417407 -0.04007804 -0.9389396 0.3417401 0.1029088 -0.9421439 -0.3190214 0.04361867 -0.9433346 -0.3289641 0.04361879 -0.9433348 -0.3289637 0.1496322 -0.3663612 -0.9183626 -0.02820068 -0.3903229 -0.9202461 -0.02985113 -0.3906346 -0.9200618 0.06134545 -0.2918121 0.9545065 -0.09552317 -0.3112683 0.9455091 -0.09558463 -0.3111431 0.9455441 0.05792284 -0.285721 -0.9565608 0.1951101 -0.3449993 -0.9181 0.0589767 -0.2824641 -0.9574633 -0.1387922 -0.3377328 0.930953 -0.01275783 -0.3896157 0.9208891 -0.1382682 -0.3371561 0.9312399 0.0264157 -0.2997976 0.9536371 0.06151324 -0.2914552 0.9546046 0.003189861 -0.3823429 -0.9240151 0.002296566 -0.3817788 -0.924251 0.02474486 -0.2992395 0.9538571 0.1947814 -0.3470922 -0.9173806 -0.5427315 -0.3767048 0.7506904 -0.5450664 -0.3246571 0.7729815 -0.5451307 -0.3222758 0.773932 0.9616931 -0.05416446 0.2687241 0.9293645 -0.2023288 0.3087794 0.9359859 -0.1361247 0.3246544 0.5505112 -0.3590876 -0.7536535 0.5404072 -0.3936203 -0.7436552 0.539944 -0.3951315 -0.7431901 0.1170359 -0.3450438 -0.9312611 0.1494766 -0.3665578 -0.9183094 -0.9990134 0.02646386 -0.03566551 -0.9989392 -0.0311169 -0.03394639 -0.9995581 -0.002086877 -0.02965301 -0.1146638 -0.3310002 0.9366382 -0.1145449 -0.3318189 0.9363631 0.1289939 0.9875515 0.09001463 0.6911215 0.6885591 -0.2196304 -0.457973 0.08579015 -0.8848168 -0.5048472 0.2555271 -0.8245212 -0.5048444 0.2555236 -0.8245241 -0.4814837 0.1641193 -0.860952 -0.4814838 0.1641302 -0.8609499 -0.6036447 0.7303215 0.3197557 -0.878511 0.01408177 0.4775145 -0.6061602 -0.7033455 0.3713151 0.03700983 -0.9955139 0.08707767 -0.1428887 0.9525039 -0.2689222 -0.7268369 0.6868091 -0.001240789 -0.9576234 -0.004752576 0.2879846 0.7412009 -0.6711291 -0.01438516 0.9794659 0.01891034 -0.2007214 0.671416 -0.3084587 -0.6738351 0.5507937 -0.8245477 -0.1294119 0.09347629 -0.8638593 0.4949843 0.2978335 0.6961405 -0.6532103 0.5933559 0.4287508 0.68125 0.5932918 0.4289488 0.6811813 0.5933764 0.4287434 0.6812369 0.8725146 -0.004856288 -0.488564 -0.676669 -0.6939203 0.2461581 -0.5213038 -0.2309074 0.8215378 -0.668621 -0.7250208 0.1651998 -0.1719642 -0.58368 0.7935655 0.02516609 0.3429276 -0.9390248 0.03272134 0.9172311 -0.3970094 0.04019153 0.964789 0.2599363 0.2163671 -0.3933562 -0.8935638 0.1878247 0.4577276 -0.8690267 0.07048022 0.9533846 -0.2934115 -0.04280722 0.9377616 0.3446313 -0.2564026 -0.4801943 0.8388512 -0.08500397 -0.9551285 0.2837322 0.1335399 -0.9182251 -0.372867 0.03368252 -0.9123606 0.4079999 0.08130997 -0.3537456 0.9318008 2.59881e-4 -0.9610668 -0.2763164 -0.05336195 0.9550924 0.2914636 0.2714568 0.9527088 -0.1365911 0.6067161 0.4189251 -0.6755719 -0.4764381 0.3301834 0.8148533 0.1109068 0.4253703 -0.8981981 0.03799742 0.9450432 -0.3247302 -0.0462343 0.9490599 0.3116853 -0.1125438 0.4368446 0.8924689 -0.01277357 -0.3921481 0.9198135 -0.542576 -0.3791664 0.7495626 0.550922 -0.3576147 -0.7540536 0.1171746 -0.3440685 -0.9316046</float_array>
          <technique_common>
            <accessor source="#Mesh_007-mesh-normals-array" count="341" stride="3">
              <param name="X" type="float"/>
              <param name="Y" type="float"/>
              <param name="Z" type="float"/>
            </accessor>
          </technique_common>
        </source>
        <source id="Mesh_007-mesh-map-0">
          <float_array id="Mesh_007-mesh-map-0-array" count="1752">0.375 0.3125 0.40625 0.6884399 0.375 0.6884399 0.4375 0.3125 0.40625 0.6884399 0.40625 0.3125 0.4375 0.3125 0.46875 0.6884399 0.4375 0.6884399 0.5 0.3125 0.46875 0.6884399 0.46875 0.3125 0.53125 0.3125 0.5 0.6884399 0.5 0.3125 0.53125 0.3125 0.5625 0.6884399 0.53125 0.6884399 0.5625 0.3125 0.59375 0.6884399 0.5625 0.6884399 0.625 0.3125 0.59375 0.6884399 0.59375 0.3125 0.65625 0.15625 0.5 0.3125 0.34375 0.15625 0.6104854 0.9542354 0.5 1 0.6104854 0.9542354 0.3895146 0.9542354 0.5 1 0.5 1 0.34375 0.84375 0.3895146 0.9542354 0.3895146 0.9542354 0.3895146 0.7332646 0.34375 0.84375 0.34375 0.84375 0.5 0.6875 0.3895146 0.7332646 0.3895146 0.7332646 0.5 0.6875 0.6104854 0.7332646 0.5 0.6875 0.6104854 0.7332646 0.65625 0.84375 0.6104854 0.7332646 0.65625 0.84375 0.6104854 0.9542354 0.65625 0.84375 0.5 1 0.6104854 0.9542354 0.6104854 0.9542354 0.3895146 0.9542354 0.5 1 0.5 1 0.34375 0.84375 0.3895146 0.9542354 0.3895146 0.9542354 0.34375 0.84375 0.3895146 0.7332646 0.34375 0.84375 0.3895146 0.7332646 0.5 0.6875 0.3895146 0.7332646 0.5 0.6875 0.6104854 0.7332646 0.5 0.6875 0.6104854 0.7332646 0.65625 0.84375 0.6104854 0.7332646 0.6104854 0.9542354 0.65625 0.84375 0.65625 0.84375 0.65625 0.84375 0.6104854 0.7332646 0.6104854 0.7332646 0.6104854 0.7332646 0.5 0.6875 0.5 0.6875 0.3895146 0.7332646 0.5 0.6875 0.3895146 0.7332646 0.34375 0.84375 0.3895146 0.7332646 0.34375 0.84375 0.3895146 0.9542354 0.34375 0.84375 0.3895146 0.9542354 0.5 1 0.3895146 0.9542354 0.5 1 0.5 1 0.6104854 0.9542354 0.6104854 0.9542354 0.6104854 0.9542354 0.65625 0.84375 0.65625 0.84375 0.65625 0.84375 0.6104854 0.7332646 0.6104854 0.7332646 0.6104854 0.7332646 0.5 0.6875 0.5 0.6875 0.5 0.6875 0.3895146 0.7332646 0.3895146 0.7332646 0.34375 0.84375 0.3895146 0.7332646 0.34375 0.84375 0.3895146 0.9542354 0.34375 0.84375 0.3895146 0.9542354 0.5 1 0.3895146 0.9542354 0.5 1 0.6104854 0.9542354 0.5 1 0.6104854 0.9542354 0.65625 0.84375 0.6104854 0.9542354 0.65625 0.84375 0.65625 0.84375 0.6104854 0.7332646 0.6104854 0.7332646 0.6104854 0.7332646 0.5 0.6875 0.5 0.6875 0.5 0.6875 0.3895146 0.7332646 0.3895146 0.7332646 0.34375 0.84375 0.3895146 0.7332646 0.34375 0.84375 0.3895146 0.9542354 0.34375 0.84375 0.3895146 0.9542354 0.5 1 0.3895146 0.9542354 0.5 1 0.6104854 0.9542354 0.5 1 0.6104854 0.9542354 0.6104854 0.9542354 0.65625 0.84375 0.65625 0.84375 0.65625 0.84375 0.6104854 0.9542354 0.3895146 0.7332646 0.375 0.3125 0.375 0.6884399 0.375 0.6884399 0.4375 0.3125 0.4375 0.6884399 0.4375 0.3125 0.6104854 0.04576456 0.65625 0.15625 0.6104854 0.04576456 0.65625 0.15625 0.6104854 0.2667354 0.65625 0.15625 0.6104854 0.2667354 0.5 0.3125 0.6104854 0.2667354 0.5 0.3125 0.3895146 0.2667354 0.5 0.3125 0.34375 0.15625 0.3895146 0.2667354 0.3895146 0.2667354 0.3895146 0.04576456 0.34375 0.15625 0.34375 0.15625 0.6104854 0.9542354 0.6104854 0.9542354 0.6104854 0.9542354 0.3895146 0.9542354 0.3895146 0.9542354 0.3895146 0.9542354 0.6104854 0.9542354 0.6104854 0.9542354 0.6104854 0.9542354 0.3895146 0.9542354 0.3895146 0.9542354 0.3895146 0.9542354 0.3895146 0.9542354 0.3895146 0.9542354 0.3895146 0.9542354 0.6104854 0.9542354 0.6104854 0.9542354 0.6104854 0.9542354 0.3895146 0.9542354 0.3895146 0.9542354 0.3895146 0.9542354 0.3895146 0.9542354 0.5 1 0.3895146 0.9542354 0.5 1 0.6104854 0.9542354 0.5 1 0.6104854 0.9542354 0.6104854 0.9542354 0.6104854 0.9542354 0.3895146 0.9542354 0.3895146 0.9542354 0.3895146 0.9542354 0.6104854 0.9542354 0.6104854 0.9542354 0.6104854 0.9542354 0.375 0.3125 0.40625 0.4382487 0.375 0.4382487 0.4375 0.3125 0.40625 0.4382487 0.40625 0.3125 0.46875 0.3125 0.4375 0.4382487 0.4375 0.3125 0.5 0.3125 0.46875 0.4382487 0.46875 0.3125 0.5 0.3125 0.53125 0.4382487 0.5 0.4382487 0.53125 0.3125 0.5625 0.4382487 0.53125 0.4382487 0.5625 0.3125 0.59375 0.4382487 0.5625 0.4382487 0.59375 0.3125 0.625 0.4382487 0.59375 0.4382487 0.5 0 0.6104854 0.04576456 0.5 0.15 0.3895146 0.04576456 0.5 0 0.5 0.15 0.34375 0.15625 0.3895146 0.04576456 0.5 0.15 0.3895146 0.2667354 0.34375 0.15625 0.5 0.15 0.5 0.3125 0.3895146 0.2667354 0.5 0.15 0.6104854 0.2667354 0.5 0.3125 0.5 0.15 0.65625 0.15625 0.6104854 0.2667354 0.5 0.15 0.6104854 0.04576456 0.65625 0.15625 0.5 0.15 0.6104854 0.9542354 0.5 1 0.5 0.8375 0.5 1 0.3895146 0.9542354 0.5 0.8375 0.3895146 0.9542354 0.34375 0.84375 0.5 0.8375 0.34375 0.84375 0.3895146 0.7332646 0.5 0.8375 0.3895146 0.7332646 0.5 0.6875 0.5 0.8375 0.5 0.6875 0.6104854 0.7332646 0.5 0.8375 0.6104854 0.7332646 0.65625 0.84375 0.5 0.8375 0.65625 0.84375 0.6104854 0.9542354 0.5 0.8375 0.6104854 0.9542354 0.5 1 0.6104854 0.9542354 0.5 1 0.3895146 0.9542354 0.5 1 0.3895146 0.9542354 0.34375 0.84375 0.3895146 0.9542354 0.34375 0.84375 0.3895146 0.7332646 0.34375 0.84375 0.5 0.6875 0.3895146 0.7332646 0.3895146 0.7332646 0.6104854 0.7332646 0.5 0.6875 0.5 0.6875 0.65625 0.84375 0.6104854 0.7332646 0.6104854 0.7332646 0.6104854 0.9542354 0.65625 0.84375 0.65625 0.84375 0.59375 0.4382487 0.5625 0.5637217 0.5625 0.4382487 0.5625 0.4382487 0.53125 0.5637217 0.53125 0.4382487 0.5 0.4382487 0.53125 0.5637217 0.5 0.5637217 0.46875 0.4382487 0.5 0.5637217 0.46875 0.5637217 0.4375 0.4382487 0.46875 0.5637217 0.4375 0.5637217 0.40625 0.4382487 0.4375 0.5637217 0.40625 0.5637217 0.40625 0.4382487 0.375 0.5637217 0.375 0.4382487 0.625 0.4382487 0.59375 0.5637217 0.59375 0.4382487 0.5625 0.5637217 0.59375 0.6884399 0.5625 0.6884399 0.53125 0.5637217 0.5625 0.6884399 0.53125 0.6884399 0.53125 0.5637217 0.5 0.6884399 0.5 0.5637217 0.5 0.5637217 0.46875 0.6884399 0.46875 0.5637217 0.46875 0.5637217 0.4375 0.6884399 0.4375 0.5637217 0.4375 0.5637217 0.40625 0.6884399 0.40625 0.5637217 0.40625 0.5637217 0.375 0.6884399 0.375 0.5637217 0.59375 0.5637217 0.625 0.6884399 0.59375 0.6884399 0.3895146 0.7332646 0.34375 0.84375 0.34375 0.84375 0.34375 0.84375 0.3895146 0.9542354 0.3895146 0.9542354 0.3895146 0.9542354 0.5 1 0.5 1 0.6104854 0.9542354 0.5 1 0.6104854 0.9542354 0.65625 0.84375 0.6104854 0.9542354 0.65625 0.84375 0.6104854 0.7332646 0.65625 0.84375 0.6104854 0.7332646 0.5 0.6875 0.6104854 0.7332646 0.5 0.6875 0.5 0.6875 0.3895146 0.7332646 0.3895146 0.7332646 0.5 0 0.6104854 0.04576456 0.5 0 0.5 0 0.3895146 0.04576456 0.3895146 0.04576456 0.3895146 0.04576456 0.34375 0.15625 0.34375 0.15625 0.34375 0.15625 0.3895146 0.2667354 0.3895146 0.2667354 0.3895146 0.2667354 0.5 0.3125 0.5 0.3125 0.6104854 0.2667354 0.5 0.3125 0.6104854 0.2667354 0.65625 0.15625 0.6104854 0.2667354 0.65625 0.15625 0.6104854 0.04576456 0.65625 0.15625 0.6104854 0.04576456 0.4375 0.3125 0.4375 0.4382487 0.4375 0.4382487 0.5 0.4382487 0.5 0.3125 0.5 0.3125 0.3895146 0.9542354 0.3895146 0.9542354 0.3895146 0.9542354 0.3895146 0.7332646 0.3895146 0.7332646 0.3895146 0.7332646 0.5 0.4382487 0.5 0.5637217 0.5 0.4382487 0.4375 0.5637217 0.4375 0.4382487 0.4375 0.5637217 0.5 0.6884399 0.5 0.5637217 0.5 0.5637217 0.4375 0.6884399 0.4375 0.5637217 0.4375 0.6884399 0.3895146 0.7332646 0.3895146 0.7332646 0.3895146 0.7332646 0.34375 0.84375 0.3895146 0.7332646 0.3895146 0.7332646 0.34375 0.84375 0.3895146 0.9542354 0.34375 0.84375 0.3895146 0.9542354 0.3895146 0.9542354 0.3895146 0.9542354 0.3895146 0.04576456 0.3895146 0.04576456 0.3895146 0.04576456 0.34375 0.15625 0.3895146 0.04576456 0.3895146 0.04576456 0.34375 0.15625 0.3895146 0.2667354 0.34375 0.15625 0.3895146 0.2667354 0.3895146 0.2667354 0.3895146 0.2667354 0.375 0.3125 0.40625 0.3125 0.40625 0.6884399 0.4375 0.3125 0.4375 0.6884399 0.40625 0.6884399 0.4375 0.3125 0.46875 0.3125 0.46875 0.6884399 0.5 0.3125 0.5 0.6884399 0.46875 0.6884399 0.53125 0.3125 0.53125 0.6884399 0.5 0.6884399 0.53125 0.3125 0.5625 0.3125 0.5625 0.6884399 0.5625 0.3125 0.59375 0.3125 0.59375 0.6884399 0.625 0.3125 0.625 0.6884399 0.59375 0.6884399 0.5 0 0.6104854 0.04576456 0.3895146 0.04576456 0.6104854 0.04576456 0.65625 0.15625 0.34375 0.15625 0.65625 0.15625 0.6104854 0.2667354 0.5 0.3125 0.5 0.3125 0.3895146 0.2667354 0.34375 0.15625 0.34375 0.15625 0.3895146 0.04576456 0.6104854 0.04576456 0.6104854 0.9542354 0.5 1 0.5 1 0.3895146 0.9542354 0.3895146 0.9542354 0.5 1 0.34375 0.84375 0.34375 0.84375 0.3895146 0.9542354 0.3895146 0.7332646 0.3895146 0.7332646 0.34375 0.84375 0.5 0.6875 0.5 0.6875 0.3895146 0.7332646 0.5 0.6875 0.6104854 0.7332646 0.6104854 0.7332646 0.6104854 0.7332646 0.65625 0.84375 0.65625 0.84375 0.65625 0.84375 0.6104854 0.9542354 0.6104854 0.9542354 0.5 1 0.5 1 0.6104854 0.9542354 0.3895146 0.9542354 0.3895146 0.9542354 0.5 1 0.34375 0.84375 0.34375 0.84375 0.3895146 0.9542354 0.34375 0.84375 0.3895146 0.7332646 0.3895146 0.7332646 0.3895146 0.7332646 0.5 0.6875 0.5 0.6875 0.5 0.6875 0.6104854 0.7332646 0.6104854 0.7332646 0.6104854 0.7332646 0.65625 0.84375 0.65625 0.84375 0.6104854 0.9542354 0.6104854 0.9542354 0.65625 0.84375 0.65625 0.84375 0.65625 0.84375 0.6104854 0.7332646 0.6104854 0.7332646 0.6104854 0.7332646 0.5 0.6875 0.3895146 0.7332646 0.5 0.6875 0.5 0.6875 0.34375 0.84375 0.3895146 0.7332646 0.3895146 0.7332646 0.3895146 0.9542354 0.34375 0.84375 0.34375 0.84375 0.5 1 0.3895146 0.9542354 0.3895146 0.9542354 0.5 1 0.5 1 0.6104854 0.9542354 0.6104854 0.9542354 0.6104854 0.9542354 0.65625 0.84375 0.65625 0.84375 0.65625 0.84375 0.6104854 0.7332646 0.6104854 0.7332646 0.6104854 0.7332646 0.5 0.6875 0.5 0.6875 0.5 0.6875 0.3895146 0.7332646 0.34375 0.84375 0.3895146 0.7332646 0.3895146 0.7332646 0.3895146 0.9542354 0.34375 0.84375 0.34375 0.84375 0.5 1 0.3895146 0.9542354 0.3895146 0.9542354 0.6104854 0.9542354 0.5 1 0.5 1 0.65625 0.84375 0.6104854 0.9542354 0.6104854 0.9542354 0.65625 0.84375 0.65625 0.84375 0.6104854 0.7332646 0.6104854 0.7332646 0.6104854 0.7332646 0.5 0.6875 0.5 0.6875 0.5 0.6875 0.3895146 0.7332646 0.34375 0.84375 0.3895146 0.7332646 0.3895146 0.7332646 0.3895146 0.9542354 0.34375 0.84375 0.34375 0.84375 0.5 1 0.3895146 0.9542354 0.3895146 0.9542354 0.6104854 0.9542354 0.5 1 0.5 1 0.6104854 0.9542354 0.6104854 0.9542354 0.65625 0.84375 0.6104854 0.9542354 0.5 1 0.3895146 0.9542354 0.3895146 0.9542354 0.34375 0.84375 0.6104854 0.9542354 0.34375 0.84375 0.3895146 0.7332646 0.6104854 0.9542354 0.3895146 0.7332646 0.5 0.6875 0.6104854 0.7332646 0.6104854 0.7332646 0.65625 0.84375 0.3895146 0.7332646 0.375 0.3125 0.375 0.3125 0.375 0.6884399 0.4375 0.3125 0.4375 0.6884399 0.4375 0.6884399 0.6104854 0.04576456 0.65625 0.15625 0.65625 0.15625 0.65625 0.15625 0.6104854 0.2667354 0.6104854 0.2667354 0.6104854 0.2667354 0.5 0.3125 0.5 0.3125 0.5 0.3125 0.3895146 0.2667354 0.3895146 0.2667354 0.34375 0.15625 0.34375 0.15625 0.3895146 0.2667354 0.3895146 0.04576456 0.3895146 0.04576456 0.34375 0.15625 0.6104854 0.9542354 0.6104854 0.9542354 0.6104854 0.9542354 0.3895146 0.9542354 0.3895146 0.9542354 0.3895146 0.9542354 0.6104854 0.9542354 0.6104854 0.9542354 0.6104854 0.9542354 0.3895146 0.9542354 0.3895146 0.9542354 0.3895146 0.9542354 0.3895146 0.9542354 0.3895146 0.9542354 0.3895146 0.9542354 0.6104854 0.9542354 0.6104854 0.9542354 0.6104854 0.9542354 0.3895146 0.9542354 0.3895146 0.9542354 0.3895146 0.9542354 0.3895146 0.9542354 0.5 1 0.5 1 0.5 1 0.6104854 0.9542354 0.6104854 0.9542354 0.6104854 0.9542354 0.6104854 0.9542354 0.6104854 0.9542354 0.3895146 0.9542354 0.3895146 0.9542354 0.3895146 0.9542354 0.6104854 0.9542354 0.6104854 0.9542354 0.6104854 0.9542354 0.375 0.3125 0.40625 0.3125 0.40625 0.4382487 0.4375 0.3125 0.4375 0.4382487 0.40625 0.4382487 0.46875 0.3125 0.46875 0.4382487 0.4375 0.4382487 0.5 0.3125 0.5 0.4382487 0.46875 0.4382487 0.5 0.3125 0.53125 0.3125 0.53125 0.4382487 0.53125 0.3125 0.5625 0.3125 0.5625 0.4382487 0.5625 0.3125 0.59375 0.3125 0.59375 0.4382487 0.59375 0.3125 0.625 0.3125 0.625 0.4382487 0.6104854 0.9542354 0.5 1 0.5 1 0.5 1 0.3895146 0.9542354 0.3895146 0.9542354 0.3895146 0.9542354 0.34375 0.84375 0.34375 0.84375 0.34375 0.84375 0.3895146 0.7332646 0.3895146 0.7332646 0.5 0.6875 0.5 0.6875 0.3895146 0.7332646 0.6104854 0.7332646 0.6104854 0.7332646 0.5 0.6875 0.65625 0.84375 0.65625 0.84375 0.6104854 0.7332646 0.6104854 0.9542354 0.6104854 0.9542354 0.65625 0.84375 0.59375 0.4382487 0.59375 0.5637217 0.5625 0.5637217 0.5625 0.4382487 0.5625 0.5637217 0.53125 0.5637217 0.5 0.4382487 0.53125 0.4382487 0.53125 0.5637217 0.46875 0.4382487 0.5 0.4382487 0.5 0.5637217 0.4375 0.4382487 0.46875 0.4382487 0.46875 0.5637217 0.40625 0.4382487 0.4375 0.4382487 0.4375 0.5637217 0.40625 0.4382487 0.40625 0.5637217 0.375 0.5637217 0.625 0.4382487 0.625 0.5637217 0.59375 0.5637217 0.5625 0.5637217 0.59375 0.5637217 0.59375 0.6884399 0.53125 0.5637217 0.5625 0.5637217 0.5625 0.6884399 0.53125 0.5637217 0.53125 0.6884399 0.5 0.6884399 0.5 0.5637217 0.5 0.6884399 0.46875 0.6884399 0.46875 0.5637217 0.46875 0.6884399 0.4375 0.6884399 0.4375 0.5637217 0.4375 0.6884399 0.40625 0.6884399 0.40625 0.5637217 0.40625 0.6884399 0.375 0.6884399 0.59375 0.5637217 0.625 0.5637217 0.625 0.6884399 0.3895146 0.7332646 0.3895146 0.7332646 0.34375 0.84375 0.34375 0.84375 0.34375 0.84375 0.3895146 0.9542354 0.3895146 0.9542354 0.3895146 0.9542354 0.5 1 0.6104854 0.9542354 0.5 1 0.5 1 0.65625 0.84375 0.6104854 0.9542354 0.6104854 0.9542354 0.6104854 0.7332646 0.65625 0.84375 0.65625 0.84375 0.5 0.6875 0.6104854 0.7332646 0.6104854 0.7332646 0.5 0.6875 0.5 0.6875 0.3895146 0.7332646 0.5 0 0.6104854 0.04576456 0.6104854 0.04576456 0.5 0 0.5 0 0.3895146 0.04576456 0.3895146 0.04576456 0.3895146 0.04576456 0.34375 0.15625 0.34375 0.15625 0.34375 0.15625 0.3895146 0.2667354 0.3895146 0.2667354 0.3895146 0.2667354 0.5 0.3125 0.6104854 0.2667354 0.5 0.3125 0.5 0.3125 0.65625 0.15625 0.6104854 0.2667354 0.6104854 0.2667354 0.6104854 0.04576456 0.65625 0.15625 0.65625 0.15625 0.4375 0.3125 0.4375 0.3125 0.4375 0.4382487 0.5 0.4382487 0.5 0.4382487 0.5 0.3125 0.3895146 0.9542354 0.3895146 0.9542354 0.3895146 0.9542354 0.3895146 0.7332646 0.3895146 0.7332646 0.3895146 0.7332646 0.5 0.4382487 0.5 0.5637217 0.5 0.5637217 0.4375 0.5637217 0.4375 0.4382487 0.4375 0.4382487 0.5 0.6884399 0.5 0.6884399 0.5 0.5637217 0.4375 0.6884399 0.4375 0.5637217 0.4375 0.5637217 0.3895146 0.7332646 0.3895146 0.7332646 0.3895146 0.7332646 0.34375 0.84375 0.34375 0.84375 0.3895146 0.7332646 0.34375 0.84375 0.3895146 0.9542354 0.3895146 0.9542354 0.3895146 0.9542354 0.3895146 0.9542354 0.3895146 0.9542354 0.3895146 0.04576456 0.3895146 0.04576456 0.3895146 0.04576456 0.34375 0.15625 0.34375 0.15625 0.3895146 0.04576456 0.34375 0.15625 0.3895146 0.2667354 0.3895146 0.2667354 0.3895146 0.2667354 0.3895146 0.2667354 0.3895146 0.2667354</float_array>
          <technique_common>
            <accessor source="#Mesh_007-mesh-map-0-array" count="876" stride="2">
              <param name="S" type="float"/>
              <param name="T" type="float"/>
            </accessor>
          </technique_common>
        </source>
        <vertices id="Mesh_007-mesh-vertices">
          <input semantic="POSITION" source="#Mesh_007-mesh-positions"/>
        </vertices>
        <triangles count="292">
          <input semantic="VERTEX" source="#Mesh_007-mesh-vertices" offset="0"/>
          <input semantic="NORMAL" source="#Mesh_007-mesh-normals" offset="1"/>
          <input semantic="TEXCOORD" source="#Mesh_007-mesh-map-0" offset="2" set="0"/>
          <p>50 0 0 52 1 1 53 2 2 54 3 3 52 4 4 51 5 5 1 6 6 9 7 7 8 8 8 3 9 9 9 10 10 2 11 11 4 12 12 10 13 13 3 14 14 4 15 15 12 16 16 11 17 17 5 18 18 13 19 19 12 20 20 0 21 21 13 22 22 6 23 23 56 24 24 58 25 25 60 26 26 53 2 27 61 27 28 62 28 29 55 29 30 61 30 31 52 4 32 9 7 33 34 31 34 8 8 35 10 32 36 33 33 37 9 10 38 11 34 39 32 35 40 10 13 41 11 17 42 30 36 43 31 37 44 12 20 45 29 38 46 30 39 47 13 22 48 35 40 49 29 41 50 65 42 51 67 43 52 64 44 53 68 45 54 66 46 55 65 47 56 16 48 57 48 49 58 15 50 59 16 51 60 46 52 61 47 53 62 17 54 63 45 55 64 46 56 65 18 57 66 44 58 67 45 59 68 19 60 69 43 61 70 44 62 71 14 63 72 43 64 73 20 65 74 29 38 75 19 60 76 30 39 77 30 36 78 18 57 79 31 37 80 32 35 81 18 66 82 17 54 83 33 33 84 17 67 85 16 51 86 34 31 87 16 48 88 15 50 89 61 30 90 68 45 91 65 47 92 61 27 93 64 44 94 62 28 95 35 40 96 20 65 97 29 41 98 36 68 99 27 69 100 37 70 101 37 71 102 26 72 103 38 73 104 38 74 105 25 75 106 39 76 107 40 77 108 25 78 109 24 79 110 41 80 111 24 81 112 23 82 113 71 83 114 72 84 115 73 85 116 74 86 117 73 87 118 75 88 119 36 89 120 21 90 121 28 91 122 43 61 123 37 70 124 44 62 125 44 58 126 38 73 127 45 59 128 45 55 129 39 76 130 46 56 131 47 53 132 39 92 133 40 77 134 48 49 135 40 93 136 41 80 137 66 46 138 70 94 139 71 83 140 67 43 141 71 95 142 74 86 143 49 96 144 36 89 145 43 64 146 28 97 147 21 98 148 25 99 149 0 100 150 53 101 151 7 102 152 1 103 153 55 104 154 54 105 155 0 21 156 56 106 157 50 107 158 6 108 159 57 109 160 56 110 161 5 111 162 58 112 163 57 113 164 4 12 165 59 114 166 58 115 167 2 11 168 59 116 169 3 9 170 1 6 171 60 117 172 2 118 173 7 102 174 62 119 175 35 120 176 8 121 177 63 122 178 55 104 179 14 123 180 67 124 181 49 125 182 48 126 183 68 127 184 15 128 185 15 128 186 63 122 187 34 129 188 14 123 189 62 119 190 64 130 191 41 131 192 72 132 193 70 133 194 23 134 195 73 135 196 72 136 197 22 137 198 75 138 199 73 135 200 42 139 201 75 140 202 21 141 203 41 131 204 69 142 205 48 143 206 42 139 207 67 124 208 74 144 209 76 145 210 104 146 211 105 147 212 78 148 213 104 149 214 77 150 215 130 151 216 132 152 217 129 153 218 133 154 219 131 155 220 130 156 221 79 157 222 101 158 223 102 159 224 80 160 225 100 161 226 101 162 227 81 163 228 99 164 229 100 165 230 82 166 231 105 167 232 99 168 233 121 169 234 120 170 235 122 171 236 123 172 237 121 169 238 122 171 239 124 173 240 123 172 241 122 171 242 125 174 243 124 173 244 122 171 245 126 175 246 125 174 247 122 171 248 127 176 249 126 175 250 122 171 251 128 177 252 127 176 253 122 171 254 120 170 255 128 177 256 122 171 257 90 178 258 91 179 259 92 180 260 91 179 261 93 181 262 92 180 263 93 181 264 94 182 265 92 180 266 94 182 267 95 183 268 92 180 269 95 183 270 96 184 271 92 180 272 96 184 273 97 185 274 92 180 275 97 185 276 98 186 277 92 180 278 98 186 279 90 178 280 92 180 281 83 187 282 115 188 283 116 189 284 84 190 285 114 191 286 115 192 287 135 193 288 137 194 289 138 195 290 136 196 291 140 197 292 137 198 293 87 199 294 113 200 295 86 201 296 88 202 297 119 203 298 87 204 299 89 205 300 118 206 301 88 207 302 83 208 303 117 209 304 89 210 305 99 164 306 107 211 307 100 165 308 100 161 309 108 212 310 101 162 311 102 159 312 108 213 313 109 214 314 131 155 315 141 215 316 142 216 317 132 152 318 142 217 319 143 218 320 104 149 321 110 219 322 111 220 323 104 146 324 112 221 325 105 147 326 105 167 327 106 222 328 99 168 329 107 211 330 89 205 331 88 207 332 108 212 333 88 202 334 87 204 335 108 213 336 86 201 337 109 214 338 141 215 339 136 196 340 142 216 341 142 217 342 135 193 343 143 218 344 110 219 345 84 190 346 111 220 347 111 223 348 83 187 349 112 221 350 106 222 351 83 208 352 89 210 353 140 197 354 145 224 355 137 198 356 137 194 357 146 225 358 138 195 359 114 191 360 91 226 361 115 192 362 116 189 363 91 227 364 90 228 365 117 209 366 90 229 367 98 230 368 118 206 369 98 231 370 97 232 371 119 203 372 97 233 373 96 234 374 119 235 375 95 236 376 113 200 377 77 237 378 120 238 379 121 239 380 77 150 381 123 240 382 78 148 383 129 153 384 148 241 385 130 151 386 130 156 387 149 242 388 133 154 389 79 157 390 126 243 391 80 244 392 81 245 393 126 246 394 127 247 395 82 248 396 127 249 397 128 250 398 76 251 399 128 252 400 120 253 401 78 254 402 132 255 403 103 256 404 102 257 405 133 258 406 79 259 407 114 260 408 135 261 409 138 262 410 86 263 411 140 264 412 139 265 413 102 257 414 141 266 415 134 267 416 110 268 417 132 255 418 143 269 419 86 263 420 141 266 421 109 270 422 85 271 423 143 269 424 135 261 425 95 272 426 140 273 427 113 274 428 94 182 429 144 275 430 95 183 431 94 182 432 146 276 433 145 277 434 114 278 435 146 279 436 93 280 437 78 254 438 147 281 439 129 282 440 124 173 441 147 283 442 123 172 443 124 173 444 149 284 445 148 285 446 125 286 447 133 258 448 149 287 449 50 0 450 51 288 451 52 1 452 54 3 453 55 29 454 52 4 455 1 6 456 2 118 457 9 7 458 3 9 459 10 32 460 9 10 461 4 12 462 11 34 463 10 13 464 4 15 465 5 111 466 12 16 467 5 18 468 6 108 469 13 19 470 0 21 471 7 289 472 13 22 473 51 290 474 50 291 475 54 292 476 50 291 477 56 24 478 60 26 479 56 24 480 57 293 481 58 25 482 58 25 483 59 294 484 60 26 485 60 26 486 54 292 487 50 291 488 53 2 489 52 1 490 61 27 491 55 29 492 63 295 493 61 30 494 9 7 495 33 296 496 34 31 497 10 32 498 32 297 499 33 33 500 11 34 501 31 298 502 32 35 503 11 17 504 12 16 505 30 36 506 12 20 507 13 19 508 29 38 509 13 22 510 7 289 511 35 40 512 65 42 513 66 299 514 67 43 515 68 45 516 69 300 517 66 46 518 16 48 519 47 301 520 48 49 521 16 51 522 17 67 523 46 52 524 17 54 525 18 66 526 45 55 527 18 57 528 19 302 529 44 58 530 19 60 531 20 303 532 43 61 533 14 63 534 49 96 535 43 64 536 29 38 537 20 303 538 19 60 539 30 36 540 19 302 541 18 57 542 32 35 543 31 298 544 18 66 545 33 33 546 32 297 547 17 67 548 34 31 549 33 296 550 16 48 551 61 30 552 63 295 553 68 45 554 61 27 555 65 42 556 64 44 557 35 40 558 14 63 559 20 65 560 36 68 561 28 304 562 27 69 563 37 71 564 27 305 565 26 72 566 38 74 567 26 306 568 25 75 569 40 77 570 39 92 571 25 78 572 41 80 573 40 93 574 24 81 575 71 83 576 70 94 577 72 84 578 74 86 579 71 95 580 73 87 581 36 89 582 42 307 583 21 90 584 43 61 585 36 68 586 37 70 587 44 58 588 37 71 589 38 73 590 45 55 591 38 74 592 39 76 593 47 53 594 46 52 595 39 92 596 48 49 597 47 301 598 40 93 599 66 46 600 69 300 601 70 94 602 67 43 603 66 299 604 71 95 605 49 96 606 42 307 607 36 89 608 21 98 609 22 137 610 23 134 611 23 134 612 24 308 613 21 98 614 24 308 615 25 99 616 21 98 617 25 99 618 26 309 619 27 310 620 27 310 621 28 97 622 25 99 623 0 100 624 50 311 625 53 101 626 1 103 627 8 121 628 55 104 629 0 21 630 6 23 631 56 106 632 6 108 633 5 18 634 57 109 635 5 111 636 4 15 637 58 112 638 4 12 639 3 14 640 59 114 641 2 11 642 60 312 643 59 116 644 1 6 645 54 313 646 60 117 647 7 102 648 53 101 649 62 119 650 8 121 651 34 129 652 63 122 653 14 123 654 64 130 655 67 124 656 48 126 657 69 314 658 68 127 659 15 128 660 68 127 661 63 122 662 14 123 663 35 120 664 62 119 665 41 131 666 23 315 667 72 132 668 23 134 669 22 137 670 73 135 671 22 137 672 21 98 673 75 138 674 42 139 675 74 144 676 75 140 677 41 131 678 70 133 679 69 142 680 42 139 681 49 125 682 67 124 683 76 145 684 77 237 685 104 146 686 78 148 687 103 316 688 104 149 689 130 151 690 131 317 691 132 152 692 133 154 693 134 318 694 131 155 695 79 157 696 80 244 697 101 158 698 80 160 699 81 245 700 100 161 701 81 163 702 82 248 703 99 164 704 82 166 705 76 251 706 105 167 707 83 187 708 84 319 709 115 188 710 84 190 711 85 320 712 114 191 713 135 193 714 136 321 715 137 194 716 136 196 717 139 322 718 140 197 719 87 199 720 119 235 721 113 200 722 88 202 723 118 323 724 119 203 725 89 205 726 117 324 727 118 206 728 83 208 729 116 325 730 117 209 731 99 164 732 106 326 733 107 211 734 100 161 735 107 327 736 108 212 737 102 159 738 101 158 739 108 213 740 131 155 741 134 318 742 141 215 743 132 152 744 131 317 745 142 217 746 104 149 747 103 316 748 110 219 749 104 146 750 111 223 751 112 221 752 105 167 753 112 328 754 106 222 755 107 211 756 106 326 757 89 205 758 108 212 759 107 327 760 88 202 761 108 213 762 87 199 763 86 201 764 141 215 765 139 322 766 136 196 767 142 217 768 136 321 769 135 193 770 110 219 771 85 320 772 84 190 773 111 223 774 84 319 775 83 187 776 106 222 777 112 328 778 83 208 779 140 197 780 144 329 781 145 224 782 137 194 783 145 330 784 146 225 785 114 191 786 93 331 787 91 226 788 116 189 789 115 188 790 91 227 791 117 209 792 116 325 793 90 229 794 118 206 795 117 324 796 98 231 797 119 203 798 118 323 799 97 233 800 119 235 801 96 332 802 95 236 803 77 237 804 76 145 805 120 238 806 77 150 807 121 333 808 123 240 809 129 153 810 147 334 811 148 241 812 130 156 813 148 335 814 149 242 815 79 157 816 125 336 817 126 243 818 81 245 819 80 160 820 126 246 821 82 248 822 81 163 823 127 249 824 76 251 825 82 166 826 128 252 827 78 254 828 129 282 829 132 255 830 102 257 831 134 267 832 133 258 833 114 260 834 85 271 835 135 261 836 86 263 837 113 337 838 140 264 839 102 257 840 109 270 841 141 266 842 110 268 843 103 256 844 132 255 845 86 263 846 139 265 847 141 266 848 85 271 849 110 268 850 143 269 851 95 272 852 144 338 853 140 273 854 94 182 855 145 277 856 144 275 857 94 182 858 93 181 859 146 276 860 114 278 861 138 339 862 146 279 863 78 254 864 123 340 865 147 281 866 124 173 867 148 285 868 147 283 869 124 173 870 125 174 871 149 284 872 125 286 873 79 259 874 133 258 875</p>
        </triangles>
      </mesh>
    </geometry>
    <geometry id="Mesh_004-mesh" name="Mesh.004">
      <mesh>
        <source id="Mesh_004-mesh-positions">
          <float_array id="Mesh_004-mesh-positions-array" count="450">2.733668 0.1315277 -0.2173213 2.529982 0.0409516 -0.1206769 2.518857 -0.08875524 -0.139182 2.592102 -0.1809445 -0.1977167 2.70681 -0.1816121 -0.2619953 2.795788 -0.09036791 -0.2943621 2.806913 0.03933894 -0.2758579 2.899108 0.07513558 0.07850456 2.695422 -0.01544106 0.1751489 2.684298 -0.1451479 0.1566448 2.757543 -0.2373377 0.09810924 2.872251 -0.2380052 0.03383255 2.961229 -0.1467605 0.001464843 2.972353 -0.01705324 0.01996898 3.191688 0.07156217 0.7944088 3.05644 0.01141965 0.8585806 3.060979 -0.07483875 0.8713026 3.12154 -0.1361867 0.8574438 3.202646 -0.136685 0.8251219 3.256787 -0.0760442 0.793273 3.252248 0.01021564 0.78055 3.586656 0.3381122 1.543779 3.560413 0.3456501 1.561889 3.543719 0.3307422 1.585815 3.546348 0.3021196 1.601539 3.566762 0.2765492 1.599852 3.593005 0.2690119 1.581741 3.609699 0.2839187 1.557815 3.60707 0.3125423 1.542092 3.130699 -0.07893717 0.370389 3.127637 -0.1862827 0.3679562 3.056588 -0.2617766 0.4000568 2.959174 -0.2611963 0.4478884 2.892457 -0.1848798 0.4834299 2.89552 -0.07753431 0.4858637 3.063983 -0.002621293 0.4059315 3.401753 0.2360042 1.372548 3.394266 0.1709522 1.360677 3.347899 0.1247667 1.37629 3.289811 0.1245015 1.410239 3.25403 0.1703132 1.442639 3.261518 0.2353638 1.454511 3.365973 0.281814 1.404948 3.275869 0.05033624 1.124003 3.282804 -0.02257788 1.145251 3.235676 -0.0750128 1.177775 3.162096 -0.07625544 1.202523 3.105163 -0.02557528 1.205 3.098229 0.04733741 1.183753 3.218937 0.1010144 1.12648 2.725417 0.1554464 -0.232294 2.598089 0.1659778 -0.165369 2.774268 0.1135953 0.1568498 2.902994 0.11597 0.08522891 2.508392 0.05893838 -0.129321 2.672806 0.01360833 0.1944475 2.786894 0.04616296 -0.3116541 2.775769 -0.08354437 -0.3301582 2.686792 -0.1747881 -0.2977915 2.572083 -0.1741205 -0.2335138 2.498838 -0.08193171 -0.1749773 2.952831 0.03653609 0.4609623 3.064676 0.03815305 0.4062586 2.869972 -0.04842913 0.498642 3.189515 0.1127122 0.7892065 3.094532 0.1103948 0.8254385 3.124037 0.1350964 1.146089 3.213874 0.1398323 1.115511 3.026569 0.04005372 0.8617544 3.067665 0.07550752 1.183681 3.236986 0.2654041 1.463655 3.290296 0.3192209 1.439406 3.525068 0.3624901 1.605124 3.549231 0.3814048 1.565757 3.359792 0.3198089 1.389926 3.582942 0.3778728 1.532207 -2.468254 -0.3947441 -0.5004206 -2.465718 -0.06098711 -0.6634679 -2.470903 0.2749449 -0.5050163 -2.489544 0.2801974 0.2711487 -2.49208 -0.05355966 0.4341965 -2.486895 -0.3894916 0.2757454 -2.477025 -0.5308158 -0.1113862 4.798594 -0.1576749 -0.01882171 4.808657 -0.01584702 -0.07369899 4.806146 0.119621 0.003025054 4.775783 0.1042689 0.3207312 4.765718 -0.03755831 0.3756085 4.768231 -0.1730271 0.2988834 4.781849 -0.2227808 0.1355066 6.121784 -0.1819171 0.7093105 6.127724 -0.1273161 0.6906576 6.110511 -0.1315681 0.7713108 6.123581 -0.07520651 0.7192507 6.111786 -0.05611115 0.7783423 6.099242 -0.08121919 0.833312 6.093302 -0.1358218 0.851964 6.097445 -0.1879305 0.8233729 6.109234 -0.2070246 0.7642813 -0.03684711 -0.3186166 0.2842283 -0.03458356 -0.1839278 0.5805369 -0.02910709 0.09386599 0.6812086 -0.02362346 0.3520384 0.5272713 -0.02361011 0.3046658 -0.08740806 -0.02908706 0.02687132 -0.1880807 -0.03457069 -0.2313002 -0.03414344 2.386873 -0.420037 -0.299798 2.377356 -0.3210545 -0.07512378 2.378101 -0.1117707 0.005687713 2.388671 0.08521735 -0.1047039 2.41239 0.05553305 -0.5663061 2.411645 -0.15375 -0.6471171 2.401075 -0.3507364 -0.536726 5.270663 0.0363487 0.2986469 5.294321 0.04831004 0.05110454 5.296278 -0.05724215 -0.008674621 5.288439 -0.1677486 0.03408241 5.275389 -0.2184768 0.1543283 5.264782 -0.1797107 0.2816258 5.262824 -0.07415854 0.341404 -3.194897 -0.396727 -0.5910835 -3.192361 -0.0629692 -0.7541304 -3.205542 -0.05925589 -0.2052984 -3.197546 0.2729628 -0.5956793 -3.207416 0.4142869 -0.2085494 -3.216187 0.2782146 0.1804866 -3.218723 -0.05554163 0.3435335 -3.213537 -0.3914744 0.1850824 -3.203668 -0.5327978 -0.2020502 -2.467913 0.3392065 -0.5296602 -2.480942 0.4851496 -0.1195325 -0.01778173 0.5081542 0.2077713 -0.02153158 0.3680135 -0.1143703 -2.492902 0.3455074 0.2928124 -0.01946926 0.4174514 0.5469751 4.814058 0.1843979 -0.01862621 4.797853 0.2380076 0.1693267 5.296025 0.154864 0.1791067 5.311474 0.112335 0.03327274 4.778299 0.1680551 0.3454323 5.271565 0.09918558 0.325449 2.392301 0.1503795 -0.08433341 2.406002 0.2230482 -0.3480244 2.415073 0.1191115 -0.5925875 6.091252 -0.01799619 0.8595095 6.119246 0.006893992 0.7830725 6.146492 -0.01241922 0.7025137 -3.194784 0.3376561 -0.619225 -3.207538 0.4791317 -0.2089891 -3.219192 0.3432107 0.2031517</float_array>
          <technique_common>
            <accessor source="#Mesh_004-mesh-positions-array" count="150" stride="3">
              <param name="X" type="float"/>
              <param name="Y" type="float"/>
              <param name="Z" type="float"/>
            </accessor>
          </technique_common>
        </source>
        <source id="Mesh_004-mesh-normals">
          <float_array id="Mesh_004-mesh-normals-array" count="1023">0.1074942 0.9898502 0.09296071 0.07519537 0.9865768 0.1449549 0.06310391 0.9872613 0.146058 -0.6003126 0.6750971 0.4287991 -0.5505272 0.7083319 0.4417984 -0.6095606 0.6591259 0.4404418 -0.7892065 -0.07106709 0.6100023 -0.8576271 0.001642048 0.5142697 -0.8571857 4.73266e-5 0.5150075 -0.6766812 -0.6939128 0.2461459 -0.6553053 -0.7003356 0.2830283 -0.6766758 -0.6939154 0.246153 -0.08460104 -0.9864266 -0.1407312 -0.05807632 -0.9939361 -0.09337151 -0.08460098 -0.9864268 -0.1407296 0.5570274 -0.7011047 -0.4451662 0.5825482 -0.7090582 -0.3973339 0.5821968 -0.7091732 -0.3976435 0.8723611 -0.005076944 -0.4888358 0.8923009 -0.0121423 -0.4512779 0.8918606 -0.0117771 -0.452157 0.7713535 0.622895 -0.1304438 0.6898112 0.6897683 -0.2199556 0.6161848 0.7248632 -0.3080418 -0.4996042 0.2333807 -0.8342237 -0.4814859 0.164122 -0.8609503 -0.4996025 0.2333806 -0.8342248 -7.95876e-4 0.9997041 0.0243147 0.001727879 0.9994539 0.033001 -0.5452787 0.7167198 0.4347228 -0.6082465 0.7299844 0.3117035 -0.8826846 0.01231908 0.4698044 -0.6558879 -0.7000749 0.2823228 -0.6034725 -0.7020934 0.3780027 -0.05806803 -0.9938914 -0.09385192 0.03859817 -0.9948453 0.0937705 0.6687161 -0.7146388 -0.2052075 0.6653147 -0.7161136 -0.2110396 0.935735 -0.01763153 -0.352263 0.9331479 -0.01883876 -0.3589988 0.6636466 0.6999517 -0.2638954 0.6660141 0.7008986 -0.2552774 -0.0738458 0.9892055 -0.126567 -0.1451613 0.9545431 -0.2603378 -0.07555776 0.9879961 -0.13474 -0.6979343 0.7122256 0.07498461 -0.7255765 0.6881376 -0.002335906 -0.6957341 0.7138531 0.07979917 -0.9555274 -0.006347 0.294834 -0.9531276 -9.66005e-4 0.3025673 -0.9569217 -0.006098151 0.2902824 -0.6263805 -0.6995605 0.3438935 -0.5949531 -0.6705448 0.4431709 -0.5714246 -0.6731314 0.469434 0.08219856 -0.9726501 0.2172449 0.1408368 -0.9209244 0.3634053 0.1359747 -0.9183813 0.3716 0.7414579 -0.6709336 -0.009401798 0.7680277 -0.6334614 0.09412837 0.76973 -0.6324859 0.08647125 0.9786043 0.01810169 -0.2049537 0.9728815 0.0214411 -0.2303083 0.9774542 0.02949327 -0.2090777 0.6591897 0.7093561 -0.2495655 0.6146995 0.694906 -0.3731625 0.6558899 0.7061462 -0.2667695 0.08611464 -0.9706358 0.2246116 -0.6194971 -0.6964402 0.3622078 0.756941 0.02603656 -0.6529643 0.674888 -0.2627825 -0.6895445 0.8571863 0.001986205 -0.5150027 0.6937442 -0.7166866 -0.07126933 0.560385 -0.8159988 -0.1418268 0.7289438 -0.6772018 0.1001936 0.2814885 -0.827528 0.4857589 0.1070629 -0.8681582 0.4846018 0.2869491 -0.8124029 0.5076041 -0.1969093 -0.652334 0.7319065 -0.3146577 -0.3683319 0.8748269 -0.3342265 -0.3252045 0.8846099 -0.613582 -0.06727153 0.7867603 -0.4929981 0.3353359 0.8028092 -0.4929985 0.3836729 0.7808635 -0.6285881 0.732282 0.2619925 -0.3544377 0.8957796 0.2682407 -0.3335267 0.9132225 0.2340614 -0.2326951 0.9148096 -0.3301157 -0.1183537 0.970012 -0.2122952 -0.1140962 0.9695439 -0.2167183 0.3268672 0.6844378 -0.6516923 0.4492785 0.4653349 -0.7626352 0.4744358 0.4294739 -0.768416 -0.2193871 -0.6571236 0.7211505 -0.7849159 -0.02927935 0.6189103 -0.7009752 0.7073295 0.0912072 -0.2405165 0.9036737 -0.3542963 0.5964716 0.6988574 -0.3947404 0.5933634 0.4287379 0.6812517 0.5791966 0.4214609 0.6977838 0.5933469 0.4287808 0.681239 0.8725176 -0.004741609 -0.4885598 0.8841285 -0.007235348 -0.4671881 0.883994 -0.007168889 -0.4674435 -0.6767681 -0.6936874 0.2465417 -0.6656348 -0.6964216 0.2681927 -0.6766982 -0.6937694 0.2465028 0.7186673 0.6666378 -0.197766 0.9036798 0.4027594 0.1454225 0.8723619 -0.005080878 -0.4888342 0.8723608 -0.005076944 -0.4888365 0.8723625 -0.005084574 -0.4888333 0.5570284 -0.7011041 -0.4451658 0.5570273 -0.7011049 -0.4451657 0.557029 -0.7011043 -0.4451647 -0.0846017 -0.9864265 -0.1407312 -0.08460223 -0.9864261 -0.1407342 -0.6766806 -0.6939139 0.2461441 -0.8400721 -0.02652025 0.5418263 -0.9084464 0.04687225 0.4153649 0.9255834 -0.01164418 -0.3783647 0.9256058 -0.01238626 -0.3782864 -0.6658664 -0.6963415 0.2678257 -0.6207255 -0.6990641 0.354978 0.9775044 0.02431052 -0.2095097 0.9565981 0.04053032 -0.2885784 0.9570813 0.04429793 -0.2864143 -0.6689883 -0.7246651 0.1652734 -0.6396297 -0.7029268 0.3110753 -0.6392219 -0.703433 0.3107692 -0.620121 -0.6996656 0.3548495 0.9776898 0.02280867 -0.2088124 -0.3706685 -0.5344999 0.759549 -0.1787019 -0.5752364 0.7982285 -0.3682145 -0.5292084 0.7644323 0.6361958 0.3798826 0.6715238 0.7545554 0.1472974 0.6394919 0.8142489 0.1349556 0.5646112 0.712412 0.2151954 0.6679522 0.6572783 0.2077558 0.7244465 0.7743973 -0.1174998 -0.6216933 0.5574088 -0.1875549 -0.808776 0.5565884 -0.1838194 -0.8101974 -0.4972252 -0.5432118 0.6765265 -0.4997817 -0.540543 0.6767803 0.7749558 -0.1199097 -0.6205363 0.1709865 -0.4448598 -0.8791264 0.02124488 -0.5063908 -0.8620424 0.02608412 -0.5105042 -0.8594796 0.1470735 0.4108352 -0.8997689 0.02278769 0.3475462 -0.9373859 0.1456588 0.4139004 -0.8985934 0.04207116 0.9376236 -0.3450974 0.03215116 0.9187629 -0.3934987 0.04231262 0.9391082 -0.3410067 -0.04927432 0.9492775 0.3105549 0.0477854 0.9634556 0.2635715 -0.04943346 0.948897 0.3116905 -0.1130451 0.4482567 0.8867281 0.05706357 0.5053083 0.8610501 0.06635081 0.5075744 0.8590494 -0.08411872 -0.4135259 0.9065982 0.0584644 -0.3481203 0.9356251 0.05703252 -0.343711 0.9373421 0.01092803 -0.93532 0.3536342 0.0406109 -0.9123452 0.4074026 0.03970855 -0.9108314 0.4108644 0.1070083 -0.942491 -0.3166388 0.0249288 -0.962626 -0.2696843 0.03035688 -0.9635065 -0.2659585 -0.999704 -0.004119575 -0.02398097 -0.999704 -0.00412029 -0.02398055 -0.999704 -0.004120409 -0.0239818 -0.9996318 0.005002319 -0.0266698 -0.9996752 -0.003441751 -0.02525657 -0.9995708 -0.01276922 -0.0263679 -0.9997039 -0.004120886 -0.0239827 -0.9997039 -0.004120826 -0.02398246 -0.999704 -0.004120945 -0.02398115 0.9777252 -0.03576344 0.2068204 0.9777345 -0.03572589 0.2067831 0.9777396 -0.03576266 0.2067515 0.9538506 -0.1593306 0.2545247 0.9551704 -0.108455 0.2754762 0.9730561 -0.01606082 0.2300086 0.977744 -0.03572046 0.2067385 0.9777546 -0.03573381 0.206686 0.9777392 -0.03580456 0.2067464 0.2151864 -0.395941 -0.892707 0.3725281 -0.357483 -0.8564047 0.4118171 -0.3536788 -0.8398322 0.1880509 0.4557609 -0.8700109 0.4406352 0.4493781 -0.7771099 0.4154964 0.4545832 -0.7878561 0.0703144 0.95246 -0.2964388 0.2603141 0.9353092 -0.2396528 0.2405108 0.9390537 -0.2456272 -0.04241222 0.9391183 0.3409664 0.009551465 0.9348631 0.35488 0.03603327 0.9325922 0.3591286 -0.125921 0.3935289 0.9106476 -0.2036516 0.3654738 0.9082704 -0.1240941 0.3969718 0.9094031 -0.1026827 -0.4597245 0.8821054 -0.2805512 -0.4774404 0.8326714 -0.1008756 -0.4639578 0.8800951 0.008690536 -0.9474145 0.3198912 -0.1109621 -0.9532873 0.2809463 0.008906781 -0.9486141 0.3163101 0.1267031 -0.9286304 -0.3487005 0.1725237 -0.9141249 -0.3668943 0.1262006 -0.9274748 -0.3519433 0.03650683 -0.9130698 0.406166 0.0870971 -0.3557339 0.9305201 0.104606 0.4863675 0.86747 0.09599083 0.4885914 0.8672164 0.07832819 0.9606208 0.2665944 0.07075661 0.9617606 0.2645943 0.03819102 0.9194785 -0.3912811 0.03992348 0.9184512 -0.3935145 -0.00493741 0.3566478 -0.9342259 -0.00272125 0.3546611 -0.934991 -0.03162139 -0.4939461 -0.8689173 -0.010755 -0.9604782 -0.2781473 -0.0200864 -0.4911137 -0.8708639 -0.05564713 0.953744 0.2954248 0.2752611 0.9506078 -0.1434441 0.6069083 0.4176968 -0.6761596 0.5936642 -0.3178111 -0.7392963 0.5937709 -0.3172076 -0.7394698 0.2676947 -0.8980366 -0.3490988 0.2676745 -0.898055 -0.3490667 -0.1842966 -0.9453587 0.268946 -0.1841871 -0.9454357 0.26875 -0.4921577 -0.4476268 0.7465997 -0.4920208 -0.4485251 0.7461506 -0.2475603 0.364198 0.8978161 -0.4762316 0.331306 0.8145182 0.1694965 -0.4423349 -0.8806877 0.1125444 -0.4368435 -0.8924694 0.1125442 -0.4368429 -0.8924698 0.1109071 0.4253706 -0.8981979 0.03642833 0.9440104 -0.3278984 -0.04494988 0.9482672 0.3142752 -0.112544 0.436845 0.8924687 -0.1135389 0.4453338 0.8881368 -0.08528238 -0.4162335 0.9052495 -0.1109072 -0.42537 0.8981981 -0.1109071 -0.4253698 0.8981983 0.007346093 -0.9362581 0.3512362 -0.04007768 -0.9389393 0.3417407 -0.04007804 -0.9389396 0.3417401 0.1029088 -0.9421439 -0.3190214 0.04361867 -0.9433346 -0.3289641 0.04361879 -0.9433348 -0.3289637 0.1496322 -0.3663612 -0.9183626 -0.02820068 -0.3903229 -0.9202461 -0.02985113 -0.3906346 -0.9200618 0.06134545 -0.2918121 0.9545065 -0.09552317 -0.3112683 0.9455091 -0.09558463 -0.3111431 0.9455441 0.05792284 -0.285721 -0.9565608 0.1951101 -0.3449993 -0.9181 0.0589767 -0.2824641 -0.9574633 -0.1387922 -0.3377328 0.930953 -0.01275783 -0.3896157 0.9208891 -0.1382682 -0.3371561 0.9312399 0.0264157 -0.2997976 0.9536371 0.06151324 -0.2914552 0.9546046 0.003189861 -0.3823429 -0.9240151 0.002296566 -0.3817788 -0.924251 0.02474486 -0.2992395 0.9538571 0.1947814 -0.3470922 -0.9173806 -0.5427315 -0.3767048 0.7506904 -0.5450664 -0.3246571 0.7729815 -0.5451307 -0.3222758 0.773932 0.9616931 -0.05416446 0.2687241 0.9293645 -0.2023288 0.3087794 0.9359859 -0.1361247 0.3246544 0.5505112 -0.3590876 -0.7536535 0.5404072 -0.3936203 -0.7436552 0.539944 -0.3951315 -0.7431901 0.1170359 -0.3450438 -0.9312611 0.1494766 -0.3665578 -0.9183094 -0.9990134 0.02646386 -0.03566551 -0.9989392 -0.0311169 -0.03394639 -0.9995581 -0.002086877 -0.02965301 -0.1146638 -0.3310002 0.9366382 -0.1145449 -0.3318189 0.9363631 0.1289939 0.9875515 0.09001463 0.6911215 0.6885591 -0.2196304 -0.457973 0.08579015 -0.8848168 -0.5048472 0.2555271 -0.8245212 -0.5048444 0.2555236 -0.8245241 -0.4814837 0.1641193 -0.860952 -0.4814838 0.1641302 -0.8609499 -0.6036447 0.7303215 0.3197557 -0.878511 0.01408177 0.4775145 -0.6061602 -0.7033455 0.3713151 0.03700983 -0.9955139 0.08707767 -0.1428887 0.9525039 -0.2689222 -0.7268369 0.6868091 -0.001240789 -0.9576234 -0.004752576 0.2879846 0.7412009 -0.6711291 -0.01438516 0.9794659 0.01891034 -0.2007214 0.671416 -0.3084587 -0.6738351 0.5507937 -0.8245477 -0.1294119 0.09347629 -0.8638593 0.4949843 0.2978335 0.6961405 -0.6532103 0.5933559 0.4287508 0.68125 0.5932918 0.4289488 0.6811813 0.5933764 0.4287434 0.6812369 0.8725146 -0.004856288 -0.488564 -0.676669 -0.6939203 0.2461581 -0.5213038 -0.2309074 0.8215378 -0.668621 -0.7250208 0.1651998 -0.1719642 -0.58368 0.7935655 0.02516609 0.3429276 -0.9390248 0.03272134 0.9172311 -0.3970094 0.04019153 0.964789 0.2599363 0.2163671 -0.3933562 -0.8935638 0.1878247 0.4577276 -0.8690267 0.07048022 0.9533846 -0.2934115 -0.04280722 0.9377616 0.3446313 -0.2564026 -0.4801943 0.8388512 -0.08500397 -0.9551285 0.2837322 0.1335399 -0.9182251 -0.372867 0.03368252 -0.9123606 0.4079999 0.08130997 -0.3537456 0.9318008 2.59881e-4 -0.9610668 -0.2763164 -0.05336195 0.9550924 0.2914636 0.2714568 0.9527088 -0.1365911 0.6067161 0.4189251 -0.6755719 -0.4764381 0.3301834 0.8148533 0.1109068 0.4253703 -0.8981981 0.03799742 0.9450432 -0.3247302 -0.0462343 0.9490599 0.3116853 -0.1125438 0.4368446 0.8924689 -0.01277357 -0.3921481 0.9198135 -0.542576 -0.3791664 0.7495626 0.550922 -0.3576147 -0.7540536 0.1171746 -0.3440685 -0.9316046</float_array>
          <technique_common>
            <accessor source="#Mesh_004-mesh-normals-array" count="341" stride="3">
              <param name="X" type="float"/>
              <param name="Y" type="float"/>
              <param name="Z" type="float"/>
            </accessor>
          </technique_common>
        </source>
        <source id="Mesh_004-mesh-map-0">
          <float_array id="Mesh_004-mesh-map-0-array" count="1752">0.375 0.3125 0.40625 0.6884399 0.375 0.6884399 0.4375 0.3125 0.40625 0.6884399 0.40625 0.3125 0.4375 0.3125 0.46875 0.6884399 0.4375 0.6884399 0.5 0.3125 0.46875 0.6884399 0.46875 0.3125 0.53125 0.3125 0.5 0.6884399 0.5 0.3125 0.53125 0.3125 0.5625 0.6884399 0.53125 0.6884399 0.5625 0.3125 0.59375 0.6884399 0.5625 0.6884399 0.625 0.3125 0.59375 0.6884399 0.59375 0.3125 0.65625 0.15625 0.5 0.3125 0.34375 0.15625 0.6104854 0.9542354 0.5 1 0.6104854 0.9542354 0.3895146 0.9542354 0.5 1 0.5 1 0.34375 0.84375 0.3895146 0.9542354 0.3895146 0.9542354 0.3895146 0.7332646 0.34375 0.84375 0.34375 0.84375 0.5 0.6875 0.3895146 0.7332646 0.3895146 0.7332646 0.5 0.6875 0.6104854 0.7332646 0.5 0.6875 0.6104854 0.7332646 0.65625 0.84375 0.6104854 0.7332646 0.65625 0.84375 0.6104854 0.9542354 0.65625 0.84375 0.5 1 0.6104854 0.9542354 0.6104854 0.9542354 0.3895146 0.9542354 0.5 1 0.5 1 0.34375 0.84375 0.3895146 0.9542354 0.3895146 0.9542354 0.34375 0.84375 0.3895146 0.7332646 0.34375 0.84375 0.3895146 0.7332646 0.5 0.6875 0.3895146 0.7332646 0.5 0.6875 0.6104854 0.7332646 0.5 0.6875 0.6104854 0.7332646 0.65625 0.84375 0.6104854 0.7332646 0.6104854 0.9542354 0.65625 0.84375 0.65625 0.84375 0.65625 0.84375 0.6104854 0.7332646 0.6104854 0.7332646 0.6104854 0.7332646 0.5 0.6875 0.5 0.6875 0.3895146 0.7332646 0.5 0.6875 0.3895146 0.7332646 0.34375 0.84375 0.3895146 0.7332646 0.34375 0.84375 0.3895146 0.9542354 0.34375 0.84375 0.3895146 0.9542354 0.5 1 0.3895146 0.9542354 0.5 1 0.5 1 0.6104854 0.9542354 0.6104854 0.9542354 0.6104854 0.9542354 0.65625 0.84375 0.65625 0.84375 0.65625 0.84375 0.6104854 0.7332646 0.6104854 0.7332646 0.6104854 0.7332646 0.5 0.6875 0.5 0.6875 0.5 0.6875 0.3895146 0.7332646 0.3895146 0.7332646 0.34375 0.84375 0.3895146 0.7332646 0.34375 0.84375 0.3895146 0.9542354 0.34375 0.84375 0.3895146 0.9542354 0.5 1 0.3895146 0.9542354 0.5 1 0.6104854 0.9542354 0.5 1 0.6104854 0.9542354 0.65625 0.84375 0.6104854 0.9542354 0.65625 0.84375 0.65625 0.84375 0.6104854 0.7332646 0.6104854 0.7332646 0.6104854 0.7332646 0.5 0.6875 0.5 0.6875 0.5 0.6875 0.3895146 0.7332646 0.3895146 0.7332646 0.34375 0.84375 0.3895146 0.7332646 0.34375 0.84375 0.3895146 0.9542354 0.34375 0.84375 0.3895146 0.9542354 0.5 1 0.3895146 0.9542354 0.5 1 0.6104854 0.9542354 0.5 1 0.6104854 0.9542354 0.6104854 0.9542354 0.65625 0.84375 0.65625 0.84375 0.65625 0.84375 0.6104854 0.9542354 0.3895146 0.7332646 0.375 0.3125 0.375 0.6884399 0.375 0.6884399 0.4375 0.3125 0.4375 0.6884399 0.4375 0.3125 0.6104854 0.04576456 0.65625 0.15625 0.6104854 0.04576456 0.65625 0.15625 0.6104854 0.2667354 0.65625 0.15625 0.6104854 0.2667354 0.5 0.3125 0.6104854 0.2667354 0.5 0.3125 0.3895146 0.2667354 0.5 0.3125 0.34375 0.15625 0.3895146 0.2667354 0.3895146 0.2667354 0.3895146 0.04576456 0.34375 0.15625 0.34375 0.15625 0.6104854 0.9542354 0.6104854 0.9542354 0.6104854 0.9542354 0.3895146 0.9542354 0.3895146 0.9542354 0.3895146 0.9542354 0.6104854 0.9542354 0.6104854 0.9542354 0.6104854 0.9542354 0.3895146 0.9542354 0.3895146 0.9542354 0.3895146 0.9542354 0.3895146 0.9542354 0.3895146 0.9542354 0.3895146 0.9542354 0.6104854 0.9542354 0.6104854 0.9542354 0.6104854 0.9542354 0.3895146 0.9542354 0.3895146 0.9542354 0.3895146 0.9542354 0.3895146 0.9542354 0.5 1 0.3895146 0.9542354 0.5 1 0.6104854 0.9542354 0.5 1 0.6104854 0.9542354 0.6104854 0.9542354 0.6104854 0.9542354 0.3895146 0.9542354 0.3895146 0.9542354 0.3895146 0.9542354 0.6104854 0.9542354 0.6104854 0.9542354 0.6104854 0.9542354 0.375 0.3125 0.40625 0.4382487 0.375 0.4382487 0.4375 0.3125 0.40625 0.4382487 0.40625 0.3125 0.46875 0.3125 0.4375 0.4382487 0.4375 0.3125 0.5 0.3125 0.46875 0.4382487 0.46875 0.3125 0.5 0.3125 0.53125 0.4382487 0.5 0.4382487 0.53125 0.3125 0.5625 0.4382487 0.53125 0.4382487 0.5625 0.3125 0.59375 0.4382487 0.5625 0.4382487 0.59375 0.3125 0.625 0.4382487 0.59375 0.4382487 0.5 0 0.6104854 0.04576456 0.5 0.15 0.3895146 0.04576456 0.5 0 0.5 0.15 0.34375 0.15625 0.3895146 0.04576456 0.5 0.15 0.3895146 0.2667354 0.34375 0.15625 0.5 0.15 0.5 0.3125 0.3895146 0.2667354 0.5 0.15 0.6104854 0.2667354 0.5 0.3125 0.5 0.15 0.65625 0.15625 0.6104854 0.2667354 0.5 0.15 0.6104854 0.04576456 0.65625 0.15625 0.5 0.15 0.6104854 0.9542354 0.5 1 0.5 0.8375 0.5 1 0.3895146 0.9542354 0.5 0.8375 0.3895146 0.9542354 0.34375 0.84375 0.5 0.8375 0.34375 0.84375 0.3895146 0.7332646 0.5 0.8375 0.3895146 0.7332646 0.5 0.6875 0.5 0.8375 0.5 0.6875 0.6104854 0.7332646 0.5 0.8375 0.6104854 0.7332646 0.65625 0.84375 0.5 0.8375 0.65625 0.84375 0.6104854 0.9542354 0.5 0.8375 0.6104854 0.9542354 0.5 1 0.6104854 0.9542354 0.5 1 0.3895146 0.9542354 0.5 1 0.3895146 0.9542354 0.34375 0.84375 0.3895146 0.9542354 0.34375 0.84375 0.3895146 0.7332646 0.34375 0.84375 0.5 0.6875 0.3895146 0.7332646 0.3895146 0.7332646 0.6104854 0.7332646 0.5 0.6875 0.5 0.6875 0.65625 0.84375 0.6104854 0.7332646 0.6104854 0.7332646 0.6104854 0.9542354 0.65625 0.84375 0.65625 0.84375 0.59375 0.4382487 0.5625 0.5637217 0.5625 0.4382487 0.5625 0.4382487 0.53125 0.5637217 0.53125 0.4382487 0.5 0.4382487 0.53125 0.5637217 0.5 0.5637217 0.46875 0.4382487 0.5 0.5637217 0.46875 0.5637217 0.4375 0.4382487 0.46875 0.5637217 0.4375 0.5637217 0.40625 0.4382487 0.4375 0.5637217 0.40625 0.5637217 0.40625 0.4382487 0.375 0.5637217 0.375 0.4382487 0.625 0.4382487 0.59375 0.5637217 0.59375 0.4382487 0.5625 0.5637217 0.59375 0.6884399 0.5625 0.6884399 0.53125 0.5637217 0.5625 0.6884399 0.53125 0.6884399 0.53125 0.5637217 0.5 0.6884399 0.5 0.5637217 0.5 0.5637217 0.46875 0.6884399 0.46875 0.5637217 0.46875 0.5637217 0.4375 0.6884399 0.4375 0.5637217 0.4375 0.5637217 0.40625 0.6884399 0.40625 0.5637217 0.40625 0.5637217 0.375 0.6884399 0.375 0.5637217 0.59375 0.5637217 0.625 0.6884399 0.59375 0.6884399 0.3895146 0.7332646 0.34375 0.84375 0.34375 0.84375 0.34375 0.84375 0.3895146 0.9542354 0.3895146 0.9542354 0.3895146 0.9542354 0.5 1 0.5 1 0.6104854 0.9542354 0.5 1 0.6104854 0.9542354 0.65625 0.84375 0.6104854 0.9542354 0.65625 0.84375 0.6104854 0.7332646 0.65625 0.84375 0.6104854 0.7332646 0.5 0.6875 0.6104854 0.7332646 0.5 0.6875 0.5 0.6875 0.3895146 0.7332646 0.3895146 0.7332646 0.5 0 0.6104854 0.04576456 0.5 0 0.5 0 0.3895146 0.04576456 0.3895146 0.04576456 0.3895146 0.04576456 0.34375 0.15625 0.34375 0.15625 0.34375 0.15625 0.3895146 0.2667354 0.3895146 0.2667354 0.3895146 0.2667354 0.5 0.3125 0.5 0.3125 0.6104854 0.2667354 0.5 0.3125 0.6104854 0.2667354 0.65625 0.15625 0.6104854 0.2667354 0.65625 0.15625 0.6104854 0.04576456 0.65625 0.15625 0.6104854 0.04576456 0.4375 0.3125 0.4375 0.4382487 0.4375 0.4382487 0.5 0.4382487 0.5 0.3125 0.5 0.3125 0.3895146 0.9542354 0.3895146 0.9542354 0.3895146 0.9542354 0.3895146 0.7332646 0.3895146 0.7332646 0.3895146 0.7332646 0.5 0.4382487 0.5 0.5637217 0.5 0.4382487 0.4375 0.5637217 0.4375 0.4382487 0.4375 0.5637217 0.5 0.6884399 0.5 0.5637217 0.5 0.5637217 0.4375 0.6884399 0.4375 0.5637217 0.4375 0.6884399 0.3895146 0.7332646 0.3895146 0.7332646 0.3895146 0.7332646 0.34375 0.84375 0.3895146 0.7332646 0.3895146 0.7332646 0.34375 0.84375 0.3895146 0.9542354 0.34375 0.84375 0.3895146 0.9542354 0.3895146 0.9542354 0.3895146 0.9542354 0.3895146 0.04576456 0.3895146 0.04576456 0.3895146 0.04576456 0.34375 0.15625 0.3895146 0.04576456 0.3895146 0.04576456 0.34375 0.15625 0.3895146 0.2667354 0.34375 0.15625 0.3895146 0.2667354 0.3895146 0.2667354 0.3895146 0.2667354 0.375 0.3125 0.40625 0.3125 0.40625 0.6884399 0.4375 0.3125 0.4375 0.6884399 0.40625 0.6884399 0.4375 0.3125 0.46875 0.3125 0.46875 0.6884399 0.5 0.3125 0.5 0.6884399 0.46875 0.6884399 0.53125 0.3125 0.53125 0.6884399 0.5 0.6884399 0.53125 0.3125 0.5625 0.3125 0.5625 0.6884399 0.5625 0.3125 0.59375 0.3125 0.59375 0.6884399 0.625 0.3125 0.625 0.6884399 0.59375 0.6884399 0.5 0 0.6104854 0.04576456 0.3895146 0.04576456 0.6104854 0.04576456 0.65625 0.15625 0.34375 0.15625 0.65625 0.15625 0.6104854 0.2667354 0.5 0.3125 0.5 0.3125 0.3895146 0.2667354 0.34375 0.15625 0.34375 0.15625 0.3895146 0.04576456 0.6104854 0.04576456 0.6104854 0.9542354 0.5 1 0.5 1 0.3895146 0.9542354 0.3895146 0.9542354 0.5 1 0.34375 0.84375 0.34375 0.84375 0.3895146 0.9542354 0.3895146 0.7332646 0.3895146 0.7332646 0.34375 0.84375 0.5 0.6875 0.5 0.6875 0.3895146 0.7332646 0.5 0.6875 0.6104854 0.7332646 0.6104854 0.7332646 0.6104854 0.7332646 0.65625 0.84375 0.65625 0.84375 0.65625 0.84375 0.6104854 0.9542354 0.6104854 0.9542354 0.5 1 0.5 1 0.6104854 0.9542354 0.3895146 0.9542354 0.3895146 0.9542354 0.5 1 0.34375 0.84375 0.34375 0.84375 0.3895146 0.9542354 0.34375 0.84375 0.3895146 0.7332646 0.3895146 0.7332646 0.3895146 0.7332646 0.5 0.6875 0.5 0.6875 0.5 0.6875 0.6104854 0.7332646 0.6104854 0.7332646 0.6104854 0.7332646 0.65625 0.84375 0.65625 0.84375 0.6104854 0.9542354 0.6104854 0.9542354 0.65625 0.84375 0.65625 0.84375 0.65625 0.84375 0.6104854 0.7332646 0.6104854 0.7332646 0.6104854 0.7332646 0.5 0.6875 0.3895146 0.7332646 0.5 0.6875 0.5 0.6875 0.34375 0.84375 0.3895146 0.7332646 0.3895146 0.7332646 0.3895146 0.9542354 0.34375 0.84375 0.34375 0.84375 0.5 1 0.3895146 0.9542354 0.3895146 0.9542354 0.5 1 0.5 1 0.6104854 0.9542354 0.6104854 0.9542354 0.6104854 0.9542354 0.65625 0.84375 0.65625 0.84375 0.65625 0.84375 0.6104854 0.7332646 0.6104854 0.7332646 0.6104854 0.7332646 0.5 0.6875 0.5 0.6875 0.5 0.6875 0.3895146 0.7332646 0.34375 0.84375 0.3895146 0.7332646 0.3895146 0.7332646 0.3895146 0.9542354 0.34375 0.84375 0.34375 0.84375 0.5 1 0.3895146 0.9542354 0.3895146 0.9542354 0.6104854 0.9542354 0.5 1 0.5 1 0.65625 0.84375 0.6104854 0.9542354 0.6104854 0.9542354 0.65625 0.84375 0.65625 0.84375 0.6104854 0.7332646 0.6104854 0.7332646 0.6104854 0.7332646 0.5 0.6875 0.5 0.6875 0.5 0.6875 0.3895146 0.7332646 0.34375 0.84375 0.3895146 0.7332646 0.3895146 0.7332646 0.3895146 0.9542354 0.34375 0.84375 0.34375 0.84375 0.5 1 0.3895146 0.9542354 0.3895146 0.9542354 0.6104854 0.9542354 0.5 1 0.5 1 0.6104854 0.9542354 0.6104854 0.9542354 0.65625 0.84375 0.6104854 0.9542354 0.5 1 0.3895146 0.9542354 0.3895146 0.9542354 0.34375 0.84375 0.6104854 0.9542354 0.34375 0.84375 0.3895146 0.7332646 0.6104854 0.9542354 0.3895146 0.7332646 0.5 0.6875 0.6104854 0.7332646 0.6104854 0.7332646 0.65625 0.84375 0.3895146 0.7332646 0.375 0.3125 0.375 0.3125 0.375 0.6884399 0.4375 0.3125 0.4375 0.6884399 0.4375 0.6884399 0.6104854 0.04576456 0.65625 0.15625 0.65625 0.15625 0.65625 0.15625 0.6104854 0.2667354 0.6104854 0.2667354 0.6104854 0.2667354 0.5 0.3125 0.5 0.3125 0.5 0.3125 0.3895146 0.2667354 0.3895146 0.2667354 0.34375 0.15625 0.34375 0.15625 0.3895146 0.2667354 0.3895146 0.04576456 0.3895146 0.04576456 0.34375 0.15625 0.6104854 0.9542354 0.6104854 0.9542354 0.6104854 0.9542354 0.3895146 0.9542354 0.3895146 0.9542354 0.3895146 0.9542354 0.6104854 0.9542354 0.6104854 0.9542354 0.6104854 0.9542354 0.3895146 0.9542354 0.3895146 0.9542354 0.3895146 0.9542354 0.3895146 0.9542354 0.3895146 0.9542354 0.3895146 0.9542354 0.6104854 0.9542354 0.6104854 0.9542354 0.6104854 0.9542354 0.3895146 0.9542354 0.3895146 0.9542354 0.3895146 0.9542354 0.3895146 0.9542354 0.5 1 0.5 1 0.5 1 0.6104854 0.9542354 0.6104854 0.9542354 0.6104854 0.9542354 0.6104854 0.9542354 0.6104854 0.9542354 0.3895146 0.9542354 0.3895146 0.9542354 0.3895146 0.9542354 0.6104854 0.9542354 0.6104854 0.9542354 0.6104854 0.9542354 0.375 0.3125 0.40625 0.3125 0.40625 0.4382487 0.4375 0.3125 0.4375 0.4382487 0.40625 0.4382487 0.46875 0.3125 0.46875 0.4382487 0.4375 0.4382487 0.5 0.3125 0.5 0.4382487 0.46875 0.4382487 0.5 0.3125 0.53125 0.3125 0.53125 0.4382487 0.53125 0.3125 0.5625 0.3125 0.5625 0.4382487 0.5625 0.3125 0.59375 0.3125 0.59375 0.4382487 0.59375 0.3125 0.625 0.3125 0.625 0.4382487 0.6104854 0.9542354 0.5 1 0.5 1 0.5 1 0.3895146 0.9542354 0.3895146 0.9542354 0.3895146 0.9542354 0.34375 0.84375 0.34375 0.84375 0.34375 0.84375 0.3895146 0.7332646 0.3895146 0.7332646 0.5 0.6875 0.5 0.6875 0.3895146 0.7332646 0.6104854 0.7332646 0.6104854 0.7332646 0.5 0.6875 0.65625 0.84375 0.65625 0.84375 0.6104854 0.7332646 0.6104854 0.9542354 0.6104854 0.9542354 0.65625 0.84375 0.59375 0.4382487 0.59375 0.5637217 0.5625 0.5637217 0.5625 0.4382487 0.5625 0.5637217 0.53125 0.5637217 0.5 0.4382487 0.53125 0.4382487 0.53125 0.5637217 0.46875 0.4382487 0.5 0.4382487 0.5 0.5637217 0.4375 0.4382487 0.46875 0.4382487 0.46875 0.5637217 0.40625 0.4382487 0.4375 0.4382487 0.4375 0.5637217 0.40625 0.4382487 0.40625 0.5637217 0.375 0.5637217 0.625 0.4382487 0.625 0.5637217 0.59375 0.5637217 0.5625 0.5637217 0.59375 0.5637217 0.59375 0.6884399 0.53125 0.5637217 0.5625 0.5637217 0.5625 0.6884399 0.53125 0.5637217 0.53125 0.6884399 0.5 0.6884399 0.5 0.5637217 0.5 0.6884399 0.46875 0.6884399 0.46875 0.5637217 0.46875 0.6884399 0.4375 0.6884399 0.4375 0.5637217 0.4375 0.6884399 0.40625 0.6884399 0.40625 0.5637217 0.40625 0.6884399 0.375 0.6884399 0.59375 0.5637217 0.625 0.5637217 0.625 0.6884399 0.3895146 0.7332646 0.3895146 0.7332646 0.34375 0.84375 0.34375 0.84375 0.34375 0.84375 0.3895146 0.9542354 0.3895146 0.9542354 0.3895146 0.9542354 0.5 1 0.6104854 0.9542354 0.5 1 0.5 1 0.65625 0.84375 0.6104854 0.9542354 0.6104854 0.9542354 0.6104854 0.7332646 0.65625 0.84375 0.65625 0.84375 0.5 0.6875 0.6104854 0.7332646 0.6104854 0.7332646 0.5 0.6875 0.5 0.6875 0.3895146 0.7332646 0.5 0 0.6104854 0.04576456 0.6104854 0.04576456 0.5 0 0.5 0 0.3895146 0.04576456 0.3895146 0.04576456 0.3895146 0.04576456 0.34375 0.15625 0.34375 0.15625 0.34375 0.15625 0.3895146 0.2667354 0.3895146 0.2667354 0.3895146 0.2667354 0.5 0.3125 0.6104854 0.2667354 0.5 0.3125 0.5 0.3125 0.65625 0.15625 0.6104854 0.2667354 0.6104854 0.2667354 0.6104854 0.04576456 0.65625 0.15625 0.65625 0.15625 0.4375 0.3125 0.4375 0.3125 0.4375 0.4382487 0.5 0.4382487 0.5 0.4382487 0.5 0.3125 0.3895146 0.9542354 0.3895146 0.9542354 0.3895146 0.9542354 0.3895146 0.7332646 0.3895146 0.7332646 0.3895146 0.7332646 0.5 0.4382487 0.5 0.5637217 0.5 0.5637217 0.4375 0.5637217 0.4375 0.4382487 0.4375 0.4382487 0.5 0.6884399 0.5 0.6884399 0.5 0.5637217 0.4375 0.6884399 0.4375 0.5637217 0.4375 0.5637217 0.3895146 0.7332646 0.3895146 0.7332646 0.3895146 0.7332646 0.34375 0.84375 0.34375 0.84375 0.3895146 0.7332646 0.34375 0.84375 0.3895146 0.9542354 0.3895146 0.9542354 0.3895146 0.9542354 0.3895146 0.9542354 0.3895146 0.9542354 0.3895146 0.04576456 0.3895146 0.04576456 0.3895146 0.04576456 0.34375 0.15625 0.34375 0.15625 0.3895146 0.04576456 0.34375 0.15625 0.3895146 0.2667354 0.3895146 0.2667354 0.3895146 0.2667354 0.3895146 0.2667354 0.3895146 0.2667354</float_array>
          <technique_common>
            <accessor source="#Mesh_004-mesh-map-0-array" count="876" stride="2">
              <param name="S" type="float"/>
              <param name="T" type="float"/>
            </accessor>
          </technique_common>
        </source>
        <vertices id="Mesh_004-mesh-vertices">
          <input semantic="POSITION" source="#Mesh_004-mesh-positions"/>
        </vertices>
        <triangles material="deadTree_001-material" count="126">
          <input semantic="VERTEX" source="#Mesh_004-mesh-vertices" offset="0"/>
          <input semantic="NORMAL" source="#Mesh_004-mesh-normals" offset="1"/>
          <input semantic="TEXCOORD" source="#Mesh_004-mesh-map-0" offset="2" set="0"/>
          <p>50 0 0 52 1 1 53 2 2 54 3 3 52 4 4 51 5 5 56 24 24 58 25 25 60 26 26 53 2 27 61 27 28 62 28 29 55 29 30 61 30 31 52 4 32 65 42 51 67 43 52 64 44 53 68 45 54 66 46 55 65 47 56 61 30 90 68 45 91 65 47 92 61 27 93 64 44 94 62 28 95 71 83 114 72 84 115 73 85 116 74 86 117 73 87 118 75 88 119 66 46 138 70 94 139 71 83 140 67 43 141 71 95 142 74 86 143 0 100 150 53 101 151 7 102 152 1 103 153 55 104 154 54 105 155 0 21 156 56 106 157 50 107 158 6 108 159 57 109 160 56 110 161 5 111 162 58 112 163 57 113 164 4 12 165 59 114 166 58 115 167 2 11 168 59 116 169 3 9 170 1 6 171 60 117 172 2 118 173 7 102 174 62 119 175 35 120 176 8 121 177 63 122 178 55 104 179 14 123 180 67 124 181 49 125 182 48 126 183 68 127 184 15 128 185 15 128 186 63 122 187 34 129 188 14 123 189 62 119 190 64 130 191 41 131 192 72 132 193 70 133 194 23 134 195 73 135 196 72 136 197 22 137 198 75 138 199 73 135 200 42 139 201 75 140 202 21 141 203 41 131 204 69 142 205 48 143 206 42 139 207 67 124 208 74 144 209 130 151 216 132 152 217 129 153 218 133 154 219 131 155 220 130 156 221 135 193 288 137 194 289 138 195 290 136 196 291 140 197 292 137 198 293 131 155 315 141 215 316 142 216 317 132 152 318 142 217 319 143 218 320 141 215 339 136 196 340 142 216 341 142 217 342 135 193 343 143 218 344 140 197 354 145 224 355 137 198 356 137 194 357 146 225 358 138 195 359 129 153 384 148 241 385 130 151 386 130 156 387 149 242 388 133 154 389 78 254 402 132 255 403 103 256 404 102 257 405 133 258 406 79 259 407 114 260 408 135 261 409 138 262 410 86 263 411 140 264 412 139 265 413 102 257 414 141 266 415 134 267 416 110 268 417 132 255 418 143 269 419 86 263 420 141 266 421 109 270 422 85 271 423 143 269 424 135 261 425 95 272 426 140 273 427 113 274 428 94 182 429 144 275 430 95 183 431 94 182 432 146 276 433 145 277 434 114 278 435 146 279 436 93 280 437 78 254 438 147 281 439 129 282 440 124 173 441 147 283 442 123 172 443 124 173 444 149 284 445 148 285 446 125 286 447 133 258 448 149 287 449 50 0 450 51 288 451 52 1 452 54 3 453 55 29 454 52 4 455 51 290 474 50 291 475 54 292 476 50 291 477 56 24 478 60 26 479 56 24 480 57 293 481 58 25 482 58 25 483 59 294 484 60 26 485 60 26 486 54 292 487 50 291 488 53 2 489 52 1 490 61 27 491 55 29 492 63 295 493 61 30 494 65 42 513 66 299 514 67 43 515 68 45 516 69 300 517 66 46 518 61 30 552 63 295 553 68 45 554 61 27 555 65 42 556 64 44 557 71 83 576 70 94 577 72 84 578 74 86 579 71 95 580 73 87 581 66 46 600 69 300 601 70 94 602 67 43 603 66 299 604 71 95 605 0 100 624 50 311 625 53 101 626 1 103 627 8 121 628 55 104 629 0 21 630 6 23 631 56 106 632 6 108 633 5 18 634 57 109 635 5 111 636 4 15 637 58 112 638 4 12 639 3 14 640 59 114 641 2 11 642 60 312 643 59 116 644 1 6 645 54 313 646 60 117 647 7 102 648 53 101 649 62 119 650 8 121 651 34 129 652 63 122 653 14 123 654 64 130 655 67 124 656 48 126 657 69 314 658 68 127 659 15 128 660 68 127 661 63 122 662 14 123 663 35 120 664 62 119 665 41 131 666 23 315 667 72 132 668 23 134 669 22 137 670 73 135 671 22 137 672 21 98 673 75 138 674 42 139 675 74 144 676 75 140 677 41 131 678 70 133 679 69 142 680 42 139 681 49 125 682 67 124 683 130 151 690 131 317 691 132 152 692 133 154 693 134 318 694 131 155 695 135 193 714 136 321 715 137 194 716 136 196 717 139 322 718 140 197 719 131 155 741 134 318 742 141 215 743 132 152 744 131 317 745 142 217 746 141 215 765 139 322 766 136 196 767 142 217 768 136 321 769 135 193 770 140 197 780 144 329 781 145 224 782 137 194 783 145 330 784 146 225 785 129 153 810 147 334 811 148 241 812 130 156 813 148 335 814 149 242 815 78 254 828 129 282 829 132 255 830 102 257 831 134 267 832 133 258 833 114 260 834 85 271 835 135 261 836 86 263 837 113 337 838 140 264 839 102 257 840 109 270 841 141 266 842 110 268 843 103 256 844 132 255 845 86 263 846 139 265 847 141 266 848 85 271 849 110 268 850 143 269 851 95 272 852 144 338 853 140 273 854 94 182 855 145 277 856 144 275 857 94 182 858 93 181 859 146 276 860 114 278 861 138 339 862 146 279 863 78 254 864 123 340 865 147 281 866 124 173 867 148 285 868 147 283 869 124 173 870 125 174 871 149 284 872 125 286 873 79 259 874 133 258 875</p>
        </triangles>
        <triangles material="deadTree_002-material" count="166">
          <input semantic="VERTEX" source="#Mesh_004-mesh-vertices" offset="0"/>
          <input semantic="NORMAL" source="#Mesh_004-mesh-normals" offset="1"/>
          <input semantic="TEXCOORD" source="#Mesh_004-mesh-map-0" offset="2" set="0"/>
          <p>1 6 6 9 7 7 8 8 8 3 9 9 9 10 10 2 11 11 4 12 12 10 13 13 3 14 14 4 15 15 12 16 16 11 17 17 5 18 18 13 19 19 12 20 20 0 21 21 13 22 22 6 23 23 9 7 33 34 31 34 8 8 35 10 32 36 33 33 37 9 10 38 11 34 39 32 35 40 10 13 41 11 17 42 30 36 43 31 37 44 12 20 45 29 38 46 30 39 47 13 22 48 35 40 49 29 41 50 16 48 57 48 49 58 15 50 59 16 51 60 46 52 61 47 53 62 17 54 63 45 55 64 46 56 65 18 57 66 44 58 67 45 59 68 19 60 69 43 61 70 44 62 71 14 63 72 43 64 73 20 65 74 29 38 75 19 60 76 30 39 77 30 36 78 18 57 79 31 37 80 32 35 81 18 66 82 17 54 83 33 33 84 17 67 85 16 51 86 34 31 87 16 48 88 15 50 89 35 40 96 20 65 97 29 41 98 36 68 99 27 69 100 37 70 101 37 71 102 26 72 103 38 73 104 38 74 105 25 75 106 39 76 107 40 77 108 25 78 109 24 79 110 41 80 111 24 81 112 23 82 113 36 89 120 21 90 121 28 91 122 43 61 123 37 70 124 44 62 125 44 58 126 38 73 127 45 59 128 45 55 129 39 76 130 46 56 131 47 53 132 39 92 133 40 77 134 48 49 135 40 93 136 41 80 137 49 96 144 36 89 145 43 64 146 28 97 147 21 98 148 25 99 149 76 145 210 104 146 211 105 147 212 78 148 213 104 149 214 77 150 215 79 157 222 101 158 223 102 159 224 80 160 225 100 161 226 101 162 227 81 163 228 99 164 229 100 165 230 82 166 231 105 167 232 99 168 233 121 169 234 120 170 235 122 171 236 123 172 237 121 169 238 122 171 239 124 173 240 123 172 241 122 171 242 125 174 243 124 173 244 122 171 245 126 175 246 125 174 247 122 171 248 127 176 249 126 175 250 122 171 251 128 177 252 127 176 253 122 171 254 120 170 255 128 177 256 122 171 257 90 178 258 91 179 259 92 180 260 91 179 261 93 181 262 92 180 263 93 181 264 94 182 265 92 180 266 94 182 267 95 183 268 92 180 269 95 183 270 96 184 271 92 180 272 96 184 273 97 185 274 92 180 275 97 185 276 98 186 277 92 180 278 98 186 279 90 178 280 92 180 281 83 187 282 115 188 283 116 189 284 84 190 285 114 191 286 115 192 287 87 199 294 113 200 295 86 201 296 88 202 297 119 203 298 87 204 299 89 205 300 118 206 301 88 207 302 83 208 303 117 209 304 89 210 305 99 164 306 107 211 307 100 165 308 100 161 309 108 212 310 101 162 311 102 159 312 108 213 313 109 214 314 104 149 321 110 219 322 111 220 323 104 146 324 112 221 325 105 147 326 105 167 327 106 222 328 99 168 329 107 211 330 89 205 331 88 207 332 108 212 333 88 202 334 87 204 335 108 213 336 86 201 337 109 214 338 110 219 345 84 190 346 111 220 347 111 223 348 83 187 349 112 221 350 106 222 351 83 208 352 89 210 353 114 191 360 91 226 361 115 192 362 116 189 363 91 227 364 90 228 365 117 209 366 90 229 367 98 230 368 118 206 369 98 231 370 97 232 371 119 203 372 97 233 373 96 234 374 119 235 375 95 236 376 113 200 377 77 237 378 120 238 379 121 239 380 77 150 381 123 240 382 78 148 383 79 157 390 126 243 391 80 244 392 81 245 393 126 246 394 127 247 395 82 248 396 127 249 397 128 250 398 76 251 399 128 252 400 120 253 401 1 6 456 2 118 457 9 7 458 3 9 459 10 32 460 9 10 461 4 12 462 11 34 463 10 13 464 4 15 465 5 111 466 12 16 467 5 18 468 6 108 469 13 19 470 0 21 471 7 289 472 13 22 473 9 7 495 33 296 496 34 31 497 10 32 498 32 297 499 33 33 500 11 34 501 31 298 502 32 35 503 11 17 504 12 16 505 30 36 506 12 20 507 13 19 508 29 38 509 13 22 510 7 289 511 35 40 512 16 48 519 47 301 520 48 49 521 16 51 522 17 67 523 46 52 524 17 54 525 18 66 526 45 55 527 18 57 528 19 302 529 44 58 530 19 60 531 20 303 532 43 61 533 14 63 534 49 96 535 43 64 536 29 38 537 20 303 538 19 60 539 30 36 540 19 302 541 18 57 542 32 35 543 31 298 544 18 66 545 33 33 546 32 297 547 17 67 548 34 31 549 33 296 550 16 48 551 35 40 558 14 63 559 20 65 560 36 68 561 28 304 562 27 69 563 37 71 564 27 305 565 26 72 566 38 74 567 26 306 568 25 75 569 40 77 570 39 92 571 25 78 572 41 80 573 40 93 574 24 81 575 36 89 582 42 307 583 21 90 584 43 61 585 36 68 586 37 70 587 44 58 588 37 71 589 38 73 590 45 55 591 38 74 592 39 76 593 47 53 594 46 52 595 39 92 596 48 49 597 47 301 598 40 93 599 49 96 606 42 307 607 36 89 608 21 98 609 22 137 610 23 134 611 23 134 612 24 308 613 21 98 614 24 308 615 25 99 616 21 98 617 25 99 618 26 309 619 27 310 620 27 310 621 28 97 622 25 99 623 76 145 684 77 237 685 104 146 686 78 148 687 103 316 688 104 149 689 79 157 696 80 244 697 101 158 698 80 160 699 81 245 700 100 161 701 81 163 702 82 248 703 99 164 704 82 166 705 76 251 706 105 167 707 83 187 708 84 319 709 115 188 710 84 190 711 85 320 712 114 191 713 87 199 720 119 235 721 113 200 722 88 202 723 118 323 724 119 203 725 89 205 726 117 324 727 118 206 728 83 208 729 116 325 730 117 209 731 99 164 732 106 326 733 107 211 734 100 161 735 107 327 736 108 212 737 102 159 738 101 158 739 108 213 740 104 149 747 103 316 748 110 219 749 104 146 750 111 223 751 112 221 752 105 167 753 112 328 754 106 222 755 107 211 756 106 326 757 89 205 758 108 212 759 107 327 760 88 202 761 108 213 762 87 199 763 86 201 764 110 219 771 85 320 772 84 190 773 111 223 774 84 319 775 83 187 776 106 222 777 112 328 778 83 208 779 114 191 786 93 331 787 91 226 788 116 189 789 115 188 790 91 227 791 117 209 792 116 325 793 90 229 794 118 206 795 117 324 796 98 231 797 119 203 798 118 323 799 97 233 800 119 235 801 96 332 802 95 236 803 77 237 804 76 145 805 120 238 806 77 150 807 121 333 808 123 240 809 79 157 816 125 336 817 126 243 818 81 245 819 80 160 820 126 246 821 82 248 822 81 163 823 127 249 824 76 251 825 82 166 826 128 252 827</p>
        </triangles>
      </mesh>
    </geometry>
  </library_geometries>
  <library_visual_scenes>
    <visual_scene id="Scene" name="Scene">
      <node id="base00" name="base00" type="NODE">
        <matrix sid="transform">1 0 0 0 0 1 0 0 0 0 1 0 0 0 0 1</matrix>
        <node id="start01" name="start01" type="NODE">
          <matrix sid="transform">1 0 0 0 0 1 0 0 0 0 1 0 0 0 0 1</matrix>
          <node id="Dead_branch" name="Dead_branch" type="NODE">
            <matrix sid="transform">0.01 0 0 0 0 -1.62921e-9 -0.01 0 0 0.01 -1.62921e-9 0 0 0 0 1</matrix>
            <instance_geometry url="#Mesh_004-mesh" name="Dead_branch">
              <bind_material>
                <technique_common>
                  <instance_material symbol="deadTree_001-material" target="#deadTree_001-material">
                    <bind_vertex_input semantic="map1" input_semantic="TEXCOORD" input_set="0"/>
                  </instance_material>
                  <instance_material symbol="deadTree_002-material" target="#deadTree_002-material">
                    <bind_vertex_input semantic="map1" input_semantic="TEXCOORD" input_set="0"/>
                  </instance_material>
                </technique_common>
              </bind_material>
            </instance_geometry>
          </node>
          <node id="Colmesh-1" name="Colmesh-1" type="NODE">
            <matrix sid="transform">0.01 0 0 0 0 -1.62921e-9 -0.01 0 0 0.01 -1.62921e-9 0 0 0 0 1</matrix>
            <instance_geometry url="#Mesh_007-mesh" name="Colmesh-1"/>
          </node>
        </node>
      </node>
    </visual_scene>
  </library_visual_scenes>
  <scene>
    <instance_visual_scene url="#Scene"/>
  </scene>
</COLLADA>