<?xml version="1.0" encoding="utf-8"?>
<COLLADA xmlns="http://www.collada.org/2005/11/COLLADASchema" version="1.4.1" xmlns:xsi="http://www.w3.org/2001/XMLSchema-instance">
  <asset>
    <contributor>
      <author>Blender User</author>
      <authoring_tool>Blender 3.4.1 commit date:2022-12-19, commit time:17:00, hash:55485cb379f7</authoring_tool>
    </contributor>
    <created>2025-12-20T16:12:37</created>
    <modified>2025-12-20T16:12:37</modified>
    <unit name="meter" meter="1"/>
    <up_axis>Z_UP</up_axis>
  </asset>
  <library_effects>
    <effect id="christmasIslandDual_001-effect">
      <profile_COMMON>
        <newparam sid="christmasIslandDual_001_Base_Color-surface">
          <surface type="2D">
            <init_from>christmasIslandDual_001_Base_Color</init_from>
          </surface>
        </newparam>
        <newparam sid="christmasIslandDual_001_Base_Color-sampler">
          <sampler2D>
            <source>christmasIslandDual_001_Base_Color-surface</source>
          </sampler2D>
        </newparam>
        <technique sid="common">
          <lambert>
            <emission>
              <color sid="emission">0 0 0 1</color>
            </emission>
            <diffuse>
              <texture texture="christmasIslandDual_001_Base_Color-sampler" texcoord="UVMap"/>
            </diffuse>
            <index_of_refraction>
              <float sid="ior">1.45</float>
            </index_of_refraction>
          </lambert>
        </technique>
      </profile_COMMON>
    </effect>
    <effect id="christmasIslandDual_002-effect">
      <profile_COMMON>
        <technique sid="common">
          <lambert>
            <emission>
              <color sid="emission">0 0 0 1</color>
            </emission>
            <diffuse>
              <color sid="diffuse">0.8 0.8 0.8 1</color>
            </diffuse>
            <index_of_refraction>
              <float sid="ior">1.45</float>
            </index_of_refraction>
          </lambert>
        </technique>
      </profile_COMMON>
    </effect>
  </library_effects>
  <library_images>
    <image id="christmasIslandDual_001_Base_Color" name="christmasIslandDual_001_Base_Color">
      <init_from>christmasIslandDual.001%20Base%20Color.png</init_from>
    </image>
  </library_images>
  <library_materials>
    <material id="christmasIslandDual_001-material" name="christmasIslandDual.001">
      <instance_effect url="#christmasIslandDual_001-effect"/>
    </material>
    <material id="christmasIslandDual_002-material" name="christmasIslandDual.002">
      <instance_effect url="#christmasIslandDual_002-effect"/>
    </material>
  </library_materials>
  <library_geometries>
    <geometry id="Plane_006-mesh" name="Plane.006">
      <mesh>
        <source id="Plane_006-mesh-positions">
          <float_array id="Plane_006-mesh-positions-array" count="342">-106.1734 18.76233 144.8236 93.34178 14.99245 175.5304 -129.7486 46.35805 -140.4272 117.2711 29.81226 -90.40789 -110.1103 38.28988 -27.38213 -101.3964 28.53541 82.90061 103.2366 24.4823 105.3893 119.6139 27.97052 13.31322 -79.21991 19.29776 159.5363 -27.18062 21.11327 186.9081 45.56213 17.9804 179.9589 54.02109 36.36164 -159.8589 -25.76022 65.23697 -179.7472 -77.1131 64.70611 -165.4297 54.90741 24.23467 106.7416 -24.49114 21.24128 93.83609 -73.00637 24.57853 82.24835 81.15605 35.24008 -22.07976 -12.66248 45.70507 -53.65665 -74.68125 49.68976 -75.21716 -96.26359 25.98624 33.47956 111.9362 27.00272 60.14333 -63.43124 26.84071 16.36255 -16.93725 27.00547 23.57393 66.06305 26.38769 44.83324 11.54669 22.1536 182.4348 13.40107 47.63543 -183.7899 21.24826 26.39804 99.54319 28.94875 33.54964 -33.50878 26.24363 26.41969 34.75545 -99.42888 14.92179 84.6774 -106.0263 3.639912 144.3979 45.70466 2.50646 179.8158 93.48432 -0.2618847 175.3309 121.3481 11.61608 14.13815 117.4882 13.17728 -89.99273 -76.38954 43.2017 -168.2879 -128.7818 24.40576 -125.1349 -110.6159 19.49811 -26.78939 -95.02691 11.38704 34.593 103.3791 8.711237 105.3224 112.5089 10.88598 60.36576 -80.64054 4.216305 156.5785 -27.89072 5.139013 185.5661 11.69429 6.423223 182.357 55.67638 16.74675 -154.5269 14.09399 28.59297 -178.5969 -25.27622 45.44206 -175.3628 -92.03395 8.707766 82.58493 -99.15988 -0.4791069 136.431 42.78002 -3.879612 170.333 87.53208 -6.963827 166.2585 114.24 4.016245 15.60133 109.7697 7.597391 -83.61538 -69.83033 36.67653 -159.2085 -116.8592 12.59942 -109.7025 -104.1904 9.46033 -22.9743 -88.51712 4.620327 34.95025 96.79988 1.90119 100.5679 105.6275 3.400639 58.72676 115.668 -38.23893 61.29742 105.4358 -38.23893 105.8666 -77.40252 -1.384754 145.0369 -27.98082 -0.8385258 172.4788 10.97104 -0.258564 172.721 54.36082 7.99511 -141.5081 14.43106 21.92054 -164.7039 -22.47929 37.27579 -162.3574 -95.97742 -38.23893 34.70867 -114.1361 -38.23893 -24.52024 -132.637 -38.23893 -94.49311 -77.22003 -38.23893 -119.88 120.0996 -38.23893 -90.01211 130.9296 -38.23893 17.61464 95.38783 -38.23893 175.5593 46.86851 -38.23893 180.5643 -105.6449 -38.23893 145.0756 -100.2487 -38.23893 85.7211 -90.82836 -11.59638 83.47039 -98.08242 -17.92591 135.4104 42.9726 -23.02677 169.6879 87.72466 -25.26823 165.3969 118.922 -18.55879 17.92913 110.3659 -17.3402 -81.36545 -68.96147 -4.91003 -122.5249 -119.0985 -19.52371 -88.58663 -105.4207 -18.69055 -21.32642 -87.86871 -16.4605 35.43499 96.99245 -18.75123 100.3092 106.4302 -18.38049 59.04227 -77.09815 -20.06947 143.4094 -28.52565 -19.75123 169.9431 11.29582 -19.90797 172.1923 56.32876 -17.48284 -123.8973 19.50165 -11.49327 -126.4648 -15.11539 -5.309074 -124.4125 -69.46323 -34.47636 84.06945 -80.36296 -35.88327 -57.03961 -78.74288 -38.23893 160.0212 -26.67039 -38.23893 187.5105 12.53861 -38.23893 183.7044 61.25974 -38.23893 -132.9435 19.92029 -38.23893 -130.7073 -16.84885 -38.23893 -128.6547 56.35845 -38.0794 107.2576 22.17823 -38.19157 100.5405 -20.81077 -38.59444 94.51615 84.98015 -38.83917 -16.11963 33.61349 -38.39621 -30.79765 -16.55709 -34.49661 -49.38742 -63.70206 -38.93095 17.48014 -16.63288 -38.19863 23.84847 67.69876 -38.36632 45.03137 27.25093 -38.33138 34.79135</float_array>
          <technique_common>
            <accessor source="#Plane_006-mesh-positions-array" count="114" stride="3">
              <param name="X" type="float"/>
              <param name="Y" type="float"/>
              <param name="Z" type="float"/>
            </accessor>
          </technique_common>
        </source>
        <source id="Plane_006-mesh-normals">
          <float_array id="Plane_006-mesh-normals-array" count="1278">0.1589751 0.9872668 0.00560069 0.1313213 0.991296 -0.009335815 0.1198297 0.9926732 -0.0155192 0.04492235 0.9930995 0.1083298 0.02516049 0.9925399 0.1192962 0.07080215 0.9930642 0.09386527 0.01720452 0.9967039 0.07928079 0.02496242 0.9954094 0.09239608 0.05504959 0.9881691 0.1431488 0.04941451 0.9778874 0.2032104 0.02706211 0.9737558 0.2259809 0.06958705 0.9807525 0.1824345 -0.0329163 0.9707858 0.2376796 -0.0278241 0.970081 0.2411818 -0.02277028 0.9693446 0.2446478 -0.04033499 0.9925389 0.1150641 -0.04615497 0.9929147 0.1094993 -0.05440425 0.9933372 0.1015946 -0.01428264 0.996276 0.08503097 0.08715963 0.9866037 0.1378998 0.1398666 0.9763458 0.1648828 -0.008173584 0.9997075 0.02276432 0.01899844 0.9987896 0.04537171 0.05127745 0.9960726 0.07218003 0.1068263 0.991703 0.07150882 0.06739991 0.9942098 0.08369189 0.1262036 0.9898426 0.06545531 -0.200003 0.9725165 0.1192072 -0.2320325 0.9615646 0.1468145 -0.1786935 0.9787179 0.1008953 0.01651865 0.9878304 0.154655 0.0258919 0.9869534 0.1589114 0.03530001 0.9859667 0.1631678 0.007316946 0.9996924 0.02370071 0.1856207 0.9808688 0.05866348 0.2298629 0.9708989 0.06722086 0.03535807 0.9989604 0.02877396 0.01742601 0.999749 0.01408505 7.052e-4 0.9999998 3.88375e-4 0.02680414 0.9974017 0.06686931 0.01421415 0.9983918 0.0548793 -0.008668541 0.999416 0.03305494 0.08793419 0.9960392 -0.01318413 0.02867639 0.9994736 0.01517421 0.1371178 0.9898704 -0.03681719 -0.01486843 0.9990664 0.04056286 -0.01682984 0.9989858 0.04176431 -0.004169106 0.999413 0.03400576 -0.07185691 0.9970842 0.02568793 -0.04510748 0.9977934 0.04872077 -0.007444918 0.9966892 0.08096617 0.2768782 0.958376 0.06967037 0.3854773 0.9182364 0.09082549 0.4163279 0.9040477 0.09679388 -0.05199784 0.9985881 0.01086759 -0.09140002 0.9954502 0.02692687 -0.02678388 0.9996411 6.00887e-4 0.04940736 0.9870104 0.1528706 0.1079469 0.9741477 0.1984531 0.1629643 0.9568227 0.2406927 0.7181269 -0.6831606 0.1326102 0.7338782 -0.6665931 0.130677 0.7365027 -0.6637579 0.1303434 -0.3766449 -0.8345749 -0.4020243 -0.3827611 -0.8213992 -0.4228442 -0.3848364 -0.8166793 -0.4300417 0.7345008 -0.6784073 0.01650196 0.7184323 -0.695552 0.007912695 0.7358723 -0.6769007 0.01724618 0.3601905 -0.8628643 -0.3545814 0.4390717 -0.7715028 -0.4604339 0.4448058 -0.7634603 -0.4682695 -0.7120599 -0.7020995 0.00521022 -0.65205 -0.7581742 -0.001662731 -0.6437557 -0.7652269 -0.002573728 -0.05070132 -0.8193745 0.5710122 -0.05168128 -0.8204399 0.5693923 -0.05202823 -0.8208163 0.5688179 -0.7731935 -0.6245252 0.1101831 -0.8487101 -0.5179211 0.1069995 -0.7677841 -0.6311385 0.110326 0.02706241 -0.8425107 -0.5379996 -4.62764e-4 -0.892174 -0.4516918 -0.006290793 -0.9014695 -0.4327971 -0.2026043 -0.9005243 0.3847174 -0.2076298 -0.8906584 0.4044967 -0.2083939 -0.8890992 0.4075227 -0.1256037 -0.844088 -0.5212862 -0.1338143 -0.835784 -0.5325024 -0.1236824 -0.8459944 -0.5186483 0.02267873 -0.8953261 0.4448336 0.05936747 -0.8433919 0.5340091 0.07244879 -0.8221406 0.5646556 -0.158562 -0.9193753 0.36001 -0.1776683 -0.9097083 0.3753194 -0.147429 -0.9246907 0.3510153 0.6835313 -0.7222304 0.1056795 0.7108553 -0.6924996 0.1230006 0.6786253 -0.7272785 0.1026344 0.7153965 -0.6964628 -0.05610293 0.5755797 -0.817014 -0.03458648 0.5672864 -0.8228445 -0.03336453 -0.8489105 -0.5061873 0.1520705 -0.7330635 -0.6658113 0.1389724 -0.8576859 -0.4908967 0.1529555 -0.003820478 -0.8252847 0.5647041 0.006665706 -0.8100059 0.5863841 0.008667111 -0.8070138 0.590469 -0.02707248 -0.8454264 -0.5334055 -0.03896731 -0.8292908 -0.5574571 -0.041754 -0.8253853 -0.5630238 -0.6637098 -0.7178563 -0.2101705 -0.6691465 -0.7132061 -0.2087587 -0.6696425 -0.7127784 -0.2086288 0.07245337 -0.005378067 0.9973573 0.07314383 -0.007415056 0.9972938 0.07207357 -0.004257917 0.9973903 -0.9902989 -0.1019955 -0.09436649 -0.9866979 -0.141615 -0.07982814 -0.9909574 -0.09143102 -0.09820336 0.7232816 -0.02270525 -0.6901798 0.727899 -0.1105906 -0.6767074 0.7280753 -0.1219274 -0.6745667 0.9900007 0.007531702 0.140862 0.9900039 0.008230209 0.1407999 0.9900044 0.008349657 0.1407893 -0.1922479 -0.2529438 -0.9481879 -0.1948871 -0.2283006 -0.9538857 -0.1960888 -0.2166201 -0.9563602 0.9816662 0.05333876 0.1829935 0.9809665 0.09685915 0.1682949 0.9802254 0.1121679 0.1630231 -0.9855265 -0.135508 -0.1018596 -0.9936184 -0.02598309 -0.1097605 -0.9827895 -0.155129 -0.1002998 -0.2344026 -0.1342816 -0.9628209 -0.1720614 0.04443401 -0.9840837 -0.2602311 -0.2148606 -0.9413368 0.09195649 -0.00909096 0.9957216 0.09256136 -0.01142537 0.9956415 0.09176874 -0.008366763 0.9957453 -0.9730865 0.02026951 0.2295471 -0.9704743 -0.04834079 0.2363111 -0.9730586 0.03337651 0.2281294 0.9949162 0.09477877 -0.03404361 0.999491 0.02143204 -0.02363461 0.9996721 0.01248836 -0.02235758 0.9801868 0.01424455 0.197563 0.9807935 0.03141599 0.1925026 0.9809329 0.03749155 0.1906966 -0.4454177 -0.05994486 0.8933139 -0.4621688 -0.09910786 0.8812364 -0.4733473 -0.1263858 0.8717619 0.09081941 -0.06748235 0.9935784 0.1071535 -0.02436929 0.9939438 0.1148457 -0.00383675 0.993376 -0.4641231 -0.03296303 -0.8851572 -0.4363462 -0.4377828 -0.7860969 -0.4556626 0.1022 -0.8842662 -0.4743015 -0.1148097 0.8728442 -0.4655179 -0.06493449 0.8826532 -0.4633752 -0.0537104 0.8845331 0.4481246 -0.2034838 -0.8705049 0.4489039 -0.2153666 -0.8672386 0.4491783 -0.2198132 -0.8659797 -0.9813609 0.07549327 0.1767246 -0.9825121 0.03815412 0.1822478 -0.9811552 0.07947599 0.1761197 -0.001888275 -0.999995 0.002551138 -0.001334488 -0.9999979 -0.001573085 -0.001299381 -0.999998 -0.001543998 -0.00479108 -0.9999884 -2.64958e-4 0.006694316 -0.9999654 -0.004941225 0.009628415 -0.9999519 -0.001867771 -0.9973711 -0.03953975 -0.06072485 -0.9963665 -0.05430513 -0.06561172 -0.9957382 -0.06209796 -0.06818622 0.07315778 -0.02805888 0.9969256 0.0743159 -0.03035151 0.9967728 0.07193511 -0.02563911 0.9970797 -0.9767602 0.1449241 0.1579136 -0.979074 0.08455079 0.1851091 -0.9749755 0.1655215 0.1484094 0.05245774 -0.6673076 -0.7429326 0.05877059 -0.6737359 -0.7366316 0.1271117 -0.7384983 -0.6621654 -0.4782844 -0.08788019 0.8737971 -0.4810864 -0.09904706 0.8710601 -0.4820065 -0.1027705 0.8701195 -0.4008401 -0.5730559 -0.7147966 -0.3952939 -0.534038 -0.7473595 -0.4052238 -0.6095163 -0.6813837 -0.04186785 -0.1011629 0.9939886 -0.02056646 -0.0573517 0.9981422 -0.005815804 -0.02699261 0.9996188 -0.3665485 -0.081142 0.926854 -0.3654823 -0.08264261 0.9271424 -0.3694914 -0.07698911 0.9260393 0.9757273 0.01615893 0.2183923 0.9768108 0.02968549 0.2120364 0.9774315 0.03902959 0.2076162 0.9826421 0.1690118 -0.07648307 0.9977897 0.04421818 -0.04960298 0.9988211 0.01988297 -0.04428446 -0.9614303 0.04032635 0.2720769 -0.9576491 -7.05059e-4 0.2879372 -0.9624621 0.05758857 0.2652365 0.08952581 -0.03584647 0.9953393 0.09190255 -0.04254031 0.9948589 0.08839207 -0.0326572 0.9955503 -0.03634065 -0.6646223 -0.7462952 -0.03560876 -0.6650783 -0.7459242 -0.04142963 -0.6614347 -0.7488576 -0.9878498 -0.06252509 -0.1422789 -0.9880562 -0.05530917 -0.1438263 -0.9877725 -0.06483322 -0.1417822 0.9604591 0.09576779 0.2614325 0.9603906 0.1670125 0.2230622 0.9563672 0.2183641 0.1941108 -0.2682384 -0.695409 -0.6666743 -0.2310491 -0.7190763 -0.6553973 -0.3181102 -0.660775 -0.67984 0.9899691 0.004451513 0.1412144 0.9900155 0.006855607 0.1407914 0.9900265 0.00746876 0.1406834 0.6363074 -0.1363215 -0.7592953 0.6622738 -0.3337343 -0.6708315 0.6639479 -0.3898075 -0.6381404 -0.07271248 0.06929475 -0.9949429 -0.1101267 0.0105955 -0.9938611 -0.03378057 0.129445 -0.991011 -0.9425044 0.321726 -0.09043258 -0.94511 0.3148201 -0.08749598 -0.941229 0.3250427 -0.09184396 0.8509043 0.451407 0.2686889 0.832525 0.4783029 0.2795149 0.8637247 0.4313784 0.2605621 -0.04608047 0.1435691 -0.9885669 -0.04380458 0.14052 -0.9891083 -0.03560996 0.1295315 -0.9909357 0.825116 0.550857 0.1254607 0.8767942 0.4526743 0.1622282 0.8857828 0.4320837 0.1693888 0.5136007 0.5050647 -0.693631 0.5438421 0.4578429 -0.7032892 0.5547911 0.4396471 -0.7063407 -0.9354981 0.3421561 -0.08816254 -0.9393458 0.3328579 -0.08267581 -0.9320816 0.3501379 -0.09288448 0.1033678 0.5542144 0.8259308 0.08915358 0.5725731 0.8149919 0.1187521 0.5338298 0.8372119 -0.8381949 0.5025885 0.2117407 -0.8951671 0.4043906 0.1874676 -0.9090014 0.3758277 0.1801952 0.001060009 0.310065 -0.9507149 0.04462414 0.2399012 -0.9697712 0.09413552 0.1574056 -0.9830372 -0.3686911 0.6393098 0.6747962 -0.366642 0.6270158 0.6873317 -0.3696088 0.6449842 0.6688683 -0.5386698 0.1732767 -0.8245061 -0.42637 0.4013612 -0.8106281 -0.5742861 0.07762736 -0.8149659 -1.86357e-4 0.6414567 0.7671594 0.03875702 0.5922632 0.8048119 -0.03832209 0.6863025 0.726306 -0.3225837 0.5757224 0.7513213 -0.3291698 0.5851349 0.7411238 -0.2654579 0.4930482 0.8285141 0.8770787 0.4357056 0.2022225 0.8778449 0.4334638 0.203709 0.8783873 0.4318631 0.2047681 0.8571395 0.5102592 -0.07033956 0.884103 0.4591735 -0.08672767 0.8512585 0.5204561 -0.06696474 -0.8967282 0.3485699 0.2727227 -0.9035611 0.3337343 0.2686985 -0.9059467 0.3283967 0.2672384 0.1000633 0.6068475 0.7884945 0.08451277 0.6333306 0.769253 0.1061642 0.5961767 0.7958031 3.11305e-4 -0.9999898 0.004513502 0.002420425 -0.9999969 6.93891e-4 0.01265358 -0.9994186 -0.03166127 -0.002950906 -0.999912 -0.01293152 -0.01842212 -0.9998143 0.005647838 0.02451252 -0.9985013 -0.0489332 0.02552789 -0.9985106 -0.04821789 0.02236014 -0.9984764 -0.05044913 3.0062e-4 -0.9999865 0.005182921 0.04741376 -0.9983151 -0.03345108 0.09349822 -0.9956017 -0.005951881 0.02573609 -0.9985949 -0.04632496 -0.02378022 -0.9995954 -0.01560604 -0.04501396 -0.9983943 -0.03439146 -0.001953125 -0.9999912 0.003699719 0.008071482 -0.999967 0.001023292 -2.58259e-5 -1 -2.00992e-4 0.03262746 -0.9993176 0.01731431 0.03964167 -0.9991857 0.007516264 0.0555039 -0.9983506 -0.01467525 0.01127201 -0.998997 0.04333466 0.01210719 -0.9990181 0.04261702 0.01711881 -0.9991194 0.03830969 -0.007972538 -0.9999676 0.001141667 0.006861984 -0.9999687 -0.003976404 -0.04909443 -0.99862 0.01865565 -0.02920448 -0.9989206 0.03612315 -0.08211147 -0.9965686 -0.01043605 0.04383581 -0.9976583 0.05250102 0.08574765 -0.9958696 0.02985161 0.1218495 -0.9924962 0.01020234 -0.002337634 -0.9999971 -7.08932e-4 0.005855023 -0.9999828 4.93235e-4 -0.06259399 -0.9978796 0.01784449 -0.02569067 -0.9990761 0.03445309 -0.08099991 -0.9966685 0.009532511 3.73373e-4 -0.9999926 0.003846406 -0.02599656 -0.9994561 -0.02028989 -0.03916883 -0.9987071 -0.03240424 -0.003194212 -0.9999948 6.7841e-4 0.1736552 0.9847131 0.01356279 -0.001330971 0.9909953 0.1338902 -0.01924455 0.9996616 0.01750427 0.01256871 0.9705417 0.2406052 -0.03959351 0.9716532 0.2330719 -0.03065997 0.9917719 0.1242927 -0.05456525 0.9964764 0.06369853 -0.03505599 0.9993854 3.61573e-4 0.0445528 0.9948839 0.0906704 -0.253616 0.9530459 0.1654761 0.01066195 0.9883249 0.1519876 -0.03567373 0.9992485 0.0151599 0.05459016 0.9975156 0.044528 0.04772567 0.995085 0.086766 -0.008785963 0.9994155 0.0330379 -0.03001803 0.9983062 0.04983878 -0.1110147 0.9937847 -0.008227407 0.2508801 0.965862 0.06457448 -0.1165347 0.9924905 0.03718101 -0.01327055 0.9945563 0.103352 0.7149615 -0.6864001 0.1329849 -0.3742651 -0.8394246 -0.3940714 0.7167227 -0.6973231 0.007012426 0.3495786 -0.872813 -0.3405766 -0.720806 -0.6931087 0.006257593 -0.05031096 -0.8189492 0.5716566 -0.855325 -0.5070089 0.1065896 0.03277677 -0.8309994 -0.555307 -0.2017152 -0.9022013 0.3812398 -0.1350204 -0.8345426 -0.5341423 0.01095932 -0.9095866 0.4153699 -0.1898869 -0.9031606 0.3850247 0.7163043 -0.6862198 0.1265332 0.7235928 -0.6878339 -0.05742847 -0.7174595 -0.6829829 0.1370633 -0.006126821 -0.8285557 0.5598732 -0.02435851 -0.848987 -0.5278521 -0.6631388 -0.7183409 -0.2103176 0.07352805 -0.008548855 0.9972566 -0.9854156 -0.1523201 -0.07585918 0.7219362 -0.007846236 -0.6919152 0.99 0.007408261 0.140873 -0.1909365 -0.2647189 -0.945234 0.9814068 0.03747409 0.1882464 -0.9937965 -0.006538391 -0.1110221 -0.1414278 0.1257539 -0.9819288 0.09275108 -0.01215785 0.9956151 -0.9692302 -0.063973 0.2376977 0.9939903 0.1036238 -0.03529119 0.9798887 0.00800985 0.1993843 -0.4318637 -0.02957558 0.9014539 0.08330494 -0.08709967 0.9927104 -0.4164367 -0.5319519 -0.7372977 -0.4760819 -0.1258512 0.8703492 0.4478242 -0.1991541 -0.87166 -0.9825661 0.03221225 0.1831021 -0.9977891 -0.03202813 -0.05823433 0.07556319 -0.03282165 0.9966008 -0.9786246 0.0543788 0.1983353 -0.03549569 -0.5700972 -0.8208101 -0.477287 -0.08396565 0.8747268 -0.3876189 -0.4873304 -0.782471 -0.05642002 -0.1310719 0.9897661 -0.3625717 -0.08672863 0.9279116 0.9747994 0.006296753 0.2229943 0.9775221 0.1942976 -0.0818476 -0.9548731 -0.02256023 0.2961562 0.09307157 -0.04583674 0.9946038 -0.03101605 -0.6679261 -0.7435811 -0.9881202 -0.0525757 -0.1444102 0.9561125 0.03944391 0.2903329 -0.1721701 -0.7529736 -0.6351285 0.9899546 0.003761947 0.1413356 0.6176084 -0.05601394 -0.7844886 -0.1437023 -0.04285341 -0.9886927 -0.9463776 0.3113943 -0.08604037 0.8199064 0.4956793 0.2864533 -0.05505871 0.1555857 -0.9862868 0.8121573 0.571568 0.1170927 0.5034663 0.5199844 -0.6900276 -0.9419393 0.3263897 -0.07886785 0.07338345 0.5924149 0.802284 -0.822148 0.5261369 0.2173769 -0.0497592 0.3890833 -0.9198578 -0.3657083 0.6215685 0.6927555 -0.3589861 0.5070026 -0.783631 0.08168727 0.5340202 0.8415164 -0.3712781 0.6446149 0.6682995 0.8765711 0.4371771 0.2012445 0.8882075 0.4506655 -0.0893768 -0.8942086 0.3538816 0.2741512 0.07857078 0.643182 0.7616716 0.02495557 -0.9986103 -0.04642015 0.02733075 -0.9985234 -0.04694765 0.1218949 -0.9924812 0.01108205 -0.07180559 -0.995725 -0.05810016 0.01755976 -0.9991109 0.03833138 0.006850481 -0.9988652 0.04713249 -8.45299e-5 -0.9999988 -0.001562654 0.006417334 -0.9977123 0.06729865 0.01492267 -0.997572 0.06802517 -0.001604676 -0.9999826 -0.0056957 0.002632021 -0.9988845 0.04714894 -0.05879676 -0.996994 -0.05045801</float_array>
          <technique_common>
            <accessor source="#Plane_006-mesh-normals-array" count="426" stride="3">
              <param name="X" type="float"/>
              <param name="Y" type="float"/>
              <param name="Z" type="float"/>
            </accessor>
          </technique_common>
        </source>
        <source id="Plane_006-mesh-map-0">
          <float_array id="Plane_006-mesh-map-0-array" count="1344">0.6599901 0.5791813 0.6624901 0.5825147 0.6599901 0.5825147 0.6624901 0.5725147 0.6599901 0.575848 0.6599901 0.5725147 0.6599901 0.5775147 0.6624901 0.5791813 0.6599901 0.5791813 0.6549901 0.5775147 0.6524901 0.5791813 0.6524901 0.5775147 0.6549901 0.5775147 0.6574901 0.5791813 0.6549901 0.5791813 0.6587402 0.5775147 0.6599901 0.5791813 0.6587402 0.5791813 0.6524901 0.5725147 0.6549901 0.575848 0.6524901 0.575848 0.6549901 0.5725147 0.6574901 0.575848 0.6549901 0.575848 0.6599901 0.5725147 0.6587401 0.5758479 0.6587402 0.5725147 0.6549901 0.5791813 0.6524901 0.5825147 0.6524901 0.5791813 0.6549901 0.5791813 0.6574901 0.5825147 0.6549901 0.5825147 0.6587402 0.5791813 0.6599901 0.5825147 0.6587402 0.5825147 0.6587401 0.5758479 0.6599901 0.5775147 0.6587402 0.5775147 0.6549901 0.575848 0.6574901 0.5775147 0.6549901 0.5775147 0.6549901 0.575848 0.6524901 0.5775147 0.6524901 0.575848 0.6624901 0.575848 0.6599901 0.5775147 0.6599901 0.575848 0.6574901 0.575848 0.6587402 0.5775147 0.6574901 0.5775147 0.6574901 0.5791813 0.6587402 0.5825147 0.6574901 0.5825147 0.6587402 0.5725147 0.6574901 0.575848 0.6574901 0.5725147 0.6574901 0.5775147 0.6587402 0.5791813 0.6574901 0.5791813 0.6624901 0.5775147 0.6624901 0.5791813 0.6624901 0.5791813 0.6587402 0.5825147 0.6574901 0.5825147 0.6574901 0.5825147 0.6624901 0.5725147 0.6624901 0.575848 0.6624901 0.5725147 0.6624901 0.5825147 0.6599901 0.5825147 0.6599901 0.5825147 0.6524901 0.5775147 0.6524901 0.575848 0.6524901 0.575848 0.6587402 0.5725147 0.6599901 0.5725147 0.6599901 0.5725147 0.6524901 0.5825147 0.6524901 0.5791813 0.6524901 0.5825147 0.6599901 0.5825147 0.6587402 0.5825147 0.6587402 0.5825147 0.6549901 0.5725147 0.6574901 0.5725147 0.6574901 0.5725147 0.6549901 0.5825147 0.6524901 0.5825147 0.6549901 0.5825147 0.6574901 0.5725147 0.6587402 0.5725147 0.6587402 0.5725147 0.6524901 0.5725147 0.6549901 0.5725147 0.6524901 0.5725147 0.6624901 0.575848 0.6624901 0.5775147 0.6624901 0.575848 0.6624901 0.5791813 0.6624901 0.5825147 0.6624901 0.5825147 0.6524901 0.5791813 0.6524901 0.5775147 0.6524901 0.5791813 0.6599901 0.5725147 0.6624901 0.5725147 0.6624901 0.5725147 0.6574901 0.5825147 0.6549901 0.5825147 0.6549901 0.5825147 0.6524901 0.575848 0.6524901 0.5725147 0.6524901 0.5725147 0.6587402 0.5725147 0.6599901 0.5725147 0.6587402 0.5725147 0.6524901 0.5775147 0.6524901 0.575848 0.6524901 0.5775147 0.6624901 0.5825147 0.6599901 0.5825147 0.6599901 0.5825147 0.6624901 0.5725147 0.6624901 0.575848 0.6624901 0.575848 0.6587402 0.5825147 0.6574901 0.5825147 0.6574901 0.5825147 0.6624901 0.5775147 0.6624901 0.5791813 0.6624901 0.5791813 0.6524901 0.575848 0.6524901 0.5725147 0.6524901 0.575848 0.6574901 0.5825147 0.6549901 0.5825147 0.6574901 0.5825147 0.6599901 0.5725147 0.6624901 0.5725147 0.6599901 0.5725147 0.6524901 0.5791813 0.6524901 0.5775147 0.6524901 0.5791813 0.6624901 0.5791813 0.6624901 0.5825147 0.6624901 0.5825147 0.6624901 0.575848 0.6624901 0.5775147 0.6624901 0.5775147 0.6524901 0.5725147 0.6549901 0.5725147 0.6549901 0.5725147 0.6574901 0.5725147 0.6587402 0.5725147 0.6587402 0.5725147 0.6549901 0.5825147 0.6524901 0.5825147 0.6549901 0.5825147 0.6549901 0.5725147 0.6574901 0.5725147 0.6574901 0.5725147 0.6599901 0.5825147 0.6587402 0.5825147 0.6587402 0.5825147 0.6524901 0.5825147 0.6524901 0.5791813 0.6524901 0.5825147 0.5418726 0.8539165 0.5443726 0.8505831 0.5418726 0.8505831 0.5418726 0.8572498 0.5443726 0.8605831 0.5443726 0.8572498 0.6131176 0.8592743 0.6131176 0.8576077 0.6131176 0.8576077 0.6193677 0.8542743 0.6206176 0.8542743 0.6193677 0.8542743 0.6131176 0.8642743 0.6131176 0.860941 0.6131176 0.8642743 0.6206176 0.8642743 0.6193677 0.8642743 0.6193677 0.8642743 0.6156176 0.8542743 0.6181176 0.8542743 0.6181176 0.8542743 0.6156176 0.8642743 0.6131176 0.8642743 0.6156176 0.8642743 0.6181176 0.8542743 0.6193677 0.8542743 0.6193677 0.8542743 0.6131176 0.8542743 0.6156176 0.8542743 0.6131176 0.8542743 0.6231176 0.8576077 0.6231176 0.8592743 0.6231176 0.8592743 0.6231176 0.860941 0.6231176 0.8642743 0.6231176 0.8642743 0.6131176 0.860941 0.6131176 0.8592743 0.6131176 0.860941 0.6206176 0.8542743 0.6231176 0.8542743 0.6206176 0.8542743 0.6181176 0.8642743 0.6156176 0.8642743 0.6156176 0.8642743 0.6131176 0.8576077 0.6131176 0.8542743 0.6131176 0.8576077 0.6231176 0.8592743 0.6231176 0.860941 0.6231176 0.860941 0.6193677 0.8642743 0.6181176 0.8642743 0.6181176 0.8642743 0.6231176 0.8542743 0.6231176 0.8576077 0.6231176 0.8576077 0.6231176 0.8642743 0.6206176 0.8642743 0.6206176 0.8642743 0.6181176 0.8642743 0.6156176 0.8642743 0.6181176 0.8642743 0.6131176 0.8576077 0.6131176 0.8542743 0.6131176 0.8576077 0.6231176 0.8592743 0.6231176 0.860941 0.6231176 0.8592743 0.6193677 0.8642743 0.6181176 0.8642743 0.6181176 0.8642743 0.6231176 0.8542743 0.6231176 0.8576077 0.6231176 0.8576077 0.6231176 0.8642743 0.6206176 0.8642743 0.6206176 0.8642743 0.6131176 0.8592743 0.6131176 0.8576077 0.6131176 0.8592743 0.6193677 0.8542743 0.6206176 0.8542743 0.6193677 0.8542743 0.6131176 0.8642743 0.6131176 0.860941 0.6131176 0.860941 0.6206176 0.8642743 0.6193677 0.8642743 0.6193677 0.8642743 0.6156176 0.8542743 0.6181176 0.8542743 0.6156176 0.8542743 0.6156176 0.8642743 0.6131176 0.8642743 0.6156176 0.8642743 0.6181176 0.8542743 0.6193677 0.8542743 0.6181176 0.8542743 0.6131176 0.8542743 0.6156176 0.8542743 0.6131176 0.8542743 0.6231176 0.8576077 0.6231176 0.8592743 0.6231176 0.8592743 0.6231176 0.860941 0.6231176 0.8642743 0.6231176 0.860941 0.6131176 0.860941 0.6131176 0.8592743 0.6131176 0.8592743 0.6206176 0.8542743 0.6231176 0.8542743 0.6206176 0.8542743 0.5418725 0.8555831 0.5443726 0.8572498 0.5443726 0.8555831 0.5343726 0.8572498 0.5368726 0.8555831 0.5343726 0.8555831 0.5368726 0.8555831 0.5393726 0.8572498 0.5393726 0.8555831 0.5406226 0.8555832 0.5418726 0.8572498 0.5418725 0.8555831 0.5343726 0.8505831 0.5368726 0.8539165 0.5368726 0.8505831 0.5368726 0.8505831 0.5393726 0.8539165 0.5393726 0.8505831 0.5406225 0.8539164 0.5418726 0.8505831 0.5406226 0.8505831 0.5343726 0.8605831 0.5368726 0.8572498 0.5343726 0.8572498 0.5368726 0.8605831 0.5393726 0.8572498 0.5368726 0.8572498 0.5406226 0.8572498 0.5418726 0.8605831 0.5418726 0.8572498 0.5406225 0.8539164 0.5418725 0.8555831 0.5418726 0.8539165 0.5368726 0.8539165 0.5393726 0.8555831 0.5393726 0.8539165 0.5343726 0.8555831 0.5368726 0.8539165 0.5343726 0.8539165 0.5418725 0.8555831 0.5443726 0.8539165 0.5418726 0.8539165 0.5393726 0.8539165 0.5406226 0.8555832 0.5406225 0.8539164 0.5393726 0.8572498 0.5406226 0.8605831 0.5406226 0.8572498 0.5393726 0.8539165 0.5406226 0.8505831 0.5393726 0.8505831 0.5393726 0.8555831 0.5406226 0.8572498 0.5406226 0.8555832 0.6599901 0.5791813 0.6624901 0.5791813 0.6624901 0.5825147 0.6624901 0.5725147 0.6624901 0.575848 0.6599901 0.575848 0.6599901 0.5775147 0.6624901 0.5775147 0.6624901 0.5791813 0.6549901 0.5775147 0.6549901 0.5791813 0.6524901 0.5791813 0.6549901 0.5775147 0.6574901 0.5775147 0.6574901 0.5791813 0.6587402 0.5775147 0.6599901 0.5775147 0.6599901 0.5791813 0.6524901 0.5725147 0.6549901 0.5725147 0.6549901 0.575848 0.6549901 0.5725147 0.6574901 0.5725147 0.6574901 0.575848 0.6599901 0.5725147 0.6599901 0.575848 0.6587401 0.5758479 0.6549901 0.5791813 0.6549901 0.5825147 0.6524901 0.5825147 0.6549901 0.5791813 0.6574901 0.5791813 0.6574901 0.5825147 0.6587402 0.5791813 0.6599901 0.5791813 0.6599901 0.5825147 0.6587401 0.5758479 0.6599901 0.575848 0.6599901 0.5775147 0.6549901 0.575848 0.6574901 0.575848 0.6574901 0.5775147 0.6549901 0.575848 0.6549901 0.5775147 0.6524901 0.5775147 0.6624901 0.575848 0.6624901 0.5775147 0.6599901 0.5775147 0.6574901 0.575848 0.6587401 0.5758479 0.6587402 0.5775147 0.6574901 0.5791813 0.6587402 0.5791813 0.6587402 0.5825147 0.6587402 0.5725147 0.6587401 0.5758479 0.6574901 0.575848 0.6574901 0.5775147 0.6587402 0.5775147 0.6587402 0.5791813 0.6624901 0.5775147 0.6624901 0.5775147 0.6624901 0.5791813 0.6587402 0.5825147 0.6587402 0.5825147 0.6574901 0.5825147 0.6624901 0.5725147 0.6624901 0.575848 0.6624901 0.575848 0.6624901 0.5825147 0.6624901 0.5825147 0.6599901 0.5825147 0.6524901 0.5775147 0.6524901 0.5775147 0.6524901 0.575848 0.6587402 0.5725147 0.6587402 0.5725147 0.6599901 0.5725147 0.6524901 0.5825147 0.6524901 0.5791813 0.6524901 0.5791813 0.6599901 0.5825147 0.6599901 0.5825147 0.6587402 0.5825147 0.6549901 0.5725147 0.6549901 0.5725147 0.6574901 0.5725147 0.6549901 0.5825147 0.6524901 0.5825147 0.6524901 0.5825147 0.6574901 0.5725147 0.6574901 0.5725147 0.6587402 0.5725147 0.6524901 0.5725147 0.6549901 0.5725147 0.6549901 0.5725147 0.6624901 0.575848 0.6624901 0.5775147 0.6624901 0.5775147 0.6624901 0.5791813 0.6624901 0.5791813 0.6624901 0.5825147 0.6524901 0.5791813 0.6524901 0.5775147 0.6524901 0.5775147 0.6599901 0.5725147 0.6599901 0.5725147 0.6624901 0.5725147 0.6574901 0.5825147 0.6574901 0.5825147 0.6549901 0.5825147 0.6524901 0.575848 0.6524901 0.575848 0.6524901 0.5725147 0.6587402 0.5725147 0.6599901 0.5725147 0.6599901 0.5725147 0.6524901 0.5775147 0.6524901 0.575848 0.6524901 0.575848 0.6624901 0.5825147 0.6624901 0.5825147 0.6599901 0.5825147 0.6624901 0.5725147 0.6624901 0.5725147 0.6624901 0.575848 0.6587402 0.5825147 0.6587402 0.5825147 0.6574901 0.5825147 0.6624901 0.5775147 0.6624901 0.5775147 0.6624901 0.5791813 0.6524901 0.575848 0.6524901 0.5725147 0.6524901 0.5725147 0.6574901 0.5825147 0.6549901 0.5825147 0.6549901 0.5825147 0.6599901 0.5725147 0.6624901 0.5725147 0.6624901 0.5725147 0.6524901 0.5791813 0.6524901 0.5775147 0.6524901 0.5775147 0.6624901 0.5791813 0.6624901 0.5791813 0.6624901 0.5825147 0.6624901 0.575848 0.6624901 0.575848 0.6624901 0.5775147 0.6524901 0.5725147 0.6524901 0.5725147 0.6549901 0.5725147 0.6574901 0.5725147 0.6574901 0.5725147 0.6587402 0.5725147 0.6549901 0.5825147 0.6524901 0.5825147 0.6524901 0.5825147 0.6549901 0.5725147 0.6549901 0.5725147 0.6574901 0.5725147 0.6599901 0.5825147 0.6599901 0.5825147 0.6587402 0.5825147 0.6524901 0.5825147 0.6524901 0.5791813 0.6524901 0.5791813 0.5418726 0.8539165 0.5443726 0.8539165 0.5443726 0.8505831 0.5418726 0.8572498 0.5418726 0.8605831 0.5443726 0.8605831 0.6131176 0.8592743 0.6131176 0.8592743 0.6131176 0.8576077 0.6193677 0.8542743 0.6206176 0.8542743 0.6206176 0.8542743 0.6131176 0.8642743 0.6131176 0.860941 0.6131176 0.860941 0.6206176 0.8642743 0.6206176 0.8642743 0.6193677 0.8642743 0.6156176 0.8542743 0.6156176 0.8542743 0.6181176 0.8542743 0.6156176 0.8642743 0.6131176 0.8642743 0.6131176 0.8642743 0.6181176 0.8542743 0.6181176 0.8542743 0.6193677 0.8542743 0.6131176 0.8542743 0.6156176 0.8542743 0.6156176 0.8542743 0.6231176 0.8576077 0.6231176 0.8576077 0.6231176 0.8592743 0.6231176 0.860941 0.6231176 0.860941 0.6231176 0.8642743 0.6131176 0.860941 0.6131176 0.8592743 0.6131176 0.8592743 0.6206176 0.8542743 0.6231176 0.8542743 0.6231176 0.8542743 0.6181176 0.8642743 0.6181176 0.8642743 0.6156176 0.8642743 0.6131176 0.8576077 0.6131176 0.8542743 0.6131176 0.8542743 0.6231176 0.8592743 0.6231176 0.8592743 0.6231176 0.860941 0.6193677 0.8642743 0.6193677 0.8642743 0.6181176 0.8642743 0.6231176 0.8542743 0.6231176 0.8542743 0.6231176 0.8576077 0.6231176 0.8642743 0.6231176 0.8642743 0.6206176 0.8642743 0.6181176 0.8642743 0.6156176 0.8642743 0.6156176 0.8642743 0.6131176 0.8576077 0.6131176 0.8542743 0.6131176 0.8542743 0.6231176 0.8592743 0.6231176 0.860941 0.6231176 0.860941 0.6193677 0.8642743 0.6193677 0.8642743 0.6181176 0.8642743 0.6231176 0.8542743 0.6231176 0.8542743 0.6231176 0.8576077 0.6231176 0.8642743 0.6231176 0.8642743 0.6206176 0.8642743 0.6131176 0.8592743 0.6131176 0.8576077 0.6131176 0.8576077 0.6193677 0.8542743 0.6206176 0.8542743 0.6206176 0.8542743 0.6131176 0.8642743 0.6131176 0.8642743 0.6131176 0.860941 0.6206176 0.8642743 0.6206176 0.8642743 0.6193677 0.8642743 0.6156176 0.8542743 0.6181176 0.8542743 0.6181176 0.8542743 0.6156176 0.8642743 0.6131176 0.8642743 0.6131176 0.8642743 0.6181176 0.8542743 0.6193677 0.8542743 0.6193677 0.8542743 0.6131176 0.8542743 0.6156176 0.8542743 0.6156176 0.8542743 0.6231176 0.8576077 0.6231176 0.8576077 0.6231176 0.8592743 0.6231176 0.860941 0.6231176 0.8642743 0.6231176 0.8642743 0.6131176 0.860941 0.6131176 0.860941 0.6131176 0.8592743 0.6206176 0.8542743 0.6231176 0.8542743 0.6231176 0.8542743 0.5418725 0.8555831 0.5418726 0.8572498 0.5443726 0.8572498 0.5343726 0.8572498 0.5368726 0.8572498 0.5368726 0.8555831 0.5368726 0.8555831 0.5368726 0.8572498 0.5393726 0.8572498 0.5406226 0.8555832 0.5406226 0.8572498 0.5418726 0.8572498 0.5343726 0.8505831 0.5343726 0.8539165 0.5368726 0.8539165 0.5368726 0.8505831 0.5368726 0.8539165 0.5393726 0.8539165 0.5406225 0.8539164 0.5418726 0.8539165 0.5418726 0.8505831 0.5343726 0.8605831 0.5368726 0.8605831 0.5368726 0.8572498 0.5368726 0.8605831 0.5393726 0.8605831 0.5393726 0.8572498 0.5406226 0.8572498 0.5406226 0.8605831 0.5418726 0.8605831 0.5406225 0.8539164 0.5406226 0.8555832 0.5418725 0.8555831 0.5368726 0.8539165 0.5368726 0.8555831 0.5393726 0.8555831 0.5343726 0.8555831 0.5368726 0.8555831 0.5368726 0.8539165 0.5418725 0.8555831 0.5443726 0.8555831 0.5443726 0.8539165 0.5393726 0.8539165 0.5393726 0.8555831 0.5406226 0.8555832 0.5393726 0.8572498 0.5393726 0.8605831 0.5406226 0.8605831 0.5393726 0.8539165 0.5406225 0.8539164 0.5406226 0.8505831 0.5393726 0.8555831 0.5393726 0.8572498 0.5406226 0.8572498</float_array>
          <technique_common>
            <accessor source="#Plane_006-mesh-map-0-array" count="672" stride="2">
              <param name="S" type="float"/>
              <param name="T" type="float"/>
            </accessor>
          </technique_common>
        </source>
        <vertices id="Plane_006-mesh-vertices">
          <input semantic="POSITION" source="#Plane_006-mesh-positions"/>
        </vertices>
        <triangles count="224">
          <input semantic="VERTEX" source="#Plane_006-mesh-vertices" offset="0"/>
          <input semantic="NORMAL" source="#Plane_006-mesh-normals" offset="1"/>
          <input semantic="TEXCOORD" source="#Plane_006-mesh-map-0" offset="2" set="0"/>
          <p>17 0 0 3 1 1 11 2 2 1 3 3 14 4 4 10 5 5 24 6 6 7 7 7 17 8 8 22 9 9 4 10 10 20 11 11 22 12 12 18 13 13 19 14 14 29 15 15 17 16 16 28 17 17 0 18 18 16 19 19 5 20 20 8 21 21 15 22 22 16 23 23 10 24 24 27 25 25 25 26 26 19 27 27 2 28 28 4 29 29 19 30 30 12 31 31 13 32 32 28 33 33 11 34 34 26 35 35 27 36 36 24 37 37 29 38 38 16 39 39 23 40 40 22 41 41 16 42 42 20 43 43 5 44 44 6 45 45 24 46 46 14 47 47 15 48 48 29 49 49 23 50 50 18 51 51 26 52 52 12 53 53 25 54 54 15 55 55 9 56 56 23 57 57 28 58 58 18 59 59 41 60 60 52 61 61 34 62 62 46 63 63 67 64 64 47 65 65 51 66 66 40 67 67 33 68 68 35 69 69 65 70 70 45 71 71 39 72 72 48 73 73 30 74 74 44 75 75 50 76 76 32 77 77 55 78 78 38 79 79 37 80 80 45 81 81 66 82 82 46 83 83 42 84 84 63 85 85 43 86 86 54 87 87 37 88 88 36 89 89 43 90 90 64 91 91 44 92 92 49 93 93 42 94 94 31 95 95 58 96 96 41 97 97 40 98 98 34 99 99 53 100 100 35 101 101 56 102 102 39 103 103 38 104 104 32 105 105 51 106 106 33 107 107 47 108 108 54 109 109 36 110 110 30 111 111 49 112 112 31 113 113 44 114 114 10 115 115 25 116 116 39 117 117 5 118 118 20 119 119 3 120 120 45 121 121 11 122 122 1 123 123 40 124 124 6 125 125 26 126 126 47 127 127 12 128 128 21 129 129 34 130 130 7 131 131 30 132 132 0 133 133 5 134 134 47 135 135 13 136 136 12 137 137 32 138 138 1 139 139 10 140 140 38 141 141 20 142 142 4 143 143 7 144 144 35 145 145 3 146 146 6 147 147 41 148 148 21 149 149 0 150 150 42 151 151 8 152 152 9 153 153 44 154 154 25 155 155 36 156 156 2 157 157 13 158 158 8 159 159 43 160 160 9 161 161 11 162 162 46 163 163 26 164 164 37 165 165 4 166 166 2 167 167 104 168 168 74 169 169 75 170 170 107 171 171 72 172 172 73 173 173 57 174 174 78 175 175 48 176 176 92 177 177 50 178 178 64 179 179 85 180 180 56 181 181 55 182 182 65 183 183 94 184 184 66 185 185 62 186 186 91 187 187 63 188 188 84 189 189 55 190 190 54 191 191 63 192 192 92 193 193 64 194 194 79 195 195 62 196 196 49 197 197 58 198 198 89 199 199 59 200 200 52 201 201 83 202 202 53 203 203 86 204 204 57 205 205 56 206 206 80 207 207 51 208 208 50 209 209 67 210 210 84 211 211 54 212 212 78 213 213 49 214 214 48 215 215 59 216 216 82 217 217 52 218 218 66 219 219 95 220 220 67 221 221 51 222 222 88 223 223 58 224 224 53 225 225 93 226 226 65 227 227 103 228 228 84 229 229 95 230 230 77 231 231 79 232 232 78 233 233 60 234 234 82 235 235 89 236 236 94 237 237 103 238 238 95 239 239 81 240 240 61 241 241 88 242 242 83 243 243 101 244 244 93 245 245 68 246 246 78 247 247 87 248 248 100 249 249 80 250 250 92 251 251 85 252 252 69 253 253 86 254 254 93 255 255 102 256 256 94 257 257 98 258 258 91 259 259 90 260 260 71 261 261 85 262 262 84 263 263 99 264 264 92 265 265 91 266 266 76 267 267 90 268 268 79 269 269 88 270 270 60 271 271 89 272 272 73 273 273 83 274 274 82 275 275 86 276 276 68 277 277 87 278 278 75 279 279 81 280 280 80 281 281 112 282 282 73 173 283 60 283 284 69 284 285 110 285 286 68 286 287 110 287 288 109 288 289 111 289 290 113 290 291 107 171 292 112 282 293 76 291 294 96 292 295 98 293 296 98 294 297 106 295 298 99 296 299 105 297 300 75 170 301 100 298 302 70 299 303 97 300 304 69 301 305 71 302 306 109 303 307 97 304 308 108 305 309 101 306 310 107 171 311 105 297 312 112 282 313 104 168 314 96 307 315 111 308 316 106 309 317 68 310 318 96 311 319 77 312 320 112 282 321 61 313 322 104 168 323 106 314 324 113 290 325 105 297 326 109 315 327 102 316 328 108 317 329 106 314 330 100 298 331 99 318 332 111 319 333 108 320 334 113 321 335 17 0 336 7 322 337 3 1 338 1 3 339 6 323 340 14 4 341 24 6 342 21 324 343 7 7 344 22 9 345 19 325 346 4 10 347 22 12 348 23 326 349 18 13 350 29 15 351 24 327 352 17 16 353 0 18 354 8 328 355 16 19 356 8 21 357 9 329 358 15 22 359 10 24 360 14 330 361 27 25 362 19 27 363 13 331 364 2 28 365 19 30 366 18 332 367 12 31 368 28 33 369 17 333 370 11 34 371 27 36 372 14 334 373 24 37 374 16 39 375 15 335 376 23 40 377 16 42 378 22 336 379 20 43 380 6 45 381 21 337 382 24 46 383 15 48 384 27 338 385 29 49 386 18 51 387 28 339 388 26 52 389 25 54 390 27 340 391 15 55 392 23 57 393 29 341 394 28 58 395 41 60 396 59 342 397 52 61 398 46 63 399 66 343 400 67 64 401 51 66 402 58 344 403 40 67 404 35 69 405 53 345 406 65 70 407 39 72 408 57 346 409 48 73 410 44 75 411 64 347 412 50 76 413 55 78 414 56 348 415 38 79 416 45 81 417 65 349 418 66 82 419 42 84 420 62 350 421 63 85 422 54 87 423 55 351 424 37 88 425 43 90 426 63 352 427 64 91 428 49 93 429 62 353 430 42 94 431 58 96 432 59 354 433 41 97 434 34 99 435 52 355 436 53 100 437 56 102 438 57 356 439 39 103 440 32 105 441 50 357 442 51 106 443 47 108 444 67 358 445 54 109 446 30 111 447 48 359 448 49 112 449 44 114 450 32 360 451 10 115 452 39 117 453 30 361 454 5 118 455 3 120 456 35 362 457 45 121 458 1 123 459 33 363 460 40 124 461 26 126 462 46 364 463 47 127 464 21 129 465 41 365 466 34 130 467 30 132 468 31 366 469 0 133 470 47 135 471 36 367 472 13 136 473 32 138 474 33 368 475 1 139 476 38 141 477 39 369 478 20 142 479 7 144 480 34 370 481 35 145 482 6 147 483 40 371 484 41 148 485 0 150 486 31 372 487 42 151 488 9 153 489 43 373 490 44 154 491 36 156 492 37 374 493 2 157 494 8 159 495 42 375 496 43 160 497 11 162 498 45 376 499 46 163 500 37 165 501 38 377 502 4 166 503 104 168 504 61 313 505 74 169 506 107 171 507 101 306 508 72 172 509 57 174 510 87 378 511 78 175 512 92 177 513 80 379 514 50 178 515 85 180 516 86 380 517 56 181 518 65 183 519 93 381 520 94 184 521 62 186 522 90 382 523 91 187 524 84 189 525 85 383 526 55 190 527 63 192 528 91 384 529 92 193 530 79 195 531 90 385 532 62 196 533 58 198 534 88 386 535 89 199 536 52 201 537 82 387 538 83 202 539 86 204 540 87 388 541 57 205 542 80 207 543 81 389 544 51 208 545 67 210 546 95 390 547 84 211 548 78 213 549 79 391 550 49 214 551 59 216 552 89 392 553 82 217 554 66 219 555 94 393 556 95 220 557 51 222 558 81 394 559 88 223 560 53 225 561 83 395 562 93 226 563 103 228 564 71 396 565 84 229 566 77 231 567 76 397 568 79 232 569 60 234 570 73 398 571 82 235 572 94 237 573 102 399 574 103 238 575 81 240 576 74 400 577 61 241 578 83 243 579 72 401 580 101 244 581 68 246 582 77 402 583 78 247 584 100 249 585 75 403 586 80 250 587 85 252 588 70 404 589 69 253 590 93 255 591 101 405 592 102 256 593 98 258 594 99 406 595 91 259 596 71 261 597 70 407 598 85 262 599 99 264 600 100 408 601 92 265 602 76 267 603 98 409 604 90 268 605 88 270 606 61 410 607 60 271 608 73 273 609 72 411 610 83 274 611 86 276 612 69 412 613 68 277 614 75 279 615 74 413 616 81 280 617 112 282 618 107 171 619 73 173 620 69 284 621 97 414 622 110 285 623 110 287 624 97 415 625 109 288 626 113 290 627 108 305 628 107 171 629 76 291 630 77 416 631 96 292 632 98 294 633 96 417 634 106 295 635 105 297 636 104 168 637 75 170 638 70 299 639 71 418 640 97 300 641 71 302 642 103 419 643 109 303 644 108 305 645 102 420 646 101 306 647 105 297 648 113 290 649 112 282 650 96 307 651 110 421 652 111 308 653 68 310 654 110 422 655 96 311 656 112 282 657 60 283 658 61 313 659 106 314 660 111 423 661 113 290 662 109 315 663 103 424 664 102 316 665 106 314 666 105 297 667 100 298 668 111 319 669 109 425 670 108 320 671</p>
        </triangles>
      </mesh>
    </geometry>
    <geometry id="Plane_001-mesh" name="Plane.001">
      <mesh>
        <source id="Plane_001-mesh-positions">
          <float_array id="Plane_001-mesh-positions-array" count="342">-106.1734 18.76233 144.8236 93.34178 14.99245 175.5304 -129.7486 46.35805 -140.4272 117.2711 29.81226 -90.40789 -110.1103 38.28988 -27.38213 -101.3964 28.53541 82.90061 103.2366 24.4823 105.3893 119.6139 27.97052 13.31322 -79.21991 19.29776 159.5363 -27.18062 21.11327 186.9081 45.56213 17.9804 179.9589 54.02109 36.36164 -159.8589 -25.76022 65.23697 -179.7472 -77.1131 64.70611 -165.4297 54.90741 24.23467 106.7416 -24.49114 21.24128 93.83609 -73.00637 24.57853 82.24835 81.15605 35.24008 -22.07976 -12.66248 45.70507 -53.65665 -74.68125 49.68976 -75.21716 -96.26359 25.98624 33.47956 111.9362 27.00272 60.14333 -63.43124 26.84071 16.36255 -16.93725 27.00547 23.57393 66.06305 26.38769 44.83324 11.54669 22.1536 182.4348 13.40107 47.63543 -183.7899 21.24826 26.39804 99.54319 28.94875 33.54964 -33.50878 26.24363 26.41969 34.75545 -99.42888 14.92179 84.6774 -106.0263 3.639912 144.3979 45.70466 2.50646 179.8158 93.48432 -0.2618847 175.3309 121.3481 11.61608 14.13815 117.4882 13.17728 -89.99273 -76.38954 43.2017 -168.2879 -128.7818 24.40576 -125.1349 -110.6159 19.49811 -26.78939 -95.02691 11.38704 34.593 103.3791 8.711237 105.3224 112.5089 10.88598 60.36576 -80.64054 4.216305 156.5785 -27.89072 5.139013 185.5661 11.69429 6.423223 182.357 55.67638 16.74675 -154.5269 14.09399 28.59297 -178.5969 -25.27622 45.44206 -175.3628 -92.03395 8.707766 82.58493 -99.15988 -0.4791069 136.431 42.78002 -3.879612 170.333 87.53208 -6.963827 166.2585 114.24 4.016245 15.60133 109.7697 7.597391 -83.61538 -69.83033 36.67653 -159.2085 -116.8592 12.59942 -109.7025 -104.1904 9.46033 -22.9743 -88.51712 4.620327 34.95025 96.79988 1.90119 100.5679 105.6275 3.400639 58.72676 115.668 -38.23893 61.29742 105.4358 -38.23893 105.8666 -77.40252 -1.384754 145.0369 -27.98082 -0.8385258 172.4788 10.97104 -0.258564 172.721 54.36082 7.99511 -141.5081 14.43106 21.92054 -164.7039 -22.47929 37.27579 -162.3574 -95.97742 -38.23893 34.70867 -114.1361 -38.23893 -24.52024 -132.637 -38.23893 -94.49311 -77.22003 -38.23893 -119.88 120.0996 -38.23893 -90.01211 130.9296 -38.23893 17.61464 95.38783 -38.23893 175.5593 46.86851 -38.23893 180.5643 -105.6449 -38.23893 145.0756 -100.2487 -38.23893 85.7211 -90.82836 -11.59638 83.47039 -98.08242 -17.92591 135.4104 42.9726 -23.02677 169.6879 87.72466 -25.26823 165.3969 118.922 -18.55879 17.92913 110.3659 -17.3402 -81.36545 -68.96147 -4.91003 -122.5249 -119.0985 -19.52371 -88.58663 -105.4207 -18.69055 -21.32642 -87.86871 -16.4605 35.43499 96.99245 -18.75123 100.3092 106.4302 -18.38049 59.04227 -77.09815 -20.06947 143.4094 -28.52565 -19.75123 169.9431 11.29582 -19.90797 172.1923 56.32876 -17.48284 -123.8973 19.50165 -11.49327 -126.4648 -15.11539 -5.309074 -124.4125 -69.46323 -34.47636 84.06945 -80.36296 -35.88327 -57.03961 -78.74288 -38.23893 160.0212 -26.67039 -38.23893 187.5105 12.53861 -38.23893 183.7044 61.25974 -38.23893 -132.9435 19.92029 -38.23893 -130.7073 -16.84885 -38.23893 -128.6547 56.35845 -38.0794 107.2576 22.17823 -38.19157 100.5405 -20.81077 -38.59444 94.51615 84.98015 -38.83917 -16.11963 33.61349 -38.39621 -30.79765 -16.55709 -34.49661 -49.38742 -63.70206 -38.93095 17.48014 -16.63288 -38.19863 23.84847 67.69876 -38.36632 45.03137 27.25093 -38.33138 34.79135</float_array>
          <technique_common>
            <accessor source="#Plane_001-mesh-positions-array" count="114" stride="3">
              <param name="X" type="float"/>
              <param name="Y" type="float"/>
              <param name="Z" type="float"/>
            </accessor>
          </technique_common>
        </source>
        <source id="Plane_001-mesh-normals">
          <float_array id="Plane_001-mesh-normals-array" count="1278">0.1589751 0.9872668 0.00560069 0.1313213 0.991296 -0.009335815 0.1198297 0.9926732 -0.0155192 0.04492235 0.9930995 0.1083298 0.02516049 0.9925399 0.1192962 0.07080215 0.9930642 0.09386527 0.01720452 0.9967039 0.07928079 0.02496242 0.9954094 0.09239608 0.05504959 0.9881691 0.1431488 0.04941451 0.9778874 0.2032104 0.02706211 0.9737558 0.2259809 0.06958705 0.9807525 0.1824345 -0.0329163 0.9707858 0.2376796 -0.0278241 0.970081 0.2411818 -0.02277028 0.9693446 0.2446478 -0.04033499 0.9925389 0.1150641 -0.04615497 0.9929147 0.1094993 -0.05440425 0.9933372 0.1015946 -0.01428264 0.996276 0.08503097 0.08715963 0.9866037 0.1378998 0.1398666 0.9763458 0.1648828 -0.008173584 0.9997075 0.02276432 0.01899844 0.9987896 0.04537171 0.05127745 0.9960726 0.07218003 0.1068263 0.991703 0.07150882 0.06739991 0.9942098 0.08369189 0.1262036 0.9898426 0.06545531 -0.200003 0.9725165 0.1192072 -0.2320325 0.9615646 0.1468145 -0.1786935 0.9787179 0.1008953 0.01651865 0.9878304 0.154655 0.0258919 0.9869534 0.1589114 0.03530001 0.9859667 0.1631678 0.007316946 0.9996924 0.02370071 0.1856207 0.9808688 0.05866348 0.2298629 0.9708989 0.06722086 0.03535807 0.9989604 0.02877396 0.01742601 0.999749 0.01408505 7.052e-4 0.9999998 3.88375e-4 0.02680414 0.9974017 0.06686931 0.01421415 0.9983918 0.0548793 -0.008668541 0.999416 0.03305494 0.08793419 0.9960392 -0.01318413 0.02867639 0.9994736 0.01517421 0.1371178 0.9898704 -0.03681719 -0.01486843 0.9990664 0.04056286 -0.01682984 0.9989858 0.04176431 -0.004169106 0.999413 0.03400576 -0.07185691 0.9970842 0.02568793 -0.04510748 0.9977934 0.04872077 -0.007444918 0.9966892 0.08096617 0.2768782 0.958376 0.06967037 0.3854773 0.9182364 0.09082549 0.4163279 0.9040477 0.09679388 -0.05199784 0.9985881 0.01086759 -0.09140002 0.9954502 0.02692687 -0.02678388 0.9996411 6.00887e-4 0.04940736 0.9870104 0.1528706 0.1079469 0.9741477 0.1984531 0.1629643 0.9568227 0.2406927 0.7181269 -0.6831606 0.1326102 0.7338782 -0.6665931 0.130677 0.7365027 -0.6637579 0.1303434 -0.3766449 -0.8345749 -0.4020243 -0.3827611 -0.8213992 -0.4228442 -0.3848364 -0.8166793 -0.4300417 0.7345008 -0.6784073 0.01650196 0.7184323 -0.695552 0.007912695 0.7358723 -0.6769007 0.01724618 0.3601905 -0.8628643 -0.3545814 0.4390717 -0.7715028 -0.4604339 0.4448058 -0.7634603 -0.4682695 -0.7120599 -0.7020995 0.00521022 -0.65205 -0.7581742 -0.001662731 -0.6437557 -0.7652269 -0.002573728 -0.05070132 -0.8193745 0.5710122 -0.05168128 -0.8204399 0.5693923 -0.05202823 -0.8208163 0.5688179 -0.7731935 -0.6245252 0.1101831 -0.8487101 -0.5179211 0.1069995 -0.7677841 -0.6311385 0.110326 0.02706241 -0.8425107 -0.5379996 -4.62764e-4 -0.892174 -0.4516918 -0.006290793 -0.9014695 -0.4327971 -0.2026043 -0.9005243 0.3847174 -0.2076298 -0.8906584 0.4044967 -0.2083939 -0.8890992 0.4075227 -0.1256037 -0.844088 -0.5212862 -0.1338143 -0.835784 -0.5325024 -0.1236824 -0.8459944 -0.5186483 0.02267873 -0.8953261 0.4448336 0.05936747 -0.8433919 0.5340091 0.07244879 -0.8221406 0.5646556 -0.158562 -0.9193753 0.36001 -0.1776683 -0.9097083 0.3753194 -0.147429 -0.9246907 0.3510153 0.6835313 -0.7222304 0.1056795 0.7108553 -0.6924996 0.1230006 0.6786253 -0.7272785 0.1026344 0.7153965 -0.6964628 -0.05610293 0.5755797 -0.817014 -0.03458648 0.5672864 -0.8228445 -0.03336453 -0.8489105 -0.5061873 0.1520705 -0.7330635 -0.6658113 0.1389724 -0.8576859 -0.4908967 0.1529555 -0.003820478 -0.8252847 0.5647041 0.006665706 -0.8100059 0.5863841 0.008667111 -0.8070138 0.590469 -0.02707248 -0.8454264 -0.5334055 -0.03896731 -0.8292908 -0.5574571 -0.041754 -0.8253853 -0.5630238 -0.6637098 -0.7178563 -0.2101705 -0.6691465 -0.7132061 -0.2087587 -0.6696425 -0.7127784 -0.2086288 0.07245337 -0.005378067 0.9973573 0.07314383 -0.007415056 0.9972938 0.07207357 -0.004257917 0.9973903 -0.9902989 -0.1019955 -0.09436649 -0.9866979 -0.141615 -0.07982814 -0.9909574 -0.09143102 -0.09820336 0.7232816 -0.02270525 -0.6901798 0.727899 -0.1105906 -0.6767074 0.7280753 -0.1219274 -0.6745667 0.9900007 0.007531702 0.140862 0.9900039 0.008230209 0.1407999 0.9900044 0.008349657 0.1407893 -0.1922479 -0.2529438 -0.9481879 -0.1948871 -0.2283006 -0.9538857 -0.1960888 -0.2166201 -0.9563602 0.9816662 0.05333876 0.1829935 0.9809665 0.09685915 0.1682949 0.9802254 0.1121679 0.1630231 -0.9855265 -0.135508 -0.1018596 -0.9936184 -0.02598309 -0.1097605 -0.9827895 -0.155129 -0.1002998 -0.2344026 -0.1342816 -0.9628209 -0.1720614 0.04443401 -0.9840837 -0.2602311 -0.2148606 -0.9413368 0.09195649 -0.00909096 0.9957216 0.09256136 -0.01142537 0.9956415 0.09176874 -0.008366763 0.9957453 -0.9730865 0.02026951 0.2295471 -0.9704743 -0.04834079 0.2363111 -0.9730586 0.03337651 0.2281294 0.9949162 0.09477877 -0.03404361 0.999491 0.02143204 -0.02363461 0.9996721 0.01248836 -0.02235758 0.9801868 0.01424455 0.197563 0.9807935 0.03141599 0.1925026 0.9809329 0.03749155 0.1906966 -0.4454177 -0.05994486 0.8933139 -0.4621688 -0.09910786 0.8812364 -0.4733473 -0.1263858 0.8717619 0.09081941 -0.06748235 0.9935784 0.1071535 -0.02436929 0.9939438 0.1148457 -0.00383675 0.993376 -0.4641231 -0.03296303 -0.8851572 -0.4363462 -0.4377828 -0.7860969 -0.4556626 0.1022 -0.8842662 -0.4743015 -0.1148097 0.8728442 -0.4655179 -0.06493449 0.8826532 -0.4633752 -0.0537104 0.8845331 0.4481246 -0.2034838 -0.8705049 0.4489039 -0.2153666 -0.8672386 0.4491783 -0.2198132 -0.8659797 -0.9813609 0.07549327 0.1767246 -0.9825121 0.03815412 0.1822478 -0.9811552 0.07947599 0.1761197 -0.001888275 -0.999995 0.002551138 -0.001334488 -0.9999979 -0.001573085 -0.001299381 -0.999998 -0.001543998 -0.00479108 -0.9999884 -2.64958e-4 0.006694316 -0.9999654 -0.004941225 0.009628415 -0.9999519 -0.001867771 -0.9973711 -0.03953975 -0.06072485 -0.9963665 -0.05430513 -0.06561172 -0.9957382 -0.06209796 -0.06818622 0.07315778 -0.02805888 0.9969256 0.0743159 -0.03035151 0.9967728 0.07193511 -0.02563911 0.9970797 -0.9767602 0.1449241 0.1579136 -0.979074 0.08455079 0.1851091 -0.9749755 0.1655215 0.1484094 0.05245774 -0.6673076 -0.7429326 0.05877059 -0.6737359 -0.7366316 0.1271117 -0.7384983 -0.6621654 -0.4782844 -0.08788019 0.8737971 -0.4810864 -0.09904706 0.8710601 -0.4820065 -0.1027705 0.8701195 -0.4008401 -0.5730559 -0.7147966 -0.3952939 -0.534038 -0.7473595 -0.4052238 -0.6095163 -0.6813837 -0.04186785 -0.1011629 0.9939886 -0.02056646 -0.0573517 0.9981422 -0.005815804 -0.02699261 0.9996188 -0.3665485 -0.081142 0.926854 -0.3654823 -0.08264261 0.9271424 -0.3694914 -0.07698911 0.9260393 0.9757273 0.01615893 0.2183923 0.9768108 0.02968549 0.2120364 0.9774315 0.03902959 0.2076162 0.9826421 0.1690118 -0.07648307 0.9977897 0.04421818 -0.04960298 0.9988211 0.01988297 -0.04428446 -0.9614303 0.04032635 0.2720769 -0.9576491 -7.05059e-4 0.2879372 -0.9624621 0.05758857 0.2652365 0.08952581 -0.03584647 0.9953393 0.09190255 -0.04254031 0.9948589 0.08839207 -0.0326572 0.9955503 -0.03634065 -0.6646223 -0.7462952 -0.03560876 -0.6650783 -0.7459242 -0.04142963 -0.6614347 -0.7488576 -0.9878498 -0.06252509 -0.1422789 -0.9880562 -0.05530917 -0.1438263 -0.9877725 -0.06483322 -0.1417822 0.9604591 0.09576779 0.2614325 0.9603906 0.1670125 0.2230622 0.9563672 0.2183641 0.1941108 -0.2682384 -0.695409 -0.6666743 -0.2310491 -0.7190763 -0.6553973 -0.3181102 -0.660775 -0.67984 0.9899691 0.004451513 0.1412144 0.9900155 0.006855607 0.1407914 0.9900265 0.00746876 0.1406834 0.6363074 -0.1363215 -0.7592953 0.6622738 -0.3337343 -0.6708315 0.6639479 -0.3898075 -0.6381404 -0.07271248 0.06929475 -0.9949429 -0.1101267 0.0105955 -0.9938611 -0.03378057 0.129445 -0.991011 -0.9425044 0.321726 -0.09043258 -0.94511 0.3148201 -0.08749598 -0.941229 0.3250427 -0.09184396 0.8509043 0.451407 0.2686889 0.832525 0.4783029 0.2795149 0.8637247 0.4313784 0.2605621 -0.04608047 0.1435691 -0.9885669 -0.04380458 0.14052 -0.9891083 -0.03560996 0.1295315 -0.9909357 0.825116 0.550857 0.1254607 0.8767942 0.4526743 0.1622282 0.8857828 0.4320837 0.1693888 0.5136007 0.5050647 -0.693631 0.5438421 0.4578429 -0.7032892 0.5547911 0.4396471 -0.7063407 -0.9354981 0.3421561 -0.08816254 -0.9393458 0.3328579 -0.08267581 -0.9320816 0.3501379 -0.09288448 0.1033678 0.5542144 0.8259308 0.08915358 0.5725731 0.8149919 0.1187521 0.5338298 0.8372119 -0.8381949 0.5025885 0.2117407 -0.8951671 0.4043906 0.1874676 -0.9090014 0.3758277 0.1801952 0.001060009 0.310065 -0.9507149 0.04462414 0.2399012 -0.9697712 0.09413552 0.1574056 -0.9830372 -0.3686911 0.6393098 0.6747962 -0.366642 0.6270158 0.6873317 -0.3696088 0.6449842 0.6688683 -0.5386698 0.1732767 -0.8245061 -0.42637 0.4013612 -0.8106281 -0.5742861 0.07762736 -0.8149659 -1.86357e-4 0.6414567 0.7671594 0.03875702 0.5922632 0.8048119 -0.03832209 0.6863025 0.726306 -0.3225837 0.5757224 0.7513213 -0.3291698 0.5851349 0.7411238 -0.2654579 0.4930482 0.8285141 0.8770787 0.4357056 0.2022225 0.8778449 0.4334638 0.203709 0.8783873 0.4318631 0.2047681 0.8571395 0.5102592 -0.07033956 0.884103 0.4591735 -0.08672767 0.8512585 0.5204561 -0.06696474 -0.8967282 0.3485699 0.2727227 -0.9035611 0.3337343 0.2686985 -0.9059467 0.3283967 0.2672384 0.1000633 0.6068475 0.7884945 0.08451277 0.6333306 0.769253 0.1061642 0.5961767 0.7958031 3.11305e-4 -0.9999898 0.004513502 0.002420425 -0.9999969 6.93891e-4 0.01265358 -0.9994186 -0.03166127 -0.002950906 -0.999912 -0.01293152 -0.01842212 -0.9998143 0.005647838 0.02451252 -0.9985013 -0.0489332 0.02552789 -0.9985106 -0.04821789 0.02236014 -0.9984764 -0.05044913 3.0062e-4 -0.9999865 0.005182921 0.04741376 -0.9983151 -0.03345108 0.09349822 -0.9956017 -0.005951881 0.02573609 -0.9985949 -0.04632496 -0.02378022 -0.9995954 -0.01560604 -0.04501396 -0.9983943 -0.03439146 -0.001953125 -0.9999912 0.003699719 0.008071482 -0.999967 0.001023292 -2.58259e-5 -1 -2.00992e-4 0.03262746 -0.9993176 0.01731431 0.03964167 -0.9991857 0.007516264 0.0555039 -0.9983506 -0.01467525 0.01127201 -0.998997 0.04333466 0.01210719 -0.9990181 0.04261702 0.01711881 -0.9991194 0.03830969 -0.007972538 -0.9999676 0.001141667 0.006861984 -0.9999687 -0.003976404 -0.04909443 -0.99862 0.01865565 -0.02920448 -0.9989206 0.03612315 -0.08211147 -0.9965686 -0.01043605 0.04383581 -0.9976583 0.05250102 0.08574765 -0.9958696 0.02985161 0.1218495 -0.9924962 0.01020234 -0.002337634 -0.9999971 -7.08932e-4 0.005855023 -0.9999828 4.93235e-4 -0.06259399 -0.9978796 0.01784449 -0.02569067 -0.9990761 0.03445309 -0.08099991 -0.9966685 0.009532511 3.73373e-4 -0.9999926 0.003846406 -0.02599656 -0.9994561 -0.02028989 -0.03916883 -0.9987071 -0.03240424 -0.003194212 -0.9999948 6.7841e-4 0.1736552 0.9847131 0.01356279 -0.001330971 0.9909953 0.1338902 -0.01924455 0.9996616 0.01750427 0.01256871 0.9705417 0.2406052 -0.03959351 0.9716532 0.2330719 -0.03065997 0.9917719 0.1242927 -0.05456525 0.9964764 0.06369853 -0.03505599 0.9993854 3.61573e-4 0.0445528 0.9948839 0.0906704 -0.253616 0.9530459 0.1654761 0.01066195 0.9883249 0.1519876 -0.03567373 0.9992485 0.0151599 0.05459016 0.9975156 0.044528 0.04772567 0.995085 0.086766 -0.008785963 0.9994155 0.0330379 -0.03001803 0.9983062 0.04983878 -0.1110147 0.9937847 -0.008227407 0.2508801 0.965862 0.06457448 -0.1165347 0.9924905 0.03718101 -0.01327055 0.9945563 0.103352 0.7149615 -0.6864001 0.1329849 -0.3742651 -0.8394246 -0.3940714 0.7167227 -0.6973231 0.007012426 0.3495786 -0.872813 -0.3405766 -0.720806 -0.6931087 0.006257593 -0.05031096 -0.8189492 0.5716566 -0.855325 -0.5070089 0.1065896 0.03277677 -0.8309994 -0.555307 -0.2017152 -0.9022013 0.3812398 -0.1350204 -0.8345426 -0.5341423 0.01095932 -0.9095866 0.4153699 -0.1898869 -0.9031606 0.3850247 0.7163043 -0.6862198 0.1265332 0.7235928 -0.6878339 -0.05742847 -0.7174595 -0.6829829 0.1370633 -0.006126821 -0.8285557 0.5598732 -0.02435851 -0.848987 -0.5278521 -0.6631388 -0.7183409 -0.2103176 0.07352805 -0.008548855 0.9972566 -0.9854156 -0.1523201 -0.07585918 0.7219362 -0.007846236 -0.6919152 0.99 0.007408261 0.140873 -0.1909365 -0.2647189 -0.945234 0.9814068 0.03747409 0.1882464 -0.9937965 -0.006538391 -0.1110221 -0.1414278 0.1257539 -0.9819288 0.09275108 -0.01215785 0.9956151 -0.9692302 -0.063973 0.2376977 0.9939903 0.1036238 -0.03529119 0.9798887 0.00800985 0.1993843 -0.4318637 -0.02957558 0.9014539 0.08330494 -0.08709967 0.9927104 -0.4164367 -0.5319519 -0.7372977 -0.4760819 -0.1258512 0.8703492 0.4478242 -0.1991541 -0.87166 -0.9825661 0.03221225 0.1831021 -0.9977891 -0.03202813 -0.05823433 0.07556319 -0.03282165 0.9966008 -0.9786246 0.0543788 0.1983353 -0.03549569 -0.5700972 -0.8208101 -0.477287 -0.08396565 0.8747268 -0.3876189 -0.4873304 -0.782471 -0.05642002 -0.1310719 0.9897661 -0.3625717 -0.08672863 0.9279116 0.9747994 0.006296753 0.2229943 0.9775221 0.1942976 -0.0818476 -0.9548731 -0.02256023 0.2961562 0.09307157 -0.04583674 0.9946038 -0.03101605 -0.6679261 -0.7435811 -0.9881202 -0.0525757 -0.1444102 0.9561125 0.03944391 0.2903329 -0.1721701 -0.7529736 -0.6351285 0.9899546 0.003761947 0.1413356 0.6176084 -0.05601394 -0.7844886 -0.1437023 -0.04285341 -0.9886927 -0.9463776 0.3113943 -0.08604037 0.8199064 0.4956793 0.2864533 -0.05505871 0.1555857 -0.9862868 0.8121573 0.571568 0.1170927 0.5034663 0.5199844 -0.6900276 -0.9419393 0.3263897 -0.07886785 0.07338345 0.5924149 0.802284 -0.822148 0.5261369 0.2173769 -0.0497592 0.3890833 -0.9198578 -0.3657083 0.6215685 0.6927555 -0.3589861 0.5070026 -0.783631 0.08168727 0.5340202 0.8415164 -0.3712781 0.6446149 0.6682995 0.8765711 0.4371771 0.2012445 0.8882075 0.4506655 -0.0893768 -0.8942086 0.3538816 0.2741512 0.07857078 0.643182 0.7616716 0.02495557 -0.9986103 -0.04642015 0.02733075 -0.9985234 -0.04694765 0.1218949 -0.9924812 0.01108205 -0.07180559 -0.995725 -0.05810016 0.01755976 -0.9991109 0.03833138 0.006850481 -0.9988652 0.04713249 -8.45299e-5 -0.9999988 -0.001562654 0.006417334 -0.9977123 0.06729865 0.01492267 -0.997572 0.06802517 -0.001604676 -0.9999826 -0.0056957 0.002632021 -0.9988845 0.04714894 -0.05879676 -0.996994 -0.05045801</float_array>
          <technique_common>
            <accessor source="#Plane_001-mesh-normals-array" count="426" stride="3">
              <param name="X" type="float"/>
              <param name="Y" type="float"/>
              <param name="Z" type="float"/>
            </accessor>
          </technique_common>
        </source>
        <source id="Plane_001-mesh-map-0">
          <float_array id="Plane_001-mesh-map-0-array" count="1344">0.6599901 0.5791813 0.6624901 0.5825147 0.6599901 0.5825147 0.6624901 0.5725147 0.6599901 0.575848 0.6599901 0.5725147 0.6599901 0.5775147 0.6624901 0.5791813 0.6599901 0.5791813 0.6549901 0.5775147 0.6524901 0.5791813 0.6524901 0.5775147 0.6549901 0.5775147 0.6574901 0.5791813 0.6549901 0.5791813 0.6587402 0.5775147 0.6599901 0.5791813 0.6587402 0.5791813 0.6524901 0.5725147 0.6549901 0.575848 0.6524901 0.575848 0.6549901 0.5725147 0.6574901 0.575848 0.6549901 0.575848 0.6599901 0.5725147 0.6587401 0.5758479 0.6587402 0.5725147 0.6549901 0.5791813 0.6524901 0.5825147 0.6524901 0.5791813 0.6549901 0.5791813 0.6574901 0.5825147 0.6549901 0.5825147 0.6587402 0.5791813 0.6599901 0.5825147 0.6587402 0.5825147 0.6587401 0.5758479 0.6599901 0.5775147 0.6587402 0.5775147 0.6549901 0.575848 0.6574901 0.5775147 0.6549901 0.5775147 0.6549901 0.575848 0.6524901 0.5775147 0.6524901 0.575848 0.6624901 0.575848 0.6599901 0.5775147 0.6599901 0.575848 0.6574901 0.575848 0.6587402 0.5775147 0.6574901 0.5775147 0.6574901 0.5791813 0.6587402 0.5825147 0.6574901 0.5825147 0.6587402 0.5725147 0.6574901 0.575848 0.6574901 0.5725147 0.6574901 0.5775147 0.6587402 0.5791813 0.6574901 0.5791813 0.6624901 0.5775147 0.6624901 0.5791813 0.6624901 0.5791813 0.6587402 0.5825147 0.6574901 0.5825147 0.6574901 0.5825147 0.6624901 0.5725147 0.6624901 0.575848 0.6624901 0.5725147 0.6624901 0.5825147 0.6599901 0.5825147 0.6599901 0.5825147 0.6524901 0.5775147 0.6524901 0.575848 0.6524901 0.575848 0.6587402 0.5725147 0.6599901 0.5725147 0.6599901 0.5725147 0.6524901 0.5825147 0.6524901 0.5791813 0.6524901 0.5825147 0.6599901 0.5825147 0.6587402 0.5825147 0.6587402 0.5825147 0.6549901 0.5725147 0.6574901 0.5725147 0.6574901 0.5725147 0.6549901 0.5825147 0.6524901 0.5825147 0.6549901 0.5825147 0.6574901 0.5725147 0.6587402 0.5725147 0.6587402 0.5725147 0.6524901 0.5725147 0.6549901 0.5725147 0.6524901 0.5725147 0.6624901 0.575848 0.6624901 0.5775147 0.6624901 0.575848 0.6624901 0.5791813 0.6624901 0.5825147 0.6624901 0.5825147 0.6524901 0.5791813 0.6524901 0.5775147 0.6524901 0.5791813 0.6599901 0.5725147 0.6624901 0.5725147 0.6624901 0.5725147 0.6574901 0.5825147 0.6549901 0.5825147 0.6549901 0.5825147 0.6524901 0.575848 0.6524901 0.5725147 0.6524901 0.5725147 0.6587402 0.5725147 0.6599901 0.5725147 0.6587402 0.5725147 0.6524901 0.5775147 0.6524901 0.575848 0.6524901 0.5775147 0.6624901 0.5825147 0.6599901 0.5825147 0.6599901 0.5825147 0.6624901 0.5725147 0.6624901 0.575848 0.6624901 0.575848 0.6587402 0.5825147 0.6574901 0.5825147 0.6574901 0.5825147 0.6624901 0.5775147 0.6624901 0.5791813 0.6624901 0.5791813 0.6524901 0.575848 0.6524901 0.5725147 0.6524901 0.575848 0.6574901 0.5825147 0.6549901 0.5825147 0.6574901 0.5825147 0.6599901 0.5725147 0.6624901 0.5725147 0.6599901 0.5725147 0.6524901 0.5791813 0.6524901 0.5775147 0.6524901 0.5791813 0.6624901 0.5791813 0.6624901 0.5825147 0.6624901 0.5825147 0.6624901 0.575848 0.6624901 0.5775147 0.6624901 0.5775147 0.6524901 0.5725147 0.6549901 0.5725147 0.6549901 0.5725147 0.6574901 0.5725147 0.6587402 0.5725147 0.6587402 0.5725147 0.6549901 0.5825147 0.6524901 0.5825147 0.6549901 0.5825147 0.6549901 0.5725147 0.6574901 0.5725147 0.6574901 0.5725147 0.6599901 0.5825147 0.6587402 0.5825147 0.6587402 0.5825147 0.6524901 0.5825147 0.6524901 0.5791813 0.6524901 0.5825147 0.5418726 0.8539165 0.5443726 0.8505831 0.5418726 0.8505831 0.5418726 0.8572498 0.5443726 0.8605831 0.5443726 0.8572498 0.6131176 0.8592743 0.6131176 0.8576077 0.6131176 0.8576077 0.6193677 0.8542743 0.6206176 0.8542743 0.6193677 0.8542743 0.6131176 0.8642743 0.6131176 0.860941 0.6131176 0.8642743 0.6206176 0.8642743 0.6193677 0.8642743 0.6193677 0.8642743 0.6156176 0.8542743 0.6181176 0.8542743 0.6181176 0.8542743 0.6156176 0.8642743 0.6131176 0.8642743 0.6156176 0.8642743 0.6181176 0.8542743 0.6193677 0.8542743 0.6193677 0.8542743 0.6131176 0.8542743 0.6156176 0.8542743 0.6131176 0.8542743 0.6231176 0.8576077 0.6231176 0.8592743 0.6231176 0.8592743 0.6231176 0.860941 0.6231176 0.8642743 0.6231176 0.8642743 0.6131176 0.860941 0.6131176 0.8592743 0.6131176 0.860941 0.6206176 0.8542743 0.6231176 0.8542743 0.6206176 0.8542743 0.6181176 0.8642743 0.6156176 0.8642743 0.6156176 0.8642743 0.6131176 0.8576077 0.6131176 0.8542743 0.6131176 0.8576077 0.6231176 0.8592743 0.6231176 0.860941 0.6231176 0.860941 0.6193677 0.8642743 0.6181176 0.8642743 0.6181176 0.8642743 0.6231176 0.8542743 0.6231176 0.8576077 0.6231176 0.8576077 0.6231176 0.8642743 0.6206176 0.8642743 0.6206176 0.8642743 0.6181176 0.8642743 0.6156176 0.8642743 0.6181176 0.8642743 0.6131176 0.8576077 0.6131176 0.8542743 0.6131176 0.8576077 0.6231176 0.8592743 0.6231176 0.860941 0.6231176 0.8592743 0.6193677 0.8642743 0.6181176 0.8642743 0.6181176 0.8642743 0.6231176 0.8542743 0.6231176 0.8576077 0.6231176 0.8576077 0.6231176 0.8642743 0.6206176 0.8642743 0.6206176 0.8642743 0.6131176 0.8592743 0.6131176 0.8576077 0.6131176 0.8592743 0.6193677 0.8542743 0.6206176 0.8542743 0.6193677 0.8542743 0.6131176 0.8642743 0.6131176 0.860941 0.6131176 0.860941 0.6206176 0.8642743 0.6193677 0.8642743 0.6193677 0.8642743 0.6156176 0.8542743 0.6181176 0.8542743 0.6156176 0.8542743 0.6156176 0.8642743 0.6131176 0.8642743 0.6156176 0.8642743 0.6181176 0.8542743 0.6193677 0.8542743 0.6181176 0.8542743 0.6131176 0.8542743 0.6156176 0.8542743 0.6131176 0.8542743 0.6231176 0.8576077 0.6231176 0.8592743 0.6231176 0.8592743 0.6231176 0.860941 0.6231176 0.8642743 0.6231176 0.860941 0.6131176 0.860941 0.6131176 0.8592743 0.6131176 0.8592743 0.6206176 0.8542743 0.6231176 0.8542743 0.6206176 0.8542743 0.5418725 0.8555831 0.5443726 0.8572498 0.5443726 0.8555831 0.5343726 0.8572498 0.5368726 0.8555831 0.5343726 0.8555831 0.5368726 0.8555831 0.5393726 0.8572498 0.5393726 0.8555831 0.5406226 0.8555832 0.5418726 0.8572498 0.5418725 0.8555831 0.5343726 0.8505831 0.5368726 0.8539165 0.5368726 0.8505831 0.5368726 0.8505831 0.5393726 0.8539165 0.5393726 0.8505831 0.5406225 0.8539164 0.5418726 0.8505831 0.5406226 0.8505831 0.5343726 0.8605831 0.5368726 0.8572498 0.5343726 0.8572498 0.5368726 0.8605831 0.5393726 0.8572498 0.5368726 0.8572498 0.5406226 0.8572498 0.5418726 0.8605831 0.5418726 0.8572498 0.5406225 0.8539164 0.5418725 0.8555831 0.5418726 0.8539165 0.5368726 0.8539165 0.5393726 0.8555831 0.5393726 0.8539165 0.5343726 0.8555831 0.5368726 0.8539165 0.5343726 0.8539165 0.5418725 0.8555831 0.5443726 0.8539165 0.5418726 0.8539165 0.5393726 0.8539165 0.5406226 0.8555832 0.5406225 0.8539164 0.5393726 0.8572498 0.5406226 0.8605831 0.5406226 0.8572498 0.5393726 0.8539165 0.5406226 0.8505831 0.5393726 0.8505831 0.5393726 0.8555831 0.5406226 0.8572498 0.5406226 0.8555832 0.6599901 0.5791813 0.6624901 0.5791813 0.6624901 0.5825147 0.6624901 0.5725147 0.6624901 0.575848 0.6599901 0.575848 0.6599901 0.5775147 0.6624901 0.5775147 0.6624901 0.5791813 0.6549901 0.5775147 0.6549901 0.5791813 0.6524901 0.5791813 0.6549901 0.5775147 0.6574901 0.5775147 0.6574901 0.5791813 0.6587402 0.5775147 0.6599901 0.5775147 0.6599901 0.5791813 0.6524901 0.5725147 0.6549901 0.5725147 0.6549901 0.575848 0.6549901 0.5725147 0.6574901 0.5725147 0.6574901 0.575848 0.6599901 0.5725147 0.6599901 0.575848 0.6587401 0.5758479 0.6549901 0.5791813 0.6549901 0.5825147 0.6524901 0.5825147 0.6549901 0.5791813 0.6574901 0.5791813 0.6574901 0.5825147 0.6587402 0.5791813 0.6599901 0.5791813 0.6599901 0.5825147 0.6587401 0.5758479 0.6599901 0.575848 0.6599901 0.5775147 0.6549901 0.575848 0.6574901 0.575848 0.6574901 0.5775147 0.6549901 0.575848 0.6549901 0.5775147 0.6524901 0.5775147 0.6624901 0.575848 0.6624901 0.5775147 0.6599901 0.5775147 0.6574901 0.575848 0.6587401 0.5758479 0.6587402 0.5775147 0.6574901 0.5791813 0.6587402 0.5791813 0.6587402 0.5825147 0.6587402 0.5725147 0.6587401 0.5758479 0.6574901 0.575848 0.6574901 0.5775147 0.6587402 0.5775147 0.6587402 0.5791813 0.6624901 0.5775147 0.6624901 0.5775147 0.6624901 0.5791813 0.6587402 0.5825147 0.6587402 0.5825147 0.6574901 0.5825147 0.6624901 0.5725147 0.6624901 0.575848 0.6624901 0.575848 0.6624901 0.5825147 0.6624901 0.5825147 0.6599901 0.5825147 0.6524901 0.5775147 0.6524901 0.5775147 0.6524901 0.575848 0.6587402 0.5725147 0.6587402 0.5725147 0.6599901 0.5725147 0.6524901 0.5825147 0.6524901 0.5791813 0.6524901 0.5791813 0.6599901 0.5825147 0.6599901 0.5825147 0.6587402 0.5825147 0.6549901 0.5725147 0.6549901 0.5725147 0.6574901 0.5725147 0.6549901 0.5825147 0.6524901 0.5825147 0.6524901 0.5825147 0.6574901 0.5725147 0.6574901 0.5725147 0.6587402 0.5725147 0.6524901 0.5725147 0.6549901 0.5725147 0.6549901 0.5725147 0.6624901 0.575848 0.6624901 0.5775147 0.6624901 0.5775147 0.6624901 0.5791813 0.6624901 0.5791813 0.6624901 0.5825147 0.6524901 0.5791813 0.6524901 0.5775147 0.6524901 0.5775147 0.6599901 0.5725147 0.6599901 0.5725147 0.6624901 0.5725147 0.6574901 0.5825147 0.6574901 0.5825147 0.6549901 0.5825147 0.6524901 0.575848 0.6524901 0.575848 0.6524901 0.5725147 0.6587402 0.5725147 0.6599901 0.5725147 0.6599901 0.5725147 0.6524901 0.5775147 0.6524901 0.575848 0.6524901 0.575848 0.6624901 0.5825147 0.6624901 0.5825147 0.6599901 0.5825147 0.6624901 0.5725147 0.6624901 0.5725147 0.6624901 0.575848 0.6587402 0.5825147 0.6587402 0.5825147 0.6574901 0.5825147 0.6624901 0.5775147 0.6624901 0.5775147 0.6624901 0.5791813 0.6524901 0.575848 0.6524901 0.5725147 0.6524901 0.5725147 0.6574901 0.5825147 0.6549901 0.5825147 0.6549901 0.5825147 0.6599901 0.5725147 0.6624901 0.5725147 0.6624901 0.5725147 0.6524901 0.5791813 0.6524901 0.5775147 0.6524901 0.5775147 0.6624901 0.5791813 0.6624901 0.5791813 0.6624901 0.5825147 0.6624901 0.575848 0.6624901 0.575848 0.6624901 0.5775147 0.6524901 0.5725147 0.6524901 0.5725147 0.6549901 0.5725147 0.6574901 0.5725147 0.6574901 0.5725147 0.6587402 0.5725147 0.6549901 0.5825147 0.6524901 0.5825147 0.6524901 0.5825147 0.6549901 0.5725147 0.6549901 0.5725147 0.6574901 0.5725147 0.6599901 0.5825147 0.6599901 0.5825147 0.6587402 0.5825147 0.6524901 0.5825147 0.6524901 0.5791813 0.6524901 0.5791813 0.5418726 0.8539165 0.5443726 0.8539165 0.5443726 0.8505831 0.5418726 0.8572498 0.5418726 0.8605831 0.5443726 0.8605831 0.6131176 0.8592743 0.6131176 0.8592743 0.6131176 0.8576077 0.6193677 0.8542743 0.6206176 0.8542743 0.6206176 0.8542743 0.6131176 0.8642743 0.6131176 0.860941 0.6131176 0.860941 0.6206176 0.8642743 0.6206176 0.8642743 0.6193677 0.8642743 0.6156176 0.8542743 0.6156176 0.8542743 0.6181176 0.8542743 0.6156176 0.8642743 0.6131176 0.8642743 0.6131176 0.8642743 0.6181176 0.8542743 0.6181176 0.8542743 0.6193677 0.8542743 0.6131176 0.8542743 0.6156176 0.8542743 0.6156176 0.8542743 0.6231176 0.8576077 0.6231176 0.8576077 0.6231176 0.8592743 0.6231176 0.860941 0.6231176 0.860941 0.6231176 0.8642743 0.6131176 0.860941 0.6131176 0.8592743 0.6131176 0.8592743 0.6206176 0.8542743 0.6231176 0.8542743 0.6231176 0.8542743 0.6181176 0.8642743 0.6181176 0.8642743 0.6156176 0.8642743 0.6131176 0.8576077 0.6131176 0.8542743 0.6131176 0.8542743 0.6231176 0.8592743 0.6231176 0.8592743 0.6231176 0.860941 0.6193677 0.8642743 0.6193677 0.8642743 0.6181176 0.8642743 0.6231176 0.8542743 0.6231176 0.8542743 0.6231176 0.8576077 0.6231176 0.8642743 0.6231176 0.8642743 0.6206176 0.8642743 0.6181176 0.8642743 0.6156176 0.8642743 0.6156176 0.8642743 0.6131176 0.8576077 0.6131176 0.8542743 0.6131176 0.8542743 0.6231176 0.8592743 0.6231176 0.860941 0.6231176 0.860941 0.6193677 0.8642743 0.6193677 0.8642743 0.6181176 0.8642743 0.6231176 0.8542743 0.6231176 0.8542743 0.6231176 0.8576077 0.6231176 0.8642743 0.6231176 0.8642743 0.6206176 0.8642743 0.6131176 0.8592743 0.6131176 0.8576077 0.6131176 0.8576077 0.6193677 0.8542743 0.6206176 0.8542743 0.6206176 0.8542743 0.6131176 0.8642743 0.6131176 0.8642743 0.6131176 0.860941 0.6206176 0.8642743 0.6206176 0.8642743 0.6193677 0.8642743 0.6156176 0.8542743 0.6181176 0.8542743 0.6181176 0.8542743 0.6156176 0.8642743 0.6131176 0.8642743 0.6131176 0.8642743 0.6181176 0.8542743 0.6193677 0.8542743 0.6193677 0.8542743 0.6131176 0.8542743 0.6156176 0.8542743 0.6156176 0.8542743 0.6231176 0.8576077 0.6231176 0.8576077 0.6231176 0.8592743 0.6231176 0.860941 0.6231176 0.8642743 0.6231176 0.8642743 0.6131176 0.860941 0.6131176 0.860941 0.6131176 0.8592743 0.6206176 0.8542743 0.6231176 0.8542743 0.6231176 0.8542743 0.5418725 0.8555831 0.5418726 0.8572498 0.5443726 0.8572498 0.5343726 0.8572498 0.5368726 0.8572498 0.5368726 0.8555831 0.5368726 0.8555831 0.5368726 0.8572498 0.5393726 0.8572498 0.5406226 0.8555832 0.5406226 0.8572498 0.5418726 0.8572498 0.5343726 0.8505831 0.5343726 0.8539165 0.5368726 0.8539165 0.5368726 0.8505831 0.5368726 0.8539165 0.5393726 0.8539165 0.5406225 0.8539164 0.5418726 0.8539165 0.5418726 0.8505831 0.5343726 0.8605831 0.5368726 0.8605831 0.5368726 0.8572498 0.5368726 0.8605831 0.5393726 0.8605831 0.5393726 0.8572498 0.5406226 0.8572498 0.5406226 0.8605831 0.5418726 0.8605831 0.5406225 0.8539164 0.5406226 0.8555832 0.5418725 0.8555831 0.5368726 0.8539165 0.5368726 0.8555831 0.5393726 0.8555831 0.5343726 0.8555831 0.5368726 0.8555831 0.5368726 0.8539165 0.5418725 0.8555831 0.5443726 0.8555831 0.5443726 0.8539165 0.5393726 0.8539165 0.5393726 0.8555831 0.5406226 0.8555832 0.5393726 0.8572498 0.5393726 0.8605831 0.5406226 0.8605831 0.5393726 0.8539165 0.5406225 0.8539164 0.5406226 0.8505831 0.5393726 0.8555831 0.5393726 0.8572498 0.5406226 0.8572498</float_array>
          <technique_common>
            <accessor source="#Plane_001-mesh-map-0-array" count="672" stride="2">
              <param name="S" type="float"/>
              <param name="T" type="float"/>
            </accessor>
          </technique_common>
        </source>
        <vertices id="Plane_001-mesh-vertices">
          <input semantic="POSITION" source="#Plane_001-mesh-positions"/>
        </vertices>
        <triangles material="christmasIslandDual_001-material" count="112">
          <input semantic="VERTEX" source="#Plane_001-mesh-vertices" offset="0"/>
          <input semantic="NORMAL" source="#Plane_001-mesh-normals" offset="1"/>
          <input semantic="TEXCOORD" source="#Plane_001-mesh-map-0" offset="2" set="0"/>
          <p>17 0 0 3 1 1 11 2 2 1 3 3 14 4 4 10 5 5 24 6 6 7 7 7 17 8 8 22 9 9 4 10 10 20 11 11 22 12 12 18 13 13 19 14 14 29 15 15 17 16 16 28 17 17 0 18 18 16 19 19 5 20 20 8 21 21 15 22 22 16 23 23 10 24 24 27 25 25 25 26 26 19 27 27 2 28 28 4 29 29 19 30 30 12 31 31 13 32 32 28 33 33 11 34 34 26 35 35 27 36 36 24 37 37 29 38 38 16 39 39 23 40 40 22 41 41 16 42 42 20 43 43 5 44 44 6 45 45 24 46 46 14 47 47 15 48 48 29 49 49 23 50 50 18 51 51 26 52 52 12 53 53 25 54 54 15 55 55 9 56 56 23 57 57 28 58 58 18 59 59 41 60 60 52 61 61 34 62 62 46 63 63 67 64 64 47 65 65 51 66 66 40 67 67 33 68 68 35 69 69 65 70 70 45 71 71 39 72 72 48 73 73 30 74 74 44 75 75 50 76 76 32 77 77 55 78 78 38 79 79 37 80 80 45 81 81 66 82 82 46 83 83 42 84 84 63 85 85 43 86 86 54 87 87 37 88 88 36 89 89 43 90 90 64 91 91 44 92 92 49 93 93 42 94 94 31 95 95 58 96 96 41 97 97 40 98 98 34 99 99 53 100 100 35 101 101 56 102 102 39 103 103 38 104 104 32 105 105 51 106 106 33 107 107 47 108 108 54 109 109 36 110 110 30 111 111 49 112 112 31 113 113 44 114 114 10 115 115 25 116 116 39 117 117 5 118 118 20 119 119 3 120 120 45 121 121 11 122 122 1 123 123 40 124 124 6 125 125 26 126 126 47 127 127 12 128 128 21 129 129 34 130 130 7 131 131 30 132 132 0 133 133 5 134 134 47 135 135 13 136 136 12 137 137 32 138 138 1 139 139 10 140 140 38 141 141 20 142 142 4 143 143 7 144 144 35 145 145 3 146 146 6 147 147 41 148 148 21 149 149 0 150 150 42 151 151 8 152 152 9 153 153 44 154 154 25 155 155 36 156 156 2 157 157 13 158 158 8 159 159 43 160 160 9 161 161 11 162 162 46 163 163 26 164 164 37 165 165 4 166 166 2 167 167 17 0 336 7 322 337 3 1 338 1 3 339 6 323 340 14 4 341 24 6 342 21 324 343 7 7 344 22 9 345 19 325 346 4 10 347 22 12 348 23 326 349 18 13 350 29 15 351 24 327 352 17 16 353 0 18 354 8 328 355 16 19 356 8 21 357 9 329 358 15 22 359 10 24 360 14 330 361 27 25 362 19 27 363 13 331 364 2 28 365 19 30 366 18 332 367 12 31 368 28 33 369 17 333 370 11 34 371 27 36 372 14 334 373 24 37 374 16 39 375 15 335 376 23 40 377 16 42 378 22 336 379 20 43 380 6 45 381 21 337 382 24 46 383 15 48 384 27 338 385 29 49 386 18 51 387 28 339 388 26 52 389 25 54 390 27 340 391 15 55 392 23 57 393 29 341 394 28 58 395 41 60 396 59 342 397 52 61 398 46 63 399 66 343 400 67 64 401 51 66 402 58 344 403 40 67 404 35 69 405 53 345 406 65 70 407 39 72 408 57 346 409 48 73 410 44 75 411 64 347 412 50 76 413 55 78 414 56 348 415 38 79 416 45 81 417 65 349 418 66 82 419 42 84 420 62 350 421 63 85 422 54 87 423 55 351 424 37 88 425 43 90 426 63 352 427 64 91 428 49 93 429 62 353 430 42 94 431 58 96 432 59 354 433 41 97 434 34 99 435 52 355 436 53 100 437 56 102 438 57 356 439 39 103 440 32 105 441 50 357 442 51 106 443 47 108 444 67 358 445 54 109 446 30 111 447 48 359 448 49 112 449 44 114 450 32 360 451 10 115 452 39 117 453 30 361 454 5 118 455 3 120 456 35 362 457 45 121 458 1 123 459 33 363 460 40 124 461 26 126 462 46 364 463 47 127 464 21 129 465 41 365 466 34 130 467 30 132 468 31 366 469 0 133 470 47 135 471 36 367 472 13 136 473 32 138 474 33 368 475 1 139 476 38 141 477 39 369 478 20 142 479 7 144 480 34 370 481 35 145 482 6 147 483 40 371 484 41 148 485 0 150 486 31 372 487 42 151 488 9 153 489 43 373 490 44 154 491 36 156 492 37 374 493 2 157 494 8 159 495 42 375 496 43 160 497 11 162 498 45 376 499 46 163 500 37 165 501 38 377 502 4 166 503</p>
        </triangles>
        <triangles material="christmasIslandDual_002-material" count="112">
          <input semantic="VERTEX" source="#Plane_001-mesh-vertices" offset="0"/>
          <input semantic="NORMAL" source="#Plane_001-mesh-normals" offset="1"/>
          <input semantic="TEXCOORD" source="#Plane_001-mesh-map-0" offset="2" set="0"/>
          <p>104 168 168 74 169 169 75 170 170 107 171 171 72 172 172 73 173 173 57 174 174 78 175 175 48 176 176 92 177 177 50 178 178 64 179 179 85 180 180 56 181 181 55 182 182 65 183 183 94 184 184 66 185 185 62 186 186 91 187 187 63 188 188 84 189 189 55 190 190 54 191 191 63 192 192 92 193 193 64 194 194 79 195 195 62 196 196 49 197 197 58 198 198 89 199 199 59 200 200 52 201 201 83 202 202 53 203 203 86 204 204 57 205 205 56 206 206 80 207 207 51 208 208 50 209 209 67 210 210 84 211 211 54 212 212 78 213 213 49 214 214 48 215 215 59 216 216 82 217 217 52 218 218 66 219 219 95 220 220 67 221 221 51 222 222 88 223 223 58 224 224 53 225 225 93 226 226 65 227 227 103 228 228 84 229 229 95 230 230 77 231 231 79 232 232 78 233 233 60 234 234 82 235 235 89 236 236 94 237 237 103 238 238 95 239 239 81 240 240 61 241 241 88 242 242 83 243 243 101 244 244 93 245 245 68 246 246 78 247 247 87 248 248 100 249 249 80 250 250 92 251 251 85 252 252 69 253 253 86 254 254 93 255 255 102 256 256 94 257 257 98 258 258 91 259 259 90 260 260 71 261 261 85 262 262 84 263 263 99 264 264 92 265 265 91 266 266 76 267 267 90 268 268 79 269 269 88 270 270 60 271 271 89 272 272 73 273 273 83 274 274 82 275 275 86 276 276 68 277 277 87 278 278 75 279 279 81 280 280 80 281 281 112 282 282 73 173 283 60 283 284 69 284 285 110 285 286 68 286 287 110 287 288 109 288 289 111 289 290 113 290 291 107 171 292 112 282 293 76 291 294 96 292 295 98 293 296 98 294 297 106 295 298 99 296 299 105 297 300 75 170 301 100 298 302 70 299 303 97 300 304 69 301 305 71 302 306 109 303 307 97 304 308 108 305 309 101 306 310 107 171 311 105 297 312 112 282 313 104 168 314 96 307 315 111 308 316 106 309 317 68 310 318 96 311 319 77 312 320 112 282 321 61 313 322 104 168 323 106 314 324 113 290 325 105 297 326 109 315 327 102 316 328 108 317 329 106 314 330 100 298 331 99 318 332 111 319 333 108 320 334 113 321 335 104 168 504 61 313 505 74 169 506 107 171 507 101 306 508 72 172 509 57 174 510 87 378 511 78 175 512 92 177 513 80 379 514 50 178 515 85 180 516 86 380 517 56 181 518 65 183 519 93 381 520 94 184 521 62 186 522 90 382 523 91 187 524 84 189 525 85 383 526 55 190 527 63 192 528 91 384 529 92 193 530 79 195 531 90 385 532 62 196 533 58 198 534 88 386 535 89 199 536 52 201 537 82 387 538 83 202 539 86 204 540 87 388 541 57 205 542 80 207 543 81 389 544 51 208 545 67 210 546 95 390 547 84 211 548 78 213 549 79 391 550 49 214 551 59 216 552 89 392 553 82 217 554 66 219 555 94 393 556 95 220 557 51 222 558 81 394 559 88 223 560 53 225 561 83 395 562 93 226 563 103 228 564 71 396 565 84 229 566 77 231 567 76 397 568 79 232 569 60 234 570 73 398 571 82 235 572 94 237 573 102 399 574 103 238 575 81 240 576 74 400 577 61 241 578 83 243 579 72 401 580 101 244 581 68 246 582 77 402 583 78 247 584 100 249 585 75 403 586 80 250 587 85 252 588 70 404 589 69 253 590 93 255 591 101 405 592 102 256 593 98 258 594 99 406 595 91 259 596 71 261 597 70 407 598 85 262 599 99 264 600 100 408 601 92 265 602 76 267 603 98 409 604 90 268 605 88 270 606 61 410 607 60 271 608 73 273 609 72 411 610 83 274 611 86 276 612 69 412 613 68 277 614 75 279 615 74 413 616 81 280 617 112 282 618 107 171 619 73 173 620 69 284 621 97 414 622 110 285 623 110 287 624 97 415 625 109 288 626 113 290 627 108 305 628 107 171 629 76 291 630 77 416 631 96 292 632 98 294 633 96 417 634 106 295 635 105 297 636 104 168 637 75 170 638 70 299 639 71 418 640 97 300 641 71 302 642 103 419 643 109 303 644 108 305 645 102 420 646 101 306 647 105 297 648 113 290 649 112 282 650 96 307 651 110 421 652 111 308 653 68 310 654 110 422 655 96 311 656 112 282 657 60 283 658 61 313 659 106 314 660 111 423 661 113 290 662 109 315 663 103 424 664 102 316 665 106 314 666 105 297 667 100 298 668 111 319 669 109 425 670 108 320 671</p>
        </triangles>
      </mesh>
    </geometry>
  </library_geometries>
  <library_visual_scenes>
    <visual_scene id="Scene" name="Scene">
      <node id="base00" name="base00" type="NODE">
        <matrix sid="transform">1 0 0 0 0 1 0 0 0 0 1 0 0 0 0 1</matrix>
        <node id="start01" name="start01" type="NODE">
          <matrix sid="transform">1 0 0 0 0 1 0 0 0 0 1 0 0 0 0 1</matrix>
          <node id="christmasIslandSmall" name="christmasIslandSmall" type="NODE">
            <matrix sid="transform">0.01 0 0 0 0 -1.62921e-9 -0.01 0 0 0.01 -1.62921e-9 0 0 0 0 1</matrix>
            <instance_geometry url="#Plane_001-mesh" name="christmasIslandSmall">
              <bind_material>
                <technique_common>
                  <instance_material symbol="christmasIslandDual_001-material" target="#christmasIslandDual_001-material">
                    <bind_vertex_input semantic="UVMap" input_semantic="TEXCOORD" input_set="0"/>
                  </instance_material>
                  <instance_material symbol="christmasIslandDual_002-material" target="#christmasIslandDual_002-material">
                    <bind_vertex_input semantic="UVMap" input_semantic="TEXCOORD" input_set="0"/>
                  </instance_material>
                </technique_common>
              </bind_material>
            </instance_geometry>
          </node>
          <node id="Colmesh-1" name="Colmesh-1" type="NODE">
            <matrix sid="transform">0.01 0 0 0 0 -1.62921e-9 -0.01 0 0 0.01 -1.62921e-9 0 0 0 0 1</matrix>
            <instance_geometry url="#Plane_006-mesh" name="Colmesh-1"/>
          </node>
        </node>
      </node>
    </visual_scene>
  </library_visual_scenes>
  <scene>
    <instance_visual_scene url="#Scene"/>
  </scene>
</COLLADA>