<?xml version="1.0" encoding="utf-8"?>
<COLLADA xmlns="http://www.collada.org/2005/11/COLLADASchema" version="1.4.1" xmlns:xsi="http://www.w3.org/2001/XMLSchema-instance">
  <asset>
    <contributor>
      <author>Blender User</author>
      <authoring_tool>Blender 3.4.1 commit date:2022-12-19, commit time:17:00, hash:55485cb379f7</authoring_tool>
    </contributor>
    <created>2025-12-20T16:44:14</created>
    <modified>2025-12-20T16:44:14</modified>
    <unit name="meter" meter="1"/>
    <up_axis>Z_UP</up_axis>
  </asset>
  <library_effects>
    <effect id="deadTree_002-effect">
      <profile_COMMON>
        <technique sid="common">
          <lambert>
            <emission>
              <color sid="emission">0 0 0 1</color>
            </emission>
            <diffuse>
              <color sid="diffuse">0.0684 0.0206 0 1</color>
            </diffuse>
            <index_of_refraction>
              <float sid="ior">1.45</float>
            </index_of_refraction>
          </lambert>
        </technique>
      </profile_COMMON>
    </effect>
    <effect id="deadTree_003-effect">
      <profile_COMMON>
        <technique sid="common">
          <lambert>
            <emission>
              <color sid="emission">0 0 0 1</color>
            </emission>
            <diffuse>
              <color sid="diffuse">0.5 0.5 0.5 1</color>
            </diffuse>
            <index_of_refraction>
              <float sid="ior">1.45</float>
            </index_of_refraction>
          </lambert>
        </technique>
      </profile_COMMON>
    </effect>
    <effect id="deadTree_001-effect">
      <profile_COMMON>
        <technique sid="common">
          <lambert>
            <emission>
              <color sid="emission">0 0 0 1</color>
            </emission>
            <diffuse>
              <color sid="diffuse">1 1 1 1</color>
            </diffuse>
            <index_of_refraction>
              <float sid="ior">1.45</float>
            </index_of_refraction>
          </lambert>
        </technique>
      </profile_COMMON>
    </effect>
  </library_effects>
  <library_images/>
  <library_materials>
    <material id="deadTree_002-material" name="deadTree.002">
      <instance_effect url="#deadTree_002-effect"/>
    </material>
    <material id="deadTree_003-material" name="deadTree.003">
      <instance_effect url="#deadTree_003-effect"/>
    </material>
    <material id="deadTree_001-material" name="deadTree.001">
      <instance_effect url="#deadTree_001-effect"/>
    </material>
  </library_materials>
  <library_geometries>
    <geometry id="Mesh_007-mesh" name="Mesh.007">
      <mesh>
        <source id="Mesh_007-mesh-positions">
          <float_array id="Mesh_007-mesh-positions-array" count="171">0.005425453 -0.1893671 -0.6560493 0.5275803 -0.5142216 -0.5488515 -0.02911853 -0.5142216 -0.7952447 -0.6239681 -0.5142216 0.5487447 -0.8433876 -0.5142216 -0.01912736 -0.04124832 -0.5105461 -5.34058e-5 -0.341753 0.1967762 -0.3720908 -0.4630427 -0.1893671 -0.47504 -0.500896 0.1967762 -0.01252746 -0.666306 -0.1893671 -0.01578903 -0.4852958 -0.1893671 0.4526782 0.02502727 0.1967762 -0.5138106 0.4646759 -0.1893671 -0.4527841 -0.06727027 -0.5142216 0.7951398 0.7469978 -0.5142216 0.01902246 -0.2566309 0.6272349 -0.3155608 -0.4009047 0.6277531 0.001740932 -0.3591776 0.1967762 0.3542528 0.06941795 0.6281428 -0.4377723 0.3845911 0.1967762 -0.3546672 0.5006027 -0.5142216 0.5757194 -0.02604675 -0.1893671 0.6559434 -0.2448225 0.7454715 -0.3270307 0.08437728 0.7740758 -0.4368177 -0.4000802 0.6805865 -0.008244037 -0.2788897 0.6293939 0.3282595 0.3862476 0.6299449 -0.2933049 0.6456843 -0.1893671 0.01568269 0.442421 -0.1893671 0.4749322 3.86238e-4 0.1967762 0.5133967 0.526309 0.1967762 0.01211309 0.3952971 0.7890473 -0.2807393 -0.2850885 0.6805865 0.3199873 0.03793907 0.631196 0.4727283 0.5082626 0.6315855 0.03321361 0.3671665 0.1967762 0.3716769 -0.3866119 0.7221084 -0.04156827 0.3639889 0.6321038 0.3505149 0.0297451 0.6805865 0.4717908 0.3589735 0.6805865 0.3546577 -0.3849316 0.6805865 -0.04156827 0.5074587 0.6805865 0.03862237 0.4752617 0.7836697 -0.04156827 0.4807434 0.6805865 -0.04156827 -0.5969911 -0.5142216 -0.5758271 0.4400044 0.8349823 -0.04751443 0.3665819 0.8509826 -0.2773404 0.08110046 0.8372361 -0.4206491 -0.2211656 0.810972 -0.3198438 -0.3513546 0.7784575 -0.04751443 -0.383853 0.7452602 -2.56538e-4 -0.3474712 0.7767156 -0.06295537 -0.2729731 0.7452602 0.316237 0.0306015 0.7452602 0.4626117 0.3480558 0.7452602 0.3496671 0.491231 0.7452602 0.04493379 0.443697 0.7767156 -0.06295537</float_array>
          <technique_common>
            <accessor source="#Mesh_007-mesh-positions-array" count="57" stride="3">
              <param name="X" type="float"/>
              <param name="Y" type="float"/>
              <param name="Z" type="float"/>
            </accessor>
          </technique_common>
        </source>
        <source id="Mesh_007-mesh-normals">
          <float_array id="Mesh_007-mesh-normals-array" count="465">0.3821515 0.3293325 -0.8634237 0.3837639 0.3176797 -0.8670669 0.3839186 0.3165467 -0.8674128 0.003327131 -0.9999895 -0.00316435 0.004579365 -0.9999896 1.09645e-4 -4.4922e-5 -1 0 -0.3343778 0.3731998 -0.8653979 -0.3463433 0.2779075 -0.8959987 -0.3449997 0.2730957 -0.8979944 -1.03568e-4 -0.9999894 0.004620373 -0.003362476 -0.9999893 0.003211855 -0.8327729 0.4130805 -0.3685837 -0.8712146 0.3040115 -0.3854377 -0.8703473 0.3041111 -0.3873138 -0.8482908 0.4158965 0.3277697 -0.8327184 0.4506165 0.3217528 -0.8488581 0.4145648 0.3279881 -0.8903393 0.2980259 0.3442044 -0.892971 0.2919368 0.3426013 1.18039e-4 -0.9999894 -0.004618167 -0.004660069 -0.9999892 -1.12002e-4 -0.3562158 0.1329832 -0.9248923 -0.3400383 0.1618713 -0.9263756 -0.9021893 0.1611255 -0.4001163 -0.8893008 0.2007697 -0.410896 -0.3744598 0.3794659 0.8460411 -0.3700209 0.4051776 0.8360117 -0.3749192 0.3766896 0.8470777 -0.9172936 0.2043361 0.3417887 -0.9247398 0.1456869 0.3516129 0.3968482 0.2184882 -0.8915012 0.4055818 0.07803183 -0.9107219 0.4192977 0.1032984 -0.9019528 -0.003203451 -0.9999892 -0.003368675 -0.3432436 -0.03335022 -0.9386543 -0.3191686 0.03891164 -0.9468989 0.3941092 0.2262434 -0.8907816 -0.9363342 -0.044977 0.3482174 -0.9409583 0.07698446 0.329653 0.4234483 -0.01503276 -0.9057956 0.4464383 0.04518824 -0.8936728 0.8784043 0.2779471 0.3887818 0.8787072 0.2768001 0.3889158 0.8784043 0.2779446 0.3887835 -0.4113804 0.1436937 0.9000658 -0.3946064 0.2439811 0.8858662 -0.40797 0.07781243 0.9096735 0.9195587 0.1726199 -0.3530076 0.9339128 0.0299499 -0.3562445 0.9375521 0.05675679 -0.3431834 0.8967763 0.2751902 -0.3465005 0.8965469 0.2760484 -0.3464118 0.8965469 0.2760484 -0.3464116 -0.4160375 -0.03899174 0.9085111 -0.4324549 0.09256249 0.8968918 0.3501567 0.07272481 0.9338638 0.3519002 0.1902142 0.9165068 0.35596 0.01832509 0.9343215 0.9404961 -0.008168816 -0.3397064 0.9475317 0.05038726 -0.315666 0.9413172 0.01087528 -0.3373482 0.9012022 0.1644977 0.4009677 0.9131592 0.001058876 0.407602 0.9090515 0.04236376 0.4145246 -0.9084947 -0.06387412 -0.4129862 -0.9082976 -0.05376243 -0.4148556 0.3495509 -0.03375816 0.936309 0.3342968 0.07329493 0.9396135 -0.3911595 0.2553291 0.8841953 0.9178081 0.1782259 -0.3547728 0.8967857 0.2751553 -0.346504 0.9096179 -0.02338403 0.4147875 0.9035986 0.05719715 0.4245446 0.3412788 0.3215565 0.8832499 0.3397652 0.3336681 0.8793324 0.3414451 0.3201931 0.8836807 0.3532161 0.2006847 0.9137638 0.8787212 0.2767482 0.3889209 0.9024168 0.1619461 0.3992711 -0.06885963 0.9944536 0.07950192 -0.07851535 0.9933042 0.08474761 -0.06894236 0.9949957 0.07232326 0 0 1 0 0 1 0 0 1 0.055458 0.9945161 0.08866947 0.3018997 0.9427285 0.1418436 0.1069428 0.9899266 0.09278249 0.003172695 -0.9999895 0.003320991 -0.8321053 0.414685 -0.3682892 -0.8170378 0.4490881 -0.3616204 -0.8170356 0.4490908 -0.3616217 -0.3339582 0.3760764 -0.864314 -0.3301364 0.4012135 -0.8544225 -0.3301362 0.4012138 -0.8544225 0.864583 0.4350668 -0.2514221 0.8201323 0.5107971 -0.2578168 0.8098291 0.5264374 -0.2589222 0.4255012 0.245081 -0.8711395 0.4255011 0.2450817 -0.8711395 0.4255011 0.2450818 -0.8711394 -0.3257572 0.2185733 -0.9198413 -0.325756 0.2185797 -0.9198402 -0.3257574 0.2185722 -0.9198415 -0.8545625 0.3656167 -0.3688461 -0.8137375 0.4534218 -0.3636483 -0.8603453 0.3512585 -0.3693557 -0.007841885 0.1097888 0.993924 -0.007841885 0.109789 0.9939241 -0.8809208 0.2651138 -0.3920374 -0.8837831 0.2622572 -0.3874902 -0.8860949 0.2599187 -0.3837684 -0.9261424 0.192311 0.3244637 -0.9261438 0.1923059 0.3244627 -0.9261441 0.1923052 0.3244625 -0.4304947 0.132419 0.8928267 -0.4304949 0.132419 0.8928267 -0.4304949 0.1324189 0.8928267 0.3324326 0.1282137 0.9343714 0.3324313 0.1282186 0.9343712 0.3324329 0.1282128 0.9343715 0.8898826 0.1824858 0.4181005 0.8898831 0.1824848 0.4180999 0.8898825 0.1824859 0.4181005 0.9098256 0.2718464 -0.3135555 0.9111552 0.2693462 -0.3118473 0.9161912 0.2596744 -0.3052264 0 -0.2171726 -0.9761332 0 -0.2171729 -0.9761332 0 -0.2171727 -0.9761333 0.3821497 0.329329 -0.8634258 -0.8327181 0.4506169 0.321753 -0.3700196 0.4051791 0.8360117 0.9475314 0.05038964 -0.3156663 -0.9056754 -0.01743119 -0.4236134 -0.8961464 0.04668992 -0.4412955 0.3397651 0.3336681 0.8793323 -0.07098972 0.9938723 0.08472454 -0.09799492 0.9901259 0.1002382 0 0 1 -0.1811636 0.9777 0.1062189 -0.002277791 0.9974039 0.07197511 -0.4681133 0.8683172 0.1639978 -0.07376772 0.9925636 0.09682947 0.8731673 0.4185366 -0.249812 0.4255012 0.2450809 -0.8711396 -0.3257559 0.2185806 -0.91984 -0.8067831 0.466542 -0.3625461 -0.007841885 0.1097888 0.993924 -0.8767457 0.269206 -0.3985538 -0.9261423 0.1923118 0.3244639 -0.4304946 0.1324189 0.8928267 0.3324311 0.1282193 0.9343711 0.8898832 0.1824847 0.4180998 0.9062409 0.2784808 -0.3180814</float_array>
          <technique_common>
            <accessor source="#Mesh_007-mesh-normals-array" count="155" stride="3">
              <param name="X" type="float"/>
              <param name="Y" type="float"/>
              <param name="Z" type="float"/>
            </accessor>
          </technique_common>
        </source>
        <source id="Mesh_007-mesh-map-0">
          <float_array id="Mesh_007-mesh-map-0-array" count="660">0.6104854 0.2667354 0.65625 0.15625 0.6104854 0.2667354 0.3895146 0.04576456 0.5 0 0.5 0.15 0.65625 0.15625 0.6104854 0.04576456 0.65625 0.15625 0.65625 0.15625 0.6104854 0.2667354 0.5 0.15 0.6104854 0.04576456 0.5 0 0.6104854 0.04576456 0.5 0 0.3895146 0.04576456 0.3895146 0.04576456 0.5 0 0.3895146 0.04576456 0.3895146 0.04576456 0.34375 0.15625 0.3895146 0.04576456 0.5 0.15 0.6104854 0.2667354 0.5 0.3125 0.5 0.15 0.59375 0.3125 0.625 0.3325392 0.59375 0.3325392 0.375 0.3125 0.40625 0.3325392 0.375 0.3325392 0.3895146 0.04576456 0.34375 0.15625 0.34375 0.15625 0.40625 0.3325392 0.4375 0.3125 0.4375 0.3325392 0.5625 0.3125 0.59375 0.3325392 0.5625 0.3325392 0.3895146 0.2667354 0.34375 0.15625 0.5 0.15 0.5 0.3125 0.3895146 0.2667354 0.5 0.15 0.59375 0.3325392 0.375 0.3325392 0.59375 0.3325392 0.65625 0.15625 0.6104854 0.2667354 0.65625 0.15625 0.40625 0.3325392 0.4375 0.3325392 0.40625 0.3325392 0.5625 0.3325392 0.59375 0.3325392 0.5625 0.3325392 0.5 0.3125 0.3895146 0.2667354 0.3895146 0.2667354 0.4375 0.3325392 0.46875 0.3125 0.46875 0.3325392 0.53125 0.3125 0.5625 0.3325392 0.53125 0.3325392 0.6104854 0.2667354 0.5 0.3125 0.6104854 0.2667354 0.4375 0.3325392 0.46875 0.3325392 0.4375 0.3325392 0.46875 0.3325392 0.5 0.3125 0.5 0.3325392 0.5625 0.3325392 0.5398864 0.3325392 0.5388132 0.3325392 0.5 0.3125 0.53125 0.3325392 0.5 0.3325392 0.40625 0.3325392 0.40625 0.3325392 0.4029691 0.3325392 0.46875 0.3325392 0.5 0.3325392 0.46875 0.3325392 0.3895146 0.04576456 0.34375 0.15625 0.34375 0.15625 0.6104854 0.2667354 0.5 0.3125 0.6104854 0.2667354 0.5 0.3325392 0.53125 0.3325392 0.5 0.3325392 0.34375 0.15625 0.3895146 0.2667354 0.3895146 0.2667354 0.34375 0.15625 0.3895146 0.2667354 0.3895146 0.2667354 0.3895146 0.2667354 0.5 0.3125 0.5 0.3125 0.375 0.3325392 0.5398864 0.3325392 0.59375 0.3325392 0.609316 0.6941115 0.4427695 0.75 0.6103774 0.75 0.586801 0.8490565 0.6155499 0.7700476 0.6103774 0.75 0.6104854 0.04576456 0.65625 0.15625 0.5 0.15 0.5 0 0.6104854 0.04576456 0.5 0.15 0.5 0 0.6104854 0.04576456 0.5 0 0.6104854 0.04576456 0.65625 0.15625 0.6104854 0.04576456 0.5625 0.3325392 0.5398864 0.3325392 0.5398864 0.3325392 0.59375 0.3325392 0.5625 0.3325392 0.5625 0.3325392 0.59375 0.3325392 0.375 0.3325392 0.59375 0.3325392 0.375 0.3325392 0.4036527 0.3325392 0.375 0.3325392 0.5398864 0.3325392 0.4036527 0.3325392 0.4036527 0.3325392 0.4427695 0.75 0.4398366 0.7583311 0.4427695 0.75 0.4621007 0.8403889 0.4398366 0.7583311 0.4398366 0.7583311 0.5230574 0.8783398 0.4621007 0.8403889 0.4621007 0.8403889 0.5230574 0.8783398 0.586801 0.8490565 0.5230574 0.8783398 0.586801 0.8490565 0.6155499 0.7700476 0.586801 0.8490565 0.6103774 0.75 0.6155499 0.7700476 0.6155499 0.7700476 0.6103774 0.75 0.4427695 0.75 0.6103774 0.75 0.6104854 0.2667354 0.65625 0.15625 0.65625 0.15625 0.65625 0.15625 0.6104854 0.04576456 0.6104854 0.04576456 0.6104854 0.04576456 0.5 0 0.5 0 0.5 0 0.5 0 0.3895146 0.04576456 0.5 0 0.5 0 0.3895146 0.04576456 0.59375 0.3125 0.625 0.3125 0.625 0.3325392 0.375 0.3125 0.40625 0.3125 0.40625 0.3325392 0.3895146 0.04576456 0.3895146 0.04576456 0.34375 0.15625 0.40625 0.3325392 0.40625 0.3125 0.4375 0.3125 0.5625 0.3125 0.59375 0.3125 0.59375 0.3325392 0.59375 0.3325392 0.375 0.3325392 0.375 0.3325392 0.65625 0.15625 0.6104854 0.2667354 0.6104854 0.2667354 0.40625 0.3325392 0.4375 0.3325392 0.4375 0.3325392 0.5625 0.3325392 0.59375 0.3325392 0.59375 0.3325392 0.5 0.3125 0.5 0.3125 0.3895146 0.2667354 0.4375 0.3325392 0.4375 0.3125 0.46875 0.3125 0.53125 0.3125 0.5625 0.3125 0.5625 0.3325392 0.6104854 0.2667354 0.5 0.3125 0.5 0.3125 0.4375 0.3325392 0.46875 0.3325392 0.46875 0.3325392 0.46875 0.3325392 0.46875 0.3125 0.5 0.3125 0.53125 0.3325392 0.53125 0.3325392 0.5388132 0.3325392 0.53125 0.3325392 0.5625 0.3325392 0.5388132 0.3325392 0.5625 0.3325392 0.5625 0.3325392 0.5388132 0.3325392 0.5 0.3125 0.53125 0.3125 0.53125 0.3325392 0.4029691 0.3325392 0.4036527 0.3325392 0.375 0.3325392 0.4036527 0.3325392 0.375 0.3325392 0.375 0.3325392 0.375 0.3325392 0.40625 0.3325392 0.4029691 0.3325392 0.46875 0.3325392 0.5 0.3325392 0.5 0.3325392 0.3895146 0.04576456 0.3895146 0.04576456 0.34375 0.15625 0.6104854 0.2667354 0.5 0.3125 0.5 0.3125 0.5 0.3325392 0.53125 0.3325392 0.53125 0.3325392 0.34375 0.15625 0.34375 0.15625 0.3895146 0.2667354 0.34375 0.15625 0.34375 0.15625 0.3895146 0.2667354 0.3895146 0.2667354 0.3895146 0.2667354 0.5 0.3125 0.4036527 0.3325392 0.5398864 0.3325392 0.375 0.3325392 0.5398864 0.3325392 0.5625 0.3325392 0.59375 0.3325392 0.609316 0.6941115 0.4424442 0.7274882 0.4427695 0.75 0.6103774 0.75 0.4427695 0.75 0.5230574 0.8783398 0.4427695 0.75 0.4398366 0.7583311 0.4621007 0.8403889 0.5230574 0.8783398 0.4427695 0.75 0.4621007 0.8403889 0.5230574 0.8783398 0.586801 0.8490565 0.6103774 0.75 0.5 0 0.6104854 0.04576456 0.6104854 0.04576456 0.6104854 0.04576456 0.65625 0.15625 0.65625 0.15625 0.5625 0.3325392 0.5625 0.3325392 0.5398864 0.3325392 0.59375 0.3325392 0.59375 0.3325392 0.5625 0.3325392 0.59375 0.3325392 0.375 0.3325392 0.375 0.3325392 0.375 0.3325392 0.4036527 0.3325392 0.4036527 0.3325392 0.5398864 0.3325392 0.5398864 0.3325392 0.4036527 0.3325392 0.4427695 0.75 0.4398366 0.7583311 0.4398366 0.7583311 0.4621007 0.8403889 0.4621007 0.8403889 0.4398366 0.7583311 0.5230574 0.8783398 0.5230574 0.8783398 0.4621007 0.8403889 0.5230574 0.8783398 0.586801 0.8490565 0.586801 0.8490565 0.586801 0.8490565 0.6155499 0.7700476 0.6155499 0.7700476 0.6103774 0.75 0.6103774 0.75 0.6155499 0.7700476 0.6103774 0.75 0.4427695 0.75 0.4427695 0.75</float_array>
          <technique_common>
            <accessor source="#Mesh_007-mesh-map-0-array" count="330" stride="2">
              <param name="S" type="float"/>
              <param name="T" type="float"/>
            </accessor>
          </technique_common>
        </source>
        <vertices id="Mesh_007-mesh-vertices">
          <input semantic="POSITION" source="#Mesh_007-mesh-positions"/>
        </vertices>
        <triangles count="110">
          <input semantic="VERTEX" source="#Mesh_007-mesh-vertices" offset="0"/>
          <input semantic="NORMAL" source="#Mesh_007-mesh-normals" offset="1"/>
          <input semantic="TEXCOORD" source="#Mesh_007-mesh-map-0" offset="2" set="0"/>
          <p>1 0 0 0 1 1 12 2 2 3 3 3 4 4 4 5 5 5 0 6 6 6 7 7 11 8 8 2 9 9 1 10 10 5 5 11 7 11 12 8 12 13 6 13 14 9 14 15 3 15 16 10 16 17 8 17 18 10 16 19 17 18 20 13 19 21 3 3 22 5 5 23 1 10 24 14 20 25 5 5 26 11 8 27 15 21 28 18 22 29 6 13 30 16 23 31 15 24 32 10 25 33 13 26 34 21 27 35 16 28 36 17 18 37 25 29 38 19 30 39 18 31 40 26 32 41 20 33 42 13 19 43 5 5 44 14 20 45 20 33 46 5 5 47 18 22 48 22 34 49 23 35 50 11 36 51 12 2 52 0 1 53 16 28 54 32 37 55 24 38 56 26 32 57 23 39 58 31 40 59 14 41 60 28 42 61 20 43 62 25 44 63 29 45 64 33 46 65 30 47 66 26 48 67 34 49 68 12 50 69 14 51 70 1 52 71 25 44 72 38 53 73 32 54 74 33 55 75 35 56 76 37 57 77 31 58 78 42 59 79 43 60 80 35 61 81 34 62 82 37 63 83 16 23 84 24 64 85 40 65 86 33 55 87 39 66 88 38 67 89 17 68 90 21 27 91 29 45 92 19 69 93 27 70 94 12 50 95 37 63 96 41 71 97 39 72 98 21 73 99 20 74 100 28 75 101 29 76 102 28 75 103 35 56 104 35 61 105 27 77 106 30 78 107 48 79 108 45 80 109 47 81 110 42 82 111 40 83 112 43 84 113 54 85 114 55 86 115 56 87 116 44 88 117 2 9 118 5 5 119 4 4 120 44 88 121 5 5 122 9 89 123 44 90 124 4 91 125 7 92 126 2 93 127 44 94 128 31 95 129 45 96 130 42 97 131 23 98 132 46 99 133 31 100 134 23 101 135 48 102 136 47 103 137 22 104 138 49 105 139 48 106 140 42 107 141 49 108 142 36 108 143 40 109 144 50 110 145 51 111 146 32 112 147 50 113 148 24 114 149 38 115 150 52 116 151 32 117 152 38 118 153 54 119 154 53 120 155 39 121 156 55 122 157 54 123 158 43 124 159 55 125 160 41 126 161 43 127 162 51 128 163 56 129 164 1 0 165 2 130 166 0 1 167 0 6 168 7 92 169 6 7 170 7 11 171 9 89 172 8 12 173 9 14 174 4 131 175 3 15 176 8 17 177 9 14 178 10 16 179 11 8 180 6 7 181 15 21 182 6 13 183 8 12 184 16 23 185 10 25 186 3 132 187 13 26 188 16 28 189 8 17 190 17 18 191 19 30 192 11 36 193 18 31 194 18 22 195 15 21 196 22 34 197 11 36 198 19 30 199 12 2 200 16 28 201 25 29 202 32 37 203 26 32 204 18 31 205 23 39 206 14 41 207 27 77 208 28 42 209 25 44 210 17 68 211 29 45 212 30 47 213 19 69 214 26 48 215 12 50 216 27 70 217 14 51 218 25 44 219 33 46 220 38 53 221 33 55 222 29 76 223 35 56 224 41 133 225 34 49 226 43 60 227 34 49 228 26 48 229 43 60 230 26 48 231 31 58 232 43 60 233 35 61 234 30 78 235 34 62 236 40 65 237 36 134 238 15 24 239 36 134 240 22 135 241 15 24 242 15 24 243 16 23 244 40 65 245 33 55 246 37 57 247 39 66 248 17 68 249 10 25 250 21 27 251 19 69 252 30 47 253 27 70 254 37 63 255 34 62 256 41 71 257 21 73 258 13 136 259 20 74 260 29 76 261 21 73 262 28 75 263 35 61 264 28 42 265 27 77 266 49 137 267 45 80 268 48 79 269 45 80 270 46 138 271 47 81 272 42 82 273 36 139 274 40 83 275 56 87 276 51 140 277 53 141 278 51 140 279 50 142 280 52 143 281 53 141 282 51 140 283 52 143 284 53 141 285 54 85 286 56 87 287 9 89 288 7 11 289 44 90 290 7 92 291 0 6 292 2 93 293 31 95 294 46 144 295 45 96 296 23 98 297 47 145 298 46 99 299 23 101 300 22 146 301 48 102 302 22 104 303 36 147 304 49 105 305 42 107 306 45 148 307 49 108 308 40 109 309 24 149 310 50 110 311 32 112 312 52 150 313 50 113 314 38 115 315 53 151 316 52 116 317 38 118 318 39 152 319 54 119 320 39 121 321 41 153 322 55 122 323 43 124 324 56 154 325 55 125 326 43 127 327 40 128 328 51 128 329</p>
        </triangles>
      </mesh>
    </geometry>
    <geometry id="Mesh_005-mesh" name="Mesh.005">
      <mesh>
        <source id="Mesh_005-mesh-positions">
          <float_array id="Mesh_005-mesh-positions-array" count="171">0.005425453 -0.1893671 -0.6560493 0.5275803 -0.5142216 -0.5488515 -0.02911853 -0.5142216 -0.7952447 -0.6239681 -0.5142216 0.5487447 -0.8433876 -0.5142216 -0.01912736 -0.04124832 -0.5105461 -5.34058e-5 -0.341753 0.1967762 -0.3720908 -0.4630427 -0.1893671 -0.47504 -0.500896 0.1967762 -0.01252746 -0.666306 -0.1893671 -0.01578903 -0.4852958 -0.1893671 0.4526782 0.02502727 0.1967762 -0.5138106 0.4646759 -0.1893671 -0.4527841 -0.06727027 -0.5142216 0.7951398 0.7469978 -0.5142216 0.01902246 -0.2566309 0.6272349 -0.3155608 -0.4009047 0.6277531 0.001740932 -0.3591776 0.1967762 0.3542528 0.06941795 0.6281428 -0.4377723 0.3845911 0.1967762 -0.3546672 0.5006027 -0.5142216 0.5757194 -0.02604675 -0.1893671 0.6559434 -0.2448225 0.7454715 -0.3270307 0.08437728 0.7740758 -0.4368177 -0.4000802 0.6805865 -0.008244037 -0.2788897 0.6293939 0.3282595 0.3862476 0.6299449 -0.2933049 0.6456843 -0.1893671 0.01568269 0.442421 -0.1893671 0.4749322 3.86238e-4 0.1967762 0.5133967 0.526309 0.1967762 0.01211309 0.3952971 0.7890473 -0.2807393 -0.2850885 0.6805865 0.3199873 0.03793907 0.631196 0.4727283 0.5082626 0.6315855 0.03321361 0.3671665 0.1967762 0.3716769 -0.3866119 0.7221084 -0.04156827 0.3639889 0.6321038 0.3505149 0.0297451 0.6805865 0.4717908 0.3589735 0.6805865 0.3546577 -0.3849316 0.6805865 -0.04156827 0.5074587 0.6805865 0.03862237 0.4752617 0.7836697 -0.04156827 0.4807434 0.6805865 -0.04156827 -0.5969911 -0.5142216 -0.5758271 0.4400044 0.8349823 -0.04751443 0.3665819 0.8509826 -0.2773404 0.08110046 0.8372361 -0.4206491 -0.2211656 0.810972 -0.3198438 -0.3513546 0.7784575 -0.04751443 -0.383853 0.7452602 -2.56538e-4 -0.3474712 0.7767156 -0.06295537 -0.2729731 0.7452602 0.316237 0.0306015 0.7452602 0.4626117 0.3480558 0.7452602 0.3496671 0.491231 0.7452602 0.04493379 0.443697 0.7767156 -0.06295537</float_array>
          <technique_common>
            <accessor source="#Mesh_005-mesh-positions-array" count="57" stride="3">
              <param name="X" type="float"/>
              <param name="Y" type="float"/>
              <param name="Z" type="float"/>
            </accessor>
          </technique_common>
        </source>
        <source id="Mesh_005-mesh-normals">
          <float_array id="Mesh_005-mesh-normals-array" count="465">0.3821515 0.3293325 -0.8634237 0.3837639 0.3176797 -0.8670669 0.3839186 0.3165467 -0.8674128 0.003327131 -0.9999895 -0.00316435 0.004579365 -0.9999896 1.09645e-4 -4.4922e-5 -1 0 -0.3343778 0.3731998 -0.8653979 -0.3463433 0.2779075 -0.8959987 -0.3449997 0.2730957 -0.8979944 -1.03568e-4 -0.9999894 0.004620373 -0.003362476 -0.9999893 0.003211855 -0.8327729 0.4130805 -0.3685837 -0.8712146 0.3040115 -0.3854377 -0.8703473 0.3041111 -0.3873138 -0.8482908 0.4158965 0.3277697 -0.8327184 0.4506165 0.3217528 -0.8488581 0.4145648 0.3279881 -0.8903393 0.2980259 0.3442044 -0.892971 0.2919368 0.3426013 1.18039e-4 -0.9999894 -0.004618167 -0.004660069 -0.9999892 -1.12002e-4 -0.3562158 0.1329832 -0.9248923 -0.3400383 0.1618713 -0.9263756 -0.9021893 0.1611255 -0.4001163 -0.8893008 0.2007697 -0.410896 -0.3744598 0.3794659 0.8460411 -0.3700209 0.4051776 0.8360117 -0.3749192 0.3766896 0.8470777 -0.9172936 0.2043361 0.3417887 -0.9247398 0.1456869 0.3516129 0.3968482 0.2184882 -0.8915012 0.4055818 0.07803183 -0.9107219 0.4192977 0.1032984 -0.9019528 -0.003203451 -0.9999892 -0.003368675 -0.3432436 -0.03335022 -0.9386543 -0.3191686 0.03891164 -0.9468989 0.3941092 0.2262434 -0.8907816 -0.9363342 -0.044977 0.3482174 -0.9409583 0.07698446 0.329653 0.4234483 -0.01503276 -0.9057956 0.4464383 0.04518824 -0.8936728 0.8784043 0.2779471 0.3887818 0.8787072 0.2768001 0.3889158 0.8784043 0.2779446 0.3887835 -0.4113804 0.1436937 0.9000658 -0.3946064 0.2439811 0.8858662 -0.40797 0.07781243 0.9096735 0.9195587 0.1726199 -0.3530076 0.9339128 0.0299499 -0.3562445 0.9375521 0.05675679 -0.3431834 0.8967763 0.2751902 -0.3465005 0.8965469 0.2760484 -0.3464118 0.8965469 0.2760484 -0.3464116 -0.4160375 -0.03899174 0.9085111 -0.4324549 0.09256249 0.8968918 0.3501567 0.07272481 0.9338638 0.3519002 0.1902142 0.9165068 0.35596 0.01832509 0.9343215 0.9404961 -0.008168816 -0.3397064 0.9475317 0.05038726 -0.315666 0.9413172 0.01087528 -0.3373482 0.9012022 0.1644977 0.4009677 0.9131592 0.001058876 0.407602 0.9090515 0.04236376 0.4145246 -0.9084947 -0.06387412 -0.4129862 -0.9082976 -0.05376243 -0.4148556 0.3495509 -0.03375816 0.936309 0.3342968 0.07329493 0.9396135 -0.3911595 0.2553291 0.8841953 0.9178081 0.1782259 -0.3547728 0.8967857 0.2751553 -0.346504 0.9096179 -0.02338403 0.4147875 0.9035986 0.05719715 0.4245446 0.3412788 0.3215565 0.8832499 0.3397652 0.3336681 0.8793324 0.3414451 0.3201931 0.8836807 0.3532161 0.2006847 0.9137638 0.8787212 0.2767482 0.3889209 0.9024168 0.1619461 0.3992711 -0.06885963 0.9944536 0.07950192 -0.07851535 0.9933042 0.08474761 -0.06894236 0.9949957 0.07232326 0 0 1 0 0 1 0 0 1 0.055458 0.9945161 0.08866947 0.3018997 0.9427285 0.1418436 0.1069428 0.9899266 0.09278249 0.003172695 -0.9999895 0.003320991 -0.8321053 0.414685 -0.3682892 -0.8170378 0.4490881 -0.3616204 -0.8170356 0.4490908 -0.3616217 -0.3339582 0.3760764 -0.864314 -0.3301364 0.4012135 -0.8544225 -0.3301362 0.4012138 -0.8544225 0.864583 0.4350668 -0.2514221 0.8201323 0.5107971 -0.2578168 0.8098291 0.5264374 -0.2589222 0.4255012 0.245081 -0.8711395 0.4255011 0.2450817 -0.8711395 0.4255011 0.2450818 -0.8711394 -0.3257572 0.2185733 -0.9198413 -0.325756 0.2185797 -0.9198402 -0.3257574 0.2185722 -0.9198415 -0.8545625 0.3656167 -0.3688461 -0.8137375 0.4534218 -0.3636483 -0.8603453 0.3512585 -0.3693557 -0.007841885 0.1097888 0.993924 -0.007841885 0.109789 0.9939241 -0.8809208 0.2651138 -0.3920374 -0.8837831 0.2622572 -0.3874902 -0.8860949 0.2599187 -0.3837684 -0.9261424 0.192311 0.3244637 -0.9261438 0.1923059 0.3244627 -0.9261441 0.1923052 0.3244625 -0.4304947 0.132419 0.8928267 -0.4304949 0.132419 0.8928267 -0.4304949 0.1324189 0.8928267 0.3324326 0.1282137 0.9343714 0.3324313 0.1282186 0.9343712 0.3324329 0.1282128 0.9343715 0.8898826 0.1824858 0.4181005 0.8898831 0.1824848 0.4180999 0.8898825 0.1824859 0.4181005 0.9098256 0.2718464 -0.3135555 0.9111552 0.2693462 -0.3118473 0.9161912 0.2596744 -0.3052264 0 -0.2171726 -0.9761332 0 -0.2171729 -0.9761332 0 -0.2171727 -0.9761333 0.3821497 0.329329 -0.8634258 -0.8327181 0.4506169 0.321753 -0.3700196 0.4051791 0.8360117 0.9475314 0.05038964 -0.3156663 -0.9056754 -0.01743119 -0.4236134 -0.8961464 0.04668992 -0.4412955 0.3397651 0.3336681 0.8793323 -0.07098972 0.9938723 0.08472454 -0.09799492 0.9901259 0.1002382 0 0 1 -0.1811636 0.9777 0.1062189 -0.002277791 0.9974039 0.07197511 -0.4681133 0.8683172 0.1639978 -0.07376772 0.9925636 0.09682947 0.8731673 0.4185366 -0.249812 0.4255012 0.2450809 -0.8711396 -0.3257559 0.2185806 -0.91984 -0.8067831 0.466542 -0.3625461 -0.007841885 0.1097888 0.993924 -0.8767457 0.269206 -0.3985538 -0.9261423 0.1923118 0.3244639 -0.4304946 0.1324189 0.8928267 0.3324311 0.1282193 0.9343711 0.8898832 0.1824847 0.4180998 0.9062409 0.2784808 -0.3180814</float_array>
          <technique_common>
            <accessor source="#Mesh_005-mesh-normals-array" count="155" stride="3">
              <param name="X" type="float"/>
              <param name="Y" type="float"/>
              <param name="Z" type="float"/>
            </accessor>
          </technique_common>
        </source>
        <source id="Mesh_005-mesh-map-0">
          <float_array id="Mesh_005-mesh-map-0-array" count="660">0.6104854 0.2667354 0.65625 0.15625 0.6104854 0.2667354 0.3895146 0.04576456 0.5 0 0.5 0.15 0.65625 0.15625 0.6104854 0.04576456 0.65625 0.15625 0.65625 0.15625 0.6104854 0.2667354 0.5 0.15 0.6104854 0.04576456 0.5 0 0.6104854 0.04576456 0.5 0 0.3895146 0.04576456 0.3895146 0.04576456 0.5 0 0.3895146 0.04576456 0.3895146 0.04576456 0.34375 0.15625 0.3895146 0.04576456 0.5 0.15 0.6104854 0.2667354 0.5 0.3125 0.5 0.15 0.59375 0.3125 0.625 0.3325392 0.59375 0.3325392 0.375 0.3125 0.40625 0.3325392 0.375 0.3325392 0.3895146 0.04576456 0.34375 0.15625 0.34375 0.15625 0.40625 0.3325392 0.4375 0.3125 0.4375 0.3325392 0.5625 0.3125 0.59375 0.3325392 0.5625 0.3325392 0.3895146 0.2667354 0.34375 0.15625 0.5 0.15 0.5 0.3125 0.3895146 0.2667354 0.5 0.15 0.59375 0.3325392 0.375 0.3325392 0.59375 0.3325392 0.65625 0.15625 0.6104854 0.2667354 0.65625 0.15625 0.40625 0.3325392 0.4375 0.3325392 0.40625 0.3325392 0.5625 0.3325392 0.59375 0.3325392 0.5625 0.3325392 0.5 0.3125 0.3895146 0.2667354 0.3895146 0.2667354 0.4375 0.3325392 0.46875 0.3125 0.46875 0.3325392 0.53125 0.3125 0.5625 0.3325392 0.53125 0.3325392 0.6104854 0.2667354 0.5 0.3125 0.6104854 0.2667354 0.4375 0.3325392 0.46875 0.3325392 0.4375 0.3325392 0.46875 0.3325392 0.5 0.3125 0.5 0.3325392 0.5625 0.3325392 0.5398864 0.3325392 0.5388132 0.3325392 0.5 0.3125 0.53125 0.3325392 0.5 0.3325392 0.40625 0.3325392 0.40625 0.3325392 0.4029691 0.3325392 0.46875 0.3325392 0.5 0.3325392 0.46875 0.3325392 0.3895146 0.04576456 0.34375 0.15625 0.34375 0.15625 0.6104854 0.2667354 0.5 0.3125 0.6104854 0.2667354 0.5 0.3325392 0.53125 0.3325392 0.5 0.3325392 0.34375 0.15625 0.3895146 0.2667354 0.3895146 0.2667354 0.34375 0.15625 0.3895146 0.2667354 0.3895146 0.2667354 0.3895146 0.2667354 0.5 0.3125 0.5 0.3125 0.375 0.3325392 0.5398864 0.3325392 0.59375 0.3325392 0.609316 0.6941115 0.4427695 0.75 0.6103774 0.75 0.586801 0.8490565 0.6155499 0.7700476 0.6103774 0.75 0.6104854 0.04576456 0.65625 0.15625 0.5 0.15 0.5 0 0.6104854 0.04576456 0.5 0.15 0.5 0 0.6104854 0.04576456 0.5 0 0.6104854 0.04576456 0.65625 0.15625 0.6104854 0.04576456 0.5625 0.3325392 0.5398864 0.3325392 0.5398864 0.3325392 0.59375 0.3325392 0.5625 0.3325392 0.5625 0.3325392 0.59375 0.3325392 0.375 0.3325392 0.59375 0.3325392 0.375 0.3325392 0.4036527 0.3325392 0.375 0.3325392 0.5398864 0.3325392 0.4036527 0.3325392 0.4036527 0.3325392 0.4427695 0.75 0.4398366 0.7583311 0.4427695 0.75 0.4621007 0.8403889 0.4398366 0.7583311 0.4398366 0.7583311 0.5230574 0.8783398 0.4621007 0.8403889 0.4621007 0.8403889 0.5230574 0.8783398 0.586801 0.8490565 0.5230574 0.8783398 0.586801 0.8490565 0.6155499 0.7700476 0.586801 0.8490565 0.6103774 0.75 0.6155499 0.7700476 0.6155499 0.7700476 0.6103774 0.75 0.4427695 0.75 0.6103774 0.75 0.6104854 0.2667354 0.65625 0.15625 0.65625 0.15625 0.65625 0.15625 0.6104854 0.04576456 0.6104854 0.04576456 0.6104854 0.04576456 0.5 0 0.5 0 0.5 0 0.5 0 0.3895146 0.04576456 0.5 0 0.5 0 0.3895146 0.04576456 0.59375 0.3125 0.625 0.3125 0.625 0.3325392 0.375 0.3125 0.40625 0.3125 0.40625 0.3325392 0.3895146 0.04576456 0.3895146 0.04576456 0.34375 0.15625 0.40625 0.3325392 0.40625 0.3125 0.4375 0.3125 0.5625 0.3125 0.59375 0.3125 0.59375 0.3325392 0.59375 0.3325392 0.375 0.3325392 0.375 0.3325392 0.65625 0.15625 0.6104854 0.2667354 0.6104854 0.2667354 0.40625 0.3325392 0.4375 0.3325392 0.4375 0.3325392 0.5625 0.3325392 0.59375 0.3325392 0.59375 0.3325392 0.5 0.3125 0.5 0.3125 0.3895146 0.2667354 0.4375 0.3325392 0.4375 0.3125 0.46875 0.3125 0.53125 0.3125 0.5625 0.3125 0.5625 0.3325392 0.6104854 0.2667354 0.5 0.3125 0.5 0.3125 0.4375 0.3325392 0.46875 0.3325392 0.46875 0.3325392 0.46875 0.3325392 0.46875 0.3125 0.5 0.3125 0.53125 0.3325392 0.53125 0.3325392 0.5388132 0.3325392 0.53125 0.3325392 0.5625 0.3325392 0.5388132 0.3325392 0.5625 0.3325392 0.5625 0.3325392 0.5388132 0.3325392 0.5 0.3125 0.53125 0.3125 0.53125 0.3325392 0.4029691 0.3325392 0.4036527 0.3325392 0.375 0.3325392 0.4036527 0.3325392 0.375 0.3325392 0.375 0.3325392 0.375 0.3325392 0.40625 0.3325392 0.4029691 0.3325392 0.46875 0.3325392 0.5 0.3325392 0.5 0.3325392 0.3895146 0.04576456 0.3895146 0.04576456 0.34375 0.15625 0.6104854 0.2667354 0.5 0.3125 0.5 0.3125 0.5 0.3325392 0.53125 0.3325392 0.53125 0.3325392 0.34375 0.15625 0.34375 0.15625 0.3895146 0.2667354 0.34375 0.15625 0.34375 0.15625 0.3895146 0.2667354 0.3895146 0.2667354 0.3895146 0.2667354 0.5 0.3125 0.4036527 0.3325392 0.5398864 0.3325392 0.375 0.3325392 0.5398864 0.3325392 0.5625 0.3325392 0.59375 0.3325392 0.609316 0.6941115 0.4424442 0.7274882 0.4427695 0.75 0.6103774 0.75 0.4427695 0.75 0.5230574 0.8783398 0.4427695 0.75 0.4398366 0.7583311 0.4621007 0.8403889 0.5230574 0.8783398 0.4427695 0.75 0.4621007 0.8403889 0.5230574 0.8783398 0.586801 0.8490565 0.6103774 0.75 0.5 0 0.6104854 0.04576456 0.6104854 0.04576456 0.6104854 0.04576456 0.65625 0.15625 0.65625 0.15625 0.5625 0.3325392 0.5625 0.3325392 0.5398864 0.3325392 0.59375 0.3325392 0.59375 0.3325392 0.5625 0.3325392 0.59375 0.3325392 0.375 0.3325392 0.375 0.3325392 0.375 0.3325392 0.4036527 0.3325392 0.4036527 0.3325392 0.5398864 0.3325392 0.5398864 0.3325392 0.4036527 0.3325392 0.4427695 0.75 0.4398366 0.7583311 0.4398366 0.7583311 0.4621007 0.8403889 0.4621007 0.8403889 0.4398366 0.7583311 0.5230574 0.8783398 0.5230574 0.8783398 0.4621007 0.8403889 0.5230574 0.8783398 0.586801 0.8490565 0.586801 0.8490565 0.586801 0.8490565 0.6155499 0.7700476 0.6155499 0.7700476 0.6103774 0.75 0.6103774 0.75 0.6155499 0.7700476 0.6103774 0.75 0.4427695 0.75 0.4427695 0.75</float_array>
          <technique_common>
            <accessor source="#Mesh_005-mesh-map-0-array" count="330" stride="2">
              <param name="S" type="float"/>
              <param name="T" type="float"/>
            </accessor>
          </technique_common>
        </source>
        <vertices id="Mesh_005-mesh-vertices">
          <input semantic="POSITION" source="#Mesh_005-mesh-positions"/>
        </vertices>
        <triangles material="deadTree_002-material" count="68">
          <input semantic="VERTEX" source="#Mesh_005-mesh-vertices" offset="0"/>
          <input semantic="NORMAL" source="#Mesh_005-mesh-normals" offset="1"/>
          <input semantic="TEXCOORD" source="#Mesh_005-mesh-map-0" offset="2" set="0"/>
          <p>1 0 0 0 1 1 12 2 2 0 6 6 6 7 7 11 8 8 7 11 12 8 12 13 6 13 14 9 14 15 3 15 16 10 16 17 8 17 18 10 16 19 17 18 20 11 8 27 15 21 28 18 22 29 6 13 30 16 23 31 15 24 32 10 25 33 13 26 34 21 27 35 16 28 36 17 18 37 25 29 38 19 30 39 18 31 40 26 32 41 18 22 48 22 34 49 23 35 50 11 36 51 12 2 52 0 1 53 16 28 54 32 37 55 24 38 56 26 32 57 23 39 58 31 40 59 14 41 60 28 42 61 20 43 62 25 44 63 29 45 64 33 46 65 30 47 66 26 48 67 34 49 68 12 50 69 14 51 70 1 52 71 25 44 72 38 53 73 32 54 74 33 55 75 35 56 76 37 57 77 31 58 78 42 59 79 43 60 80 35 61 81 34 62 82 37 63 83 16 23 84 24 64 85 40 65 86 33 55 87 39 66 88 38 67 89 17 68 90 21 27 91 29 45 92 19 69 93 27 70 94 12 50 95 37 63 96 41 71 97 39 72 98 21 73 99 20 74 100 28 75 101 29 76 102 28 75 103 35 56 104 35 61 105 27 77 106 30 78 107 9 89 123 44 90 124 4 91 125 7 92 126 2 93 127 44 94 128 1 0 165 2 130 166 0 1 167 0 6 168 7 92 169 6 7 170 7 11 171 9 89 172 8 12 173 9 14 174 4 131 175 3 15 176 8 17 177 9 14 178 10 16 179 11 8 180 6 7 181 15 21 182 6 13 183 8 12 184 16 23 185 10 25 186 3 132 187 13 26 188 16 28 189 8 17 190 17 18 191 19 30 192 11 36 193 18 31 194 18 22 195 15 21 196 22 34 197 11 36 198 19 30 199 12 2 200 16 28 201 25 29 202 32 37 203 26 32 204 18 31 205 23 39 206 14 41 207 27 77 208 28 42 209 25 44 210 17 68 211 29 45 212 30 47 213 19 69 214 26 48 215 12 50 216 27 70 217 14 51 218 25 44 219 33 46 220 38 53 221 33 55 222 29 76 223 35 56 224 41 133 225 34 49 226 43 60 227 34 49 228 26 48 229 43 60 230 26 48 231 31 58 232 43 60 233 35 61 234 30 78 235 34 62 236 40 65 237 36 134 238 15 24 239 36 134 240 22 135 241 15 24 242 15 24 243 16 23 244 40 65 245 33 55 246 37 57 247 39 66 248 17 68 249 10 25 250 21 27 251 19 69 252 30 47 253 27 70 254 37 63 255 34 62 256 41 71 257 21 73 258 13 136 259 20 74 260 29 76 261 21 73 262 28 75 263 35 61 264 28 42 265 27 77 266 9 89 288 7 11 289 44 90 290 7 92 291 0 6 292 2 93 293</p>
        </triangles>
        <triangles material="deadTree_003-material" count="8">
          <input semantic="VERTEX" source="#Mesh_005-mesh-vertices" offset="0"/>
          <input semantic="NORMAL" source="#Mesh_005-mesh-normals" offset="1"/>
          <input semantic="TEXCOORD" source="#Mesh_005-mesh-map-0" offset="2" set="0"/>
          <p>3 3 3 4 4 4 5 5 5 2 9 9 1 10 10 5 5 11 13 19 21 3 3 22 5 5 23 1 10 24 14 20 25 5 5 26 20 33 42 13 19 43 5 5 44 14 20 45 20 33 46 5 5 47 44 88 117 2 9 118 5 5 119 4 4 120 44 88 121 5 5 122</p>
        </triangles>
        <triangles material="deadTree_001-material" count="34">
          <input semantic="VERTEX" source="#Mesh_005-mesh-vertices" offset="0"/>
          <input semantic="NORMAL" source="#Mesh_005-mesh-normals" offset="1"/>
          <input semantic="TEXCOORD" source="#Mesh_005-mesh-map-0" offset="2" set="0"/>
          <p>48 79 108 45 80 109 47 81 110 42 82 111 40 83 112 43 84 113 54 85 114 55 86 115 56 87 116 31 95 129 45 96 130 42 97 131 23 98 132 46 99 133 31 100 134 23 101 135 48 102 136 47 103 137 22 104 138 49 105 139 48 106 140 42 107 141 49 108 142 36 108 143 40 109 144 50 110 145 51 111 146 32 112 147 50 113 148 24 114 149 38 115 150 52 116 151 32 117 152 38 118 153 54 119 154 53 120 155 39 121 156 55 122 157 54 123 158 43 124 159 55 125 160 41 126 161 43 127 162 51 128 163 56 129 164 49 137 267 45 80 268 48 79 269 45 80 270 46 138 271 47 81 272 42 82 273 36 139 274 40 83 275 56 87 276 51 140 277 53 141 278 51 140 279 50 142 280 52 143 281 53 141 282 51 140 283 52 143 284 53 141 285 54 85 286 56 87 287 31 95 294 46 144 295 45 96 296 23 98 297 47 145 298 46 99 299 23 101 300 22 146 301 48 102 302 22 104 303 36 147 304 49 105 305 42 107 306 45 148 307 49 108 308 40 109 309 24 149 310 50 110 311 32 112 312 52 150 313 50 113 314 38 115 315 53 151 316 52 116 317 38 118 318 39 152 319 54 119 320 39 121 321 41 153 322 55 122 323 43 124 324 56 154 325 55 125 326 43 127 327 40 128 328 51 128 329</p>
        </triangles>
      </mesh>
    </geometry>
  </library_geometries>
  <library_visual_scenes>
    <visual_scene id="Scene" name="Scene">
      <node id="base00" name="base00" type="NODE">
        <matrix sid="transform">1 0 0 0 0 1 0 0 0 0 1 0 0 0 0 1</matrix>
        <node id="start01" name="start01" type="NODE">
          <matrix sid="transform">1 0 0 0 0 1 0 0 0 0 1 0 0 0 0 1</matrix>
          <node id="Tree_stump" name="Tree_stump" type="NODE">
            <matrix sid="transform">0.01 0 0 0 0 -1.62921e-9 -0.01 0 0 0.01 -1.62921e-9 0 0 0 0 1</matrix>
            <instance_geometry url="#Mesh_005-mesh" name="Tree_stump">
              <bind_material>
                <technique_common>
                  <instance_material symbol="deadTree_002-material" target="#deadTree_002-material">
                    <bind_vertex_input semantic="map1" input_semantic="TEXCOORD" input_set="0"/>
                  </instance_material>
                  <instance_material symbol="deadTree_003-material" target="#deadTree_003-material">
                    <bind_vertex_input semantic="map1" input_semantic="TEXCOORD" input_set="0"/>
                  </instance_material>
                  <instance_material symbol="deadTree_001-material" target="#deadTree_001-material">
                    <bind_vertex_input semantic="map1" input_semantic="TEXCOORD" input_set="0"/>
                  </instance_material>
                </technique_common>
              </bind_material>
            </instance_geometry>
          </node>
          <node id="Colmesh-1" name="Colmesh-1" type="NODE">
            <matrix sid="transform">0.01 0 0 0 0 -1.62921e-9 -0.01 0 0 0.01 -1.62921e-9 0 0 0 0 1</matrix>
            <instance_geometry url="#Mesh_007-mesh" name="Colmesh-1"/>
          </node>
        </node>
      </node>
    </visual_scene>
  </library_visual_scenes>
  <scene>
    <instance_visual_scene url="#Scene"/>
  </scene>
</COLLADA>