<?xml version="1.0" encoding="utf-8"?>
<COLLADA xmlns="http://www.collada.org/2005/11/COLLADASchema" version="1.4.1" xmlns:xsi="http://www.w3.org/2001/XMLSchema-instance">
  <asset>
    <contributor>
      <author>Blender User</author>
      <authoring_tool>Blender 3.4.1 commit date:2022-12-19, commit time:17:00, hash:55485cb379f7</authoring_tool>
    </contributor>
    <created>2025-12-20T16:08:51</created>
    <modified>2025-12-20T16:08:51</modified>
    <unit name="meter" meter="1"/>
    <up_axis>Z_UP</up_axis>
  </asset>
  <library_effects>
    <effect id="christmasIslandDual_001-effect">
      <profile_COMMON>
        <newparam sid="christmasIslandDual_001_Base_Color-surface">
          <surface type="2D">
            <init_from>christmasIslandDual_001_Base_Color</init_from>
          </surface>
        </newparam>
        <newparam sid="christmasIslandDual_001_Base_Color-sampler">
          <sampler2D>
            <source>christmasIslandDual_001_Base_Color-surface</source>
          </sampler2D>
        </newparam>
        <technique sid="common">
          <lambert>
            <emission>
              <color sid="emission">0 0 0 1</color>
            </emission>
            <diffuse>
              <texture texture="christmasIslandDual_001_Base_Color-sampler" texcoord="UVMap"/>
            </diffuse>
            <index_of_refraction>
              <float sid="ior">1.45</float>
            </index_of_refraction>
          </lambert>
        </technique>
      </profile_COMMON>
    </effect>
    <effect id="christmasIslandDual_002-effect">
      <profile_COMMON>
        <technique sid="common">
          <lambert>
            <emission>
              <color sid="emission">0 0 0 1</color>
            </emission>
            <diffuse>
              <color sid="diffuse">0.8 0.8 0.8 1</color>
            </diffuse>
            <index_of_refraction>
              <float sid="ior">1.45</float>
            </index_of_refraction>
          </lambert>
        </technique>
      </profile_COMMON>
    </effect>
  </library_effects>
  <library_images>
    <image id="christmasIslandDual_001_Base_Color" name="christmasIslandDual_001_Base_Color">
      <init_from>christmasIslandDual.001%20Base%20Color.png</init_from>
    </image>
  </library_images>
  <library_materials>
    <material id="christmasIslandDual_001-material" name="christmasIslandDual.001">
      <instance_effect url="#christmasIslandDual_001-effect"/>
    </material>
    <material id="christmasIslandDual_002-material" name="christmasIslandDual.002">
      <instance_effect url="#christmasIslandDual_002-effect"/>
    </material>
  </library_materials>
  <library_geometries>
    <geometry id="Plane_006-mesh" name="Plane.006">
      <mesh>
        <source id="Plane_006-mesh-positions">
          <float_array id="Plane_006-mesh-positions-array" count="396">-291.7041 50.86825 393.307 3.462418 43.57579 372.739 -387.4642 8.919442 -36.98578 208.9937 85.74642 -411.9511 -310.5561 25.51457 106.1882 -330.1346 29.31926 209.5108 -328.045 35.22266 311.5518 70.73913 46.60275 242.0499 192.3477 47.21259 144.9739 399.6432 64.6494 -194.7157 -207.2775 43.57579 429.5727 -97.75364 43.57579 438.9253 -17.35381 43.57579 410.1746 29.24787 83.10982 -243.6155 -211.7759 28.78501 -258.6011 -336.0447 23.20766 -186.6856 13.31116 43.57579 313.9678 -96.23809 43.57579 320.537 -215.2896 37.00827 322.3393 18.97955 45.5465 196.6265 -95.22052 43.57579 201.8721 -215.3029 35.61532 201.4309 44.37011 71.57878 51.88562 -91.21833 51.82657 72.52008 -221.4258 35.54616 82.81978 372.214 115.3681 -338.9786 -336.2076 32.88756 45.50401 -267.787 27.08032 -24.67908 -131.818 43.96142 -80.72827 48.68648 108.3016 -131.1887 -7.144814 43.57579 391.3461 107.2852 64.85013 -320.125 43.28051 43.57579 276.5911 102.4398 50.05955 163.0007 259.7215 88.94959 -18.9269 227.5898 107.9408 -208.3807 -327.8327 13.05349 311.3241 -291.8027 26.87147 393.2143 -7.243469 19.579 391.2534 3.363762 19.579 372.6462 369.3792 82.44857 -326.4613 208.9014 53.41277 -401.3878 -334.4215 4.81477 -186.5212 -385.5905 -9.157105 -36.84427 -334.7168 12.25096 44.67776 -310.1699 4.19421 106.0064 -329.9454 7.544891 208.9217 73.85981 20.83028 240.2679 190.0101 22.64613 145.2215 396.8982 38.22381 -190.9582 356.0605 -31.19777 -158.9784 -207.3762 19.579 429.4799 -97.8523 19.579 438.8325 -17.45246 19.579 410.0818 103.893 37.77348 -316.229 26.66992 54.53036 -232.072 -210.4346 8.252991 -258.5914 144.0294 -43.89161 139.949 60.97921 -44.08355 227.6977 -307.7867 -44.09027 198.0711 -288.4425 -44.08403 105.2971 -309.8609 -43.8788 47.47638 -350.5653 -43.65867 -25.96433 -305.929 -30.67535 -162.7664 187.7666 -42.15087 -306.8025 329.9049 -27.83838 -224.8586 -2.268227 -44.09027 351.3245 -12.03672 -44.09027 368.4603 -274.0953 -37.37442 370.2662 -306.1603 -43.78841 294.5413 -306.7161 1.264542 295.1333 -274.0017 11.5846 370.5143 -11.87688 5.356461 368.6107 -2.108383 5.356461 351.4748 352.7103 78.49967 -306.1856 199.8111 35.65549 -357.0631 -310.0671 4.292671 -169.9291 -354.7268 -7.360828 -28.08444 -310.976 2.530437 48.18712 -289.9681 -3.941452 105.7568 -308.4506 -1.003735 199.6418 65.16729 5.590984 228.432 168.1055 9.26389 140.0296 376.9565 36.12949 -175.817 -330.6388 -70.24169 313.4883 -216.9549 -72.14823 323.5697 -332.4295 -70.24169 207.2776 -196.1847 5.356461 403.8146 -95.32111 5.356461 412.4277 -21.27863 5.356461 385.9504 91.14837 23.24461 -285.4667 15.6291 35.64887 -199.3931 -198.0729 -0.09079742 -229.3927 -215.9864 -72.14823 203.6048 -311.1322 -70.24169 105.1362 -219.5194 -72.11803 81.76596 -295.3364 -70.24169 396.8591 -209.7352 -70.24169 433.6293 -17.16907 -70.24169 413.9613 -98.68752 -70.24169 443.112 84.16085 -70.24169 -304.7148 7.807404 -70.24169 -147.5207 -330.4892 -70.24169 -189.004 -205.374 -70.24169 -262.7865 13.92254 -72.14823 316.416 44.30886 -70.24169 278.5192 -196.3446 -44.09027 403.6643 -95.48095 -44.09027 412.2774 -21.43848 -44.09027 385.8 76.3856 -39.29929 -270.9649 3.495476 -36.37665 -143.4819 -192.3833 -33.75762 -228.8839 149.8073 -70.24169 141.5614 381.7928 -70.24169 -178.7779 73.29165 -70.24169 239.8427 3.936783 -70.24169 376.0048 -334.7131 -70.24169 41.47749 -379.5274 -70.24169 -39.37842 347.6128 -70.24169 -244.7108 209.4062 -70.24169 -342.2868 -6.818024 -70.24169 394.8708 -97.15087 -72.14823 323.0765 77.02595 -72.5008 167.4621 17.8915 -72.14823 200.024 -96.11914 -72.14823 202.7606 236.7727 -70.24169 -15.18526 25.36926 -71.90183 77.71327 -96.07981 -72.14823 81.48803 -254.5959 -71.96115 -4.177826 -136.2355 -71.60997 -54.76437 19.24101 -69.85324 -39.25278 176.8134 -68.66054 -151.3181</float_array>
          <technique_common>
            <accessor source="#Plane_006-mesh-positions-array" count="132" stride="3">
              <param name="X" type="float"/>
              <param name="Y" type="float"/>
              <param name="Z" type="float"/>
            </accessor>
          </technique_common>
        </source>
        <source id="Plane_006-mesh-normals">
          <float_array id="Plane_006-mesh-normals-array" count="1425">-0.1952506 0.9767384 -0.08865314 -0.200448 0.9757379 -0.08806931 -0.2694164 0.9596935 -0.08001983 -0.006145536 0.999978 -0.002545058 -0.2216846 0.9707871 -0.091807 0 1 0 -0.0871905 0.9961546 0.008596062 0.0370413 0.9976013 0.05847924 -0.1107648 0.9938462 -9.58727e-4 0.1467168 0.9424894 0.3003131 0.5987474 0.6820957 0.4198181 0.08622378 0.9564145 0.2789925 -0.08240002 0.9963281 -0.02325409 -0.08518934 0.996155 -0.02044612 -0.05803102 0.9971739 -0.04771542 -0.09441852 0.9949861 0.03298336 -0.09393763 0.9950485 0.03246939 -0.06615662 0.9978052 0.002833306 -0.067272 0.9916621 0.1099132 -0.07444363 0.9904299 0.1162188 -0.01431697 0.9978978 0.06320846 -0.03604769 0.9987937 -0.03334426 -0.03534275 0.9988427 -0.03262239 -0.05861949 0.9966825 -0.05646085 -0.06068354 0.9981387 -0.006048202 -0.06068325 0.9981389 -0.00604844 -0.05525141 0.9984063 -0.0114963 -0.006340682 0.9999611 0.006138563 -0.008613765 0.9999281 0.008339881 -0.004201829 0.9999829 0.004067957 0.05732125 0.9896499 -0.1315578 0.06046462 0.9899006 -0.1282221 0.002535879 0.9819648 -0.1890469 -0.0280956 0.9991958 -0.02861189 -0.02760463 0.9992236 -0.02811193 -0.05585074 0.9968179 -0.05687713 0 1 0 0 1 0 -0.1423497 0.9871611 -0.07245481 -0.1439772 0.9878967 -0.0577135 -0.1263962 0.9708702 -0.203556 -0.09654533 0.9952892 -0.008860766 -0.0905146 0.9956829 -0.02056181 -0.1134078 0.9932578 0.02403849 -0.2663327 0.9633558 -0.03182137 -0.3032126 0.9502413 -0.07144081 -0.2207972 0.9751877 0.01604861 -0.2250199 0.9695086 0.09705299 -0.2276968 0.9684986 0.1008199 -0.145949 0.9892182 -0.01210349 -0.1284832 0.9915224 -0.01937758 -0.128418 0.9915316 -0.01934134 -0.1317871 0.9910511 -0.02121204 -0.02744281 0.9995363 0.01320028 -0.02992606 0.9993346 0.02085298 -0.07163256 0.9860746 0.1500853 0.2256091 0.955936 0.1878483 0.2301367 0.9616786 0.1490343 0.2393925 0.9692742 0.05656027 0.01519936 0.9897438 0.1420426 0.01090168 0.9886365 0.1499307 -0.01452893 0.9804319 0.1963221 0.004567205 0.982191 0.1878303 -0.003703057 0.9813886 0.1919971 0.01945883 0.9834218 0.1802862 0.006085693 0.9997218 0.02278846 -0.02873253 0.9990305 0.03335261 0.02227944 0.9995922 0.01786404 0 1 0 -0.066877 0.9676476 -0.2432811 -0.07091069 0.967078 -0.2444012 0.01192569 0.9752919 -0.2205984 -0.1293399 -0.9734559 -0.188825 -0.01361393 -0.9981127 -0.0598815 0.005089759 -0.9992296 -0.03891342 0.03863245 -0.9961457 -0.078749 0.0695334 -0.9957026 -0.06116831 0.03406053 -0.9961044 -0.08133935 -0.1183825 -0.9506245 -0.2868776 -0.1217339 -0.9505921 -0.2855798 -0.1220354 -0.9505884 -0.2854628 0.2086644 -0.8795416 -0.4276281 0.2163766 -0.9079083 -0.3590039 0.2170774 -0.910452 -0.3520722 0.2158449 -0.9739585 -0.06939721 0.3314322 -0.9064307 -0.2617943 0.1926709 -0.9807215 -0.03260916 0.4616046 -0.8559802 0.23285 0.1381219 -0.9896525 0.03886622 0.1299088 -0.9909418 0.03402942 -0.6816534 -0.5108137 -0.5238493 -0.6818204 -0.5097319 -0.5246851 -0.6816285 -0.5109745 -0.5237249 0.5927559 -0.731067 0.3379078 0.5927562 -0.7310667 0.3379076 0.5927568 -0.7310664 0.3379074 0.4744991 -0.704732 0.52745 0.3915084 -0.796912 0.4600572 0.383823 -0.8042723 0.4536806 0.1716049 -0.8603855 0.4798838 0.1716051 -0.8603856 0.4798836 0.1716049 -0.8603855 0.4798839 -0.321282 -0.9077768 0.269665 -0.3538407 -0.8859496 0.2998171 -0.3626287 -0.8795775 0.3079675 0.6208602 -0.7134446 0.3248531 0.6582617 -0.6624878 0.3574936 0.6177719 -0.7173159 0.3222047 -0.04020661 -0.8812999 0.4708438 -0.04020714 -0.8812997 0.4708444 -0.04020649 -0.8813 0.4708437 -0.3720654 -0.9276313 0.0326752 -0.4416883 -0.8955559 0.05377137 -0.4528629 -0.889743 0.05720579 -0.2459867 -0.8838915 0.397777 -0.2401165 -0.8881968 0.3917275 -0.2479582 -0.8824241 0.3998057 -0.1930334 -0.8927414 -0.4071252 -0.2233156 -0.848043 -0.4805758 -0.1894146 -0.8974493 -0.3983805 -0.3751879 -0.9258796 -0.04450869 -0.3842961 -0.9221544 -0.04413449 -0.3855665 -0.9216265 -0.0440818 0.6077152 -0.7225691 0.3295093 0.6077144 -0.7225695 0.3295097 0.6077133 -0.7225701 0.3295103 -0.3810622 -0.923999 0.031901 -0.3750036 -0.9264748 0.03188776 -0.3827553 -0.9232987 0.03190445 -0.0649743 -0.9588685 0.2763143 -0.3515865 -0.8750964 0.3325558 -0.01913452 -0.9640313 0.2650995 0.879078 -0.005456805 0.4766469 0.879078 -0.005456805 0.4766467 0.8790784 -0.005456805 0.476646 -0.9820803 -0.01456022 -0.1878997 -0.9824771 -0.005075514 -0.1863143 -0.9825341 -0.003504514 -0.1860501 -0.6242701 -0.2195298 -0.749729 -0.6275528 -0.06044626 -0.7762241 -0.6225079 -0.2414302 -0.744443 -0.3948208 -0.001929104 0.9187561 -0.3948206 -0.001928508 0.9187563 -0.3948208 -0.001929283 0.9187562 -0.9997336 -0.009326636 0.02111268 -0.9997312 -0.009718894 0.02104961 -0.9997308 -0.009787738 0.02103853 -0.08508294 -0.00350213 0.9963678 -0.08508342 -0.00350219 0.9963677 -0.08508354 -0.00350219 0.9963677 0.8884078 0.003421247 0.4590424 0.881072 0.06642353 0.4682949 0.8891456 -0.005424559 0.4575925 -0.9143785 -0.0106135 0.4047212 -0.9140268 3.55741e-5 0.405654 -0.913943 0.002187609 0.4058369 0.3367116 -0.005024552 0.9415945 0.3367115 -0.005024492 0.9415944 0.3367115 -0.005024492 0.9415944 0.6246819 0.01451963 0.7807444 0.6320479 -0.04410207 0.7736735 0.6236588 0.02148771 0.7814013 0.8687414 -0.00548619 0.4952356 0.8687415 -0.00548619 0.4952356 0.8687419 -0.00548619 0.4952348 -0.7103296 -0.04442733 -0.7024657 -0.7378828 -0.167866 -0.6537202 -0.7017439 -0.0145716 -0.7122803 0.8509503 -0.07328665 0.5201082 0.8537978 -0.01685279 0.520332 0.853852 -0.0147159 0.5203078 0.4361066 -0.3442425 -0.8314494 0.4458371 -0.2879541 -0.8475327 0.4345194 -0.3525566 -0.8287924 0.1417647 -0.364704 -0.9202683 0.1128059 -0.02114588 -0.993392 0.1428132 -0.3817207 -0.9131779 0.9610568 -0.1380187 -0.2394171 0.9549297 -0.1711943 -0.2424912 0.9542586 -0.1744916 -0.2427824 -0.9396502 -0.08686828 -0.3309252 -0.9386971 -0.09888362 -0.3302574 -0.9397217 -0.08588987 -0.3309774 -0.5013324 -0.03467392 -0.8645598 -0.4987528 -0.05008649 -0.865296 -0.4984713 -0.0517252 -0.8653618 -0.8356235 -0.0823329 0.5430974 -0.8356406 -0.08213943 0.5431005 -0.8356428 -0.0821135 0.543101 -0.9232532 -0.07005357 0.3777512 -0.9279914 -0.03139793 0.3712764 -0.92153 -0.08176851 0.3796006 0.003896713 -0.999975 0.005904555 -0.001325368 -0.9999668 0.008053123 -0.005216658 -0.9999591 0.007388949 0 -1 0 0 -1 4.1487e-7 0 -1 4.25664e-7 0.0430631 -0.9985144 0.03338688 0.04431486 -0.9984575 0.03344976 0.0446605 -0.9984415 0.03346717 0.002616345 -0.9999956 0.001451611 0.03680986 -0.9991136 0.02042281 0.03863811 -0.9990233 0.02143716 -0.01863116 -0.9998072 0.006204962 -0.01745408 -0.9998474 -8.10942e-4 -0.01641565 -0.9998643 -0.001420021 -0.979192 -0.02767366 -0.2010408 -0.9805516 -0.01479923 -0.1957034 -0.981184 -0.008085966 -0.1929055 0.8790836 -0.004290759 0.4766482 0.8790838 -0.004290819 0.476648 0.8790838 -0.004290878 0.476648 -0.9389588 -0.03214925 0.3425243 -0.9382835 -0.03480225 0.3441119 -0.940047 -0.02779322 0.3399106 -0.8704377 -0.05789476 0.4888625 -0.8674038 -0.03929179 0.4960515 -0.8654751 -0.02845555 0.5001432 -0.4971193 -0.119182 -0.859458 -0.4704459 -0.2087324 -0.8573864 -0.4633755 -0.2301241 -0.8557605 -0.9358643 -0.1672742 -0.3101248 -0.9389697 -0.1332671 -0.317137 -0.9351246 -0.1738957 -0.3087106 0.8634693 -0.3884185 -0.3217951 0.8634784 -0.3887663 -0.3213501 0.8635122 -0.4099006 -0.2938166 0.2967817 -0.5611487 -0.772679 0.185106 -0.1415637 -0.9724687 0.1376522 0.00829482 -0.9904459 0.4206016 -0.5839433 -0.6943376 0.4358386 -0.5652732 -0.7003648 0.3987854 -0.6095309 -0.6851586 0.7790669 -0.3282564 0.5341373 0.8293038 -0.1418572 0.5404924 0.8325586 -0.1233357 0.540032 -0.7943793 -0.06749528 -0.6036605 -0.829508 -0.1620461 -0.5344695 -0.7497867 0.02365499 -0.6612568 0.8687463 -0.004313945 0.4952387 0.8687462 -0.004313886 0.495239 0.8687462 -0.004313826 0.495239 0.7033083 -0.1291406 0.6990566 0.6532785 -0.2417984 0.7174683 0.6300683 -0.2864747 0.7217661 0.3367131 -0.003951132 0.941599 0.3367134 -0.003951132 0.941599 0.3367137 -0.003951132 0.9415988 -0.9192906 -0.01109945 0.393423 -0.9182637 -0.005351126 0.3959335 -0.9173236 -2.62451e-4 0.3981424 0.887323 -0.02105581 0.4606676 0.8784453 -0.06445211 0.4734764 0.8746069 -0.08080476 0.4780517 -0.08508372 -0.002753734 0.9963701 -0.08508372 -0.002753913 0.9963701 -0.08508372 -0.002754092 0.99637 -0.9997362 -0.01507586 0.01733118 -0.9997462 -0.01350194 0.01804059 -0.9997506 -0.01257568 0.01845806 -0.3940507 -0.003112435 0.9190834 -0.3944268 -0.002302885 0.9189246 -0.3936827 -0.003903925 0.9192382 -0.4210023 -0.348833 -0.8373008 -0.3707338 -0.2565183 -0.8926113 -0.4621039 -0.4296189 -0.7758142 -0.3532732 0.6924308 -0.6290768 -0.3727202 0.671566 -0.640374 -0.3440579 0.7019716 -0.6235865 0.4469172 0.5906293 -0.6718794 0.2728696 0.780853 -0.5619705 0.2172354 0.8254575 -0.5209882 -0.7287382 0.6458745 -0.227567 -0.6600406 0.7343815 -0.1582094 -0.6353035 0.7603486 -0.1351275 -0.7297123 0.627782 0.2709425 -0.7286292 0.6288231 0.2714425 -0.7277903 0.6296273 0.2718287 -0.7457351 0.6478518 -0.155458 -0.7456861 0.6479044 -0.155474 -0.7457526 0.6478331 -0.1554524 -0.2558132 0.7271578 0.6370254 -0.2179908 0.7580813 0.6146485 -0.1888247 0.7801197 0.5964551 -0.2041153 0.7021291 -0.6821669 -0.2033276 0.6989662 -0.6856415 -0.2030836 0.6979872 -0.6867102 -0.7267425 0.6868288 0.010567 -0.7288351 0.6845863 0.011877 -0.7259755 0.6876467 0.01008802 -0.05486685 0.7643052 0.6425162 -0.05486667 0.7643055 0.6425161 -0.05486655 0.7643055 0.642516 0.7347757 0.5489802 0.3984035 0.7347753 0.5489804 0.3984041 0.734776 0.5489801 0.3984032 0.7508659 0.5383177 0.3826417 0.7527354 0.5340775 0.3849034 0.7530558 0.5333452 0.3852923 -0.7132736 0.5785122 0.3956822 -0.7119349 0.5799796 0.395945 -0.7114229 0.5805394 0.3960449 -0.6527594 0.7209293 0.2327362 -0.6708666 0.6915431 0.2677804 -0.6391853 0.7404066 0.2079427 0.2300326 0.730264 0.6432726 0.2300326 0.7302641 0.6432724 0.2300327 0.7302642 0.6432723 0.6348006 0.5068399 0.5832167 0.7542839 0.2602276 0.6027748 0.6052761 0.5514354 0.5740731 0.4007743 0.2106481 -0.8916319 0.4013916 0.5181006 -0.7552858 0.396397 0.1583231 -0.9043248 0.7524406 0.5784811 -0.3149491 0.7588347 0.5506893 -0.3477231 0.7394399 0.6201716 -0.2619465 0.7205618 0.5586266 0.4107642 0.7205622 0.5586263 0.4107639 0.7205615 0.5586268 0.4107643 -0.8756117 0.214923 -0.4325651 -0.8725942 -0.01390981 -0.4882477 -0.8674762 -0.05144119 -0.494812 0.7930986 0.2103644 0.5716132 0.788389 0.2293074 0.5708422 0.7934348 0.2089604 0.5716615 -6.21102e-5 -1 -6.09949e-5 -0.001333594 -0.9999991 -3.44866e-4 0 -1 0 -0.001038074 -0.9999901 -0.004353165 -0.01484078 -0.9998464 0.009331822 -0.005109131 -0.9999858 0.001553952 0 -1 0 0 -1 0 0 -1 0 -0.0126661 -0.9998422 0.01246362 -0.009474873 -0.9998423 0.01502889 0.001336038 -0.999848 0.01738905 0.003793418 -0.9998548 0.01661944 0.003614723 -0.9998353 0.01779294 -0.01386272 -0.9999039 3.5769e-4 -0.01849663 -0.9998053 0.006874203 -0.01508933 -0.9998766 0.0043931 -0.002441108 -0.9999749 -0.006660103 0.005188345 -0.9999302 -0.01062208 5.15139e-4 -0.9999834 -0.005736768 0.007169783 -0.9999678 -0.003622889 0.01184993 -0.9999067 0.00679028 0.007091045 -0.9998945 -0.01268208 0.006646573 -0.9999018 -0.01234328 -6.53145e-5 -1 -2.92649e-4 -0.01935333 -0.9998126 -5.40643e-4 -8.1622e-4 -0.999913 -0.01316308 -0.007778704 -0.9999697 -4.87217e-4 6.65728e-5 -0.9999859 -0.005327105 -0.002321541 -0.9999831 -0.005337536 0.01633495 -0.9996902 0.0187835 0.05226975 -0.9986109 0.00666356 0.06538981 -0.9978573 0.00222975 0.1363423 -0.9888387 0.06007349 0.08962053 -0.9948251 0.04786723 0.08703225 -0.9950873 0.04718929 -0.1364649 0.9860753 -0.09504115 -0.2232963 0.9703543 -0.0924744 0.0438438 0.9971629 0.06118804 0.6460236 0.6328985 0.4267237 -0.1105149 0.9938613 0.005125343 -0.1192106 0.9910829 0.05952823 -0.1191965 0.9806246 0.15546 -0.01473152 0.9998252 -0.01151704 -0.0661444 0.99781 -5.67216e-4 -0.01651751 0.9997358 0.01599234 0.1153618 0.9909028 -0.06930738 0 1 0 -0.1540539 0.9871987 0.0413087 -0.07449197 0.9958918 -0.05148535 -0.3674181 0.9190875 -0.1424161 -0.2845849 0.9411994 0.1820853 -0.1254259 0.9919455 -0.01768064 0.002829432 0.9968132 -0.07972204 0.2120986 0.9338506 0.2879884 0.04196333 0.9948183 0.09260523 -0.01420426 0.9802475 0.197264 -0.0392729 0.9985601 0.0365442 0 1 -1.57064e-7 -0.1078601 0.961046 -0.2544739 -0.1504694 -0.9655689 -0.2122165 0.07449555 -0.9955137 -0.05833327 -0.1180733 -0.9506269 -0.2869971 0.2076436 -0.8757442 -0.4358399 0.3458142 -0.8933432 -0.286968 0.4655017 -0.8532131 0.2352355 -0.6818428 -0.5095862 -0.5247976 0.5927553 -0.7310673 0.337908 0.4843718 -0.6920088 0.5352643 0.1716052 -0.8603857 0.4798834 -0.3109298 -0.9141525 0.2600919 0.6616709 -0.6574284 0.3605266 -0.04020732 -0.8812996 0.4708445 -0.3586856 -0.9330179 0.0286777 -0.2378509 -0.8898332 0.3893893 -0.2277538 -0.8406361 -0.4913851 -0.3736672 -0.9264914 -0.04457062 0.6077163 -0.7225684 0.3295086 -0.3730355 -0.9272691 0.03188318 -0.3989553 -0.8518766 0.3393242 0.8790776 -0.005456805 0.4766476 -0.9820037 -0.01617556 -0.188168 -0.6265031 -0.03355467 -0.7786965 -0.3948206 -0.001928329 0.9187562 -0.999734 -0.009257435 0.02112376 -0.08508282 -0.00350213 0.9963678 0.8799281 0.07409888 0.4692929 -0.9144408 -0.01291203 0.4045138 0.3367116 -0.005024552 0.9415945 0.6329148 -0.05243772 0.7724437 0.868741 -0.00548619 0.4952364 -0.7418208 -0.1925399 -0.642363 0.8507667 -0.07571202 0.5200613 0.4472396 -0.2789112 -0.8498149 0.1098578 0.006707012 -0.9939247 0.961741 -0.1338863 -0.2390161 -0.9386119 -0.0998786 -0.3301999 -0.5015766 -0.03317523 -0.8644769 -0.8356209 -0.08236253 0.543097 -0.9291134 -0.01997977 0.3692548 0.01125568 -0.9999251 0.00482428 0.04287171 -0.9985229 0.03337723 -0.9783512 -0.03484386 -0.2039972 0.8790836 -0.004290699 0.4766483 -0.9370419 -0.03958535 0.346966 -0.8724762 -0.07179951 0.4833531 -0.5027681 -0.09794682 -0.8588544 -0.9394627 -0.1263152 -0.3185191 0.861603 -0.357523 -0.3603022 0.3081513 -0.6152082 -0.7256457 0.4628567 -0.5304294 -0.7102171 0.7710035 -0.3500212 0.5320139 -0.8472556 -0.229237 -0.4791746 0.8687463 -0.004313945 0.4952386 0.7245172 -0.07121819 0.6855674 0.3367128 -0.003951132 0.9415991 -0.92022 -0.0164898 0.3910542 0.8902502 -0.004262447 0.4554519 -0.08508372 -0.002753555 0.99637 -0.9997288 -0.01602065 0.0169053 -0.3947917 -0.001516819 0.9187694 -0.3064003 -0.1457884 -0.9406725 -0.3801072 0.6633719 -0.644559 0.4894577 0.5289716 -0.6932677 -0.7433416 0.6229698 -0.2436223 -0.7304763 0.6270455 0.2705889 -0.745671 0.6479207 -0.155479 -0.2792936 0.7065696 0.6501958 -0.2043408 0.7030349 -0.6811658 -0.7295079 0.6838619 0.01229923 -0.0548669 0.7643052 0.6425163 0.734775 0.5489806 0.3984044 0.7506014 0.5389127 0.3823229 -0.7137416 0.577998 0.3955899 -0.6808602 0.6732837 0.288303 0.2300326 0.730264 0.6432726 0.7721231 0.2060896 0.6011266 0.3991352 0.5438429 -0.738191 0.7658941 0.5057293 -0.3970444 0.7205623 0.5586262 0.4107637 -0.8725383 0.2430174 -0.4238156 0.7882075 0.2300128 0.5708093 0.001194596 -0.9998008 0.01992201 -0.01259863 -0.9999122 -0.004128992 0.003911554 -0.9999789 -0.005199849 -0.007212519 -0.999967 0.003738939 0.006251633 -0.9997346 0.02217805 0.1372515 -0.9886985 0.06031048</float_array>
          <technique_common>
            <accessor source="#Plane_006-mesh-normals-array" count="475" stride="3">
              <param name="X" type="float"/>
              <param name="Y" type="float"/>
              <param name="Z" type="float"/>
            </accessor>
          </technique_common>
        </source>
        <source id="Plane_006-mesh-map-0">
          <float_array id="Plane_006-mesh-map-0-array" count="1560">0.50375 0.5468137 0.505 0.5480637 0.50375 0.5480638 0.505 0.5380637 0.50375 0.5405637 0.50375 0.5380638 0.505 0.5405637 0.50375 0.5430637 0.50375 0.5405637 0.505 0.5430637 0.5037499 0.5455636 0.50375 0.5430637 0.4975 0.5430637 0.495 0.5455637 0.495 0.5430637 0.5 0.5430637 0.4975 0.5455637 0.4975 0.5430637 0.5025 0.5430637 0.5 0.5455637 0.5 0.5430637 0.495 0.5405637 0.4975 0.5430637 0.495 0.5430637 0.5 0.5405637 0.4975 0.5430637 0.4975 0.5405637 0.5025 0.5405637 0.5 0.5430637 0.5 0.5405637 0.495 0.5380637 0.4975 0.5405637 0.495 0.5405637 0.4975 0.5380637 0.5 0.5405637 0.4975 0.5405637 0.5025 0.5380637 0.5 0.5405637 0.5 0.5380637 0.4975 0.5468137 0.495 0.5480637 0.495 0.5468137 0.5 0.5468137 0.4975 0.5480637 0.4975 0.5468137 0.5 0.5468137 0.5025 0.5480637 0.5 0.5480637 0.5025 0.5455637 0.5 0.5468137 0.5 0.5455637 0.4975 0.5455637 0.5 0.5468137 0.4975 0.5468137 0.4975 0.5455637 0.495 0.5468137 0.495 0.5455637 0.505 0.5455637 0.50375 0.5468137 0.5037499 0.5455636 0.5037499 0.5455636 0.5025001 0.5468137 0.5025 0.5455637 0.50375 0.5430637 0.5025 0.5455637 0.5025 0.5430637 0.50375 0.5405637 0.5025 0.5430637 0.5025 0.5405637 0.50375 0.5380638 0.5025 0.5405637 0.5025 0.5380637 0.5025001 0.5468137 0.50375 0.5480638 0.5025 0.5480637 0.5 0.5480637 0.4975 0.5480637 0.4975 0.5480637 0.4975 0.5480637 0.495 0.5480637 0.4975 0.5480637 0.505 0.5455637 0.505 0.5468137 0.505 0.5468137 0.5025 0.5480637 0.5 0.5480637 0.5 0.5480637 0.505 0.5468137 0.505 0.5480637 0.505 0.5468137 0.505 0.5430637 0.505 0.5455637 0.505 0.5455637 0.50375 0.5480638 0.5025 0.5480637 0.50375 0.5480638 0.50375 0.5380638 0.505 0.5380637 0.50375 0.5380638 0.505 0.5405637 0.505 0.5430637 0.505 0.5430637 0.5 0.5380637 0.5025 0.5380637 0.5 0.5380637 0.495 0.5405637 0.495 0.5380637 0.495 0.5380637 0.505 0.5380637 0.505 0.5405637 0.505 0.5380637 0.4975 0.5380637 0.5 0.5380637 0.4975 0.5380637 0.495 0.5430637 0.495 0.5405637 0.495 0.5405637 0.495 0.5380637 0.4975 0.5380637 0.495 0.5380637 0.505 0.5480637 0.50375 0.5480638 0.505 0.5480637 0.495 0.5455637 0.495 0.5430637 0.495 0.5430637 0.5025 0.5380637 0.50375 0.5380638 0.5025 0.5380637 0.495 0.5468137 0.495 0.5455637 0.495 0.5468137 0.495 0.5480637 0.495 0.5468137 0.495 0.5480637 0.5025 0.5380637 0.50375 0.5380638 0.5025 0.5380637 0.495 0.5455637 0.495 0.5430637 0.495 0.5430637 0.505 0.5480637 0.50375 0.5480638 0.505 0.5480637 0.495 0.5380637 0.4975 0.5380637 0.495 0.5380637 0.495 0.5430637 0.495 0.5405637 0.495 0.5405637 0.4975 0.5380637 0.5 0.5380637 0.5 0.5380637 0.505 0.5380637 0.505 0.5405637 0.505 0.5380637 0.495 0.5405637 0.495 0.5380637 0.495 0.5380637 0.5 0.5380637 0.5025 0.5380637 0.5025 0.5380637 0.505 0.5405637 0.505 0.5430637 0.505 0.5405637 0.50375 0.5380638 0.505 0.5380637 0.50375 0.5380638 0.50375 0.5480638 0.5025 0.5480637 0.50375 0.5480638 0.505 0.5430637 0.505 0.5455637 0.505 0.5455637 0.505 0.5468137 0.505 0.5480637 0.505 0.5468137 0.5025 0.5480637 0.5 0.5480637 0.5025 0.5480637 0.505 0.5455637 0.505 0.5468137 0.505 0.5468137 0.4975 0.5480637 0.495 0.5480637 0.4975 0.5480637 0.5 0.5480637 0.4975 0.5480637 0.4975 0.5480637 0.495 0.5480637 0.495 0.5468137 0.495 0.5468137 0.495 0.5468137 0.495 0.5455637 0.495 0.5468137 0.582495 0.8298037 0.5837451 0.8310537 0.5837451 0.8298037 0.582495 0.8235537 0.5837451 0.8210538 0.5824951 0.8210538 0.582495 0.8260537 0.5837451 0.8235537 0.582495 0.8235537 0.582495 0.8285537 0.5837451 0.8260537 0.582495 0.8260537 0.5737451 0.8285537 0.5762451 0.8260537 0.5737451 0.8260537 0.5737451 0.8285537 0.5737451 0.8260537 0.5737451 0.8260537 0.5812451 0.8210538 0.5824951 0.8210538 0.5812451 0.8210538 0.5737451 0.8298037 0.5737451 0.8285537 0.5737451 0.8298037 0.5737451 0.8310537 0.5737451 0.8298037 0.5737451 0.8298037 0.5787451 0.8310537 0.5762451 0.8310537 0.5762451 0.8310537 0.5762451 0.8310537 0.5737451 0.8310537 0.5762451 0.8310537 0.5837451 0.8285537 0.5837451 0.8298037 0.5837451 0.8298037 0.5812451 0.8310537 0.5787451 0.8310537 0.5787451 0.8310537 0.5837451 0.8298037 0.5837451 0.8310537 0.5837451 0.8298037 0.5837451 0.8260537 0.5837451 0.8285537 0.5837451 0.8285537 0.582495 0.8310537 0.5812451 0.8310537 0.582495 0.8310537 0.5824951 0.8210538 0.5837451 0.8210538 0.5824951 0.8210538 0.5837451 0.8235537 0.5837451 0.8260537 0.5837451 0.8260537 0.5787451 0.8210538 0.5812451 0.8210538 0.5812451 0.8210538 0.5737451 0.8235537 0.5737451 0.8210538 0.5737451 0.8210538 0.5837451 0.8210538 0.5837451 0.8235537 0.5837451 0.8235537 0.5762451 0.8210538 0.5787451 0.8210538 0.5787451 0.8210538 0.5737451 0.8260537 0.5737451 0.8235537 0.5737451 0.8235537 0.5737451 0.8210538 0.5762451 0.8210538 0.5737451 0.8210538 0.5837451 0.8310537 0.582495 0.8310537 0.5837451 0.8310537 0.5787451 0.8310537 0.5762451 0.8310537 0.5787451 0.8310537 0.5837451 0.8298037 0.5837451 0.8310537 0.5837451 0.8310537 0.5762451 0.8310537 0.5737451 0.8310537 0.5737451 0.8310537 0.5737451 0.8298037 0.5737451 0.8285537 0.5737451 0.8285537 0.5737451 0.8285537 0.5737451 0.8260537 0.5737451 0.8285537 0.5737451 0.8210538 0.5762451 0.8210538 0.5762451 0.8210538 0.5837451 0.8310537 0.582495 0.8310537 0.582495 0.8310537 0.5737451 0.8260537 0.5737451 0.8235537 0.5737451 0.8260537 0.5762451 0.8210538 0.5787451 0.8210538 0.5787451 0.8210538 0.5812451 0.8210538 0.5824951 0.8210538 0.5824951 0.8210538 0.5837451 0.8210538 0.5837451 0.8235537 0.5837451 0.8235537 0.5737451 0.8310537 0.5737451 0.8298037 0.5737451 0.8298037 0.5737451 0.8235537 0.5737451 0.8210538 0.5737451 0.8235537 0.5787451 0.8210538 0.5812451 0.8210538 0.5812451 0.8210538 0.5837451 0.8235537 0.5837451 0.8260537 0.5837451 0.8235537 0.5812451 0.8310537 0.5787451 0.8310537 0.5812451 0.8310537 0.5837451 0.8285537 0.5837451 0.8298037 0.5837451 0.8285537 0.5824951 0.8210538 0.5837451 0.8210538 0.5837451 0.8210538 0.582495 0.8310537 0.5812451 0.8310537 0.5812451 0.8310537 0.5837451 0.8260537 0.5837451 0.8285537 0.5837451 0.8260537 0.5762451 0.8260537 0.5787451 0.8285537 0.5787451 0.8260537 0.5787451 0.8285537 0.5812451 0.8260537 0.5787451 0.8260537 0.5737451 0.8235537 0.5762451 0.8260537 0.5762451 0.8235537 0.5762451 0.8260537 0.5787451 0.8235537 0.5762451 0.8235537 0.5787451 0.8260537 0.5812451 0.8235537 0.5787451 0.8235537 0.5737451 0.8210538 0.5762451 0.8235537 0.5762451 0.8210538 0.5762451 0.8210538 0.5787451 0.8235537 0.5787451 0.8210538 0.5787451 0.8235537 0.5812451 0.8210538 0.5787451 0.8210538 0.5737451 0.8310537 0.5762451 0.8298037 0.5737451 0.8298037 0.5762451 0.8310537 0.578745 0.8298037 0.5762451 0.8298037 0.578745 0.8298037 0.5812451 0.8310537 0.5812451 0.8298037 0.5787451 0.8285537 0.5812451 0.8298037 0.5812451 0.8285537 0.5762451 0.8285537 0.578745 0.8298037 0.5787451 0.8285537 0.5737451 0.8298037 0.5762451 0.8285537 0.5737451 0.8285537 0.582495 0.8298037 0.5837451 0.8285537 0.582495 0.8285537 0.5812451 0.8298037 0.582495 0.8285537 0.5812451 0.8285537 0.5812451 0.8285537 0.582495 0.8260537 0.5812451 0.8260537 0.5812451 0.8260537 0.582495 0.8235537 0.5812451 0.8235537 0.5812451 0.8235537 0.5824951 0.8210538 0.5812451 0.8210538 0.5812451 0.8310537 0.582495 0.8298037 0.5812451 0.8298037 0.50375 0.5468137 0.505 0.5468137 0.505 0.5480637 0.505 0.5380637 0.505 0.5405637 0.50375 0.5405637 0.505 0.5405637 0.505 0.5430637 0.50375 0.5430637 0.505 0.5430637 0.505 0.5455637 0.5037499 0.5455636 0.4975 0.5430637 0.4975 0.5455637 0.495 0.5455637 0.5 0.5430637 0.5 0.5455637 0.4975 0.5455637 0.5025 0.5430637 0.5025 0.5455637 0.5 0.5455637 0.495 0.5405637 0.4975 0.5405637 0.4975 0.5430637 0.5 0.5405637 0.5 0.5430637 0.4975 0.5430637 0.5025 0.5405637 0.5025 0.5430637 0.5 0.5430637 0.495 0.5380637 0.4975 0.5380637 0.4975 0.5405637 0.4975 0.5380637 0.5 0.5380637 0.5 0.5405637 0.5025 0.5380637 0.5025 0.5405637 0.5 0.5405637 0.4975 0.5468137 0.4975 0.5480637 0.495 0.5480637 0.5 0.5468137 0.5 0.5480637 0.4975 0.5480637 0.5 0.5468137 0.5025001 0.5468137 0.5025 0.5480637 0.5025 0.5455637 0.5025001 0.5468137 0.5 0.5468137 0.4975 0.5455637 0.5 0.5455637 0.5 0.5468137 0.4975 0.5455637 0.4975 0.5468137 0.495 0.5468137 0.505 0.5455637 0.505 0.5468137 0.50375 0.5468137 0.5037499 0.5455636 0.50375 0.5468137 0.5025001 0.5468137 0.50375 0.5430637 0.5037499 0.5455636 0.5025 0.5455637 0.50375 0.5405637 0.50375 0.5430637 0.5025 0.5430637 0.50375 0.5380638 0.50375 0.5405637 0.5025 0.5405637 0.5025001 0.5468137 0.50375 0.5468137 0.50375 0.5480638 0.5 0.5480637 0.5 0.5480637 0.4975 0.5480637 0.4975 0.5480637 0.495 0.5480637 0.495 0.5480637 0.505 0.5455637 0.505 0.5455637 0.505 0.5468137 0.5025 0.5480637 0.5025 0.5480637 0.5 0.5480637 0.505 0.5468137 0.505 0.5480637 0.505 0.5480637 0.505 0.5430637 0.505 0.5430637 0.505 0.5455637 0.50375 0.5480638 0.5025 0.5480637 0.5025 0.5480637 0.50375 0.5380638 0.505 0.5380637 0.505 0.5380637 0.505 0.5405637 0.505 0.5405637 0.505 0.5430637 0.5 0.5380637 0.5025 0.5380637 0.5025 0.5380637 0.495 0.5405637 0.495 0.5405637 0.495 0.5380637 0.505 0.5380637 0.505 0.5405637 0.505 0.5405637 0.4975 0.5380637 0.5 0.5380637 0.5 0.5380637 0.495 0.5430637 0.495 0.5430637 0.495 0.5405637 0.495 0.5380637 0.4975 0.5380637 0.4975 0.5380637 0.505 0.5480637 0.50375 0.5480638 0.50375 0.5480638 0.495 0.5455637 0.495 0.5455637 0.495 0.5430637 0.5025 0.5380637 0.50375 0.5380638 0.50375 0.5380638 0.495 0.5468137 0.495 0.5455637 0.495 0.5455637 0.495 0.5480637 0.495 0.5468137 0.495 0.5468137 0.5025 0.5380637 0.50375 0.5380638 0.50375 0.5380638 0.495 0.5455637 0.495 0.5455637 0.495 0.5430637 0.505 0.5480637 0.50375 0.5480638 0.50375 0.5480638 0.495 0.5380637 0.4975 0.5380637 0.4975 0.5380637 0.495 0.5430637 0.495 0.5430637 0.495 0.5405637 0.4975 0.5380637 0.4975 0.5380637 0.5 0.5380637 0.505 0.5380637 0.505 0.5405637 0.505 0.5405637 0.495 0.5405637 0.495 0.5405637 0.495 0.5380637 0.5 0.5380637 0.5 0.5380637 0.5025 0.5380637 0.505 0.5405637 0.505 0.5430637 0.505 0.5430637 0.50375 0.5380638 0.505 0.5380637 0.505 0.5380637 0.50375 0.5480638 0.5025 0.5480637 0.5025 0.5480637 0.505 0.5430637 0.505 0.5430637 0.505 0.5455637 0.505 0.5468137 0.505 0.5480637 0.505 0.5480637 0.5025 0.5480637 0.5 0.5480637 0.5 0.5480637 0.505 0.5455637 0.505 0.5455637 0.505 0.5468137 0.4975 0.5480637 0.495 0.5480637 0.495 0.5480637 0.5 0.5480637 0.5 0.5480637 0.4975 0.5480637 0.495 0.5480637 0.495 0.5480637 0.495 0.5468137 0.495 0.5468137 0.495 0.5455637 0.495 0.5455637 0.582495 0.8298037 0.582495 0.8310537 0.5837451 0.8310537 0.582495 0.8235537 0.5837451 0.8235537 0.5837451 0.8210538 0.582495 0.8260537 0.5837451 0.8260537 0.5837451 0.8235537 0.582495 0.8285537 0.5837451 0.8285537 0.5837451 0.8260537 0.5737451 0.8285537 0.5762451 0.8285537 0.5762451 0.8260537 0.5737451 0.8285537 0.5737451 0.8285537 0.5737451 0.8260537 0.5812451 0.8210538 0.5824951 0.8210538 0.5824951 0.8210538 0.5737451 0.8298037 0.5737451 0.8285537 0.5737451 0.8285537 0.5737451 0.8310537 0.5737451 0.8310537 0.5737451 0.8298037 0.5787451 0.8310537 0.5787451 0.8310537 0.5762451 0.8310537 0.5762451 0.8310537 0.5737451 0.8310537 0.5737451 0.8310537 0.5837451 0.8285537 0.5837451 0.8285537 0.5837451 0.8298037 0.5812451 0.8310537 0.5812451 0.8310537 0.5787451 0.8310537 0.5837451 0.8298037 0.5837451 0.8310537 0.5837451 0.8310537 0.5837451 0.8260537 0.5837451 0.8260537 0.5837451 0.8285537 0.582495 0.8310537 0.5812451 0.8310537 0.5812451 0.8310537 0.5824951 0.8210538 0.5837451 0.8210538 0.5837451 0.8210538 0.5837451 0.8235537 0.5837451 0.8235537 0.5837451 0.8260537 0.5787451 0.8210538 0.5787451 0.8210538 0.5812451 0.8210538 0.5737451 0.8235537 0.5737451 0.8235537 0.5737451 0.8210538 0.5837451 0.8210538 0.5837451 0.8210538 0.5837451 0.8235537 0.5762451 0.8210538 0.5762451 0.8210538 0.5787451 0.8210538 0.5737451 0.8260537 0.5737451 0.8260537 0.5737451 0.8235537 0.5737451 0.8210538 0.5762451 0.8210538 0.5762451 0.8210538 0.5837451 0.8310537 0.582495 0.8310537 0.582495 0.8310537 0.5787451 0.8310537 0.5762451 0.8310537 0.5762451 0.8310537 0.5837451 0.8298037 0.5837451 0.8298037 0.5837451 0.8310537 0.5762451 0.8310537 0.5762451 0.8310537 0.5737451 0.8310537 0.5737451 0.8298037 0.5737451 0.8298037 0.5737451 0.8285537 0.5737451 0.8285537 0.5737451 0.8260537 0.5737451 0.8260537 0.5737451 0.8210538 0.5737451 0.8210538 0.5762451 0.8210538 0.5837451 0.8310537 0.5837451 0.8310537 0.582495 0.8310537 0.5737451 0.8260537 0.5737451 0.8235537 0.5737451 0.8235537 0.5762451 0.8210538 0.5762451 0.8210538 0.5787451 0.8210538 0.5812451 0.8210538 0.5812451 0.8210538 0.5824951 0.8210538 0.5837451 0.8210538 0.5837451 0.8210538 0.5837451 0.8235537 0.5737451 0.8310537 0.5737451 0.8310537 0.5737451 0.8298037 0.5737451 0.8235537 0.5737451 0.8210538 0.5737451 0.8210538 0.5787451 0.8210538 0.5787451 0.8210538 0.5812451 0.8210538 0.5837451 0.8235537 0.5837451 0.8260537 0.5837451 0.8260537 0.5812451 0.8310537 0.5787451 0.8310537 0.5787451 0.8310537 0.5837451 0.8285537 0.5837451 0.8298037 0.5837451 0.8298037 0.5824951 0.8210538 0.5824951 0.8210538 0.5837451 0.8210538 0.582495 0.8310537 0.582495 0.8310537 0.5812451 0.8310537 0.5837451 0.8260537 0.5837451 0.8285537 0.5837451 0.8285537 0.5762451 0.8260537 0.5762451 0.8285537 0.5787451 0.8285537 0.5787451 0.8285537 0.5812451 0.8285537 0.5812451 0.8260537 0.5737451 0.8235537 0.5737451 0.8260537 0.5762451 0.8260537 0.5762451 0.8260537 0.5787451 0.8260537 0.5787451 0.8235537 0.5787451 0.8260537 0.5812451 0.8260537 0.5812451 0.8235537 0.5737451 0.8210538 0.5737451 0.8235537 0.5762451 0.8235537 0.5762451 0.8210538 0.5762451 0.8235537 0.5787451 0.8235537 0.5787451 0.8235537 0.5812451 0.8235537 0.5812451 0.8210538 0.5737451 0.8310537 0.5762451 0.8310537 0.5762451 0.8298037 0.5762451 0.8310537 0.5787451 0.8310537 0.578745 0.8298037 0.578745 0.8298037 0.5787451 0.8310537 0.5812451 0.8310537 0.5787451 0.8285537 0.578745 0.8298037 0.5812451 0.8298037 0.5762451 0.8285537 0.5762451 0.8298037 0.578745 0.8298037 0.5737451 0.8298037 0.5762451 0.8298037 0.5762451 0.8285537 0.582495 0.8298037 0.5837451 0.8298037 0.5837451 0.8285537 0.5812451 0.8298037 0.582495 0.8298037 0.582495 0.8285537 0.5812451 0.8285537 0.582495 0.8285537 0.582495 0.8260537 0.5812451 0.8260537 0.582495 0.8260537 0.582495 0.8235537 0.5812451 0.8235537 0.582495 0.8235537 0.5824951 0.8210538 0.5812451 0.8310537 0.582495 0.8310537 0.582495 0.8298037</float_array>
          <technique_common>
            <accessor source="#Plane_006-mesh-map-0-array" count="780" stride="2">
              <param name="S" type="float"/>
              <param name="T" type="float"/>
            </accessor>
          </technique_common>
        </source>
        <vertices id="Plane_006-mesh-vertices">
          <input semantic="POSITION" source="#Plane_006-mesh-positions"/>
        </vertices>
        <triangles count="260">
          <input semantic="VERTEX" source="#Plane_006-mesh-vertices" offset="0"/>
          <input semantic="NORMAL" source="#Plane_006-mesh-normals" offset="1"/>
          <input semantic="TEXCOORD" source="#Plane_006-mesh-map-0" offset="2" set="0"/>
          <p>35 0 0 3 1 1 31 2 2 1 3 3 32 4 4 30 5 5 7 6 6 33 7 7 32 8 8 8 9 9 34 10 10 33 11 11 21 12 12 4 13 13 5 14 14 20 15 15 24 16 16 21 17 17 19 18 18 23 19 19 20 20 20 6 21 21 21 22 22 5 23 23 17 24 24 21 25 25 18 26 26 16 27 27 20 28 28 17 29 29 0 30 30 18 31 31 6 32 32 10 33 33 17 34 34 18 35 35 12 36 36 17 29 37 11 37 38 27 38 39 2 39 40 26 40 41 28 41 42 15 42 43 27 43 44 28 44 45 13 45 46 14 46 47 22 47 48 28 48 49 23 49 50 24 50 51 28 51 52 27 52 53 24 53 54 26 54 55 4 55 56 9 56 57 35 57 58 34 58 59 34 59 60 29 60 61 22 61 62 33 62 63 22 63 64 19 64 65 32 65 66 19 66 67 16 67 68 30 68 69 16 27 70 12 36 71 29 69 72 31 70 73 13 71 74 56 72 75 76 73 76 42 74 77 76 75 78 43 76 79 42 77 80 49 78 81 74 79 82 40 80 83 55 81 84 92 82 85 56 83 86 74 84 87 41 85 88 40 86 89 48 87 90 83 88 91 49 89 92 90 90 93 55 91 94 54 92 95 72 93 96 39 94 97 38 95 98 47 96 99 82 97 100 48 98 101 88 99 102 53 100 103 52 101 104 36 102 105 71 103 106 37 104 107 73 105 108 47 106 109 39 107 110 87 108 111 52 109 112 51 110 113 46 111 114 70 112 115 36 113 116 71 114 117 51 115 118 37 116 119 75 117 120 54 118 121 41 119 122 45 120 123 80 121 124 46 122 125 89 123 126 38 124 127 53 125 128 78 126 129 45 127 130 44 128 131 77 129 132 44 130 133 43 131 134 53 132 135 30 133 136 12 134 137 4 135 138 46 136 139 5 137 140 41 138 141 31 139 142 3 140 143 37 141 144 10 142 145 0 143 146 5 144 147 36 145 148 6 146 149 10 147 150 52 148 151 11 149 152 39 150 153 7 151 154 1 152 155 6 153 156 37 154 157 0 155 158 11 156 159 53 157 160 12 158 161 47 159 162 8 160 163 7 161 164 38 162 165 1 163 166 30 164 167 54 165 168 13 166 169 31 167 170 8 168 171 49 169 172 9 170 173 40 171 174 3 172 175 25 173 176 55 174 177 14 175 178 13 176 179 9 177 180 40 178 181 25 179 182 42 180 183 2 181 184 15 182 185 14 183 186 42 184 187 15 185 188 2 186 189 44 187 190 26 188 191 44 189 192 4 190 193 26 191 194 131 192 195 119 193 196 118 194 197 105 195 198 115 196 199 120 197 200 122 198 201 114 199 202 105 200 203 125 201 204 112 202 205 122 203 206 94 204 207 93 205 208 86 206 209 79 207 210 59 208 211 80 209 212 108 210 213 72 211 214 89 212 215 61 213 216 79 214 217 78 215 218 77 216 219 61 217 220 78 218 221 92 219 222 63 220 223 76 221 224 63 222 225 77 223 226 76 224 227 83 225 228 65 226 229 74 227 230 91 228 231 111 229 232 92 230 233 65 231 234 75 232 235 74 233 236 82 234 237 50 235 238 83 236 239 109 237 240 91 238 241 90 239 242 67 240 243 73 241 244 72 242 245 81 243 246 57 244 247 82 245 248 88 246 249 108 247 250 89 248 251 70 249 252 68 250 253 71 251 254 73 252 255 58 253 256 81 254 257 87 255 258 107 256 259 88 257 260 80 258 261 69 259 262 70 260 263 68 261 264 87 262 265 71 263 266 64 264 267 90 265 268 75 266 269 103 267 270 63 268 271 111 269 272 65 270 273 119 271 274 64 272 275 63 273 276 117 274 277 62 275 278 61 276 279 94 277 280 60 278 281 94 279 282 59 280 283 60 281 284 68 282 285 97 283 286 106 284 287 64 285 288 100 286 289 109 287 290 86 288 291 69 289 292 59 290 293 106 291 294 99 292 295 107 293 296 108 294 297 120 295 298 67 296 299 66 297 300 114 298 301 58 299 302 62 300 303 116 301 304 61 302 305 84 303 306 68 304 307 69 305 308 107 306 309 98 307 310 108 308 311 114 309 312 57 310 313 58 311 314 101 312 315 111 313 316 110 314 317 113 315 318 65 316 319 50 317 320 67 318 321 115 319 322 66 320 323 109 321 324 101 322 325 110 323 326 112 324 327 50 325 328 57 326 329 93 327 330 127 328 331 124 329 332 127 328 333 123 330 334 124 329 335 84 331 336 93 205 337 85 332 338 93 327 339 121 333 340 85 334 341 124 329 342 104 335 343 121 333 344 96 336 345 85 332 346 97 337 347 97 337 348 121 338 349 99 339 350 121 338 351 98 340 352 99 339 353 117 341 354 128 342 355 116 343 356 102 344 357 129 345 358 128 346 359 129 345 360 101 347 361 130 348 362 127 328 363 130 349 364 126 350 365 95 351 366 129 345 367 127 328 368 116 343 369 95 352 370 94 204 371 131 353 372 113 354 373 125 355 374 130 349 375 125 355 376 126 350 377 126 350 378 122 356 379 123 330 380 123 357 381 105 358 382 104 359 383 104 360 384 120 361 385 98 362 386 101 347 387 131 192 388 130 348 389 35 0 390 25 363 391 3 1 392 1 3 393 7 364 394 32 4 395 7 6 396 8 365 397 33 7 398 8 9 399 9 366 400 34 10 401 21 12 402 24 367 403 4 13 404 20 15 405 23 368 406 24 16 407 19 18 408 22 369 409 23 19 410 6 21 411 18 370 412 21 22 413 17 24 414 20 371 415 21 25 416 16 27 417 19 372 418 20 28 419 0 30 420 10 373 421 18 31 422 10 33 423 11 374 424 17 34 425 12 36 426 16 27 427 17 29 428 27 38 429 15 375 430 2 39 431 28 41 432 14 376 433 15 42 434 28 44 435 29 377 436 13 45 437 22 47 438 29 378 439 28 48 440 24 50 441 23 379 442 28 51 443 24 53 444 27 380 445 26 54 446 9 56 447 25 381 448 35 57 449 34 59 450 35 382 451 29 60 452 33 62 453 34 383 454 22 63 455 32 65 456 33 384 457 19 66 458 30 68 459 32 385 460 16 27 461 29 69 462 35 386 463 31 70 464 56 72 465 92 387 466 76 73 467 76 75 468 77 388 469 43 76 470 49 78 471 83 389 472 74 79 473 55 81 474 91 390 475 92 82 476 74 84 477 75 391 478 41 85 479 48 87 480 82 392 481 83 88 482 90 90 483 91 393 484 55 91 485 72 93 486 73 394 487 39 94 488 47 96 489 81 395 490 82 97 491 88 99 492 89 396 493 53 100 494 36 102 495 70 397 496 71 103 497 73 105 498 81 398 499 47 106 500 87 108 501 88 399 502 52 109 503 46 111 504 80 400 505 70 112 506 71 114 507 87 401 508 51 115 509 75 117 510 90 402 511 54 118 512 45 120 513 79 403 514 80 121 515 89 123 516 72 404 517 38 124 518 78 126 519 79 405 520 45 127 521 77 129 522 78 406 523 44 130 524 53 132 525 38 407 526 30 133 527 4 135 528 45 408 529 46 136 530 41 138 531 54 409 532 31 139 533 37 141 534 51 410 535 10 142 536 5 144 537 46 411 538 36 145 539 10 147 540 51 412 541 52 148 542 39 150 543 47 413 544 7 151 545 6 153 546 36 414 547 37 154 548 11 156 549 52 415 550 53 157 551 47 159 552 48 416 553 8 160 554 38 162 555 39 417 556 1 163 557 54 165 558 55 418 559 13 166 560 8 168 561 48 419 562 49 169 563 40 171 564 41 420 565 3 172 566 55 174 567 56 421 568 14 175 569 9 177 570 49 422 571 40 178 572 42 180 573 43 423 574 2 181 575 14 183 576 56 424 577 42 184 578 2 186 579 43 425 580 44 187 581 44 189 582 45 426 583 4 190 584 131 192 585 100 427 586 119 193 587 105 195 588 114 334 589 115 196 590 122 198 591 112 428 592 114 199 593 125 201 594 113 334 595 112 202 596 94 204 597 95 352 598 93 205 599 79 207 600 60 429 601 59 208 602 108 210 603 67 430 604 72 211 605 61 213 606 60 431 607 79 214 608 77 216 609 62 432 610 61 217 611 92 219 612 111 433 613 63 220 614 63 222 615 62 434 616 77 223 617 83 225 618 50 435 619 65 226 620 91 228 621 110 436 622 111 229 623 65 231 624 64 437 625 75 232 626 82 234 627 57 438 628 50 235 629 109 237 630 110 439 631 91 238 632 67 240 633 66 440 634 73 241 635 81 243 636 58 441 637 57 244 638 88 246 639 107 442 640 108 247 641 70 249 642 69 443 643 68 250 644 73 252 645 66 444 646 58 253 647 87 255 648 106 445 649 107 256 650 80 258 651 59 446 652 69 259 653 68 261 654 106 447 655 87 262 656 64 264 657 109 448 658 90 265 659 103 267 660 102 449 661 63 268 662 65 270 663 118 450 664 119 271 665 63 273 666 102 451 667 117 274 668 61 276 669 116 452 670 94 277 671 94 279 672 86 453 673 59 280 674 68 282 675 96 454 676 97 283 677 64 285 678 119 455 679 100 286 680 86 288 681 84 456 682 69 289 683 106 291 684 97 457 685 99 292 686 108 294 687 98 458 688 120 295 689 66 297 690 115 459 691 114 298 692 62 300 693 117 460 694 116 301 695 84 303 696 96 461 697 68 304 698 107 306 699 99 462 700 98 307 701 114 309 702 112 463 703 57 310 704 101 312 705 103 464 706 111 313 707 113 315 708 118 465 709 65 316 710 67 318 711 120 466 712 115 319 713 109 321 714 100 467 715 101 322 716 112 324 717 113 468 718 50 325 719 93 327 720 95 351 721 127 328 722 127 328 723 126 350 724 123 330 725 84 331 726 86 206 727 93 205 728 93 327 729 124 329 730 121 333 731 124 329 732 123 330 733 104 335 734 96 336 735 84 331 736 85 332 737 97 337 738 85 332 739 121 338 740 121 338 741 104 469 742 98 340 743 117 341 744 102 470 745 128 342 746 102 344 747 103 471 748 129 345 749 129 345 750 103 471 751 101 347 752 127 328 753 129 345 754 130 349 755 95 351 756 128 346 757 129 345 758 116 343 759 128 342 760 95 352 761 131 353 762 118 472 763 113 354 764 130 349 765 131 353 766 125 355 767 126 350 768 125 355 769 122 356 770 123 357 771 122 473 772 105 358 773 104 360 774 105 474 775 120 361 776 101 347 777 100 427 778 131 192 779</p>
        </triangles>
      </mesh>
    </geometry>
    <geometry id="Plane_002-mesh" name="Plane.002">
      <mesh>
        <source id="Plane_002-mesh-positions">
          <float_array id="Plane_002-mesh-positions-array" count="396">-291.7041 50.86825 393.307 3.462418 43.57579 372.739 -387.4642 8.919442 -36.98578 208.9937 85.74642 -411.9511 -310.5561 25.51457 106.1882 -330.1346 29.31926 209.5108 -328.045 35.22266 311.5518 70.73913 46.60275 242.0499 192.3477 47.21259 144.9739 399.6432 64.6494 -194.7157 -207.2775 43.57579 429.5727 -97.75364 43.57579 438.9253 -17.35381 43.57579 410.1746 29.24787 83.10982 -243.6155 -211.7759 28.78501 -258.6011 -336.0447 23.20766 -186.6856 13.31116 43.57579 313.9678 -96.23809 43.57579 320.537 -215.2896 37.00827 322.3393 18.97955 45.5465 196.6265 -95.22052 43.57579 201.8721 -215.3029 35.61532 201.4309 44.37011 71.57878 51.88562 -91.21833 51.82657 72.52008 -221.4258 35.54616 82.81978 372.214 115.3681 -338.9786 -336.2076 32.88756 45.50401 -267.787 27.08032 -24.67908 -131.818 43.96142 -80.72827 48.68648 108.3016 -131.1887 -7.144814 43.57579 391.3461 107.2852 64.85013 -320.125 43.28051 43.57579 276.5911 102.4398 50.05955 163.0007 259.7215 88.94959 -18.9269 227.5898 107.9408 -208.3807 -327.8327 13.05349 311.3241 -291.8027 26.87147 393.2143 -7.243469 19.579 391.2534 3.363762 19.579 372.6462 369.3792 82.44857 -326.4613 208.9014 53.41277 -401.3878 -334.4215 4.81477 -186.5212 -385.5905 -9.157105 -36.84427 -334.7168 12.25096 44.67776 -310.1699 4.19421 106.0064 -329.9454 7.544891 208.9217 73.85981 20.83028 240.2679 190.0101 22.64613 145.2215 396.8982 38.22381 -190.9582 356.0605 -31.19777 -158.9784 -207.3762 19.579 429.4799 -97.8523 19.579 438.8325 -17.45246 19.579 410.0818 103.893 37.77348 -316.229 26.66992 54.53036 -232.072 -210.4346 8.252991 -258.5914 144.0294 -43.89161 139.949 60.97921 -44.08355 227.6977 -307.7867 -44.09027 198.0711 -288.4425 -44.08403 105.2971 -309.8609 -43.8788 47.47638 -350.5653 -43.65867 -25.96433 -305.929 -30.67535 -162.7664 187.7666 -42.15087 -306.8025 329.9049 -27.83838 -224.8586 -2.268227 -44.09027 351.3245 -12.03672 -44.09027 368.4603 -274.0953 -37.37442 370.2662 -306.1603 -43.78841 294.5413 -306.7161 1.264542 295.1333 -274.0017 11.5846 370.5143 -11.87688 5.356461 368.6107 -2.108383 5.356461 351.4748 352.7103 78.49967 -306.1856 199.8111 35.65549 -357.0631 -310.0671 4.292671 -169.9291 -354.7268 -7.360828 -28.08444 -310.976 2.530437 48.18712 -289.9681 -3.941452 105.7568 -308.4506 -1.003735 199.6418 65.16729 5.590984 228.432 168.1055 9.26389 140.0296 376.9565 36.12949 -175.817 -330.6388 -70.24169 313.4883 -216.9549 -72.14823 323.5697 -332.4295 -70.24169 207.2776 -196.1847 5.356461 403.8146 -95.32111 5.356461 412.4277 -21.27863 5.356461 385.9504 91.14837 23.24461 -285.4667 15.6291 35.64887 -199.3931 -198.0729 -0.09079742 -229.3927 -215.9864 -72.14823 203.6048 -311.1322 -70.24169 105.1362 -219.5194 -72.11803 81.76596 -295.3364 -70.24169 396.8591 -209.7352 -70.24169 433.6293 -17.16907 -70.24169 413.9613 -98.68752 -70.24169 443.112 84.16085 -70.24169 -304.7148 7.807404 -70.24169 -147.5207 -330.4892 -70.24169 -189.004 -205.374 -70.24169 -262.7865 13.92254 -72.14823 316.416 44.30886 -70.24169 278.5192 -196.3446 -44.09027 403.6643 -95.48095 -44.09027 412.2774 -21.43848 -44.09027 385.8 76.3856 -39.29929 -270.9649 3.495476 -36.37665 -143.4819 -192.3833 -33.75762 -228.8839 149.8073 -70.24169 141.5614 381.7928 -70.24169 -178.7779 73.29165 -70.24169 239.8427 3.936783 -70.24169 376.0048 -334.7131 -70.24169 41.47749 -379.5274 -70.24169 -39.37842 347.6128 -70.24169 -244.7108 209.4062 -70.24169 -342.2868 -6.818024 -70.24169 394.8708 -97.15087 -72.14823 323.0765 77.02595 -72.5008 167.4621 17.8915 -72.14823 200.024 -96.11914 -72.14823 202.7606 236.7727 -70.24169 -15.18526 25.36926 -71.90183 77.71327 -96.07981 -72.14823 81.48803 -254.5959 -71.96115 -4.177826 -136.2355 -71.60997 -54.76437 19.24101 -69.85324 -39.25278 176.8134 -68.66054 -151.3181</float_array>
          <technique_common>
            <accessor source="#Plane_002-mesh-positions-array" count="132" stride="3">
              <param name="X" type="float"/>
              <param name="Y" type="float"/>
              <param name="Z" type="float"/>
            </accessor>
          </technique_common>
        </source>
        <source id="Plane_002-mesh-normals">
          <float_array id="Plane_002-mesh-normals-array" count="1425">-0.1952506 0.9767384 -0.08865314 -0.200448 0.9757379 -0.08806931 -0.2694164 0.9596935 -0.08001983 -0.006145536 0.999978 -0.002545058 -0.2216846 0.9707871 -0.091807 0 1 0 -0.0871905 0.9961546 0.008596062 0.0370413 0.9976013 0.05847924 -0.1107648 0.9938462 -9.58727e-4 0.1467168 0.9424894 0.3003131 0.5987474 0.6820957 0.4198181 0.08622378 0.9564145 0.2789925 -0.08240002 0.9963281 -0.02325409 -0.08518934 0.996155 -0.02044612 -0.05803102 0.9971739 -0.04771542 -0.09441852 0.9949861 0.03298336 -0.09393763 0.9950485 0.03246939 -0.06615662 0.9978052 0.002833306 -0.067272 0.9916621 0.1099132 -0.07444363 0.9904299 0.1162188 -0.01431697 0.9978978 0.06320846 -0.03604769 0.9987937 -0.03334426 -0.03534275 0.9988427 -0.03262239 -0.05861949 0.9966825 -0.05646085 -0.06068354 0.9981387 -0.006048202 -0.06068325 0.9981389 -0.00604844 -0.05525141 0.9984063 -0.0114963 -0.006340682 0.9999611 0.006138563 -0.008613765 0.9999281 0.008339881 -0.004201829 0.9999829 0.004067957 0.05732125 0.9896499 -0.1315578 0.06046462 0.9899006 -0.1282221 0.002535879 0.9819648 -0.1890469 -0.0280956 0.9991958 -0.02861189 -0.02760463 0.9992236 -0.02811193 -0.05585074 0.9968179 -0.05687713 0 1 0 0 1 0 -0.1423497 0.9871611 -0.07245481 -0.1439772 0.9878967 -0.0577135 -0.1263962 0.9708702 -0.203556 -0.09654533 0.9952892 -0.008860766 -0.0905146 0.9956829 -0.02056181 -0.1134078 0.9932578 0.02403849 -0.2663327 0.9633558 -0.03182137 -0.3032126 0.9502413 -0.07144081 -0.2207972 0.9751877 0.01604861 -0.2250199 0.9695086 0.09705299 -0.2276968 0.9684986 0.1008199 -0.145949 0.9892182 -0.01210349 -0.1284832 0.9915224 -0.01937758 -0.128418 0.9915316 -0.01934134 -0.1317871 0.9910511 -0.02121204 -0.02744281 0.9995363 0.01320028 -0.02992606 0.9993346 0.02085298 -0.07163256 0.9860746 0.1500853 0.2256091 0.955936 0.1878483 0.2301367 0.9616786 0.1490343 0.2393925 0.9692742 0.05656027 0.01519936 0.9897438 0.1420426 0.01090168 0.9886365 0.1499307 -0.01452893 0.9804319 0.1963221 0.004567205 0.982191 0.1878303 -0.003703057 0.9813886 0.1919971 0.01945883 0.9834218 0.1802862 0.006085693 0.9997218 0.02278846 -0.02873253 0.9990305 0.03335261 0.02227944 0.9995922 0.01786404 0 1 0 -0.066877 0.9676476 -0.2432811 -0.07091069 0.967078 -0.2444012 0.01192569 0.9752919 -0.2205984 -0.1293399 -0.9734559 -0.188825 -0.01361393 -0.9981127 -0.0598815 0.005089759 -0.9992296 -0.03891342 0.03863245 -0.9961457 -0.078749 0.0695334 -0.9957026 -0.06116831 0.03406053 -0.9961044 -0.08133935 -0.1183825 -0.9506245 -0.2868776 -0.1217339 -0.9505921 -0.2855798 -0.1220354 -0.9505884 -0.2854628 0.2086644 -0.8795416 -0.4276281 0.2163766 -0.9079083 -0.3590039 0.2170774 -0.910452 -0.3520722 0.2158449 -0.9739585 -0.06939721 0.3314322 -0.9064307 -0.2617943 0.1926709 -0.9807215 -0.03260916 0.4616046 -0.8559802 0.23285 0.1381219 -0.9896525 0.03886622 0.1299088 -0.9909418 0.03402942 -0.6816534 -0.5108137 -0.5238493 -0.6818204 -0.5097319 -0.5246851 -0.6816285 -0.5109745 -0.5237249 0.5927559 -0.731067 0.3379078 0.5927562 -0.7310667 0.3379076 0.5927568 -0.7310664 0.3379074 0.4744991 -0.704732 0.52745 0.3915084 -0.796912 0.4600572 0.383823 -0.8042723 0.4536806 0.1716049 -0.8603855 0.4798838 0.1716051 -0.8603856 0.4798836 0.1716049 -0.8603855 0.4798839 -0.321282 -0.9077768 0.269665 -0.3538407 -0.8859496 0.2998171 -0.3626287 -0.8795775 0.3079675 0.6208602 -0.7134446 0.3248531 0.6582617 -0.6624878 0.3574936 0.6177719 -0.7173159 0.3222047 -0.04020661 -0.8812999 0.4708438 -0.04020714 -0.8812997 0.4708444 -0.04020649 -0.8813 0.4708437 -0.3720654 -0.9276313 0.0326752 -0.4416883 -0.8955559 0.05377137 -0.4528629 -0.889743 0.05720579 -0.2459867 -0.8838915 0.397777 -0.2401165 -0.8881968 0.3917275 -0.2479582 -0.8824241 0.3998057 -0.1930334 -0.8927414 -0.4071252 -0.2233156 -0.848043 -0.4805758 -0.1894146 -0.8974493 -0.3983805 -0.3751879 -0.9258796 -0.04450869 -0.3842961 -0.9221544 -0.04413449 -0.3855665 -0.9216265 -0.0440818 0.6077152 -0.7225691 0.3295093 0.6077144 -0.7225695 0.3295097 0.6077133 -0.7225701 0.3295103 -0.3810622 -0.923999 0.031901 -0.3750036 -0.9264748 0.03188776 -0.3827553 -0.9232987 0.03190445 -0.0649743 -0.9588685 0.2763143 -0.3515865 -0.8750964 0.3325558 -0.01913452 -0.9640313 0.2650995 0.879078 -0.005456805 0.4766469 0.879078 -0.005456805 0.4766467 0.8790784 -0.005456805 0.476646 -0.9820803 -0.01456022 -0.1878997 -0.9824771 -0.005075514 -0.1863143 -0.9825341 -0.003504514 -0.1860501 -0.6242701 -0.2195298 -0.749729 -0.6275528 -0.06044626 -0.7762241 -0.6225079 -0.2414302 -0.744443 -0.3948208 -0.001929104 0.9187561 -0.3948206 -0.001928508 0.9187563 -0.3948208 -0.001929283 0.9187562 -0.9997336 -0.009326636 0.02111268 -0.9997312 -0.009718894 0.02104961 -0.9997308 -0.009787738 0.02103853 -0.08508294 -0.00350213 0.9963678 -0.08508342 -0.00350219 0.9963677 -0.08508354 -0.00350219 0.9963677 0.8884078 0.003421247 0.4590424 0.881072 0.06642353 0.4682949 0.8891456 -0.005424559 0.4575925 -0.9143785 -0.0106135 0.4047212 -0.9140268 3.55741e-5 0.405654 -0.913943 0.002187609 0.4058369 0.3367116 -0.005024552 0.9415945 0.3367115 -0.005024492 0.9415944 0.3367115 -0.005024492 0.9415944 0.6246819 0.01451963 0.7807444 0.6320479 -0.04410207 0.7736735 0.6236588 0.02148771 0.7814013 0.8687414 -0.00548619 0.4952356 0.8687415 -0.00548619 0.4952356 0.8687419 -0.00548619 0.4952348 -0.7103296 -0.04442733 -0.7024657 -0.7378828 -0.167866 -0.6537202 -0.7017439 -0.0145716 -0.7122803 0.8509503 -0.07328665 0.5201082 0.8537978 -0.01685279 0.520332 0.853852 -0.0147159 0.5203078 0.4361066 -0.3442425 -0.8314494 0.4458371 -0.2879541 -0.8475327 0.4345194 -0.3525566 -0.8287924 0.1417647 -0.364704 -0.9202683 0.1128059 -0.02114588 -0.993392 0.1428132 -0.3817207 -0.9131779 0.9610568 -0.1380187 -0.2394171 0.9549297 -0.1711943 -0.2424912 0.9542586 -0.1744916 -0.2427824 -0.9396502 -0.08686828 -0.3309252 -0.9386971 -0.09888362 -0.3302574 -0.9397217 -0.08588987 -0.3309774 -0.5013324 -0.03467392 -0.8645598 -0.4987528 -0.05008649 -0.865296 -0.4984713 -0.0517252 -0.8653618 -0.8356235 -0.0823329 0.5430974 -0.8356406 -0.08213943 0.5431005 -0.8356428 -0.0821135 0.543101 -0.9232532 -0.07005357 0.3777512 -0.9279914 -0.03139793 0.3712764 -0.92153 -0.08176851 0.3796006 0.003896713 -0.999975 0.005904555 -0.001325368 -0.9999668 0.008053123 -0.005216658 -0.9999591 0.007388949 0 -1 0 0 -1 4.1487e-7 0 -1 4.25664e-7 0.0430631 -0.9985144 0.03338688 0.04431486 -0.9984575 0.03344976 0.0446605 -0.9984415 0.03346717 0.002616345 -0.9999956 0.001451611 0.03680986 -0.9991136 0.02042281 0.03863811 -0.9990233 0.02143716 -0.01863116 -0.9998072 0.006204962 -0.01745408 -0.9998474 -8.10942e-4 -0.01641565 -0.9998643 -0.001420021 -0.979192 -0.02767366 -0.2010408 -0.9805516 -0.01479923 -0.1957034 -0.981184 -0.008085966 -0.1929055 0.8790836 -0.004290759 0.4766482 0.8790838 -0.004290819 0.476648 0.8790838 -0.004290878 0.476648 -0.9389588 -0.03214925 0.3425243 -0.9382835 -0.03480225 0.3441119 -0.940047 -0.02779322 0.3399106 -0.8704377 -0.05789476 0.4888625 -0.8674038 -0.03929179 0.4960515 -0.8654751 -0.02845555 0.5001432 -0.4971193 -0.119182 -0.859458 -0.4704459 -0.2087324 -0.8573864 -0.4633755 -0.2301241 -0.8557605 -0.9358643 -0.1672742 -0.3101248 -0.9389697 -0.1332671 -0.317137 -0.9351246 -0.1738957 -0.3087106 0.8634693 -0.3884185 -0.3217951 0.8634784 -0.3887663 -0.3213501 0.8635122 -0.4099006 -0.2938166 0.2967817 -0.5611487 -0.772679 0.185106 -0.1415637 -0.9724687 0.1376522 0.00829482 -0.9904459 0.4206016 -0.5839433 -0.6943376 0.4358386 -0.5652732 -0.7003648 0.3987854 -0.6095309 -0.6851586 0.7790669 -0.3282564 0.5341373 0.8293038 -0.1418572 0.5404924 0.8325586 -0.1233357 0.540032 -0.7943793 -0.06749528 -0.6036605 -0.829508 -0.1620461 -0.5344695 -0.7497867 0.02365499 -0.6612568 0.8687463 -0.004313945 0.4952387 0.8687462 -0.004313886 0.495239 0.8687462 -0.004313826 0.495239 0.7033083 -0.1291406 0.6990566 0.6532785 -0.2417984 0.7174683 0.6300683 -0.2864747 0.7217661 0.3367131 -0.003951132 0.941599 0.3367134 -0.003951132 0.941599 0.3367137 -0.003951132 0.9415988 -0.9192906 -0.01109945 0.393423 -0.9182637 -0.005351126 0.3959335 -0.9173236 -2.62451e-4 0.3981424 0.887323 -0.02105581 0.4606676 0.8784453 -0.06445211 0.4734764 0.8746069 -0.08080476 0.4780517 -0.08508372 -0.002753734 0.9963701 -0.08508372 -0.002753913 0.9963701 -0.08508372 -0.002754092 0.99637 -0.9997362 -0.01507586 0.01733118 -0.9997462 -0.01350194 0.01804059 -0.9997506 -0.01257568 0.01845806 -0.3940507 -0.003112435 0.9190834 -0.3944268 -0.002302885 0.9189246 -0.3936827 -0.003903925 0.9192382 -0.4210023 -0.348833 -0.8373008 -0.3707338 -0.2565183 -0.8926113 -0.4621039 -0.4296189 -0.7758142 -0.3532732 0.6924308 -0.6290768 -0.3727202 0.671566 -0.640374 -0.3440579 0.7019716 -0.6235865 0.4469172 0.5906293 -0.6718794 0.2728696 0.780853 -0.5619705 0.2172354 0.8254575 -0.5209882 -0.7287382 0.6458745 -0.227567 -0.6600406 0.7343815 -0.1582094 -0.6353035 0.7603486 -0.1351275 -0.7297123 0.627782 0.2709425 -0.7286292 0.6288231 0.2714425 -0.7277903 0.6296273 0.2718287 -0.7457351 0.6478518 -0.155458 -0.7456861 0.6479044 -0.155474 -0.7457526 0.6478331 -0.1554524 -0.2558132 0.7271578 0.6370254 -0.2179908 0.7580813 0.6146485 -0.1888247 0.7801197 0.5964551 -0.2041153 0.7021291 -0.6821669 -0.2033276 0.6989662 -0.6856415 -0.2030836 0.6979872 -0.6867102 -0.7267425 0.6868288 0.010567 -0.7288351 0.6845863 0.011877 -0.7259755 0.6876467 0.01008802 -0.05486685 0.7643052 0.6425162 -0.05486667 0.7643055 0.6425161 -0.05486655 0.7643055 0.642516 0.7347757 0.5489802 0.3984035 0.7347753 0.5489804 0.3984041 0.734776 0.5489801 0.3984032 0.7508659 0.5383177 0.3826417 0.7527354 0.5340775 0.3849034 0.7530558 0.5333452 0.3852923 -0.7132736 0.5785122 0.3956822 -0.7119349 0.5799796 0.395945 -0.7114229 0.5805394 0.3960449 -0.6527594 0.7209293 0.2327362 -0.6708666 0.6915431 0.2677804 -0.6391853 0.7404066 0.2079427 0.2300326 0.730264 0.6432726 0.2300326 0.7302641 0.6432724 0.2300327 0.7302642 0.6432723 0.6348006 0.5068399 0.5832167 0.7542839 0.2602276 0.6027748 0.6052761 0.5514354 0.5740731 0.4007743 0.2106481 -0.8916319 0.4013916 0.5181006 -0.7552858 0.396397 0.1583231 -0.9043248 0.7524406 0.5784811 -0.3149491 0.7588347 0.5506893 -0.3477231 0.7394399 0.6201716 -0.2619465 0.7205618 0.5586266 0.4107642 0.7205622 0.5586263 0.4107639 0.7205615 0.5586268 0.4107643 -0.8756117 0.214923 -0.4325651 -0.8725942 -0.01390981 -0.4882477 -0.8674762 -0.05144119 -0.494812 0.7930986 0.2103644 0.5716132 0.788389 0.2293074 0.5708422 0.7934348 0.2089604 0.5716615 -6.21102e-5 -1 -6.09949e-5 -0.001333594 -0.9999991 -3.44866e-4 0 -1 0 -0.001038074 -0.9999901 -0.004353165 -0.01484078 -0.9998464 0.009331822 -0.005109131 -0.9999858 0.001553952 0 -1 0 0 -1 0 0 -1 0 -0.0126661 -0.9998422 0.01246362 -0.009474873 -0.9998423 0.01502889 0.001336038 -0.999848 0.01738905 0.003793418 -0.9998548 0.01661944 0.003614723 -0.9998353 0.01779294 -0.01386272 -0.9999039 3.5769e-4 -0.01849663 -0.9998053 0.006874203 -0.01508933 -0.9998766 0.0043931 -0.002441108 -0.9999749 -0.006660103 0.005188345 -0.9999302 -0.01062208 5.15139e-4 -0.9999834 -0.005736768 0.007169783 -0.9999678 -0.003622889 0.01184993 -0.9999067 0.00679028 0.007091045 -0.9998945 -0.01268208 0.006646573 -0.9999018 -0.01234328 -6.53145e-5 -1 -2.92649e-4 -0.01935333 -0.9998126 -5.40643e-4 -8.1622e-4 -0.999913 -0.01316308 -0.007778704 -0.9999697 -4.87217e-4 6.65728e-5 -0.9999859 -0.005327105 -0.002321541 -0.9999831 -0.005337536 0.01633495 -0.9996902 0.0187835 0.05226975 -0.9986109 0.00666356 0.06538981 -0.9978573 0.00222975 0.1363423 -0.9888387 0.06007349 0.08962053 -0.9948251 0.04786723 0.08703225 -0.9950873 0.04718929 -0.1364649 0.9860753 -0.09504115 -0.2232963 0.9703543 -0.0924744 0.0438438 0.9971629 0.06118804 0.6460236 0.6328985 0.4267237 -0.1105149 0.9938613 0.005125343 -0.1192106 0.9910829 0.05952823 -0.1191965 0.9806246 0.15546 -0.01473152 0.9998252 -0.01151704 -0.0661444 0.99781 -5.67216e-4 -0.01651751 0.9997358 0.01599234 0.1153618 0.9909028 -0.06930738 0 1 0 -0.1540539 0.9871987 0.0413087 -0.07449197 0.9958918 -0.05148535 -0.3674181 0.9190875 -0.1424161 -0.2845849 0.9411994 0.1820853 -0.1254259 0.9919455 -0.01768064 0.002829432 0.9968132 -0.07972204 0.2120986 0.9338506 0.2879884 0.04196333 0.9948183 0.09260523 -0.01420426 0.9802475 0.197264 -0.0392729 0.9985601 0.0365442 0 1 -1.57064e-7 -0.1078601 0.961046 -0.2544739 -0.1504694 -0.9655689 -0.2122165 0.07449555 -0.9955137 -0.05833327 -0.1180733 -0.9506269 -0.2869971 0.2076436 -0.8757442 -0.4358399 0.3458142 -0.8933432 -0.286968 0.4655017 -0.8532131 0.2352355 -0.6818428 -0.5095862 -0.5247976 0.5927553 -0.7310673 0.337908 0.4843718 -0.6920088 0.5352643 0.1716052 -0.8603857 0.4798834 -0.3109298 -0.9141525 0.2600919 0.6616709 -0.6574284 0.3605266 -0.04020732 -0.8812996 0.4708445 -0.3586856 -0.9330179 0.0286777 -0.2378509 -0.8898332 0.3893893 -0.2277538 -0.8406361 -0.4913851 -0.3736672 -0.9264914 -0.04457062 0.6077163 -0.7225684 0.3295086 -0.3730355 -0.9272691 0.03188318 -0.3989553 -0.8518766 0.3393242 0.8790776 -0.005456805 0.4766476 -0.9820037 -0.01617556 -0.188168 -0.6265031 -0.03355467 -0.7786965 -0.3948206 -0.001928329 0.9187562 -0.999734 -0.009257435 0.02112376 -0.08508282 -0.00350213 0.9963678 0.8799281 0.07409888 0.4692929 -0.9144408 -0.01291203 0.4045138 0.3367116 -0.005024552 0.9415945 0.6329148 -0.05243772 0.7724437 0.868741 -0.00548619 0.4952364 -0.7418208 -0.1925399 -0.642363 0.8507667 -0.07571202 0.5200613 0.4472396 -0.2789112 -0.8498149 0.1098578 0.006707012 -0.9939247 0.961741 -0.1338863 -0.2390161 -0.9386119 -0.0998786 -0.3301999 -0.5015766 -0.03317523 -0.8644769 -0.8356209 -0.08236253 0.543097 -0.9291134 -0.01997977 0.3692548 0.01125568 -0.9999251 0.00482428 0.04287171 -0.9985229 0.03337723 -0.9783512 -0.03484386 -0.2039972 0.8790836 -0.004290699 0.4766483 -0.9370419 -0.03958535 0.346966 -0.8724762 -0.07179951 0.4833531 -0.5027681 -0.09794682 -0.8588544 -0.9394627 -0.1263152 -0.3185191 0.861603 -0.357523 -0.3603022 0.3081513 -0.6152082 -0.7256457 0.4628567 -0.5304294 -0.7102171 0.7710035 -0.3500212 0.5320139 -0.8472556 -0.229237 -0.4791746 0.8687463 -0.004313945 0.4952386 0.7245172 -0.07121819 0.6855674 0.3367128 -0.003951132 0.9415991 -0.92022 -0.0164898 0.3910542 0.8902502 -0.004262447 0.4554519 -0.08508372 -0.002753555 0.99637 -0.9997288 -0.01602065 0.0169053 -0.3947917 -0.001516819 0.9187694 -0.3064003 -0.1457884 -0.9406725 -0.3801072 0.6633719 -0.644559 0.4894577 0.5289716 -0.6932677 -0.7433416 0.6229698 -0.2436223 -0.7304763 0.6270455 0.2705889 -0.745671 0.6479207 -0.155479 -0.2792936 0.7065696 0.6501958 -0.2043408 0.7030349 -0.6811658 -0.7295079 0.6838619 0.01229923 -0.0548669 0.7643052 0.6425163 0.734775 0.5489806 0.3984044 0.7506014 0.5389127 0.3823229 -0.7137416 0.577998 0.3955899 -0.6808602 0.6732837 0.288303 0.2300326 0.730264 0.6432726 0.7721231 0.2060896 0.6011266 0.3991352 0.5438429 -0.738191 0.7658941 0.5057293 -0.3970444 0.7205623 0.5586262 0.4107637 -0.8725383 0.2430174 -0.4238156 0.7882075 0.2300128 0.5708093 0.001194596 -0.9998008 0.01992201 -0.01259863 -0.9999122 -0.004128992 0.003911554 -0.9999789 -0.005199849 -0.007212519 -0.999967 0.003738939 0.006251633 -0.9997346 0.02217805 0.1372515 -0.9886985 0.06031048</float_array>
          <technique_common>
            <accessor source="#Plane_002-mesh-normals-array" count="475" stride="3">
              <param name="X" type="float"/>
              <param name="Y" type="float"/>
              <param name="Z" type="float"/>
            </accessor>
          </technique_common>
        </source>
        <source id="Plane_002-mesh-map-0">
          <float_array id="Plane_002-mesh-map-0-array" count="1560">0.50375 0.5468137 0.505 0.5480637 0.50375 0.5480638 0.505 0.5380637 0.50375 0.5405637 0.50375 0.5380638 0.505 0.5405637 0.50375 0.5430637 0.50375 0.5405637 0.505 0.5430637 0.5037499 0.5455636 0.50375 0.5430637 0.4975 0.5430637 0.495 0.5455637 0.495 0.5430637 0.5 0.5430637 0.4975 0.5455637 0.4975 0.5430637 0.5025 0.5430637 0.5 0.5455637 0.5 0.5430637 0.495 0.5405637 0.4975 0.5430637 0.495 0.5430637 0.5 0.5405637 0.4975 0.5430637 0.4975 0.5405637 0.5025 0.5405637 0.5 0.5430637 0.5 0.5405637 0.495 0.5380637 0.4975 0.5405637 0.495 0.5405637 0.4975 0.5380637 0.5 0.5405637 0.4975 0.5405637 0.5025 0.5380637 0.5 0.5405637 0.5 0.5380637 0.4975 0.5468137 0.495 0.5480637 0.495 0.5468137 0.5 0.5468137 0.4975 0.5480637 0.4975 0.5468137 0.5 0.5468137 0.5025 0.5480637 0.5 0.5480637 0.5025 0.5455637 0.5 0.5468137 0.5 0.5455637 0.4975 0.5455637 0.5 0.5468137 0.4975 0.5468137 0.4975 0.5455637 0.495 0.5468137 0.495 0.5455637 0.505 0.5455637 0.50375 0.5468137 0.5037499 0.5455636 0.5037499 0.5455636 0.5025001 0.5468137 0.5025 0.5455637 0.50375 0.5430637 0.5025 0.5455637 0.5025 0.5430637 0.50375 0.5405637 0.5025 0.5430637 0.5025 0.5405637 0.50375 0.5380638 0.5025 0.5405637 0.5025 0.5380637 0.5025001 0.5468137 0.50375 0.5480638 0.5025 0.5480637 0.5 0.5480637 0.4975 0.5480637 0.4975 0.5480637 0.4975 0.5480637 0.495 0.5480637 0.4975 0.5480637 0.505 0.5455637 0.505 0.5468137 0.505 0.5468137 0.5025 0.5480637 0.5 0.5480637 0.5 0.5480637 0.505 0.5468137 0.505 0.5480637 0.505 0.5468137 0.505 0.5430637 0.505 0.5455637 0.505 0.5455637 0.50375 0.5480638 0.5025 0.5480637 0.50375 0.5480638 0.50375 0.5380638 0.505 0.5380637 0.50375 0.5380638 0.505 0.5405637 0.505 0.5430637 0.505 0.5430637 0.5 0.5380637 0.5025 0.5380637 0.5 0.5380637 0.495 0.5405637 0.495 0.5380637 0.495 0.5380637 0.505 0.5380637 0.505 0.5405637 0.505 0.5380637 0.4975 0.5380637 0.5 0.5380637 0.4975 0.5380637 0.495 0.5430637 0.495 0.5405637 0.495 0.5405637 0.495 0.5380637 0.4975 0.5380637 0.495 0.5380637 0.505 0.5480637 0.50375 0.5480638 0.505 0.5480637 0.495 0.5455637 0.495 0.5430637 0.495 0.5430637 0.5025 0.5380637 0.50375 0.5380638 0.5025 0.5380637 0.495 0.5468137 0.495 0.5455637 0.495 0.5468137 0.495 0.5480637 0.495 0.5468137 0.495 0.5480637 0.5025 0.5380637 0.50375 0.5380638 0.5025 0.5380637 0.495 0.5455637 0.495 0.5430637 0.495 0.5430637 0.505 0.5480637 0.50375 0.5480638 0.505 0.5480637 0.495 0.5380637 0.4975 0.5380637 0.495 0.5380637 0.495 0.5430637 0.495 0.5405637 0.495 0.5405637 0.4975 0.5380637 0.5 0.5380637 0.5 0.5380637 0.505 0.5380637 0.505 0.5405637 0.505 0.5380637 0.495 0.5405637 0.495 0.5380637 0.495 0.5380637 0.5 0.5380637 0.5025 0.5380637 0.5025 0.5380637 0.505 0.5405637 0.505 0.5430637 0.505 0.5405637 0.50375 0.5380638 0.505 0.5380637 0.50375 0.5380638 0.50375 0.5480638 0.5025 0.5480637 0.50375 0.5480638 0.505 0.5430637 0.505 0.5455637 0.505 0.5455637 0.505 0.5468137 0.505 0.5480637 0.505 0.5468137 0.5025 0.5480637 0.5 0.5480637 0.5025 0.5480637 0.505 0.5455637 0.505 0.5468137 0.505 0.5468137 0.4975 0.5480637 0.495 0.5480637 0.4975 0.5480637 0.5 0.5480637 0.4975 0.5480637 0.4975 0.5480637 0.495 0.5480637 0.495 0.5468137 0.495 0.5468137 0.495 0.5468137 0.495 0.5455637 0.495 0.5468137 0.582495 0.8298037 0.5837451 0.8310537 0.5837451 0.8298037 0.582495 0.8235537 0.5837451 0.8210538 0.5824951 0.8210538 0.582495 0.8260537 0.5837451 0.8235537 0.582495 0.8235537 0.582495 0.8285537 0.5837451 0.8260537 0.582495 0.8260537 0.5737451 0.8285537 0.5762451 0.8260537 0.5737451 0.8260537 0.5737451 0.8285537 0.5737451 0.8260537 0.5737451 0.8260537 0.5812451 0.8210538 0.5824951 0.8210538 0.5812451 0.8210538 0.5737451 0.8298037 0.5737451 0.8285537 0.5737451 0.8298037 0.5737451 0.8310537 0.5737451 0.8298037 0.5737451 0.8298037 0.5787451 0.8310537 0.5762451 0.8310537 0.5762451 0.8310537 0.5762451 0.8310537 0.5737451 0.8310537 0.5762451 0.8310537 0.5837451 0.8285537 0.5837451 0.8298037 0.5837451 0.8298037 0.5812451 0.8310537 0.5787451 0.8310537 0.5787451 0.8310537 0.5837451 0.8298037 0.5837451 0.8310537 0.5837451 0.8298037 0.5837451 0.8260537 0.5837451 0.8285537 0.5837451 0.8285537 0.582495 0.8310537 0.5812451 0.8310537 0.582495 0.8310537 0.5824951 0.8210538 0.5837451 0.8210538 0.5824951 0.8210538 0.5837451 0.8235537 0.5837451 0.8260537 0.5837451 0.8260537 0.5787451 0.8210538 0.5812451 0.8210538 0.5812451 0.8210538 0.5737451 0.8235537 0.5737451 0.8210538 0.5737451 0.8210538 0.5837451 0.8210538 0.5837451 0.8235537 0.5837451 0.8235537 0.5762451 0.8210538 0.5787451 0.8210538 0.5787451 0.8210538 0.5737451 0.8260537 0.5737451 0.8235537 0.5737451 0.8235537 0.5737451 0.8210538 0.5762451 0.8210538 0.5737451 0.8210538 0.5837451 0.8310537 0.582495 0.8310537 0.5837451 0.8310537 0.5787451 0.8310537 0.5762451 0.8310537 0.5787451 0.8310537 0.5837451 0.8298037 0.5837451 0.8310537 0.5837451 0.8310537 0.5762451 0.8310537 0.5737451 0.8310537 0.5737451 0.8310537 0.5737451 0.8298037 0.5737451 0.8285537 0.5737451 0.8285537 0.5737451 0.8285537 0.5737451 0.8260537 0.5737451 0.8285537 0.5737451 0.8210538 0.5762451 0.8210538 0.5762451 0.8210538 0.5837451 0.8310537 0.582495 0.8310537 0.582495 0.8310537 0.5737451 0.8260537 0.5737451 0.8235537 0.5737451 0.8260537 0.5762451 0.8210538 0.5787451 0.8210538 0.5787451 0.8210538 0.5812451 0.8210538 0.5824951 0.8210538 0.5824951 0.8210538 0.5837451 0.8210538 0.5837451 0.8235537 0.5837451 0.8235537 0.5737451 0.8310537 0.5737451 0.8298037 0.5737451 0.8298037 0.5737451 0.8235537 0.5737451 0.8210538 0.5737451 0.8235537 0.5787451 0.8210538 0.5812451 0.8210538 0.5812451 0.8210538 0.5837451 0.8235537 0.5837451 0.8260537 0.5837451 0.8235537 0.5812451 0.8310537 0.5787451 0.8310537 0.5812451 0.8310537 0.5837451 0.8285537 0.5837451 0.8298037 0.5837451 0.8285537 0.5824951 0.8210538 0.5837451 0.8210538 0.5837451 0.8210538 0.582495 0.8310537 0.5812451 0.8310537 0.5812451 0.8310537 0.5837451 0.8260537 0.5837451 0.8285537 0.5837451 0.8260537 0.5762451 0.8260537 0.5787451 0.8285537 0.5787451 0.8260537 0.5787451 0.8285537 0.5812451 0.8260537 0.5787451 0.8260537 0.5737451 0.8235537 0.5762451 0.8260537 0.5762451 0.8235537 0.5762451 0.8260537 0.5787451 0.8235537 0.5762451 0.8235537 0.5787451 0.8260537 0.5812451 0.8235537 0.5787451 0.8235537 0.5737451 0.8210538 0.5762451 0.8235537 0.5762451 0.8210538 0.5762451 0.8210538 0.5787451 0.8235537 0.5787451 0.8210538 0.5787451 0.8235537 0.5812451 0.8210538 0.5787451 0.8210538 0.5737451 0.8310537 0.5762451 0.8298037 0.5737451 0.8298037 0.5762451 0.8310537 0.578745 0.8298037 0.5762451 0.8298037 0.578745 0.8298037 0.5812451 0.8310537 0.5812451 0.8298037 0.5787451 0.8285537 0.5812451 0.8298037 0.5812451 0.8285537 0.5762451 0.8285537 0.578745 0.8298037 0.5787451 0.8285537 0.5737451 0.8298037 0.5762451 0.8285537 0.5737451 0.8285537 0.582495 0.8298037 0.5837451 0.8285537 0.582495 0.8285537 0.5812451 0.8298037 0.582495 0.8285537 0.5812451 0.8285537 0.5812451 0.8285537 0.582495 0.8260537 0.5812451 0.8260537 0.5812451 0.8260537 0.582495 0.8235537 0.5812451 0.8235537 0.5812451 0.8235537 0.5824951 0.8210538 0.5812451 0.8210538 0.5812451 0.8310537 0.582495 0.8298037 0.5812451 0.8298037 0.50375 0.5468137 0.505 0.5468137 0.505 0.5480637 0.505 0.5380637 0.505 0.5405637 0.50375 0.5405637 0.505 0.5405637 0.505 0.5430637 0.50375 0.5430637 0.505 0.5430637 0.505 0.5455637 0.5037499 0.5455636 0.4975 0.5430637 0.4975 0.5455637 0.495 0.5455637 0.5 0.5430637 0.5 0.5455637 0.4975 0.5455637 0.5025 0.5430637 0.5025 0.5455637 0.5 0.5455637 0.495 0.5405637 0.4975 0.5405637 0.4975 0.5430637 0.5 0.5405637 0.5 0.5430637 0.4975 0.5430637 0.5025 0.5405637 0.5025 0.5430637 0.5 0.5430637 0.495 0.5380637 0.4975 0.5380637 0.4975 0.5405637 0.4975 0.5380637 0.5 0.5380637 0.5 0.5405637 0.5025 0.5380637 0.5025 0.5405637 0.5 0.5405637 0.4975 0.5468137 0.4975 0.5480637 0.495 0.5480637 0.5 0.5468137 0.5 0.5480637 0.4975 0.5480637 0.5 0.5468137 0.5025001 0.5468137 0.5025 0.5480637 0.5025 0.5455637 0.5025001 0.5468137 0.5 0.5468137 0.4975 0.5455637 0.5 0.5455637 0.5 0.5468137 0.4975 0.5455637 0.4975 0.5468137 0.495 0.5468137 0.505 0.5455637 0.505 0.5468137 0.50375 0.5468137 0.5037499 0.5455636 0.50375 0.5468137 0.5025001 0.5468137 0.50375 0.5430637 0.5037499 0.5455636 0.5025 0.5455637 0.50375 0.5405637 0.50375 0.5430637 0.5025 0.5430637 0.50375 0.5380638 0.50375 0.5405637 0.5025 0.5405637 0.5025001 0.5468137 0.50375 0.5468137 0.50375 0.5480638 0.5 0.5480637 0.5 0.5480637 0.4975 0.5480637 0.4975 0.5480637 0.495 0.5480637 0.495 0.5480637 0.505 0.5455637 0.505 0.5455637 0.505 0.5468137 0.5025 0.5480637 0.5025 0.5480637 0.5 0.5480637 0.505 0.5468137 0.505 0.5480637 0.505 0.5480637 0.505 0.5430637 0.505 0.5430637 0.505 0.5455637 0.50375 0.5480638 0.5025 0.5480637 0.5025 0.5480637 0.50375 0.5380638 0.505 0.5380637 0.505 0.5380637 0.505 0.5405637 0.505 0.5405637 0.505 0.5430637 0.5 0.5380637 0.5025 0.5380637 0.5025 0.5380637 0.495 0.5405637 0.495 0.5405637 0.495 0.5380637 0.505 0.5380637 0.505 0.5405637 0.505 0.5405637 0.4975 0.5380637 0.5 0.5380637 0.5 0.5380637 0.495 0.5430637 0.495 0.5430637 0.495 0.5405637 0.495 0.5380637 0.4975 0.5380637 0.4975 0.5380637 0.505 0.5480637 0.50375 0.5480638 0.50375 0.5480638 0.495 0.5455637 0.495 0.5455637 0.495 0.5430637 0.5025 0.5380637 0.50375 0.5380638 0.50375 0.5380638 0.495 0.5468137 0.495 0.5455637 0.495 0.5455637 0.495 0.5480637 0.495 0.5468137 0.495 0.5468137 0.5025 0.5380637 0.50375 0.5380638 0.50375 0.5380638 0.495 0.5455637 0.495 0.5455637 0.495 0.5430637 0.505 0.5480637 0.50375 0.5480638 0.50375 0.5480638 0.495 0.5380637 0.4975 0.5380637 0.4975 0.5380637 0.495 0.5430637 0.495 0.5430637 0.495 0.5405637 0.4975 0.5380637 0.4975 0.5380637 0.5 0.5380637 0.505 0.5380637 0.505 0.5405637 0.505 0.5405637 0.495 0.5405637 0.495 0.5405637 0.495 0.5380637 0.5 0.5380637 0.5 0.5380637 0.5025 0.5380637 0.505 0.5405637 0.505 0.5430637 0.505 0.5430637 0.50375 0.5380638 0.505 0.5380637 0.505 0.5380637 0.50375 0.5480638 0.5025 0.5480637 0.5025 0.5480637 0.505 0.5430637 0.505 0.5430637 0.505 0.5455637 0.505 0.5468137 0.505 0.5480637 0.505 0.5480637 0.5025 0.5480637 0.5 0.5480637 0.5 0.5480637 0.505 0.5455637 0.505 0.5455637 0.505 0.5468137 0.4975 0.5480637 0.495 0.5480637 0.495 0.5480637 0.5 0.5480637 0.5 0.5480637 0.4975 0.5480637 0.495 0.5480637 0.495 0.5480637 0.495 0.5468137 0.495 0.5468137 0.495 0.5455637 0.495 0.5455637 0.582495 0.8298037 0.582495 0.8310537 0.5837451 0.8310537 0.582495 0.8235537 0.5837451 0.8235537 0.5837451 0.8210538 0.582495 0.8260537 0.5837451 0.8260537 0.5837451 0.8235537 0.582495 0.8285537 0.5837451 0.8285537 0.5837451 0.8260537 0.5737451 0.8285537 0.5762451 0.8285537 0.5762451 0.8260537 0.5737451 0.8285537 0.5737451 0.8285537 0.5737451 0.8260537 0.5812451 0.8210538 0.5824951 0.8210538 0.5824951 0.8210538 0.5737451 0.8298037 0.5737451 0.8285537 0.5737451 0.8285537 0.5737451 0.8310537 0.5737451 0.8310537 0.5737451 0.8298037 0.5787451 0.8310537 0.5787451 0.8310537 0.5762451 0.8310537 0.5762451 0.8310537 0.5737451 0.8310537 0.5737451 0.8310537 0.5837451 0.8285537 0.5837451 0.8285537 0.5837451 0.8298037 0.5812451 0.8310537 0.5812451 0.8310537 0.5787451 0.8310537 0.5837451 0.8298037 0.5837451 0.8310537 0.5837451 0.8310537 0.5837451 0.8260537 0.5837451 0.8260537 0.5837451 0.8285537 0.582495 0.8310537 0.5812451 0.8310537 0.5812451 0.8310537 0.5824951 0.8210538 0.5837451 0.8210538 0.5837451 0.8210538 0.5837451 0.8235537 0.5837451 0.8235537 0.5837451 0.8260537 0.5787451 0.8210538 0.5787451 0.8210538 0.5812451 0.8210538 0.5737451 0.8235537 0.5737451 0.8235537 0.5737451 0.8210538 0.5837451 0.8210538 0.5837451 0.8210538 0.5837451 0.8235537 0.5762451 0.8210538 0.5762451 0.8210538 0.5787451 0.8210538 0.5737451 0.8260537 0.5737451 0.8260537 0.5737451 0.8235537 0.5737451 0.8210538 0.5762451 0.8210538 0.5762451 0.8210538 0.5837451 0.8310537 0.582495 0.8310537 0.582495 0.8310537 0.5787451 0.8310537 0.5762451 0.8310537 0.5762451 0.8310537 0.5837451 0.8298037 0.5837451 0.8298037 0.5837451 0.8310537 0.5762451 0.8310537 0.5762451 0.8310537 0.5737451 0.8310537 0.5737451 0.8298037 0.5737451 0.8298037 0.5737451 0.8285537 0.5737451 0.8285537 0.5737451 0.8260537 0.5737451 0.8260537 0.5737451 0.8210538 0.5737451 0.8210538 0.5762451 0.8210538 0.5837451 0.8310537 0.5837451 0.8310537 0.582495 0.8310537 0.5737451 0.8260537 0.5737451 0.8235537 0.5737451 0.8235537 0.5762451 0.8210538 0.5762451 0.8210538 0.5787451 0.8210538 0.5812451 0.8210538 0.5812451 0.8210538 0.5824951 0.8210538 0.5837451 0.8210538 0.5837451 0.8210538 0.5837451 0.8235537 0.5737451 0.8310537 0.5737451 0.8310537 0.5737451 0.8298037 0.5737451 0.8235537 0.5737451 0.8210538 0.5737451 0.8210538 0.5787451 0.8210538 0.5787451 0.8210538 0.5812451 0.8210538 0.5837451 0.8235537 0.5837451 0.8260537 0.5837451 0.8260537 0.5812451 0.8310537 0.5787451 0.8310537 0.5787451 0.8310537 0.5837451 0.8285537 0.5837451 0.8298037 0.5837451 0.8298037 0.5824951 0.8210538 0.5824951 0.8210538 0.5837451 0.8210538 0.582495 0.8310537 0.582495 0.8310537 0.5812451 0.8310537 0.5837451 0.8260537 0.5837451 0.8285537 0.5837451 0.8285537 0.5762451 0.8260537 0.5762451 0.8285537 0.5787451 0.8285537 0.5787451 0.8285537 0.5812451 0.8285537 0.5812451 0.8260537 0.5737451 0.8235537 0.5737451 0.8260537 0.5762451 0.8260537 0.5762451 0.8260537 0.5787451 0.8260537 0.5787451 0.8235537 0.5787451 0.8260537 0.5812451 0.8260537 0.5812451 0.8235537 0.5737451 0.8210538 0.5737451 0.8235537 0.5762451 0.8235537 0.5762451 0.8210538 0.5762451 0.8235537 0.5787451 0.8235537 0.5787451 0.8235537 0.5812451 0.8235537 0.5812451 0.8210538 0.5737451 0.8310537 0.5762451 0.8310537 0.5762451 0.8298037 0.5762451 0.8310537 0.5787451 0.8310537 0.578745 0.8298037 0.578745 0.8298037 0.5787451 0.8310537 0.5812451 0.8310537 0.5787451 0.8285537 0.578745 0.8298037 0.5812451 0.8298037 0.5762451 0.8285537 0.5762451 0.8298037 0.578745 0.8298037 0.5737451 0.8298037 0.5762451 0.8298037 0.5762451 0.8285537 0.582495 0.8298037 0.5837451 0.8298037 0.5837451 0.8285537 0.5812451 0.8298037 0.582495 0.8298037 0.582495 0.8285537 0.5812451 0.8285537 0.582495 0.8285537 0.582495 0.8260537 0.5812451 0.8260537 0.582495 0.8260537 0.582495 0.8235537 0.5812451 0.8235537 0.582495 0.8235537 0.5824951 0.8210538 0.5812451 0.8310537 0.582495 0.8310537 0.582495 0.8298037</float_array>
          <technique_common>
            <accessor source="#Plane_002-mesh-map-0-array" count="780" stride="2">
              <param name="S" type="float"/>
              <param name="T" type="float"/>
            </accessor>
          </technique_common>
        </source>
        <vertices id="Plane_002-mesh-vertices">
          <input semantic="POSITION" source="#Plane_002-mesh-positions"/>
        </vertices>
        <triangles material="christmasIslandDual_001-material" count="130">
          <input semantic="VERTEX" source="#Plane_002-mesh-vertices" offset="0"/>
          <input semantic="NORMAL" source="#Plane_002-mesh-normals" offset="1"/>
          <input semantic="TEXCOORD" source="#Plane_002-mesh-map-0" offset="2" set="0"/>
          <p>35 0 0 3 1 1 31 2 2 1 3 3 32 4 4 30 5 5 7 6 6 33 7 7 32 8 8 8 9 9 34 10 10 33 11 11 21 12 12 4 13 13 5 14 14 20 15 15 24 16 16 21 17 17 19 18 18 23 19 19 20 20 20 6 21 21 21 22 22 5 23 23 17 24 24 21 25 25 18 26 26 16 27 27 20 28 28 17 29 29 0 30 30 18 31 31 6 32 32 10 33 33 17 34 34 18 35 35 12 36 36 17 29 37 11 37 38 27 38 39 2 39 40 26 40 41 28 41 42 15 42 43 27 43 44 28 44 45 13 45 46 14 46 47 22 47 48 28 48 49 23 49 50 24 50 51 28 51 52 27 52 53 24 53 54 26 54 55 4 55 56 9 56 57 35 57 58 34 58 59 34 59 60 29 60 61 22 61 62 33 62 63 22 63 64 19 64 65 32 65 66 19 66 67 16 67 68 30 68 69 16 27 70 12 36 71 29 69 72 31 70 73 13 71 74 56 72 75 76 73 76 42 74 77 76 75 78 43 76 79 42 77 80 49 78 81 74 79 82 40 80 83 55 81 84 92 82 85 56 83 86 74 84 87 41 85 88 40 86 89 48 87 90 83 88 91 49 89 92 90 90 93 55 91 94 54 92 95 72 93 96 39 94 97 38 95 98 47 96 99 82 97 100 48 98 101 88 99 102 53 100 103 52 101 104 36 102 105 71 103 106 37 104 107 73 105 108 47 106 109 39 107 110 87 108 111 52 109 112 51 110 113 46 111 114 70 112 115 36 113 116 71 114 117 51 115 118 37 116 119 75 117 120 54 118 121 41 119 122 45 120 123 80 121 124 46 122 125 89 123 126 38 124 127 53 125 128 78 126 129 45 127 130 44 128 131 77 129 132 44 130 133 43 131 134 53 132 135 30 133 136 12 134 137 4 135 138 46 136 139 5 137 140 41 138 141 31 139 142 3 140 143 37 141 144 10 142 145 0 143 146 5 144 147 36 145 148 6 146 149 10 147 150 52 148 151 11 149 152 39 150 153 7 151 154 1 152 155 6 153 156 37 154 157 0 155 158 11 156 159 53 157 160 12 158 161 47 159 162 8 160 163 7 161 164 38 162 165 1 163 166 30 164 167 54 165 168 13 166 169 31 167 170 8 168 171 49 169 172 9 170 173 40 171 174 3 172 175 25 173 176 55 174 177 14 175 178 13 176 179 9 177 180 40 178 181 25 179 182 42 180 183 2 181 184 15 182 185 14 183 186 42 184 187 15 185 188 2 186 189 44 187 190 26 188 191 44 189 192 4 190 193 26 191 194 35 0 390 25 363 391 3 1 392 1 3 393 7 364 394 32 4 395 7 6 396 8 365 397 33 7 398 8 9 399 9 366 400 34 10 401 21 12 402 24 367 403 4 13 404 20 15 405 23 368 406 24 16 407 19 18 408 22 369 409 23 19 410 6 21 411 18 370 412 21 22 413 17 24 414 20 371 415 21 25 416 16 27 417 19 372 418 20 28 419 0 30 420 10 373 421 18 31 422 10 33 423 11 374 424 17 34 425 12 36 426 16 27 427 17 29 428 27 38 429 15 375 430 2 39 431 28 41 432 14 376 433 15 42 434 28 44 435 29 377 436 13 45 437 22 47 438 29 378 439 28 48 440 24 50 441 23 379 442 28 51 443 24 53 444 27 380 445 26 54 446 9 56 447 25 381 448 35 57 449 34 59 450 35 382 451 29 60 452 33 62 453 34 383 454 22 63 455 32 65 456 33 384 457 19 66 458 30 68 459 32 385 460 16 27 461 29 69 462 35 386 463 31 70 464 56 72 465 92 387 466 76 73 467 76 75 468 77 388 469 43 76 470 49 78 471 83 389 472 74 79 473 55 81 474 91 390 475 92 82 476 74 84 477 75 391 478 41 85 479 48 87 480 82 392 481 83 88 482 90 90 483 91 393 484 55 91 485 72 93 486 73 394 487 39 94 488 47 96 489 81 395 490 82 97 491 88 99 492 89 396 493 53 100 494 36 102 495 70 397 496 71 103 497 73 105 498 81 398 499 47 106 500 87 108 501 88 399 502 52 109 503 46 111 504 80 400 505 70 112 506 71 114 507 87 401 508 51 115 509 75 117 510 90 402 511 54 118 512 45 120 513 79 403 514 80 121 515 89 123 516 72 404 517 38 124 518 78 126 519 79 405 520 45 127 521 77 129 522 78 406 523 44 130 524 53 132 525 38 407 526 30 133 527 4 135 528 45 408 529 46 136 530 41 138 531 54 409 532 31 139 533 37 141 534 51 410 535 10 142 536 5 144 537 46 411 538 36 145 539 10 147 540 51 412 541 52 148 542 39 150 543 47 413 544 7 151 545 6 153 546 36 414 547 37 154 548 11 156 549 52 415 550 53 157 551 47 159 552 48 416 553 8 160 554 38 162 555 39 417 556 1 163 557 54 165 558 55 418 559 13 166 560 8 168 561 48 419 562 49 169 563 40 171 564 41 420 565 3 172 566 55 174 567 56 421 568 14 175 569 9 177 570 49 422 571 40 178 572 42 180 573 43 423 574 2 181 575 14 183 576 56 424 577 42 184 578 2 186 579 43 425 580 44 187 581 44 189 582 45 426 583 4 190 584</p>
        </triangles>
        <triangles material="christmasIslandDual_002-material" count="130">
          <input semantic="VERTEX" source="#Plane_002-mesh-vertices" offset="0"/>
          <input semantic="NORMAL" source="#Plane_002-mesh-normals" offset="1"/>
          <input semantic="TEXCOORD" source="#Plane_002-mesh-map-0" offset="2" set="0"/>
          <p>131 192 195 119 193 196 118 194 197 105 195 198 115 196 199 120 197 200 122 198 201 114 199 202 105 200 203 125 201 204 112 202 205 122 203 206 94 204 207 93 205 208 86 206 209 79 207 210 59 208 211 80 209 212 108 210 213 72 211 214 89 212 215 61 213 216 79 214 217 78 215 218 77 216 219 61 217 220 78 218 221 92 219 222 63 220 223 76 221 224 63 222 225 77 223 226 76 224 227 83 225 228 65 226 229 74 227 230 91 228 231 111 229 232 92 230 233 65 231 234 75 232 235 74 233 236 82 234 237 50 235 238 83 236 239 109 237 240 91 238 241 90 239 242 67 240 243 73 241 244 72 242 245 81 243 246 57 244 247 82 245 248 88 246 249 108 247 250 89 248 251 70 249 252 68 250 253 71 251 254 73 252 255 58 253 256 81 254 257 87 255 258 107 256 259 88 257 260 80 258 261 69 259 262 70 260 263 68 261 264 87 262 265 71 263 266 64 264 267 90 265 268 75 266 269 103 267 270 63 268 271 111 269 272 65 270 273 119 271 274 64 272 275 63 273 276 117 274 277 62 275 278 61 276 279 94 277 280 60 278 281 94 279 282 59 280 283 60 281 284 68 282 285 97 283 286 106 284 287 64 285 288 100 286 289 109 287 290 86 288 291 69 289 292 59 290 293 106 291 294 99 292 295 107 293 296 108 294 297 120 295 298 67 296 299 66 297 300 114 298 301 58 299 302 62 300 303 116 301 304 61 302 305 84 303 306 68 304 307 69 305 308 107 306 309 98 307 310 108 308 311 114 309 312 57 310 313 58 311 314 101 312 315 111 313 316 110 314 317 113 315 318 65 316 319 50 317 320 67 318 321 115 319 322 66 320 323 109 321 324 101 322 325 110 323 326 112 324 327 50 325 328 57 326 329 93 327 330 127 328 331 124 329 332 127 328 333 123 330 334 124 329 335 84 331 336 93 205 337 85 332 338 93 327 339 121 333 340 85 334 341 124 329 342 104 335 343 121 333 344 96 336 345 85 332 346 97 337 347 97 337 348 121 338 349 99 339 350 121 338 351 98 340 352 99 339 353 117 341 354 128 342 355 116 343 356 102 344 357 129 345 358 128 346 359 129 345 360 101 347 361 130 348 362 127 328 363 130 349 364 126 350 365 95 351 366 129 345 367 127 328 368 116 343 369 95 352 370 94 204 371 131 353 372 113 354 373 125 355 374 130 349 375 125 355 376 126 350 377 126 350 378 122 356 379 123 330 380 123 357 381 105 358 382 104 359 383 104 360 384 120 361 385 98 362 386 101 347 387 131 192 388 130 348 389 131 192 585 100 427 586 119 193 587 105 195 588 114 334 589 115 196 590 122 198 591 112 428 592 114 199 593 125 201 594 113 334 595 112 202 596 94 204 597 95 352 598 93 205 599 79 207 600 60 429 601 59 208 602 108 210 603 67 430 604 72 211 605 61 213 606 60 431 607 79 214 608 77 216 609 62 432 610 61 217 611 92 219 612 111 433 613 63 220 614 63 222 615 62 434 616 77 223 617 83 225 618 50 435 619 65 226 620 91 228 621 110 436 622 111 229 623 65 231 624 64 437 625 75 232 626 82 234 627 57 438 628 50 235 629 109 237 630 110 439 631 91 238 632 67 240 633 66 440 634 73 241 635 81 243 636 58 441 637 57 244 638 88 246 639 107 442 640 108 247 641 70 249 642 69 443 643 68 250 644 73 252 645 66 444 646 58 253 647 87 255 648 106 445 649 107 256 650 80 258 651 59 446 652 69 259 653 68 261 654 106 447 655 87 262 656 64 264 657 109 448 658 90 265 659 103 267 660 102 449 661 63 268 662 65 270 663 118 450 664 119 271 665 63 273 666 102 451 667 117 274 668 61 276 669 116 452 670 94 277 671 94 279 672 86 453 673 59 280 674 68 282 675 96 454 676 97 283 677 64 285 678 119 455 679 100 286 680 86 288 681 84 456 682 69 289 683 106 291 684 97 457 685 99 292 686 108 294 687 98 458 688 120 295 689 66 297 690 115 459 691 114 298 692 62 300 693 117 460 694 116 301 695 84 303 696 96 461 697 68 304 698 107 306 699 99 462 700 98 307 701 114 309 702 112 463 703 57 310 704 101 312 705 103 464 706 111 313 707 113 315 708 118 465 709 65 316 710 67 318 711 120 466 712 115 319 713 109 321 714 100 467 715 101 322 716 112 324 717 113 468 718 50 325 719 93 327 720 95 351 721 127 328 722 127 328 723 126 350 724 123 330 725 84 331 726 86 206 727 93 205 728 93 327 729 124 329 730 121 333 731 124 329 732 123 330 733 104 335 734 96 336 735 84 331 736 85 332 737 97 337 738 85 332 739 121 338 740 121 338 741 104 469 742 98 340 743 117 341 744 102 470 745 128 342 746 102 344 747 103 471 748 129 345 749 129 345 750 103 471 751 101 347 752 127 328 753 129 345 754 130 349 755 95 351 756 128 346 757 129 345 758 116 343 759 128 342 760 95 352 761 131 353 762 118 472 763 113 354 764 130 349 765 131 353 766 125 355 767 126 350 768 125 355 769 122 356 770 123 357 771 122 473 772 105 358 773 104 360 774 105 474 775 120 361 776 101 347 777 100 427 778 131 192 779</p>
        </triangles>
      </mesh>
    </geometry>
  </library_geometries>
  <library_visual_scenes>
    <visual_scene id="Scene" name="Scene">
      <node id="base00" name="base00" type="NODE">
        <matrix sid="transform">1 0 0 0 0 1 0 0 0 0 1 0 0 0 0 1</matrix>
        <node id="start01" name="start01" type="NODE">
          <matrix sid="transform">1 0 0 0 0 1 0 0 0 0 1 0 0 0 0 1</matrix>
          <node id="christmasIslandMedium" name="christmasIslandMedium" type="NODE">
            <matrix sid="transform">0.01 0 0 0 0 -1.62921e-9 -0.01 0 0 0.01 -1.62921e-9 0 0 0 0 1</matrix>
            <instance_geometry url="#Plane_002-mesh" name="christmasIslandMedium">
              <bind_material>
                <technique_common>
                  <instance_material symbol="christmasIslandDual_001-material" target="#christmasIslandDual_001-material">
                    <bind_vertex_input semantic="UVMap" input_semantic="TEXCOORD" input_set="0"/>
                  </instance_material>
                  <instance_material symbol="christmasIslandDual_002-material" target="#christmasIslandDual_002-material">
                    <bind_vertex_input semantic="UVMap" input_semantic="TEXCOORD" input_set="0"/>
                  </instance_material>
                </technique_common>
              </bind_material>
            </instance_geometry>
          </node>
          <node id="Colmesh-1" name="Colmesh-1" type="NODE">
            <matrix sid="transform">0.01 0 0 0 0 -1.62921e-9 -0.01 0 0 0.01 -1.62921e-9 0 0 0 0 1</matrix>
            <instance_geometry url="#Plane_006-mesh" name="Colmesh-1"/>
          </node>
        </node>
      </node>
    </visual_scene>
  </library_visual_scenes>
  <scene>
    <instance_visual_scene url="#Scene"/>
  </scene>
</COLLADA>