<?xml version="1.0" encoding="utf-8"?>
<COLLADA xmlns="http://www.collada.org/2005/11/COLLADASchema" version="1.4.1" xmlns:xsi="http://www.w3.org/2001/XMLSchema-instance">
  <asset>
    <contributor>
      <author>Blender User</author>
      <authoring_tool>Blender 3.4.1 commit date:2022-12-19, commit time:17:00, hash:55485cb379f7</authoring_tool>
    </contributor>
    <created>2025-12-20T16:07:58</created>
    <modified>2025-12-20T16:07:58</modified>
    <unit name="meter" meter="1"/>
    <up_axis>Z_UP</up_axis>
  </asset>
  <library_effects>
    <effect id="christmasIslandDual_001-effect">
      <profile_COMMON>
        <newparam sid="christmasIslandDual_001_Base_Color-surface">
          <surface type="2D">
            <init_from>christmasIslandDual_001_Base_Color</init_from>
          </surface>
        </newparam>
        <newparam sid="christmasIslandDual_001_Base_Color-sampler">
          <sampler2D>
            <source>christmasIslandDual_001_Base_Color-surface</source>
          </sampler2D>
        </newparam>
        <technique sid="common">
          <lambert>
            <emission>
              <color sid="emission">0 0 0 1</color>
            </emission>
            <diffuse>
              <texture texture="christmasIslandDual_001_Base_Color-sampler" texcoord="UVMap"/>
            </diffuse>
            <index_of_refraction>
              <float sid="ior">1.45</float>
            </index_of_refraction>
          </lambert>
        </technique>
      </profile_COMMON>
    </effect>
    <effect id="christmasIslandDual_002-effect">
      <profile_COMMON>
        <technique sid="common">
          <lambert>
            <emission>
              <color sid="emission">0 0 0 1</color>
            </emission>
            <diffuse>
              <color sid="diffuse">0.8 0.8 0.8 1</color>
            </diffuse>
            <index_of_refraction>
              <float sid="ior">1.45</float>
            </index_of_refraction>
          </lambert>
        </technique>
      </profile_COMMON>
    </effect>
  </library_effects>
  <library_images>
    <image id="christmasIslandDual_001_Base_Color" name="christmasIslandDual_001_Base_Color">
      <init_from>christmasIslandDual.001%20Base%20Color.png</init_from>
    </image>
  </library_images>
  <library_materials>
    <material id="christmasIslandDual_001-material" name="christmasIslandDual.001">
      <instance_effect url="#christmasIslandDual_001-effect"/>
    </material>
    <material id="christmasIslandDual_002-material" name="christmasIslandDual.002">
      <instance_effect url="#christmasIslandDual_002-effect"/>
    </material>
  </library_materials>
  <library_geometries>
    <geometry id="Plane_006-mesh" name="Plane.006">
      <mesh>
        <source id="Plane_006-mesh-positions">
          <float_array id="Plane_006-mesh-positions-array" count="342">-131.591 0.6623287 161.4757 67.91958 0.3839436 184.0342 -109.8307 51.64484 -79.41585 154.8982 23.45391 -132.8994 -119.737 48.69196 -15.62363 -130.4966 9.575597 106.2566 80.16522 9.881672 118.3994 118.3805 23.11262 26.48593 -103.7538 3.394255 172.8535 -48.45004 14.75493 191.8938 27.5416 20.66205 195.6422 100.3272 30.0033 -183.3377 -47.40048 57.80364 -135.1954 -92.14479 64.12935 -109.8441 45.91137 23.9877 129.6836 -47.68865 14.88294 121.3602 -99.94361 10.02252 106.8895 70.38162 43.727 -20.14029 -33.55047 64.73754 -40.38631 -85.52658 68.15913 -53.02674 -113.5686 18.14564 57.5357 94.77024 11.58349 73.90476 -78.71739 20.51872 39.95148 -38.58887 21.61845 49.9331 48.46199 18.97056 63.67584 -10.70281 16.06985 195.9096 22.18584 48.88567 -176.2769 1.631439 20.32796 128.1242 12.53897 66.23155 -30.47137 5.071632 22.57548 60.32528 -127.9691 -3.166821 107.8351 -130.5975 -12.5535 161.7687 27.34431 4.712772 192.7054 67.60957 -16.44331 185.9521 117.8219 5.867445 28.69396 149.7103 6.818939 -126.5802 -91.39641 42.35193 -109.1984 -125.761 18.21004 -68.07611 -119.7502 23.11282 -11.93153 -113.3346 3.680668 59.22938 79.873 -5.891193 120.8482 94.16975 -3.818979 75.96139 -104.7605 -11.3047 166.0476 -48.27228 -1.21933 177.8194 -9.966988 0.1109428 186.3654 98.35169 10.3884 -175.5008 26.84013 28.38765 -174.9106 -45.27302 36.77727 -133.754 -119.7024 -7.560911 106.3832 -123.8353 -16.44625 153.9768 24.31211 -4.467579 183.7203 64.21058 -22.80233 178.883 106.0133 -2.313435 30.47117 137.994 1.239048 -115.7675 -85.46272 36.19342 -101.2397 -119.5678 6.38731 -62.80191 -113.4173 8.325861 -5.409142 -107.1666 -2.576458 59.96281 72.66663 -11.81662 118.4183 87.05172 -9.610835 75.47676 90.05825 -45.45512 86.43953 85.42484 -45.45512 133.0952 -101.1222 -15.50502 155.6863 -48.27663 -7.196869 162.4129 -10.5338 -6.616907 174.0697 94.70889 1.636766 -162.7631 33.06628 21.3264 -165.7829 -39.20164 28.09675 -124.5334 -118.5627 -45.45512 62.07801 -135.7231 -45.45512 2.334839 -123.2388 -45.45512 -66.33946 -83.72411 -45.45512 -91.88629 108.0794 -45.45512 -77.99858 112.7641 -45.45512 41.48217 69.81443 -45.45512 194.2453 24.75118 -45.45512 193.3567 -127.1823 -45.45512 166.7015 -123.0541 -45.45512 112.461 -115.5298 -22.22162 108.5028 -120.9576 -29.30087 154.1866 21.45794 -29.01543 181.6743 64.34169 -36.87411 182.1287 104.4901 -25.21454 37.38834 112.5393 -23.6167 -87.03118 -85.2705 -10.92751 -85.96044 -117.7776 -29.12901 -57.37063 -122.4052 -24.68853 2.956657 -108.3643 -22.82524 61.72531 73.81235 -27.78223 123.2896 84.45302 -27.68501 80.63605 -99.0884 -29.96629 152.5966 -48.50448 -26.10957 150.4342 -9.688303 -26.26632 165.2092 74.44167 -26.86292 -117.974 20.80309 -19.53007 -110.4704 -32.14802 -11.66742 -101.7199 -92.48228 -40.8347 111.2366 -101.9156 -42.35029 -29.7887 -99.40687 -45.45512 163.9566 -46.3054 -45.45512 160.0944 -8.198578 -45.45512 172.671 61.89144 -45.45512 -102.2512 5.586143 -45.45512 -104.8314 -38.55146 -45.45512 -100.9419 38.07554 -44.43774 135.9162 -1.088295 -44.54992 127.9385 -44.01008 -44.95278 120.6499 64.1564 -45.18558 10.03021 10.66406 -43.96845 -3.668991 -39.86281 -40.85496 -21.64692 -86.02945 -45.28929 44.71665 -39.9386 -44.55698 51.58897 46.42939 -44.72467 72.299 3.945198 -44.68973 62.53186</float_array>
          <technique_common>
            <accessor source="#Plane_006-mesh-positions-array" count="114" stride="3">
              <param name="X" type="float"/>
              <param name="Y" type="float"/>
              <param name="Z" type="float"/>
            </accessor>
          </technique_common>
        </source>
        <source id="Plane_006-mesh-normals">
          <float_array id="Plane_006-mesh-normals-array" count="1293">0.294551 0.954369 0.04918843 0.2013552 0.979196 -0.02512842 0.1664735 0.9846604 -0.05225586 0.465967 0.8648365 0.1869028 0.4481273 0.8719454 0.197214 0.4819377 0.8580415 0.1774848 0.09990394 0.9506614 0.2937041 0.1021161 0.9491829 0.2976983 0.1074824 0.9454983 0.3073769 0.09076029 0.9136729 0.3961877 0.02113288 0.8979426 0.4396049 0.1257063 0.9191973 0.3731948 -0.1077812 0.8953156 0.4321957 -0.07091462 0.8901644 0.4500873 -0.05309128 0.8871374 0.4584417 0.1341222 0.9262155 0.3523294 0.2064706 0.8920281 0.4020644 0.2576727 0.8623588 0.4358237 -0.1040942 0.9885586 0.1091629 -0.05319809 0.9889005 0.1387295 -0.01773315 0.9871215 0.158986 -0.1663609 0.9853053 0.03870052 -0.1555585 0.9865231 0.0507338 -0.1175979 0.9887384 0.09255897 -0.1065797 0.9936529 0.0359835 -0.09466898 0.9950133 0.03140598 -0.1188393 0.9920791 0.04069596 -0.5418049 0.8400793 -0.02672499 -0.5537403 0.832616 -0.01106208 -0.5291783 0.847423 -0.04294973 0.08803039 0.9926577 -0.08295404 0.08958905 0.9924077 -0.08426672 0.0849148 0.9931448 -0.08033007 0.3314276 0.9407887 -0.07122093 0.2640821 0.9632193 -0.04969179 0.3744348 0.9233425 -0.08507263 -0.02032345 0.9991519 -0.03581172 0.02150899 0.999754 -0.00542736 0.07989525 0.9961137 0.0370748 -0.09623116 0.9905229 0.09800124 -0.08272504 0.9902039 0.1124854 -0.06086891 0.9888706 0.1357578 -0.008421719 0.9863142 0.1646618 0.00520879 0.9869405 0.1610018 -0.01788288 0.9857637 0.1671831 0.2790355 0.9602783 -0.002164661 0.2366613 0.9712905 0.02421301 0.36418 0.9296081 -0.0565856 -0.08729273 0.9949303 0.04993778 -0.0695796 0.995436 0.06531322 -0.04285097 0.9951645 0.08838391 0.01446205 0.9959774 -0.08843106 0.04516762 0.9933617 -0.105795 -0.01717817 0.9973686 -0.07043355 -0.06798285 0.9971155 0.03375071 -0.08786201 0.9959693 0.01803845 -0.1098186 0.9939515 6.18488e-4 -0.1201177 0.8985225 0.4221719 -0.1200184 0.8985095 0.4222279 -0.1199633 0.8985023 0.4222589 0.6144208 -0.7774754 0.1342353 0.5813819 -0.8040095 0.1247553 0.577617 -0.8068842 0.1236799 -0.329509 -0.8370358 -0.4368008 -0.3782888 -0.7893553 -0.483545 -0.3709865 -0.7891705 -0.489468 0.8322589 -0.5506635 0.064148 0.6643819 -0.7464165 -0.03819942 0.8437219 -0.5318306 0.0727294 0.2595851 -0.9296563 -0.2614473 0.3575598 -0.8318975 -0.4243793 0.3728769 -0.8111014 -0.4506412 -0.6537625 -0.7113998 -0.2578857 -0.50717 -0.8203924 -0.2640743 -0.4884546 -0.8316235 -0.2642245 -0.07179677 -0.8443173 0.531012 -0.04548192 -0.732771 0.6789537 -0.03694707 -0.6927299 0.7202501 -0.9059265 -0.4032045 0.1293187 -0.9267519 -0.3578531 0.1143332 -0.9010799 -0.4129067 0.132526 -0.2179523 -0.7814897 -0.5846114 -0.215507 -0.8317462 -0.5116199 -0.215052 -0.8379662 -0.5015628 0.09185826 -0.9145452 0.3939152 0.09087753 -0.9264985 0.3651602 0.09070092 -0.9284536 0.3602047 -0.1320449 -0.7952711 -0.5916993 -0.3556197 -0.5696052 -0.7410025 -0.09693396 -0.8208264 -0.5628924 -0.09304749 -0.9181444 0.3851664 -0.08169388 -0.8869656 0.4545528 -0.07705956 -0.8731545 0.4813141 -0.01825952 -0.9091352 0.416101 5.05805e-4 -0.9203035 0.3912053 -0.02717638 -0.9034743 0.4277801 0.5973103 -0.7861008 0.1589533 0.6138155 -0.7729645 0.1604878 0.6163364 -0.7709081 0.1607181 0.5740416 -0.8119138 0.1061704 0.5027918 -0.8588657 0.09772551 0.4997522 -0.8606795 0.09735918 -0.905252 -0.4238637 -0.02930235 -0.7360246 -0.6752803 -0.04758697 -0.9143795 -0.4038991 -0.02785587 -0.2170204 -0.6486819 0.7294614 -0.2208042 -0.665413 0.7130715 -0.2162935 -0.6454873 0.7325049 -0.3331593 -0.8406905 -0.4269012 -0.3241054 -0.8497095 -0.4158717 -0.5019545 -0.8420717 -0.1973753 -0.6155662 -0.770288 -0.1665381 -0.6266655 -0.7620159 -0.1631631 -0.05468785 -0.4365679 0.8980077 -0.001389026 -0.2758413 0.9612022 0.02865076 -0.181355 0.9830003 -0.9396312 -0.07845729 -0.333073 -0.9288789 -0.1957167 -0.3144503 -0.9401836 -0.05458223 -0.3362674 0.6053326 -0.4246199 -0.6732536 0.6130909 -0.3592711 -0.7035936 0.6143089 -0.3453363 -0.7094839 0.9826372 0.00402069 0.1854941 0.9826998 0.009484648 0.1849633 0.982708 0.01049351 0.1848646 -0.5051974 -0.1621701 -0.8476299 -0.5140155 -0.1193746 -0.8494338 -0.5157302 -0.1104236 -0.8496053 0.8919101 0.02608764 0.4514595 0.8919702 0.02834612 0.4512047 0.8919835 0.02886933 0.4511454 -0.9814388 -0.1842733 -0.05311518 -0.9938288 -0.09299516 -0.0604676 -0.9783318 -0.2004717 -0.05174911 -0.4822435 -0.09255474 -0.8711343 -0.4925969 -0.05830949 -0.8683021 -0.4970761 -0.0427789 -0.8666519 0.1940701 -0.1289259 0.9724788 0.2143708 0.05601596 0.9751448 0.1871538 -0.1801256 0.965675 -0.9959242 0.01155728 0.08945035 -0.9960779 -0.002798616 0.08843743 -0.9958887 0.01344639 0.08958226 0.9791027 -0.01924997 0.202453 0.9548355 -0.2029364 0.2170394 0.9522057 -0.2142617 0.2177066 0.9516991 0.02490293 0.3060205 0.9504947 0.009501039 0.3105955 0.9500619 0.004623949 0.3120272 -0.2203808 -0.1244996 0.9674359 -0.2830758 -0.2847764 0.9158442 -0.3176665 -0.3803987 0.8685533 -0.1237924 -0.618317 0.7761182 -0.09536969 -0.5610474 0.8222714 -0.07298487 -0.5143716 0.8544561 -0.8443093 0.03814482 -0.5344969 -0.8230469 0.1352492 -0.5516354 -0.8556293 -0.04469311 -0.5156559 -0.1170239 -0.4597574 0.8803002 -0.1209765 -0.62291 0.7728828 -0.121233 -0.6569634 0.7441114 -0.1009554 -0.32058 -0.9418262 -0.1101495 -0.1297202 -0.9854135 -0.1114712 -0.09126698 -0.9895679 -0.949558 0.3059629 -0.06875032 -0.9884998 0.1487803 0.02706617 -0.9114676 0.3924348 -0.1233767 -0.01993709 -0.9998013 4.04776e-7 -0.008860647 -0.9998812 -0.01261848 3.47583e-4 -0.9998446 -0.01762837 -0.01728034 -0.9998505 -5.50788e-4 -0.002332687 -0.9999955 0.001897811 -0.005268633 -0.9999859 6.86121e-4 -0.9711076 -0.02795433 -0.2369992 -0.9617605 -0.2138974 -0.1710698 -0.9657664 0.03474861 -0.2570753 -0.3928484 -0.2618043 0.881549 -0.3365406 -0.1659741 0.9269267 -0.2637308 -0.04962509 0.963319 -0.997372 0.06021493 0.04028928 -0.9881658 0.1511632 -0.02604067 -0.9936236 -0.03362601 0.1076173 -0.203899 -0.7721521 -0.6018359 -0.2050361 -0.7724128 -0.6011146 -0.2186658 -0.775431 -0.5923615 0.0370351 -0.2898895 0.9563434 -0.009810388 -0.4824679 0.8758588 -0.02345269 -0.5347265 0.8446998 -0.6175059 -0.2089146 -0.7583147 -0.6137477 -0.1911864 -0.7660038 -0.6241533 -0.2432921 -0.7424565 -0.295858 -0.4773607 0.8274025 -0.2786575 -0.438598 0.8543897 -0.2639896 -0.4059011 0.8749593 -0.02552449 -0.07169222 0.9971002 0.01761013 -0.1330427 0.9909539 -0.07503038 -5.21931e-4 0.9971811 0.9610067 0.09943974 0.2580271 0.9536947 -0.007550954 0.3006818 0.9479067 -0.04632657 0.3151618 0.9891328 -0.1248912 0.07757908 0.8037408 -0.5760027 0.1490693 0.7739412 -0.6141633 0.1543328 -0.9546741 0.2527908 0.1571441 -0.968605 0.1427009 0.2035704 -0.9459661 0.2928267 0.1392868 0.06918042 -0.02802598 0.9972104 0.04495477 0.1353337 0.9897798 0.07815796 -0.09182566 0.9927031 -0.3570885 -0.4086652 -0.8399289 -0.3737859 -0.3903722 -0.8413642 -0.470347 -0.2739335 -0.8388887 -0.9504641 -0.2784043 -0.1382361 -0.961773 -0.2315208 -0.1462559 -0.9474654 -0.2893662 -0.1362962 0.9102372 0.006611764 0.4140347 0.9150348 0.04382175 0.4009876 0.9165362 0.05854409 0.3956438 -0.3452986 -0.6382116 -0.6880807 -0.32333 -0.6187636 -0.7159535 -0.4067202 -0.6894131 -0.5994066 0.9846464 0.05714178 0.1649438 0.981014 0.1102368 0.1595602 0.9801679 0.1187449 0.158652 0.3859017 -0.8433516 -0.3739494 0.3860881 -0.8438824 -0.3725568 0.3872338 -0.8471586 -0.3638302 -0.2529209 0.07625871 -0.964477 -0.2313656 0.1065272 -0.967017 -0.2838616 0.03173005 -0.9583401 -0.9515594 0.2997931 -0.06825584 -0.9491856 0.3066013 -0.07101076 -0.9525032 0.2970354 -0.06714087 0.8193886 0.3993762 0.411219 0.8173232 0.4098572 0.404969 0.8162674 0.414961 0.4018893 -0.1470627 -0.07340353 -0.9863998 -0.1207035 -0.04347425 -0.9917362 -0.1777349 -0.1084237 -0.9780873 0.7066016 0.6832006 0.1842583 0.7494615 0.6270108 0.2125203 0.7561667 0.6173166 0.2170999 0.5183034 -0.5207824 -0.6783416 0.4017128 -0.6532115 -0.6418267 0.5963378 -0.4077776 -0.691447 -0.9194955 0.3722791 -0.1262391 -0.9400392 0.3256017 -0.1015372 -0.9030882 0.4047494 -0.143561 -0.4420682 0.3437327 0.8285068 -0.4632783 0.4036622 0.7889424 -0.4251766 0.2991692 0.8542381 -0.8938632 0.4212522 -0.1534776 -0.8505213 0.5131414 -0.1153239 -0.8358061 0.5391241 -0.1037963 -0.1270395 -0.4770538 -0.8696441 -0.01601558 -0.3251506 -0.9455267 -0.18925 -0.5564396 -0.8090485 0.04568326 0.5570818 0.8292002 0.01693552 0.4818203 0.8761064 0.004146873 0.4471241 0.8944623 -0.642143 0.2157541 -0.7355967 -0.5618909 0.380662 -0.7344217 -0.6864162 0.09304028 -0.7212326 -0.3177226 0.3740541 0.871284 -0.3052958 0.3461165 0.8871291 -0.3258137 0.3924692 0.8601242 0.07818943 0.5902267 0.803442 0.07778388 0.5898687 0.8037442 0.07642251 0.5886652 0.8047565 0.8400304 0.5299541 0.1161801 0.8863033 0.4233616 0.1877007 0.9051893 0.3595401 0.2266349 0.9476717 0.3181591 -0.02633142 0.9907208 -0.1252437 0.05278694 0.9826017 -0.175312 0.06131708 -0.8389928 0.4940428 0.2280632 -0.8767707 0.4330701 0.2091016 -0.8920502 0.405134 0.2002821 0.07766938 0.640909 0.7636774 0.01455378 0.7690301 0.639047 0.09954643 0.589556 0.8015699 -0.01411122 -0.9998918 0.004152774 -0.01678937 -0.9998536 -0.003326833 0.03351062 -0.9988118 -0.03538405 0.01883006 -0.9996577 -0.01816743 0.004419565 -0.9999895 -0.001269459 0.02621918 -0.9984801 -0.04847764 0.02768659 -0.9984896 -0.04745745 0.0233857 -0.998453 -0.05044686 -0.009952604 -0.9999486 -0.001969993 0.1028912 -0.9935699 -0.0472486 0.04611921 -0.9987114 -0.02117836 0 -1 0 -0.03730285 -0.997556 -0.05908149 -0.04232668 -0.997625 -0.05433988 -0.006410598 -0.9960876 -0.08813977 0.007809042 -0.9998185 -0.01738142 0.008044004 -0.9998137 -0.01754742 0.009704291 -0.9998335 -0.01545757 0.06136554 -0.9969177 0.04888397 0.08841991 -0.9955371 0.0329836 0.1103145 -0.9936945 0.0200541 0.01378577 -0.998292 0.05677217 0.01480591 -0.9983133 0.05613654 0.01686054 -0.998352 0.05485606 -0.01788729 -0.9998036 -0.008538067 -6.52486e-4 -0.9999921 0.003922283 0.006144642 -0.9999808 8.26e-4 -1.89218e-4 -0.9999956 0.002979099 0.001894772 -0.9999869 0.004758775 -0.04948127 -0.9985995 0.01872891 -0.02959561 -0.9989039 0.03626519 -0.08260744 -0.996526 -0.01058137 0.07192569 -0.995868 0.05544245 0.1134152 -0.9929943 0.03316074 0.1499461 -0.9886039 0.01336717 -0.01765376 -0.9997993 -0.009472846 0.004970729 -0.9999876 -4.24576e-4 -0.001029789 -0.9999977 0.001885831 -0.04930603 -0.9983835 0.02827221 -0.02111667 -0.9988216 0.04369813 -0.0678969 -0.9975288 0.01806759 0.008829951 -0.9998373 -0.01572906 0.007838845 -0.9998183 -0.01738059 -0.01795953 -0.9994716 -0.02709132 -0.02826601 -0.998933 -0.03652375 -3.00593e-4 -0.9999403 -0.01092511 0.3290157 0.9411473 0.077398 0.4301427 0.8786156 0.2073932 0.09116148 0.9562765 0.2778934 -0.007283329 0.8897355 0.4564184 -0.1293992 0.8976341 0.421318 0.05632811 0.9534204 0.2963389 -0.1341938 0.9867311 0.09139865 -0.2010917 0.9795724 -3.92885e-4 -0.08328461 0.9961592 0.02703154 -0.5677452 0.8231679 0.007748782 0.09156757 0.9920842 -0.08593297 0.2313458 0.9720778 -0.03929412 -0.07936489 0.9937421 -0.07859945 -0.1139574 0.99035 0.07887101 0.01295602 0.9872086 0.1589072 0.1389956 0.9867778 0.08336621 -0.1133751 0.9931808 0.02717095 0.05977618 0.9916784 -0.1140209 -0.04063338 0.9976441 0.05527585 -0.1201742 0.8985299 0.4221401 0.6197254 -0.7729867 0.1357649 -0.3245151 -0.8423451 -0.4302847 0.6440959 -0.763398 -0.04862242 0.2389913 -0.943848 -0.2281103 -0.6731876 -0.6936435 -0.2562757 -0.07945555 -0.8729427 0.4813086 -0.9303631 -0.3492742 0.1114996 -0.218154 -0.7741218 -0.5942594 0.09211069 -0.9111258 0.4017033 -0.3810281 -0.5357494 -0.7535185 -0.09693783 -0.9278878 0.3600379 0.009854316 -0.9254907 0.3786422 0.5945944 -0.7882088 0.1586964 0.577021 -0.8097537 0.1065172 -0.7083629 -0.7040971 -0.04969334 -0.2217321 -0.6695432 0.7089055 -0.4870718 -0.8499252 -0.2009688 -0.08162814 -0.5143207 0.8537045 -0.9246329 -0.2217655 -0.3096355 0.6028868 -0.440669 -0.6650852 0.982623 0.003048419 0.185588 -0.5033072 -0.1707397 -0.8470714 0.8918943 0.02551782 0.4515235 -0.9951797 -0.07617998 -0.06175917 -0.4773335 -0.1080773 -0.8720505 0.2186533 0.1065201 0.9699712 -0.9960839 -0.005782723 0.08822458 0.9795461 -0.00597912 0.2011311 0.9520208 0.02965021 0.3045939 -0.1638267 0.009559988 0.9864429 -0.1427527 -0.6552038 0.7418421 -0.8058326 0.1942276 -0.5593832 -0.1151154 -0.410868 0.9043981 -0.09843063 -0.3606545 -0.9274911 -0.9943397 0.01568317 0.1050841 -0.9465935 -0.2898376 -0.1412624 -0.4580752 -0.3817079 0.8027867 -0.9664606 0.239851 -0.09179013 -0.1904927 -0.7689759 -0.6102365 0.05712389 -0.2009095 0.9779429 -0.6042001 -0.1501269 -0.7825627 -0.3085599 -0.5063104 0.8052582 0.06500661 -0.199747 0.9776888 0.9603404 0.1421109 0.2398975 0.9968496 -0.04700374 0.06388664 -0.9702628 0.07735395 0.2293608 0.03089821 0.2249179 0.9738878 -0.2504081 -0.5148187 -0.8199132 -0.964519 -0.2183377 -0.1484317 0.907527 -0.01063501 0.4198593 -0.2136297 -0.5143831 -0.8305253 0.9850053 0.04743683 0.1658751 0.3843576 -0.838975 -0.3852145 -0.1941029 0.1574855 -0.9682574 -0.9481736 0.3094501 -0.07216447 0.8203789 0.3940879 0.414335 -0.0877797 -0.006301224 -0.99612 0.6964552 0.695227 0.1777909 0.3186144 -0.7282143 -0.6067858 -0.9520686 0.2938743 -0.08487325 -0.4764543 0.4438681 0.7589285 -0.9047161 0.3929872 -0.1644685 0.04447036 -0.237187 -0.9704456 0.05858933 0.5896174 0.8055548 -0.4566808 0.5408137 -0.7063733 -0.296276 0.3260826 0.8977141 0.0793159 0.5912202 0.8026006 0.8118913 0.5782141 0.08062964 0.9275896 0.3718262 -0.03637009 -0.8212093 0.5195914 0.2358814 -0.01146346 0.8135724 0.5813509 0.04509866 -0.9977813 -0.04897534 0.03007078 -0.998498 -0.04579943 0.1464637 -0.986927 -0.06725746 -0.08128041 -0.9965391 -0.01742094 0.03977072 -0.9973134 0.06151562 0.01164782 -0.9982427 0.05810397 -6.74913e-4 -0.9998914 0.01472806 0.005806088 -0.9977107 0.06737619 0.04291468 -0.9965599 0.07089889 -0.001572728 -0.9999818 -0.00582385 0.005110979 -0.9983037 0.05799937 0.01143389 -0.9998619 -0.01206815 -0.04352158 -0.9977763 -0.05048179</float_array>
          <technique_common>
            <accessor source="#Plane_006-mesh-normals-array" count="431" stride="3">
              <param name="X" type="float"/>
              <param name="Y" type="float"/>
              <param name="Z" type="float"/>
            </accessor>
          </technique_common>
        </source>
        <source id="Plane_006-mesh-map-0">
          <float_array id="Plane_006-mesh-map-0-array" count="1344">0.6599901 0.5791813 0.6624901 0.5825147 0.6599901 0.5825147 0.6624901 0.5725147 0.6599901 0.575848 0.6599901 0.5725147 0.6599901 0.5775147 0.6624901 0.5791813 0.6599901 0.5791813 0.6549901 0.5775147 0.6524901 0.5791813 0.6524901 0.5775147 0.6549901 0.5775147 0.6574901 0.5791813 0.6549901 0.5791813 0.6587402 0.5775147 0.6599901 0.5791813 0.6587402 0.5791813 0.6524901 0.5725147 0.6549901 0.575848 0.6524901 0.575848 0.6549901 0.5725147 0.6574901 0.575848 0.6549901 0.575848 0.6599901 0.5725147 0.6587401 0.5758479 0.6587402 0.5725147 0.6549901 0.5791813 0.6524901 0.5825147 0.6524901 0.5791813 0.6574901 0.5791813 0.6549901 0.5825147 0.6549901 0.5791813 0.6599901 0.5791813 0.6587402 0.5825147 0.6587402 0.5791813 0.6587401 0.5758479 0.6599901 0.5775147 0.6587402 0.5775147 0.6549901 0.575848 0.6574901 0.5775147 0.6549901 0.5775147 0.6549901 0.575848 0.6524901 0.5775147 0.6524901 0.575848 0.6624901 0.575848 0.6599901 0.5775147 0.6599901 0.575848 0.6574901 0.575848 0.6587402 0.5775147 0.6574901 0.5775147 0.6587402 0.5791813 0.6574901 0.5825147 0.6574901 0.5791813 0.6574901 0.5725147 0.6587401 0.5758479 0.6574901 0.575848 0.6574901 0.5775147 0.6587402 0.5791813 0.6574901 0.5791813 0.6624901 0.5775147 0.6624901 0.5791813 0.6624901 0.5791813 0.6587402 0.5825147 0.6574901 0.5825147 0.6574901 0.5825147 0.6624901 0.5725147 0.6624901 0.575848 0.6624901 0.5725147 0.6624901 0.5825147 0.6599901 0.5825147 0.6599901 0.5825147 0.6524901 0.5775147 0.6524901 0.575848 0.6524901 0.575848 0.6587402 0.5725147 0.6599901 0.5725147 0.6599901 0.5725147 0.6524901 0.5825147 0.6524901 0.5791813 0.6524901 0.5825147 0.6599901 0.5825147 0.6587402 0.5825147 0.6587402 0.5825147 0.6549901 0.5725147 0.6574901 0.5725147 0.6574901 0.5725147 0.6549901 0.5825147 0.6524901 0.5825147 0.6549901 0.5825147 0.6574901 0.5725147 0.6587402 0.5725147 0.6587402 0.5725147 0.6524901 0.5725147 0.6549901 0.5725147 0.6524901 0.5725147 0.6624901 0.575848 0.6624901 0.5775147 0.6624901 0.5775147 0.6624901 0.5791813 0.6624901 0.5825147 0.6624901 0.5825147 0.6524901 0.5791813 0.6524901 0.5775147 0.6524901 0.5791813 0.6599901 0.5725147 0.6624901 0.5725147 0.6599901 0.5725147 0.6574901 0.5825147 0.6549901 0.5825147 0.6549901 0.5825147 0.6524901 0.575848 0.6524901 0.5725147 0.6524901 0.5725147 0.6587402 0.5725147 0.6599901 0.5725147 0.6599901 0.5725147 0.6524901 0.5775147 0.6524901 0.575848 0.6524901 0.5775147 0.6624901 0.5825147 0.6599901 0.5825147 0.6599901 0.5825147 0.6624901 0.5725147 0.6624901 0.575848 0.6624901 0.575848 0.6587402 0.5825147 0.6574901 0.5825147 0.6574901 0.5825147 0.6624901 0.5775147 0.6624901 0.5791813 0.6624901 0.5791813 0.6524901 0.575848 0.6524901 0.5725147 0.6524901 0.575848 0.6574901 0.5825147 0.6549901 0.5825147 0.6549901 0.5825147 0.6599901 0.5725147 0.6624901 0.5725147 0.6599901 0.5725147 0.6524901 0.5791813 0.6524901 0.5775147 0.6524901 0.5791813 0.6624901 0.5791813 0.6624901 0.5825147 0.6624901 0.5825147 0.6624901 0.575848 0.6624901 0.5775147 0.6624901 0.5775147 0.6524901 0.5725147 0.6549901 0.5725147 0.6549901 0.5725147 0.6574901 0.5725147 0.6587402 0.5725147 0.6587402 0.5725147 0.6549901 0.5825147 0.6524901 0.5825147 0.6549901 0.5825147 0.6549901 0.5725147 0.6574901 0.5725147 0.6574901 0.5725147 0.6599901 0.5825147 0.6587402 0.5825147 0.6587402 0.5825147 0.6524901 0.5825147 0.6524901 0.5791813 0.6524901 0.5825147 0.5418726 0.8539165 0.5443726 0.8505831 0.5418726 0.8505831 0.5418726 0.8572498 0.5443726 0.8605831 0.5443726 0.8572498 0.6131176 0.8592743 0.6131176 0.8576077 0.6131176 0.8592743 0.6193677 0.8542743 0.6206176 0.8542743 0.6206176 0.8542743 0.6131176 0.8642743 0.6131176 0.860941 0.6131176 0.8642743 0.6206176 0.8642743 0.6193677 0.8642743 0.6206176 0.8642743 0.6156176 0.8542743 0.6181176 0.8542743 0.6181176 0.8542743 0.6156176 0.8642743 0.6131176 0.8642743 0.6156176 0.8642743 0.6181176 0.8542743 0.6193677 0.8542743 0.6193677 0.8542743 0.6131176 0.8542743 0.6156176 0.8542743 0.6131176 0.8542743 0.6231176 0.8576077 0.6231176 0.8592743 0.6231176 0.8592743 0.6231176 0.860941 0.6231176 0.8642743 0.6231176 0.8642743 0.6131176 0.860941 0.6131176 0.8592743 0.6131176 0.860941 0.6206176 0.8542743 0.6231176 0.8542743 0.6206176 0.8542743 0.6181176 0.8642743 0.6156176 0.8642743 0.6156176 0.8642743 0.6131176 0.8576077 0.6131176 0.8542743 0.6131176 0.8576077 0.6231176 0.8592743 0.6231176 0.860941 0.6231176 0.860941 0.6193677 0.8642743 0.6181176 0.8642743 0.6193677 0.8642743 0.6231176 0.8542743 0.6231176 0.8576077 0.6231176 0.8576077 0.6231176 0.8642743 0.6206176 0.8642743 0.6206176 0.8642743 0.6181176 0.8642743 0.6156176 0.8642743 0.6181176 0.8642743 0.6131176 0.8576077 0.6131176 0.8542743 0.6131176 0.8576077 0.6231176 0.8592743 0.6231176 0.860941 0.6231176 0.860941 0.6193677 0.8642743 0.6181176 0.8642743 0.6193677 0.8642743 0.6231176 0.8542743 0.6231176 0.8576077 0.6231176 0.8576077 0.6231176 0.8642743 0.6206176 0.8642743 0.6231176 0.8642743 0.6131176 0.8592743 0.6131176 0.8576077 0.6131176 0.8592743 0.6193677 0.8542743 0.6206176 0.8542743 0.6193677 0.8542743 0.6131176 0.8642743 0.6131176 0.860941 0.6131176 0.860941 0.6206176 0.8642743 0.6193677 0.8642743 0.6206176 0.8642743 0.6156176 0.8542743 0.6181176 0.8542743 0.6181176 0.8542743 0.6156176 0.8642743 0.6131176 0.8642743 0.6156176 0.8642743 0.6181176 0.8542743 0.6193677 0.8542743 0.6181176 0.8542743 0.6131176 0.8542743 0.6156176 0.8542743 0.6156176 0.8542743 0.6231176 0.8576077 0.6231176 0.8592743 0.6231176 0.8592743 0.6231176 0.860941 0.6231176 0.8642743 0.6231176 0.8642743 0.6131176 0.860941 0.6131176 0.8592743 0.6131176 0.8592743 0.6206176 0.8542743 0.6231176 0.8542743 0.6206176 0.8542743 0.5418725 0.8555831 0.5443726 0.8572498 0.5443726 0.8555831 0.5343726 0.8572498 0.5368726 0.8555831 0.5343726 0.8555831 0.5368726 0.8555831 0.5393726 0.8572498 0.5393726 0.8555831 0.5406226 0.8555832 0.5418726 0.8572498 0.5418725 0.8555831 0.5343726 0.8539165 0.5368726 0.8505831 0.5343726 0.8505831 0.5368726 0.8539165 0.5393726 0.8505831 0.5368726 0.8505831 0.5406226 0.8505831 0.5418726 0.8539165 0.5418726 0.8505831 0.5343726 0.8605831 0.5368726 0.8572498 0.5343726 0.8572498 0.5368726 0.8605831 0.5393726 0.8572498 0.5368726 0.8572498 0.5406226 0.8572498 0.5418726 0.8605831 0.5418726 0.8572498 0.5406225 0.8539164 0.5418725 0.8555831 0.5418726 0.8539165 0.5368726 0.8539165 0.5393726 0.8555831 0.5393726 0.8539165 0.5343726 0.8555831 0.5368726 0.8539165 0.5343726 0.8539165 0.5418726 0.8539165 0.5443726 0.8555831 0.5443726 0.8539165 0.5393726 0.8539165 0.5406226 0.8555832 0.5406225 0.8539164 0.5393726 0.8572498 0.5406226 0.8605831 0.5406226 0.8572498 0.5393726 0.8505831 0.5406225 0.8539164 0.5406226 0.8505831 0.5393726 0.8555831 0.5406226 0.8572498 0.5406226 0.8555832 0.6599901 0.5791813 0.6624901 0.5791813 0.6624901 0.5825147 0.6624901 0.5725147 0.6624901 0.575848 0.6599901 0.575848 0.6599901 0.5775147 0.6624901 0.5775147 0.6624901 0.5791813 0.6549901 0.5775147 0.6549901 0.5791813 0.6524901 0.5791813 0.6549901 0.5775147 0.6574901 0.5775147 0.6574901 0.5791813 0.6587402 0.5775147 0.6599901 0.5775147 0.6599901 0.5791813 0.6524901 0.5725147 0.6549901 0.5725147 0.6549901 0.575848 0.6549901 0.5725147 0.6574901 0.5725147 0.6574901 0.575848 0.6599901 0.5725147 0.6599901 0.575848 0.6587401 0.5758479 0.6549901 0.5791813 0.6549901 0.5825147 0.6524901 0.5825147 0.6574901 0.5791813 0.6574901 0.5825147 0.6549901 0.5825147 0.6599901 0.5791813 0.6599901 0.5825147 0.6587402 0.5825147 0.6587401 0.5758479 0.6599901 0.575848 0.6599901 0.5775147 0.6549901 0.575848 0.6574901 0.575848 0.6574901 0.5775147 0.6549901 0.575848 0.6549901 0.5775147 0.6524901 0.5775147 0.6624901 0.575848 0.6624901 0.5775147 0.6599901 0.5775147 0.6574901 0.575848 0.6587401 0.5758479 0.6587402 0.5775147 0.6587402 0.5791813 0.6587402 0.5825147 0.6574901 0.5825147 0.6574901 0.5725147 0.6587402 0.5725147 0.6587401 0.5758479 0.6574901 0.5775147 0.6587402 0.5775147 0.6587402 0.5791813 0.6624901 0.5775147 0.6624901 0.5775147 0.6624901 0.5791813 0.6587402 0.5825147 0.6587402 0.5825147 0.6574901 0.5825147 0.6624901 0.5725147 0.6624901 0.575848 0.6624901 0.575848 0.6624901 0.5825147 0.6624901 0.5825147 0.6599901 0.5825147 0.6524901 0.5775147 0.6524901 0.5775147 0.6524901 0.575848 0.6587402 0.5725147 0.6587402 0.5725147 0.6599901 0.5725147 0.6524901 0.5825147 0.6524901 0.5791813 0.6524901 0.5791813 0.6599901 0.5825147 0.6599901 0.5825147 0.6587402 0.5825147 0.6549901 0.5725147 0.6549901 0.5725147 0.6574901 0.5725147 0.6549901 0.5825147 0.6524901 0.5825147 0.6524901 0.5825147 0.6574901 0.5725147 0.6574901 0.5725147 0.6587402 0.5725147 0.6524901 0.5725147 0.6549901 0.5725147 0.6549901 0.5725147 0.6624901 0.575848 0.6624901 0.575848 0.6624901 0.5775147 0.6624901 0.5791813 0.6624901 0.5791813 0.6624901 0.5825147 0.6524901 0.5791813 0.6524901 0.5775147 0.6524901 0.5775147 0.6599901 0.5725147 0.6624901 0.5725147 0.6624901 0.5725147 0.6574901 0.5825147 0.6574901 0.5825147 0.6549901 0.5825147 0.6524901 0.575848 0.6524901 0.575848 0.6524901 0.5725147 0.6587402 0.5725147 0.6587402 0.5725147 0.6599901 0.5725147 0.6524901 0.5775147 0.6524901 0.575848 0.6524901 0.575848 0.6624901 0.5825147 0.6624901 0.5825147 0.6599901 0.5825147 0.6624901 0.5725147 0.6624901 0.5725147 0.6624901 0.575848 0.6587402 0.5825147 0.6587402 0.5825147 0.6574901 0.5825147 0.6624901 0.5775147 0.6624901 0.5775147 0.6624901 0.5791813 0.6524901 0.575848 0.6524901 0.5725147 0.6524901 0.5725147 0.6574901 0.5825147 0.6574901 0.5825147 0.6549901 0.5825147 0.6599901 0.5725147 0.6624901 0.5725147 0.6624901 0.5725147 0.6524901 0.5791813 0.6524901 0.5775147 0.6524901 0.5775147 0.6624901 0.5791813 0.6624901 0.5791813 0.6624901 0.5825147 0.6624901 0.575848 0.6624901 0.575848 0.6624901 0.5775147 0.6524901 0.5725147 0.6524901 0.5725147 0.6549901 0.5725147 0.6574901 0.5725147 0.6574901 0.5725147 0.6587402 0.5725147 0.6549901 0.5825147 0.6524901 0.5825147 0.6524901 0.5825147 0.6549901 0.5725147 0.6549901 0.5725147 0.6574901 0.5725147 0.6599901 0.5825147 0.6599901 0.5825147 0.6587402 0.5825147 0.6524901 0.5825147 0.6524901 0.5791813 0.6524901 0.5791813 0.5418726 0.8539165 0.5443726 0.8539165 0.5443726 0.8505831 0.5418726 0.8572498 0.5418726 0.8605831 0.5443726 0.8605831 0.6131176 0.8592743 0.6131176 0.8576077 0.6131176 0.8576077 0.6193677 0.8542743 0.6193677 0.8542743 0.6206176 0.8542743 0.6131176 0.8642743 0.6131176 0.860941 0.6131176 0.860941 0.6206176 0.8642743 0.6193677 0.8642743 0.6193677 0.8642743 0.6156176 0.8542743 0.6156176 0.8542743 0.6181176 0.8542743 0.6156176 0.8642743 0.6131176 0.8642743 0.6131176 0.8642743 0.6181176 0.8542743 0.6181176 0.8542743 0.6193677 0.8542743 0.6131176 0.8542743 0.6156176 0.8542743 0.6156176 0.8542743 0.6231176 0.8576077 0.6231176 0.8576077 0.6231176 0.8592743 0.6231176 0.860941 0.6231176 0.860941 0.6231176 0.8642743 0.6131176 0.860941 0.6131176 0.8592743 0.6131176 0.8592743 0.6206176 0.8542743 0.6231176 0.8542743 0.6231176 0.8542743 0.6181176 0.8642743 0.6181176 0.8642743 0.6156176 0.8642743 0.6131176 0.8576077 0.6131176 0.8542743 0.6131176 0.8542743 0.6231176 0.8592743 0.6231176 0.8592743 0.6231176 0.860941 0.6193677 0.8642743 0.6181176 0.8642743 0.6181176 0.8642743 0.6231176 0.8542743 0.6231176 0.8542743 0.6231176 0.8576077 0.6231176 0.8642743 0.6231176 0.8642743 0.6206176 0.8642743 0.6181176 0.8642743 0.6156176 0.8642743 0.6156176 0.8642743 0.6131176 0.8576077 0.6131176 0.8542743 0.6131176 0.8542743 0.6231176 0.8592743 0.6231176 0.8592743 0.6231176 0.860941 0.6193677 0.8642743 0.6181176 0.8642743 0.6181176 0.8642743 0.6231176 0.8542743 0.6231176 0.8542743 0.6231176 0.8576077 0.6231176 0.8642743 0.6206176 0.8642743 0.6206176 0.8642743 0.6131176 0.8592743 0.6131176 0.8576077 0.6131176 0.8576077 0.6193677 0.8542743 0.6206176 0.8542743 0.6206176 0.8542743 0.6131176 0.8642743 0.6131176 0.8642743 0.6131176 0.860941 0.6206176 0.8642743 0.6193677 0.8642743 0.6193677 0.8642743 0.6156176 0.8542743 0.6156176 0.8542743 0.6181176 0.8542743 0.6156176 0.8642743 0.6131176 0.8642743 0.6131176 0.8642743 0.6181176 0.8542743 0.6193677 0.8542743 0.6193677 0.8542743 0.6131176 0.8542743 0.6131176 0.8542743 0.6156176 0.8542743 0.6231176 0.8576077 0.6231176 0.8576077 0.6231176 0.8592743 0.6231176 0.860941 0.6231176 0.860941 0.6231176 0.8642743 0.6131176 0.860941 0.6131176 0.860941 0.6131176 0.8592743 0.6206176 0.8542743 0.6231176 0.8542743 0.6231176 0.8542743 0.5418725 0.8555831 0.5418726 0.8572498 0.5443726 0.8572498 0.5343726 0.8572498 0.5368726 0.8572498 0.5368726 0.8555831 0.5368726 0.8555831 0.5368726 0.8572498 0.5393726 0.8572498 0.5406226 0.8555832 0.5406226 0.8572498 0.5418726 0.8572498 0.5343726 0.8539165 0.5368726 0.8539165 0.5368726 0.8505831 0.5368726 0.8539165 0.5393726 0.8539165 0.5393726 0.8505831 0.5406226 0.8505831 0.5406225 0.8539164 0.5418726 0.8539165 0.5343726 0.8605831 0.5368726 0.8605831 0.5368726 0.8572498 0.5368726 0.8605831 0.5393726 0.8605831 0.5393726 0.8572498 0.5406226 0.8572498 0.5406226 0.8605831 0.5418726 0.8605831 0.5406225 0.8539164 0.5406226 0.8555832 0.5418725 0.8555831 0.5368726 0.8539165 0.5368726 0.8555831 0.5393726 0.8555831 0.5343726 0.8555831 0.5368726 0.8555831 0.5368726 0.8539165 0.5418726 0.8539165 0.5418725 0.8555831 0.5443726 0.8555831 0.5393726 0.8539165 0.5393726 0.8555831 0.5406226 0.8555832 0.5393726 0.8572498 0.5393726 0.8605831 0.5406226 0.8605831 0.5393726 0.8505831 0.5393726 0.8539165 0.5406225 0.8539164 0.5393726 0.8555831 0.5393726 0.8572498 0.5406226 0.8572498</float_array>
          <technique_common>
            <accessor source="#Plane_006-mesh-map-0-array" count="672" stride="2">
              <param name="S" type="float"/>
              <param name="T" type="float"/>
            </accessor>
          </technique_common>
        </source>
        <vertices id="Plane_006-mesh-vertices">
          <input semantic="POSITION" source="#Plane_006-mesh-positions"/>
        </vertices>
        <triangles count="224">
          <input semantic="VERTEX" source="#Plane_006-mesh-vertices" offset="0"/>
          <input semantic="NORMAL" source="#Plane_006-mesh-normals" offset="1"/>
          <input semantic="TEXCOORD" source="#Plane_006-mesh-map-0" offset="2" set="0"/>
          <p>17 0 0 3 1 1 11 2 2 1 3 3 14 4 4 10 5 5 24 6 6 7 7 7 17 8 8 22 9 9 4 10 10 20 11 11 22 12 12 18 13 13 19 14 14 29 15 15 17 16 16 28 17 17 0 18 18 16 19 19 5 20 20 8 21 21 15 22 22 16 23 23 10 24 24 27 25 25 25 26 26 19 27 27 2 28 28 4 29 29 18 30 30 13 31 31 19 32 32 17 33 33 26 34 34 28 35 35 27 36 36 24 37 37 29 38 38 16 39 39 23 40 40 22 41 41 16 42 42 20 43 43 5 44 44 6 45 45 24 46 46 14 47 47 15 48 48 29 49 49 23 50 50 28 51 51 12 52 52 18 53 53 9 54 54 27 55 55 15 56 56 23 57 57 28 58 58 18 59 59 41 60 60 52 61 61 34 62 62 46 63 63 67 64 64 47 65 65 51 66 66 40 67 67 33 68 68 35 69 69 65 70 70 45 71 71 39 72 72 48 73 73 30 74 74 44 75 75 50 76 76 32 77 77 55 78 78 38 79 79 37 80 80 45 81 81 66 82 82 46 83 83 42 84 84 63 85 85 43 86 86 54 87 87 37 88 88 36 89 89 43 90 90 64 91 91 44 92 92 49 93 93 42 94 94 31 95 95 40 96 96 59 97 97 41 98 98 34 99 99 53 100 100 35 101 101 56 102 102 39 103 103 38 104 104 50 105 105 33 106 106 32 107 107 47 65 108 54 108 109 36 109 110 30 110 111 49 111 112 31 112 113 25 113 114 32 114 115 10 115 116 39 116 117 5 117 118 20 118 119 3 119 120 45 120 121 11 121 122 1 122 123 40 123 124 6 124 125 26 125 126 47 126 127 12 127 128 21 128 129 34 129 130 7 130 131 30 131 132 0 132 133 5 133 134 12 134 135 36 135 136 13 136 137 32 137 138 1 138 139 10 139 140 38 140 141 20 141 142 4 142 143 7 143 144 35 144 145 3 145 146 6 146 147 41 147 148 21 148 149 0 149 150 42 150 151 8 151 152 9 152 153 44 153 154 25 154 155 36 155 156 2 156 157 13 157 158 8 158 159 43 159 160 9 160 161 11 161 162 46 162 163 26 163 164 37 164 165 4 165 166 2 166 167 104 167 168 74 168 169 75 169 170 107 170 171 72 171 172 73 172 173 87 173 174 48 174 175 57 175 176 64 176 177 80 177 178 50 178 179 85 179 180 56 180 181 55 181 182 93 182 183 66 183 184 65 184 185 62 185 186 91 186 187 63 187 188 84 188 189 55 189 190 54 190 191 63 191 192 92 192 193 64 193 194 79 194 195 62 195 196 49 196 197 58 197 198 89 198 199 59 199 200 52 200 201 83 201 202 53 202 203 86 203 204 57 204 205 56 205 206 80 206 207 51 207 208 50 208 209 67 209 210 84 210 211 54 211 212 78 212 213 49 213 214 48 214 215 59 215 216 82 216 217 52 217 218 94 218 219 67 219 220 66 220 221 51 221 222 88 222 223 58 223 224 53 224 225 93 225 226 65 226 227 103 227 228 84 228 229 95 229 230 77 230 231 79 231 232 78 232 233 89 233 234 73 234 235 82 235 236 102 236 237 95 237 238 94 238 239 81 239 240 61 240 241 88 241 242 72 242 243 93 243 244 83 244 245 68 245 246 78 246 247 87 247 248 100 248 249 80 249 250 92 250 251 85 251 252 69 252 253 86 253 254 101 254 255 94 255 256 93 256 257 90 257 258 99 258 259 91 259 260 71 260 261 85 261 262 84 262 263 99 263 264 92 264 265 91 265 266 79 266 267 98 267 268 90 268 269 88 269 270 60 270 271 89 271 272 82 272 273 72 273 274 83 274 275 86 275 276 68 276 277 87 277 278 75 278 279 81 279 280 80 280 281 112 281 282 73 172 283 60 282 284 69 283 285 110 284 286 68 285 287 110 286 288 109 287 289 111 288 290 113 289 291 107 170 292 112 281 293 77 290 294 98 291 295 76 292 296 96 293 297 99 294 298 98 295 299 100 296 300 104 297 301 75 298 302 70 299 303 97 300 304 69 301 305 71 302 306 109 303 307 97 304 308 108 305 309 101 306 310 107 170 311 105 307 312 112 308 313 104 309 314 96 310 315 111 311 316 106 312 317 68 313 318 96 314 319 77 315 320 104 167 321 60 282 322 61 316 323 106 317 324 113 318 325 105 307 326 109 319 327 102 320 328 108 321 329 99 322 330 105 323 331 100 296 332 111 324 333 108 325 334 113 326 335 17 0 336 7 327 337 3 1 338 1 3 339 6 328 340 14 4 341 24 6 342 21 329 343 7 7 344 22 9 345 19 330 346 4 10 347 22 12 348 23 331 349 18 13 350 29 15 351 24 332 352 17 16 353 0 18 354 8 333 355 16 19 356 8 21 357 9 334 358 15 22 359 10 24 360 14 335 361 27 25 362 19 27 363 13 336 364 2 28 365 18 30 366 12 337 367 13 31 368 17 33 369 11 338 370 26 34 371 27 36 372 14 339 373 24 37 374 16 39 375 15 340 376 23 40 377 16 42 378 22 341 379 20 43 380 6 45 381 21 342 382 24 46 383 15 48 384 27 343 385 29 49 386 28 51 387 26 344 388 12 52 389 9 54 390 25 345 391 27 55 392 23 57 393 29 346 394 28 58 395 41 60 396 59 347 397 52 61 398 46 63 399 66 348 400 67 64 401 51 66 402 58 349 403 40 67 404 35 69 405 53 350 406 65 70 407 39 72 408 57 351 409 48 73 410 44 75 411 64 352 412 50 76 413 55 78 414 56 353 415 38 79 416 45 81 417 65 354 418 66 82 419 42 84 420 62 355 421 63 85 422 54 87 423 55 356 424 37 88 425 43 90 426 63 357 427 64 91 428 49 93 429 62 358 430 42 94 431 40 96 432 58 359 433 59 97 434 34 99 435 52 360 436 53 100 437 56 102 438 57 361 439 39 103 440 50 105 441 51 362 442 33 106 443 47 65 444 67 64 445 54 108 446 30 110 447 48 363 448 49 111 449 25 113 450 44 364 451 32 114 452 39 116 453 30 365 454 5 117 455 3 119 456 35 366 457 45 120 458 1 122 459 33 367 460 40 123 461 26 125 462 46 368 463 47 126 464 21 128 465 41 369 466 34 129 467 30 131 468 31 370 469 0 132 470 12 134 471 47 371 472 36 135 473 32 137 474 33 372 475 1 138 476 38 140 477 39 373 478 20 141 479 7 143 480 34 374 481 35 144 482 6 146 483 40 375 484 41 147 485 0 149 486 31 376 487 42 150 488 9 152 489 43 377 490 44 153 491 36 155 492 37 378 493 2 156 494 8 158 495 42 379 496 43 159 497 11 161 498 45 380 499 46 162 500 37 164 501 38 381 502 4 165 503 104 167 504 61 316 505 74 168 506 107 170 507 101 306 508 72 171 509 87 173 510 78 382 511 48 174 512 64 176 513 92 383 514 80 177 515 85 179 516 86 384 517 56 180 518 93 182 519 94 385 520 66 183 521 62 185 522 90 386 523 91 186 524 84 188 525 85 387 526 55 189 527 63 191 528 91 388 529 92 192 530 79 194 531 90 389 532 62 195 533 58 197 534 88 390 535 89 198 536 52 200 537 82 391 538 83 201 539 86 203 540 87 392 541 57 204 542 80 206 543 81 393 544 51 207 545 67 209 546 95 394 547 84 210 548 78 212 549 79 395 550 49 213 551 59 215 552 89 396 553 82 216 554 94 218 555 95 397 556 67 219 557 51 221 558 81 398 559 88 222 560 53 224 561 83 399 562 93 225 563 103 227 564 71 400 565 84 228 566 77 230 567 76 401 568 79 231 569 89 233 570 60 402 571 73 234 572 102 236 573 103 403 574 95 237 575 81 239 576 74 404 577 61 240 578 72 242 579 101 405 580 93 243 581 68 245 582 77 406 583 78 246 584 100 248 585 75 407 586 80 249 587 85 251 588 70 408 589 69 252 590 101 254 591 102 409 592 94 255 593 90 257 594 98 410 595 99 258 596 71 260 597 70 411 598 85 261 599 99 263 600 100 412 601 92 264 602 79 266 603 76 413 604 98 267 605 88 269 606 61 414 607 60 270 608 82 272 609 73 415 610 72 273 611 86 275 612 69 416 613 68 276 614 75 278 615 74 417 616 81 279 617 112 281 618 107 170 619 73 172 620 69 283 621 97 418 622 110 284 623 110 286 624 97 419 625 109 287 626 113 289 627 108 305 628 107 170 629 77 290 630 96 420 631 98 291 632 96 293 633 106 421 634 99 294 635 100 296 636 105 323 637 104 297 638 70 299 639 71 422 640 97 300 641 71 302 642 103 423 643 109 303 644 108 305 645 102 424 646 101 306 647 105 307 648 113 318 649 112 308 650 96 310 651 110 425 652 111 311 653 68 313 654 110 426 655 96 314 656 104 167 657 112 281 658 60 282 659 106 317 660 111 427 661 113 318 662 109 319 663 103 428 664 102 320 665 99 322 666 106 429 667 105 323 668 111 324 669 109 430 670 108 325 671</p>
        </triangles>
      </mesh>
    </geometry>
    <geometry id="Plane-mesh" name="Plane">
      <mesh>
        <source id="Plane-mesh-positions">
          <float_array id="Plane-mesh-positions-array" count="342">-131.591 0.6623287 161.4757 67.91958 0.3839436 184.0342 -109.8307 51.64484 -79.41585 154.8982 23.45391 -132.8994 -119.737 48.69196 -15.62363 -130.4966 9.575597 106.2566 80.16522 9.881672 118.3994 118.3805 23.11262 26.48593 -103.7538 3.394255 172.8535 -48.45004 14.75493 191.8938 27.5416 20.66205 195.6422 100.3272 30.0033 -183.3377 -47.40048 57.80364 -135.1954 -92.14479 64.12935 -109.8441 45.91137 23.9877 129.6836 -47.68865 14.88294 121.3602 -99.94361 10.02252 106.8895 70.38162 43.727 -20.14029 -33.55047 64.73754 -40.38631 -85.52658 68.15913 -53.02674 -113.5686 18.14564 57.5357 94.77024 11.58349 73.90476 -78.71739 20.51872 39.95148 -38.58887 21.61845 49.9331 48.46199 18.97056 63.67584 -10.70281 16.06985 195.9096 22.18584 48.88567 -176.2769 1.631439 20.32796 128.1242 12.53897 66.23155 -30.47137 5.071632 22.57548 60.32528 -127.9691 -3.166821 107.8351 -130.5975 -12.5535 161.7687 27.34431 4.712772 192.7054 67.60957 -16.44331 185.9521 117.8219 5.867445 28.69396 149.7103 6.818939 -126.5802 -91.39641 42.35193 -109.1984 -125.761 18.21004 -68.07611 -119.7502 23.11282 -11.93153 -113.3346 3.680668 59.22938 79.873 -5.891193 120.8482 94.16975 -3.818979 75.96139 -104.7605 -11.3047 166.0476 -48.27228 -1.21933 177.8194 -9.966988 0.1109428 186.3654 98.35169 10.3884 -175.5008 26.84013 28.38765 -174.9106 -45.27302 36.77727 -133.754 -119.7024 -7.560911 106.3832 -123.8353 -16.44625 153.9768 24.31211 -4.467579 183.7203 64.21058 -22.80233 178.883 106.0133 -2.313435 30.47117 137.994 1.239048 -115.7675 -85.46272 36.19342 -101.2397 -119.5678 6.38731 -62.80191 -113.4173 8.325861 -5.409142 -107.1666 -2.576458 59.96281 72.66663 -11.81662 118.4183 87.05172 -9.610835 75.47676 90.05825 -45.45512 86.43953 85.42484 -45.45512 133.0952 -101.1222 -15.50502 155.6863 -48.27663 -7.196869 162.4129 -10.5338 -6.616907 174.0697 94.70889 1.636766 -162.7631 33.06628 21.3264 -165.7829 -39.20164 28.09675 -124.5334 -118.5627 -45.45512 62.07801 -135.7231 -45.45512 2.334839 -123.2388 -45.45512 -66.33946 -83.72411 -45.45512 -91.88629 108.0794 -45.45512 -77.99858 112.7641 -45.45512 41.48217 69.81443 -45.45512 194.2453 24.75118 -45.45512 193.3567 -127.1823 -45.45512 166.7015 -123.0541 -45.45512 112.461 -115.5298 -22.22162 108.5028 -120.9576 -29.30087 154.1866 21.45794 -29.01543 181.6743 64.34169 -36.87411 182.1287 104.4901 -25.21454 37.38834 112.5393 -23.6167 -87.03118 -85.2705 -10.92751 -85.96044 -117.7776 -29.12901 -57.37063 -122.4052 -24.68853 2.956657 -108.3643 -22.82524 61.72531 73.81235 -27.78223 123.2896 84.45302 -27.68501 80.63605 -99.0884 -29.96629 152.5966 -48.50448 -26.10957 150.4342 -9.688303 -26.26632 165.2092 74.44167 -26.86292 -117.974 20.80309 -19.53007 -110.4704 -32.14802 -11.66742 -101.7199 -92.48228 -40.8347 111.2366 -101.9156 -42.35029 -29.7887 -99.40687 -45.45512 163.9566 -46.3054 -45.45512 160.0944 -8.198578 -45.45512 172.671 61.89144 -45.45512 -102.2512 5.586143 -45.45512 -104.8314 -38.55146 -45.45512 -100.9419 38.07554 -44.43774 135.9162 -1.088295 -44.54992 127.9385 -44.01008 -44.95278 120.6499 64.1564 -45.18558 10.03021 10.66406 -43.96845 -3.668991 -39.86281 -40.85496 -21.64692 -86.02945 -45.28929 44.71665 -39.9386 -44.55698 51.58897 46.42939 -44.72467 72.299 3.945198 -44.68973 62.53186</float_array>
          <technique_common>
            <accessor source="#Plane-mesh-positions-array" count="114" stride="3">
              <param name="X" type="float"/>
              <param name="Y" type="float"/>
              <param name="Z" type="float"/>
            </accessor>
          </technique_common>
        </source>
        <source id="Plane-mesh-normals">
          <float_array id="Plane-mesh-normals-array" count="1293">0.294551 0.954369 0.04918843 0.2013552 0.979196 -0.02512842 0.1664735 0.9846604 -0.05225586 0.465967 0.8648365 0.1869028 0.4481273 0.8719454 0.197214 0.4819377 0.8580415 0.1774848 0.09990394 0.9506614 0.2937041 0.1021161 0.9491829 0.2976983 0.1074824 0.9454983 0.3073769 0.09076029 0.9136729 0.3961877 0.02113288 0.8979426 0.4396049 0.1257063 0.9191973 0.3731948 -0.1077812 0.8953156 0.4321957 -0.07091462 0.8901644 0.4500873 -0.05309128 0.8871374 0.4584417 0.1341222 0.9262155 0.3523294 0.2064706 0.8920281 0.4020644 0.2576727 0.8623588 0.4358237 -0.1040942 0.9885586 0.1091629 -0.05319809 0.9889005 0.1387295 -0.01773315 0.9871215 0.158986 -0.1663609 0.9853053 0.03870052 -0.1555585 0.9865231 0.0507338 -0.1175979 0.9887384 0.09255897 -0.1065797 0.9936529 0.0359835 -0.09466898 0.9950133 0.03140598 -0.1188393 0.9920791 0.04069596 -0.5418049 0.8400793 -0.02672499 -0.5537403 0.832616 -0.01106208 -0.5291783 0.847423 -0.04294973 0.08803039 0.9926577 -0.08295404 0.08958905 0.9924077 -0.08426672 0.0849148 0.9931448 -0.08033007 0.3314276 0.9407887 -0.07122093 0.2640821 0.9632193 -0.04969179 0.3744348 0.9233425 -0.08507263 -0.02032345 0.9991519 -0.03581172 0.02150899 0.999754 -0.00542736 0.07989525 0.9961137 0.0370748 -0.09623116 0.9905229 0.09800124 -0.08272504 0.9902039 0.1124854 -0.06086891 0.9888706 0.1357578 -0.008421719 0.9863142 0.1646618 0.00520879 0.9869405 0.1610018 -0.01788288 0.9857637 0.1671831 0.2790355 0.9602783 -0.002164661 0.2366613 0.9712905 0.02421301 0.36418 0.9296081 -0.0565856 -0.08729273 0.9949303 0.04993778 -0.0695796 0.995436 0.06531322 -0.04285097 0.9951645 0.08838391 0.01446205 0.9959774 -0.08843106 0.04516762 0.9933617 -0.105795 -0.01717817 0.9973686 -0.07043355 -0.06798285 0.9971155 0.03375071 -0.08786201 0.9959693 0.01803845 -0.1098186 0.9939515 6.18488e-4 -0.1201177 0.8985225 0.4221719 -0.1200184 0.8985095 0.4222279 -0.1199633 0.8985023 0.4222589 0.6144208 -0.7774754 0.1342353 0.5813819 -0.8040095 0.1247553 0.577617 -0.8068842 0.1236799 -0.329509 -0.8370358 -0.4368008 -0.3782888 -0.7893553 -0.483545 -0.3709865 -0.7891705 -0.489468 0.8322589 -0.5506635 0.064148 0.6643819 -0.7464165 -0.03819942 0.8437219 -0.5318306 0.0727294 0.2595851 -0.9296563 -0.2614473 0.3575598 -0.8318975 -0.4243793 0.3728769 -0.8111014 -0.4506412 -0.6537625 -0.7113998 -0.2578857 -0.50717 -0.8203924 -0.2640743 -0.4884546 -0.8316235 -0.2642245 -0.07179677 -0.8443173 0.531012 -0.04548192 -0.732771 0.6789537 -0.03694707 -0.6927299 0.7202501 -0.9059265 -0.4032045 0.1293187 -0.9267519 -0.3578531 0.1143332 -0.9010799 -0.4129067 0.132526 -0.2179523 -0.7814897 -0.5846114 -0.215507 -0.8317462 -0.5116199 -0.215052 -0.8379662 -0.5015628 0.09185826 -0.9145452 0.3939152 0.09087753 -0.9264985 0.3651602 0.09070092 -0.9284536 0.3602047 -0.1320449 -0.7952711 -0.5916993 -0.3556197 -0.5696052 -0.7410025 -0.09693396 -0.8208264 -0.5628924 -0.09304749 -0.9181444 0.3851664 -0.08169388 -0.8869656 0.4545528 -0.07705956 -0.8731545 0.4813141 -0.01825952 -0.9091352 0.416101 5.05805e-4 -0.9203035 0.3912053 -0.02717638 -0.9034743 0.4277801 0.5973103 -0.7861008 0.1589533 0.6138155 -0.7729645 0.1604878 0.6163364 -0.7709081 0.1607181 0.5740416 -0.8119138 0.1061704 0.5027918 -0.8588657 0.09772551 0.4997522 -0.8606795 0.09735918 -0.905252 -0.4238637 -0.02930235 -0.7360246 -0.6752803 -0.04758697 -0.9143795 -0.4038991 -0.02785587 -0.2170204 -0.6486819 0.7294614 -0.2208042 -0.665413 0.7130715 -0.2162935 -0.6454873 0.7325049 -0.3331593 -0.8406905 -0.4269012 -0.3241054 -0.8497095 -0.4158717 -0.5019545 -0.8420717 -0.1973753 -0.6155662 -0.770288 -0.1665381 -0.6266655 -0.7620159 -0.1631631 -0.05468785 -0.4365679 0.8980077 -0.001389026 -0.2758413 0.9612022 0.02865076 -0.181355 0.9830003 -0.9396312 -0.07845729 -0.333073 -0.9288789 -0.1957167 -0.3144503 -0.9401836 -0.05458223 -0.3362674 0.6053326 -0.4246199 -0.6732536 0.6130909 -0.3592711 -0.7035936 0.6143089 -0.3453363 -0.7094839 0.9826372 0.00402069 0.1854941 0.9826998 0.009484648 0.1849633 0.982708 0.01049351 0.1848646 -0.5051974 -0.1621701 -0.8476299 -0.5140155 -0.1193746 -0.8494338 -0.5157302 -0.1104236 -0.8496053 0.8919101 0.02608764 0.4514595 0.8919702 0.02834612 0.4512047 0.8919835 0.02886933 0.4511454 -0.9814388 -0.1842733 -0.05311518 -0.9938288 -0.09299516 -0.0604676 -0.9783318 -0.2004717 -0.05174911 -0.4822435 -0.09255474 -0.8711343 -0.4925969 -0.05830949 -0.8683021 -0.4970761 -0.0427789 -0.8666519 0.1940701 -0.1289259 0.9724788 0.2143708 0.05601596 0.9751448 0.1871538 -0.1801256 0.965675 -0.9959242 0.01155728 0.08945035 -0.9960779 -0.002798616 0.08843743 -0.9958887 0.01344639 0.08958226 0.9791027 -0.01924997 0.202453 0.9548355 -0.2029364 0.2170394 0.9522057 -0.2142617 0.2177066 0.9516991 0.02490293 0.3060205 0.9504947 0.009501039 0.3105955 0.9500619 0.004623949 0.3120272 -0.2203808 -0.1244996 0.9674359 -0.2830758 -0.2847764 0.9158442 -0.3176665 -0.3803987 0.8685533 -0.1237924 -0.618317 0.7761182 -0.09536969 -0.5610474 0.8222714 -0.07298487 -0.5143716 0.8544561 -0.8443093 0.03814482 -0.5344969 -0.8230469 0.1352492 -0.5516354 -0.8556293 -0.04469311 -0.5156559 -0.1170239 -0.4597574 0.8803002 -0.1209765 -0.62291 0.7728828 -0.121233 -0.6569634 0.7441114 -0.1009554 -0.32058 -0.9418262 -0.1101495 -0.1297202 -0.9854135 -0.1114712 -0.09126698 -0.9895679 -0.949558 0.3059629 -0.06875032 -0.9884998 0.1487803 0.02706617 -0.9114676 0.3924348 -0.1233767 -0.01993709 -0.9998013 4.04776e-7 -0.008860647 -0.9998812 -0.01261848 3.47583e-4 -0.9998446 -0.01762837 -0.01728034 -0.9998505 -5.50788e-4 -0.002332687 -0.9999955 0.001897811 -0.005268633 -0.9999859 6.86121e-4 -0.9711076 -0.02795433 -0.2369992 -0.9617605 -0.2138974 -0.1710698 -0.9657664 0.03474861 -0.2570753 -0.3928484 -0.2618043 0.881549 -0.3365406 -0.1659741 0.9269267 -0.2637308 -0.04962509 0.963319 -0.997372 0.06021493 0.04028928 -0.9881658 0.1511632 -0.02604067 -0.9936236 -0.03362601 0.1076173 -0.203899 -0.7721521 -0.6018359 -0.2050361 -0.7724128 -0.6011146 -0.2186658 -0.775431 -0.5923615 0.0370351 -0.2898895 0.9563434 -0.009810388 -0.4824679 0.8758588 -0.02345269 -0.5347265 0.8446998 -0.6175059 -0.2089146 -0.7583147 -0.6137477 -0.1911864 -0.7660038 -0.6241533 -0.2432921 -0.7424565 -0.295858 -0.4773607 0.8274025 -0.2786575 -0.438598 0.8543897 -0.2639896 -0.4059011 0.8749593 -0.02552449 -0.07169222 0.9971002 0.01761013 -0.1330427 0.9909539 -0.07503038 -5.21931e-4 0.9971811 0.9610067 0.09943974 0.2580271 0.9536947 -0.007550954 0.3006818 0.9479067 -0.04632657 0.3151618 0.9891328 -0.1248912 0.07757908 0.8037408 -0.5760027 0.1490693 0.7739412 -0.6141633 0.1543328 -0.9546741 0.2527908 0.1571441 -0.968605 0.1427009 0.2035704 -0.9459661 0.2928267 0.1392868 0.06918042 -0.02802598 0.9972104 0.04495477 0.1353337 0.9897798 0.07815796 -0.09182566 0.9927031 -0.3570885 -0.4086652 -0.8399289 -0.3737859 -0.3903722 -0.8413642 -0.470347 -0.2739335 -0.8388887 -0.9504641 -0.2784043 -0.1382361 -0.961773 -0.2315208 -0.1462559 -0.9474654 -0.2893662 -0.1362962 0.9102372 0.006611764 0.4140347 0.9150348 0.04382175 0.4009876 0.9165362 0.05854409 0.3956438 -0.3452986 -0.6382116 -0.6880807 -0.32333 -0.6187636 -0.7159535 -0.4067202 -0.6894131 -0.5994066 0.9846464 0.05714178 0.1649438 0.981014 0.1102368 0.1595602 0.9801679 0.1187449 0.158652 0.3859017 -0.8433516 -0.3739494 0.3860881 -0.8438824 -0.3725568 0.3872338 -0.8471586 -0.3638302 -0.2529209 0.07625871 -0.964477 -0.2313656 0.1065272 -0.967017 -0.2838616 0.03173005 -0.9583401 -0.9515594 0.2997931 -0.06825584 -0.9491856 0.3066013 -0.07101076 -0.9525032 0.2970354 -0.06714087 0.8193886 0.3993762 0.411219 0.8173232 0.4098572 0.404969 0.8162674 0.414961 0.4018893 -0.1470627 -0.07340353 -0.9863998 -0.1207035 -0.04347425 -0.9917362 -0.1777349 -0.1084237 -0.9780873 0.7066016 0.6832006 0.1842583 0.7494615 0.6270108 0.2125203 0.7561667 0.6173166 0.2170999 0.5183034 -0.5207824 -0.6783416 0.4017128 -0.6532115 -0.6418267 0.5963378 -0.4077776 -0.691447 -0.9194955 0.3722791 -0.1262391 -0.9400392 0.3256017 -0.1015372 -0.9030882 0.4047494 -0.143561 -0.4420682 0.3437327 0.8285068 -0.4632783 0.4036622 0.7889424 -0.4251766 0.2991692 0.8542381 -0.8938632 0.4212522 -0.1534776 -0.8505213 0.5131414 -0.1153239 -0.8358061 0.5391241 -0.1037963 -0.1270395 -0.4770538 -0.8696441 -0.01601558 -0.3251506 -0.9455267 -0.18925 -0.5564396 -0.8090485 0.04568326 0.5570818 0.8292002 0.01693552 0.4818203 0.8761064 0.004146873 0.4471241 0.8944623 -0.642143 0.2157541 -0.7355967 -0.5618909 0.380662 -0.7344217 -0.6864162 0.09304028 -0.7212326 -0.3177226 0.3740541 0.871284 -0.3052958 0.3461165 0.8871291 -0.3258137 0.3924692 0.8601242 0.07818943 0.5902267 0.803442 0.07778388 0.5898687 0.8037442 0.07642251 0.5886652 0.8047565 0.8400304 0.5299541 0.1161801 0.8863033 0.4233616 0.1877007 0.9051893 0.3595401 0.2266349 0.9476717 0.3181591 -0.02633142 0.9907208 -0.1252437 0.05278694 0.9826017 -0.175312 0.06131708 -0.8389928 0.4940428 0.2280632 -0.8767707 0.4330701 0.2091016 -0.8920502 0.405134 0.2002821 0.07766938 0.640909 0.7636774 0.01455378 0.7690301 0.639047 0.09954643 0.589556 0.8015699 -0.01411122 -0.9998918 0.004152774 -0.01678937 -0.9998536 -0.003326833 0.03351062 -0.9988118 -0.03538405 0.01883006 -0.9996577 -0.01816743 0.004419565 -0.9999895 -0.001269459 0.02621918 -0.9984801 -0.04847764 0.02768659 -0.9984896 -0.04745745 0.0233857 -0.998453 -0.05044686 -0.009952604 -0.9999486 -0.001969993 0.1028912 -0.9935699 -0.0472486 0.04611921 -0.9987114 -0.02117836 0 -1 0 -0.03730285 -0.997556 -0.05908149 -0.04232668 -0.997625 -0.05433988 -0.006410598 -0.9960876 -0.08813977 0.007809042 -0.9998185 -0.01738142 0.008044004 -0.9998137 -0.01754742 0.009704291 -0.9998335 -0.01545757 0.06136554 -0.9969177 0.04888397 0.08841991 -0.9955371 0.0329836 0.1103145 -0.9936945 0.0200541 0.01378577 -0.998292 0.05677217 0.01480591 -0.9983133 0.05613654 0.01686054 -0.998352 0.05485606 -0.01788729 -0.9998036 -0.008538067 -6.52486e-4 -0.9999921 0.003922283 0.006144642 -0.9999808 8.26e-4 -1.89218e-4 -0.9999956 0.002979099 0.001894772 -0.9999869 0.004758775 -0.04948127 -0.9985995 0.01872891 -0.02959561 -0.9989039 0.03626519 -0.08260744 -0.996526 -0.01058137 0.07192569 -0.995868 0.05544245 0.1134152 -0.9929943 0.03316074 0.1499461 -0.9886039 0.01336717 -0.01765376 -0.9997993 -0.009472846 0.004970729 -0.9999876 -4.24576e-4 -0.001029789 -0.9999977 0.001885831 -0.04930603 -0.9983835 0.02827221 -0.02111667 -0.9988216 0.04369813 -0.0678969 -0.9975288 0.01806759 0.008829951 -0.9998373 -0.01572906 0.007838845 -0.9998183 -0.01738059 -0.01795953 -0.9994716 -0.02709132 -0.02826601 -0.998933 -0.03652375 -3.00593e-4 -0.9999403 -0.01092511 0.3290157 0.9411473 0.077398 0.4301427 0.8786156 0.2073932 0.09116148 0.9562765 0.2778934 -0.007283329 0.8897355 0.4564184 -0.1293992 0.8976341 0.421318 0.05632811 0.9534204 0.2963389 -0.1341938 0.9867311 0.09139865 -0.2010917 0.9795724 -3.92885e-4 -0.08328461 0.9961592 0.02703154 -0.5677452 0.8231679 0.007748782 0.09156757 0.9920842 -0.08593297 0.2313458 0.9720778 -0.03929412 -0.07936489 0.9937421 -0.07859945 -0.1139574 0.99035 0.07887101 0.01295602 0.9872086 0.1589072 0.1389956 0.9867778 0.08336621 -0.1133751 0.9931808 0.02717095 0.05977618 0.9916784 -0.1140209 -0.04063338 0.9976441 0.05527585 -0.1201742 0.8985299 0.4221401 0.6197254 -0.7729867 0.1357649 -0.3245151 -0.8423451 -0.4302847 0.6440959 -0.763398 -0.04862242 0.2389913 -0.943848 -0.2281103 -0.6731876 -0.6936435 -0.2562757 -0.07945555 -0.8729427 0.4813086 -0.9303631 -0.3492742 0.1114996 -0.218154 -0.7741218 -0.5942594 0.09211069 -0.9111258 0.4017033 -0.3810281 -0.5357494 -0.7535185 -0.09693783 -0.9278878 0.3600379 0.009854316 -0.9254907 0.3786422 0.5945944 -0.7882088 0.1586964 0.577021 -0.8097537 0.1065172 -0.7083629 -0.7040971 -0.04969334 -0.2217321 -0.6695432 0.7089055 -0.4870718 -0.8499252 -0.2009688 -0.08162814 -0.5143207 0.8537045 -0.9246329 -0.2217655 -0.3096355 0.6028868 -0.440669 -0.6650852 0.982623 0.003048419 0.185588 -0.5033072 -0.1707397 -0.8470714 0.8918943 0.02551782 0.4515235 -0.9951797 -0.07617998 -0.06175917 -0.4773335 -0.1080773 -0.8720505 0.2186533 0.1065201 0.9699712 -0.9960839 -0.005782723 0.08822458 0.9795461 -0.00597912 0.2011311 0.9520208 0.02965021 0.3045939 -0.1638267 0.009559988 0.9864429 -0.1427527 -0.6552038 0.7418421 -0.8058326 0.1942276 -0.5593832 -0.1151154 -0.410868 0.9043981 -0.09843063 -0.3606545 -0.9274911 -0.9943397 0.01568317 0.1050841 -0.9465935 -0.2898376 -0.1412624 -0.4580752 -0.3817079 0.8027867 -0.9664606 0.239851 -0.09179013 -0.1904927 -0.7689759 -0.6102365 0.05712389 -0.2009095 0.9779429 -0.6042001 -0.1501269 -0.7825627 -0.3085599 -0.5063104 0.8052582 0.06500661 -0.199747 0.9776888 0.9603404 0.1421109 0.2398975 0.9968496 -0.04700374 0.06388664 -0.9702628 0.07735395 0.2293608 0.03089821 0.2249179 0.9738878 -0.2504081 -0.5148187 -0.8199132 -0.964519 -0.2183377 -0.1484317 0.907527 -0.01063501 0.4198593 -0.2136297 -0.5143831 -0.8305253 0.9850053 0.04743683 0.1658751 0.3843576 -0.838975 -0.3852145 -0.1941029 0.1574855 -0.9682574 -0.9481736 0.3094501 -0.07216447 0.8203789 0.3940879 0.414335 -0.0877797 -0.006301224 -0.99612 0.6964552 0.695227 0.1777909 0.3186144 -0.7282143 -0.6067858 -0.9520686 0.2938743 -0.08487325 -0.4764543 0.4438681 0.7589285 -0.9047161 0.3929872 -0.1644685 0.04447036 -0.237187 -0.9704456 0.05858933 0.5896174 0.8055548 -0.4566808 0.5408137 -0.7063733 -0.296276 0.3260826 0.8977141 0.0793159 0.5912202 0.8026006 0.8118913 0.5782141 0.08062964 0.9275896 0.3718262 -0.03637009 -0.8212093 0.5195914 0.2358814 -0.01146346 0.8135724 0.5813509 0.04509866 -0.9977813 -0.04897534 0.03007078 -0.998498 -0.04579943 0.1464637 -0.986927 -0.06725746 -0.08128041 -0.9965391 -0.01742094 0.03977072 -0.9973134 0.06151562 0.01164782 -0.9982427 0.05810397 -6.74913e-4 -0.9998914 0.01472806 0.005806088 -0.9977107 0.06737619 0.04291468 -0.9965599 0.07089889 -0.001572728 -0.9999818 -0.00582385 0.005110979 -0.9983037 0.05799937 0.01143389 -0.9998619 -0.01206815 -0.04352158 -0.9977763 -0.05048179</float_array>
          <technique_common>
            <accessor source="#Plane-mesh-normals-array" count="431" stride="3">
              <param name="X" type="float"/>
              <param name="Y" type="float"/>
              <param name="Z" type="float"/>
            </accessor>
          </technique_common>
        </source>
        <source id="Plane-mesh-map-0">
          <float_array id="Plane-mesh-map-0-array" count="1344">0.6599901 0.5791813 0.6624901 0.5825147 0.6599901 0.5825147 0.6624901 0.5725147 0.6599901 0.575848 0.6599901 0.5725147 0.6599901 0.5775147 0.6624901 0.5791813 0.6599901 0.5791813 0.6549901 0.5775147 0.6524901 0.5791813 0.6524901 0.5775147 0.6549901 0.5775147 0.6574901 0.5791813 0.6549901 0.5791813 0.6587402 0.5775147 0.6599901 0.5791813 0.6587402 0.5791813 0.6524901 0.5725147 0.6549901 0.575848 0.6524901 0.575848 0.6549901 0.5725147 0.6574901 0.575848 0.6549901 0.575848 0.6599901 0.5725147 0.6587401 0.5758479 0.6587402 0.5725147 0.6549901 0.5791813 0.6524901 0.5825147 0.6524901 0.5791813 0.6574901 0.5791813 0.6549901 0.5825147 0.6549901 0.5791813 0.6599901 0.5791813 0.6587402 0.5825147 0.6587402 0.5791813 0.6587401 0.5758479 0.6599901 0.5775147 0.6587402 0.5775147 0.6549901 0.575848 0.6574901 0.5775147 0.6549901 0.5775147 0.6549901 0.575848 0.6524901 0.5775147 0.6524901 0.575848 0.6624901 0.575848 0.6599901 0.5775147 0.6599901 0.575848 0.6574901 0.575848 0.6587402 0.5775147 0.6574901 0.5775147 0.6587402 0.5791813 0.6574901 0.5825147 0.6574901 0.5791813 0.6574901 0.5725147 0.6587401 0.5758479 0.6574901 0.575848 0.6574901 0.5775147 0.6587402 0.5791813 0.6574901 0.5791813 0.6624901 0.5775147 0.6624901 0.5791813 0.6624901 0.5791813 0.6587402 0.5825147 0.6574901 0.5825147 0.6574901 0.5825147 0.6624901 0.5725147 0.6624901 0.575848 0.6624901 0.5725147 0.6624901 0.5825147 0.6599901 0.5825147 0.6599901 0.5825147 0.6524901 0.5775147 0.6524901 0.575848 0.6524901 0.575848 0.6587402 0.5725147 0.6599901 0.5725147 0.6599901 0.5725147 0.6524901 0.5825147 0.6524901 0.5791813 0.6524901 0.5825147 0.6599901 0.5825147 0.6587402 0.5825147 0.6587402 0.5825147 0.6549901 0.5725147 0.6574901 0.5725147 0.6574901 0.5725147 0.6549901 0.5825147 0.6524901 0.5825147 0.6549901 0.5825147 0.6574901 0.5725147 0.6587402 0.5725147 0.6587402 0.5725147 0.6524901 0.5725147 0.6549901 0.5725147 0.6524901 0.5725147 0.6624901 0.575848 0.6624901 0.5775147 0.6624901 0.5775147 0.6624901 0.5791813 0.6624901 0.5825147 0.6624901 0.5825147 0.6524901 0.5791813 0.6524901 0.5775147 0.6524901 0.5791813 0.6599901 0.5725147 0.6624901 0.5725147 0.6599901 0.5725147 0.6574901 0.5825147 0.6549901 0.5825147 0.6549901 0.5825147 0.6524901 0.575848 0.6524901 0.5725147 0.6524901 0.5725147 0.6587402 0.5725147 0.6599901 0.5725147 0.6599901 0.5725147 0.6524901 0.5775147 0.6524901 0.575848 0.6524901 0.5775147 0.6624901 0.5825147 0.6599901 0.5825147 0.6599901 0.5825147 0.6624901 0.5725147 0.6624901 0.575848 0.6624901 0.575848 0.6587402 0.5825147 0.6574901 0.5825147 0.6574901 0.5825147 0.6624901 0.5775147 0.6624901 0.5791813 0.6624901 0.5791813 0.6524901 0.575848 0.6524901 0.5725147 0.6524901 0.575848 0.6574901 0.5825147 0.6549901 0.5825147 0.6549901 0.5825147 0.6599901 0.5725147 0.6624901 0.5725147 0.6599901 0.5725147 0.6524901 0.5791813 0.6524901 0.5775147 0.6524901 0.5791813 0.6624901 0.5791813 0.6624901 0.5825147 0.6624901 0.5825147 0.6624901 0.575848 0.6624901 0.5775147 0.6624901 0.5775147 0.6524901 0.5725147 0.6549901 0.5725147 0.6549901 0.5725147 0.6574901 0.5725147 0.6587402 0.5725147 0.6587402 0.5725147 0.6549901 0.5825147 0.6524901 0.5825147 0.6549901 0.5825147 0.6549901 0.5725147 0.6574901 0.5725147 0.6574901 0.5725147 0.6599901 0.5825147 0.6587402 0.5825147 0.6587402 0.5825147 0.6524901 0.5825147 0.6524901 0.5791813 0.6524901 0.5825147 0.5418726 0.8539165 0.5443726 0.8505831 0.5418726 0.8505831 0.5418726 0.8572498 0.5443726 0.8605831 0.5443726 0.8572498 0.6131176 0.8592743 0.6131176 0.8576077 0.6131176 0.8592743 0.6193677 0.8542743 0.6206176 0.8542743 0.6206176 0.8542743 0.6131176 0.8642743 0.6131176 0.860941 0.6131176 0.8642743 0.6206176 0.8642743 0.6193677 0.8642743 0.6206176 0.8642743 0.6156176 0.8542743 0.6181176 0.8542743 0.6181176 0.8542743 0.6156176 0.8642743 0.6131176 0.8642743 0.6156176 0.8642743 0.6181176 0.8542743 0.6193677 0.8542743 0.6193677 0.8542743 0.6131176 0.8542743 0.6156176 0.8542743 0.6131176 0.8542743 0.6231176 0.8576077 0.6231176 0.8592743 0.6231176 0.8592743 0.6231176 0.860941 0.6231176 0.8642743 0.6231176 0.8642743 0.6131176 0.860941 0.6131176 0.8592743 0.6131176 0.860941 0.6206176 0.8542743 0.6231176 0.8542743 0.6206176 0.8542743 0.6181176 0.8642743 0.6156176 0.8642743 0.6156176 0.8642743 0.6131176 0.8576077 0.6131176 0.8542743 0.6131176 0.8576077 0.6231176 0.8592743 0.6231176 0.860941 0.6231176 0.860941 0.6193677 0.8642743 0.6181176 0.8642743 0.6193677 0.8642743 0.6231176 0.8542743 0.6231176 0.8576077 0.6231176 0.8576077 0.6231176 0.8642743 0.6206176 0.8642743 0.6206176 0.8642743 0.6181176 0.8642743 0.6156176 0.8642743 0.6181176 0.8642743 0.6131176 0.8576077 0.6131176 0.8542743 0.6131176 0.8576077 0.6231176 0.8592743 0.6231176 0.860941 0.6231176 0.860941 0.6193677 0.8642743 0.6181176 0.8642743 0.6193677 0.8642743 0.6231176 0.8542743 0.6231176 0.8576077 0.6231176 0.8576077 0.6231176 0.8642743 0.6206176 0.8642743 0.6231176 0.8642743 0.6131176 0.8592743 0.6131176 0.8576077 0.6131176 0.8592743 0.6193677 0.8542743 0.6206176 0.8542743 0.6193677 0.8542743 0.6131176 0.8642743 0.6131176 0.860941 0.6131176 0.860941 0.6206176 0.8642743 0.6193677 0.8642743 0.6206176 0.8642743 0.6156176 0.8542743 0.6181176 0.8542743 0.6181176 0.8542743 0.6156176 0.8642743 0.6131176 0.8642743 0.6156176 0.8642743 0.6181176 0.8542743 0.6193677 0.8542743 0.6181176 0.8542743 0.6131176 0.8542743 0.6156176 0.8542743 0.6156176 0.8542743 0.6231176 0.8576077 0.6231176 0.8592743 0.6231176 0.8592743 0.6231176 0.860941 0.6231176 0.8642743 0.6231176 0.8642743 0.6131176 0.860941 0.6131176 0.8592743 0.6131176 0.8592743 0.6206176 0.8542743 0.6231176 0.8542743 0.6206176 0.8542743 0.5418725 0.8555831 0.5443726 0.8572498 0.5443726 0.8555831 0.5343726 0.8572498 0.5368726 0.8555831 0.5343726 0.8555831 0.5368726 0.8555831 0.5393726 0.8572498 0.5393726 0.8555831 0.5406226 0.8555832 0.5418726 0.8572498 0.5418725 0.8555831 0.5343726 0.8539165 0.5368726 0.8505831 0.5343726 0.8505831 0.5368726 0.8539165 0.5393726 0.8505831 0.5368726 0.8505831 0.5406226 0.8505831 0.5418726 0.8539165 0.5418726 0.8505831 0.5343726 0.8605831 0.5368726 0.8572498 0.5343726 0.8572498 0.5368726 0.8605831 0.5393726 0.8572498 0.5368726 0.8572498 0.5406226 0.8572498 0.5418726 0.8605831 0.5418726 0.8572498 0.5406225 0.8539164 0.5418725 0.8555831 0.5418726 0.8539165 0.5368726 0.8539165 0.5393726 0.8555831 0.5393726 0.8539165 0.5343726 0.8555831 0.5368726 0.8539165 0.5343726 0.8539165 0.5418726 0.8539165 0.5443726 0.8555831 0.5443726 0.8539165 0.5393726 0.8539165 0.5406226 0.8555832 0.5406225 0.8539164 0.5393726 0.8572498 0.5406226 0.8605831 0.5406226 0.8572498 0.5393726 0.8505831 0.5406225 0.8539164 0.5406226 0.8505831 0.5393726 0.8555831 0.5406226 0.8572498 0.5406226 0.8555832 0.6599901 0.5791813 0.6624901 0.5791813 0.6624901 0.5825147 0.6624901 0.5725147 0.6624901 0.575848 0.6599901 0.575848 0.6599901 0.5775147 0.6624901 0.5775147 0.6624901 0.5791813 0.6549901 0.5775147 0.6549901 0.5791813 0.6524901 0.5791813 0.6549901 0.5775147 0.6574901 0.5775147 0.6574901 0.5791813 0.6587402 0.5775147 0.6599901 0.5775147 0.6599901 0.5791813 0.6524901 0.5725147 0.6549901 0.5725147 0.6549901 0.575848 0.6549901 0.5725147 0.6574901 0.5725147 0.6574901 0.575848 0.6599901 0.5725147 0.6599901 0.575848 0.6587401 0.5758479 0.6549901 0.5791813 0.6549901 0.5825147 0.6524901 0.5825147 0.6574901 0.5791813 0.6574901 0.5825147 0.6549901 0.5825147 0.6599901 0.5791813 0.6599901 0.5825147 0.6587402 0.5825147 0.6587401 0.5758479 0.6599901 0.575848 0.6599901 0.5775147 0.6549901 0.575848 0.6574901 0.575848 0.6574901 0.5775147 0.6549901 0.575848 0.6549901 0.5775147 0.6524901 0.5775147 0.6624901 0.575848 0.6624901 0.5775147 0.6599901 0.5775147 0.6574901 0.575848 0.6587401 0.5758479 0.6587402 0.5775147 0.6587402 0.5791813 0.6587402 0.5825147 0.6574901 0.5825147 0.6574901 0.5725147 0.6587402 0.5725147 0.6587401 0.5758479 0.6574901 0.5775147 0.6587402 0.5775147 0.6587402 0.5791813 0.6624901 0.5775147 0.6624901 0.5775147 0.6624901 0.5791813 0.6587402 0.5825147 0.6587402 0.5825147 0.6574901 0.5825147 0.6624901 0.5725147 0.6624901 0.575848 0.6624901 0.575848 0.6624901 0.5825147 0.6624901 0.5825147 0.6599901 0.5825147 0.6524901 0.5775147 0.6524901 0.5775147 0.6524901 0.575848 0.6587402 0.5725147 0.6587402 0.5725147 0.6599901 0.5725147 0.6524901 0.5825147 0.6524901 0.5791813 0.6524901 0.5791813 0.6599901 0.5825147 0.6599901 0.5825147 0.6587402 0.5825147 0.6549901 0.5725147 0.6549901 0.5725147 0.6574901 0.5725147 0.6549901 0.5825147 0.6524901 0.5825147 0.6524901 0.5825147 0.6574901 0.5725147 0.6574901 0.5725147 0.6587402 0.5725147 0.6524901 0.5725147 0.6549901 0.5725147 0.6549901 0.5725147 0.6624901 0.575848 0.6624901 0.575848 0.6624901 0.5775147 0.6624901 0.5791813 0.6624901 0.5791813 0.6624901 0.5825147 0.6524901 0.5791813 0.6524901 0.5775147 0.6524901 0.5775147 0.6599901 0.5725147 0.6624901 0.5725147 0.6624901 0.5725147 0.6574901 0.5825147 0.6574901 0.5825147 0.6549901 0.5825147 0.6524901 0.575848 0.6524901 0.575848 0.6524901 0.5725147 0.6587402 0.5725147 0.6587402 0.5725147 0.6599901 0.5725147 0.6524901 0.5775147 0.6524901 0.575848 0.6524901 0.575848 0.6624901 0.5825147 0.6624901 0.5825147 0.6599901 0.5825147 0.6624901 0.5725147 0.6624901 0.5725147 0.6624901 0.575848 0.6587402 0.5825147 0.6587402 0.5825147 0.6574901 0.5825147 0.6624901 0.5775147 0.6624901 0.5775147 0.6624901 0.5791813 0.6524901 0.575848 0.6524901 0.5725147 0.6524901 0.5725147 0.6574901 0.5825147 0.6574901 0.5825147 0.6549901 0.5825147 0.6599901 0.5725147 0.6624901 0.5725147 0.6624901 0.5725147 0.6524901 0.5791813 0.6524901 0.5775147 0.6524901 0.5775147 0.6624901 0.5791813 0.6624901 0.5791813 0.6624901 0.5825147 0.6624901 0.575848 0.6624901 0.575848 0.6624901 0.5775147 0.6524901 0.5725147 0.6524901 0.5725147 0.6549901 0.5725147 0.6574901 0.5725147 0.6574901 0.5725147 0.6587402 0.5725147 0.6549901 0.5825147 0.6524901 0.5825147 0.6524901 0.5825147 0.6549901 0.5725147 0.6549901 0.5725147 0.6574901 0.5725147 0.6599901 0.5825147 0.6599901 0.5825147 0.6587402 0.5825147 0.6524901 0.5825147 0.6524901 0.5791813 0.6524901 0.5791813 0.5418726 0.8539165 0.5443726 0.8539165 0.5443726 0.8505831 0.5418726 0.8572498 0.5418726 0.8605831 0.5443726 0.8605831 0.6131176 0.8592743 0.6131176 0.8576077 0.6131176 0.8576077 0.6193677 0.8542743 0.6193677 0.8542743 0.6206176 0.8542743 0.6131176 0.8642743 0.6131176 0.860941 0.6131176 0.860941 0.6206176 0.8642743 0.6193677 0.8642743 0.6193677 0.8642743 0.6156176 0.8542743 0.6156176 0.8542743 0.6181176 0.8542743 0.6156176 0.8642743 0.6131176 0.8642743 0.6131176 0.8642743 0.6181176 0.8542743 0.6181176 0.8542743 0.6193677 0.8542743 0.6131176 0.8542743 0.6156176 0.8542743 0.6156176 0.8542743 0.6231176 0.8576077 0.6231176 0.8576077 0.6231176 0.8592743 0.6231176 0.860941 0.6231176 0.860941 0.6231176 0.8642743 0.6131176 0.860941 0.6131176 0.8592743 0.6131176 0.8592743 0.6206176 0.8542743 0.6231176 0.8542743 0.6231176 0.8542743 0.6181176 0.8642743 0.6181176 0.8642743 0.6156176 0.8642743 0.6131176 0.8576077 0.6131176 0.8542743 0.6131176 0.8542743 0.6231176 0.8592743 0.6231176 0.8592743 0.6231176 0.860941 0.6193677 0.8642743 0.6181176 0.8642743 0.6181176 0.8642743 0.6231176 0.8542743 0.6231176 0.8542743 0.6231176 0.8576077 0.6231176 0.8642743 0.6231176 0.8642743 0.6206176 0.8642743 0.6181176 0.8642743 0.6156176 0.8642743 0.6156176 0.8642743 0.6131176 0.8576077 0.6131176 0.8542743 0.6131176 0.8542743 0.6231176 0.8592743 0.6231176 0.8592743 0.6231176 0.860941 0.6193677 0.8642743 0.6181176 0.8642743 0.6181176 0.8642743 0.6231176 0.8542743 0.6231176 0.8542743 0.6231176 0.8576077 0.6231176 0.8642743 0.6206176 0.8642743 0.6206176 0.8642743 0.6131176 0.8592743 0.6131176 0.8576077 0.6131176 0.8576077 0.6193677 0.8542743 0.6206176 0.8542743 0.6206176 0.8542743 0.6131176 0.8642743 0.6131176 0.8642743 0.6131176 0.860941 0.6206176 0.8642743 0.6193677 0.8642743 0.6193677 0.8642743 0.6156176 0.8542743 0.6156176 0.8542743 0.6181176 0.8542743 0.6156176 0.8642743 0.6131176 0.8642743 0.6131176 0.8642743 0.6181176 0.8542743 0.6193677 0.8542743 0.6193677 0.8542743 0.6131176 0.8542743 0.6131176 0.8542743 0.6156176 0.8542743 0.6231176 0.8576077 0.6231176 0.8576077 0.6231176 0.8592743 0.6231176 0.860941 0.6231176 0.860941 0.6231176 0.8642743 0.6131176 0.860941 0.6131176 0.860941 0.6131176 0.8592743 0.6206176 0.8542743 0.6231176 0.8542743 0.6231176 0.8542743 0.5418725 0.8555831 0.5418726 0.8572498 0.5443726 0.8572498 0.5343726 0.8572498 0.5368726 0.8572498 0.5368726 0.8555831 0.5368726 0.8555831 0.5368726 0.8572498 0.5393726 0.8572498 0.5406226 0.8555832 0.5406226 0.8572498 0.5418726 0.8572498 0.5343726 0.8539165 0.5368726 0.8539165 0.5368726 0.8505831 0.5368726 0.8539165 0.5393726 0.8539165 0.5393726 0.8505831 0.5406226 0.8505831 0.5406225 0.8539164 0.5418726 0.8539165 0.5343726 0.8605831 0.5368726 0.8605831 0.5368726 0.8572498 0.5368726 0.8605831 0.5393726 0.8605831 0.5393726 0.8572498 0.5406226 0.8572498 0.5406226 0.8605831 0.5418726 0.8605831 0.5406225 0.8539164 0.5406226 0.8555832 0.5418725 0.8555831 0.5368726 0.8539165 0.5368726 0.8555831 0.5393726 0.8555831 0.5343726 0.8555831 0.5368726 0.8555831 0.5368726 0.8539165 0.5418726 0.8539165 0.5418725 0.8555831 0.5443726 0.8555831 0.5393726 0.8539165 0.5393726 0.8555831 0.5406226 0.8555832 0.5393726 0.8572498 0.5393726 0.8605831 0.5406226 0.8605831 0.5393726 0.8505831 0.5393726 0.8539165 0.5406225 0.8539164 0.5393726 0.8555831 0.5393726 0.8572498 0.5406226 0.8572498</float_array>
          <technique_common>
            <accessor source="#Plane-mesh-map-0-array" count="672" stride="2">
              <param name="S" type="float"/>
              <param name="T" type="float"/>
            </accessor>
          </technique_common>
        </source>
        <vertices id="Plane-mesh-vertices">
          <input semantic="POSITION" source="#Plane-mesh-positions"/>
        </vertices>
        <triangles material="christmasIslandDual_001-material" count="76">
          <input semantic="VERTEX" source="#Plane-mesh-vertices" offset="0"/>
          <input semantic="NORMAL" source="#Plane-mesh-normals" offset="1"/>
          <input semantic="TEXCOORD" source="#Plane-mesh-map-0" offset="2" set="0"/>
          <p>17 0 0 3 1 1 11 2 2 1 3 3 14 4 4 10 5 5 24 6 6 7 7 7 17 8 8 22 9 9 4 10 10 20 11 11 22 12 12 18 13 13 19 14 14 29 15 15 17 16 16 28 17 17 0 18 18 16 19 19 5 20 20 8 21 21 15 22 22 16 23 23 10 24 24 27 25 25 25 26 26 19 27 27 2 28 28 4 29 29 18 30 30 13 31 31 19 32 32 17 33 33 26 34 34 28 35 35 27 36 36 24 37 37 29 38 38 16 39 39 23 40 40 22 41 41 16 42 42 20 43 43 5 44 44 6 45 45 24 46 46 14 47 47 15 48 48 29 49 49 23 50 50 28 51 51 12 52 52 18 53 53 9 54 54 27 55 55 15 56 56 23 57 57 28 58 58 18 59 59 25 113 114 32 114 115 10 115 116 39 116 117 5 117 118 20 118 119 3 119 120 45 120 121 11 121 122 1 122 123 40 123 124 6 124 125 26 125 126 47 126 127 12 127 128 21 128 129 34 129 130 7 130 131 30 131 132 0 132 133 5 133 134 12 134 135 36 135 136 13 136 137 32 137 138 1 138 139 10 139 140 38 140 141 20 141 142 4 142 143 7 143 144 35 144 145 3 145 146 6 146 147 41 147 148 21 148 149 0 149 150 42 150 151 8 151 152 9 152 153 44 153 154 25 154 155 36 155 156 2 156 157 13 157 158 8 158 159 43 159 160 9 160 161 11 161 162 46 162 163 26 163 164 37 164 165 4 165 166 2 166 167 17 0 336 7 327 337 3 1 338 1 3 339 6 328 340 14 4 341 24 6 342 21 329 343 7 7 344 22 9 345 19 330 346 4 10 347 22 12 348 23 331 349 18 13 350 29 15 351 24 332 352 17 16 353 0 18 354 8 333 355 16 19 356 8 21 357 9 334 358 15 22 359 10 24 360 14 335 361 27 25 362 19 27 363 13 336 364 2 28 365 18 30 366 12 337 367 13 31 368 17 33 369 11 338 370 26 34 371 27 36 372 14 339 373 24 37 374 16 39 375 15 340 376 23 40 377 16 42 378 22 341 379 20 43 380 6 45 381 21 342 382 24 46 383 15 48 384 27 343 385 29 49 386 28 51 387 26 344 388 12 52 389 9 54 390 25 345 391 27 55 392 23 57 393 29 346 394 28 58 395 25 113 450 44 364 451 32 114 452 39 116 453 30 365 454 5 117 455 3 119 456 35 366 457 45 120 458 1 122 459 33 367 460 40 123 461 26 125 462 46 368 463 47 126 464 21 128 465 41 369 466 34 129 467 30 131 468 31 370 469 0 132 470 12 134 471 47 371 472 36 135 473 32 137 474 33 372 475 1 138 476 38 140 477 39 373 478 20 141 479 7 143 480 34 374 481 35 144 482 6 146 483 40 375 484 41 147 485 0 149 486 31 376 487 42 150 488 9 152 489 43 377 490 44 153 491 36 155 492 37 378 493 2 156 494 8 158 495 42 379 496 43 159 497 11 161 498 45 380 499 46 162 500 37 164 501 38 381 502 4 165 503</p>
        </triangles>
        <triangles material="christmasIslandDual_002-material" count="148">
          <input semantic="VERTEX" source="#Plane-mesh-vertices" offset="0"/>
          <input semantic="NORMAL" source="#Plane-mesh-normals" offset="1"/>
          <input semantic="TEXCOORD" source="#Plane-mesh-map-0" offset="2" set="0"/>
          <p>41 60 60 52 61 61 34 62 62 46 63 63 67 64 64 47 65 65 51 66 66 40 67 67 33 68 68 35 69 69 65 70 70 45 71 71 39 72 72 48 73 73 30 74 74 44 75 75 50 76 76 32 77 77 55 78 78 38 79 79 37 80 80 45 81 81 66 82 82 46 83 83 42 84 84 63 85 85 43 86 86 54 87 87 37 88 88 36 89 89 43 90 90 64 91 91 44 92 92 49 93 93 42 94 94 31 95 95 40 96 96 59 97 97 41 98 98 34 99 99 53 100 100 35 101 101 56 102 102 39 103 103 38 104 104 50 105 105 33 106 106 32 107 107 47 65 108 54 108 109 36 109 110 30 110 111 49 111 112 31 112 113 104 167 168 74 168 169 75 169 170 107 170 171 72 171 172 73 172 173 87 173 174 48 174 175 57 175 176 64 176 177 80 177 178 50 178 179 85 179 180 56 180 181 55 181 182 93 182 183 66 183 184 65 184 185 62 185 186 91 186 187 63 187 188 84 188 189 55 189 190 54 190 191 63 191 192 92 192 193 64 193 194 79 194 195 62 195 196 49 196 197 58 197 198 89 198 199 59 199 200 52 200 201 83 201 202 53 202 203 86 203 204 57 204 205 56 205 206 80 206 207 51 207 208 50 208 209 67 209 210 84 210 211 54 211 212 78 212 213 49 213 214 48 214 215 59 215 216 82 216 217 52 217 218 94 218 219 67 219 220 66 220 221 51 221 222 88 222 223 58 223 224 53 224 225 93 225 226 65 226 227 103 227 228 84 228 229 95 229 230 77 230 231 79 231 232 78 232 233 89 233 234 73 234 235 82 235 236 102 236 237 95 237 238 94 238 239 81 239 240 61 240 241 88 241 242 72 242 243 93 243 244 83 244 245 68 245 246 78 246 247 87 247 248 100 248 249 80 249 250 92 250 251 85 251 252 69 252 253 86 253 254 101 254 255 94 255 256 93 256 257 90 257 258 99 258 259 91 259 260 71 260 261 85 261 262 84 262 263 99 263 264 92 264 265 91 265 266 79 266 267 98 267 268 90 268 269 88 269 270 60 270 271 89 271 272 82 272 273 72 273 274 83 274 275 86 275 276 68 276 277 87 277 278 75 278 279 81 279 280 80 280 281 112 281 282 73 172 283 60 282 284 69 283 285 110 284 286 68 285 287 110 286 288 109 287 289 111 288 290 113 289 291 107 170 292 112 281 293 77 290 294 98 291 295 76 292 296 96 293 297 99 294 298 98 295 299 100 296 300 104 297 301 75 298 302 70 299 303 97 300 304 69 301 305 71 302 306 109 303 307 97 304 308 108 305 309 101 306 310 107 170 311 105 307 312 112 308 313 104 309 314 96 310 315 111 311 316 106 312 317 68 313 318 96 314 319 77 315 320 104 167 321 60 282 322 61 316 323 106 317 324 113 318 325 105 307 326 109 319 327 102 320 328 108 321 329 99 322 330 105 323 331 100 296 332 111 324 333 108 325 334 113 326 335 41 60 396 59 347 397 52 61 398 46 63 399 66 348 400 67 64 401 51 66 402 58 349 403 40 67 404 35 69 405 53 350 406 65 70 407 39 72 408 57 351 409 48 73 410 44 75 411 64 352 412 50 76 413 55 78 414 56 353 415 38 79 416 45 81 417 65 354 418 66 82 419 42 84 420 62 355 421 63 85 422 54 87 423 55 356 424 37 88 425 43 90 426 63 357 427 64 91 428 49 93 429 62 358 430 42 94 431 40 96 432 58 359 433 59 97 434 34 99 435 52 360 436 53 100 437 56 102 438 57 361 439 39 103 440 50 105 441 51 362 442 33 106 443 47 65 444 67 64 445 54 108 446 30 110 447 48 363 448 49 111 449 104 167 504 61 316 505 74 168 506 107 170 507 101 306 508 72 171 509 87 173 510 78 382 511 48 174 512 64 176 513 92 383 514 80 177 515 85 179 516 86 384 517 56 180 518 93 182 519 94 385 520 66 183 521 62 185 522 90 386 523 91 186 524 84 188 525 85 387 526 55 189 527 63 191 528 91 388 529 92 192 530 79 194 531 90 389 532 62 195 533 58 197 534 88 390 535 89 198 536 52 200 537 82 391 538 83 201 539 86 203 540 87 392 541 57 204 542 80 206 543 81 393 544 51 207 545 67 209 546 95 394 547 84 210 548 78 212 549 79 395 550 49 213 551 59 215 552 89 396 553 82 216 554 94 218 555 95 397 556 67 219 557 51 221 558 81 398 559 88 222 560 53 224 561 83 399 562 93 225 563 103 227 564 71 400 565 84 228 566 77 230 567 76 401 568 79 231 569 89 233 570 60 402 571 73 234 572 102 236 573 103 403 574 95 237 575 81 239 576 74 404 577 61 240 578 72 242 579 101 405 580 93 243 581 68 245 582 77 406 583 78 246 584 100 248 585 75 407 586 80 249 587 85 251 588 70 408 589 69 252 590 101 254 591 102 409 592 94 255 593 90 257 594 98 410 595 99 258 596 71 260 597 70 411 598 85 261 599 99 263 600 100 412 601 92 264 602 79 266 603 76 413 604 98 267 605 88 269 606 61 414 607 60 270 608 82 272 609 73 415 610 72 273 611 86 275 612 69 416 613 68 276 614 75 278 615 74 417 616 81 279 617 112 281 618 107 170 619 73 172 620 69 283 621 97 418 622 110 284 623 110 286 624 97 419 625 109 287 626 113 289 627 108 305 628 107 170 629 77 290 630 96 420 631 98 291 632 96 293 633 106 421 634 99 294 635 100 296 636 105 323 637 104 297 638 70 299 639 71 422 640 97 300 641 71 302 642 103 423 643 109 303 644 108 305 645 102 424 646 101 306 647 105 307 648 113 318 649 112 308 650 96 310 651 110 425 652 111 311 653 68 313 654 110 426 655 96 314 656 104 167 657 112 281 658 60 282 659 106 317 660 111 427 661 113 318 662 109 319 663 103 428 664 102 320 665 99 322 666 106 429 667 105 323 668 111 324 669 109 430 670 108 325 671</p>
        </triangles>
      </mesh>
    </geometry>
  </library_geometries>
  <library_visual_scenes>
    <visual_scene id="Scene" name="Scene">
      <node id="base00" name="base00" type="NODE">
        <matrix sid="transform">1 0 0 0 0 1 0 0 0 0 1 0 0 0 0 1</matrix>
        <node id="start01" name="start01" type="NODE">
          <matrix sid="transform">1 0 0 0 0 1 0 0 0 0 1 0 0 0 0 1</matrix>
          <node id="christmasIslandBump" name="christmasIslandBump" type="NODE">
            <matrix sid="transform">0.01818873 0 0 0 0 -2.96332e-9 -0.01818873 0 0 0.01818873 -2.96332e-9 0 0 0 0 1</matrix>
            <instance_geometry url="#Plane-mesh" name="christmasIslandBump">
              <bind_material>
                <technique_common>
                  <instance_material symbol="christmasIslandDual_001-material" target="#christmasIslandDual_001-material">
                    <bind_vertex_input semantic="UVMap" input_semantic="TEXCOORD" input_set="0"/>
                  </instance_material>
                  <instance_material symbol="christmasIslandDual_002-material" target="#christmasIslandDual_002-material">
                    <bind_vertex_input semantic="UVMap" input_semantic="TEXCOORD" input_set="0"/>
                  </instance_material>
                </technique_common>
              </bind_material>
            </instance_geometry>
          </node>
          <node id="Colmesh-1" name="Colmesh-1" type="NODE">
            <matrix sid="transform">0.01818873 0 0 0 0 -2.96332e-9 -0.01818873 0 0 0.01818873 -2.96332e-9 0 0 0 0 1</matrix>
            <instance_geometry url="#Plane_006-mesh" name="Colmesh-1"/>
          </node>
        </node>
      </node>
    </visual_scene>
  </library_visual_scenes>
  <scene>
    <instance_visual_scene url="#Scene"/>
  </scene>
</COLLADA>