<?xml version="1.0" encoding="utf-8"?>
<COLLADA xmlns="http://www.collada.org/2005/11/COLLADASchema" version="1.4.1" xmlns:xsi="http://www.w3.org/2001/XMLSchema-instance">
  <asset>
    <contributor>
      <author>Blender User</author>
      <authoring_tool>Blender 3.4.1 commit date:2022-12-19, commit time:17:00, hash:55485cb379f7</authoring_tool>
    </contributor>
    <created>2025-12-20T18:42:16</created>
    <modified>2025-12-20T18:42:16</modified>
    <unit name="meter" meter="1"/>
    <up_axis>Z_UP</up_axis>
  </asset>
  <library_effects>
    <effect id="pineTree_001-effect">
      <profile_COMMON>
        <technique sid="common">
          <lambert>
            <emission>
              <color sid="emission">0 0 0 1</color>
            </emission>
            <diffuse>
              <color sid="diffuse">0 0.31 0.25 1</color>
            </diffuse>
            <index_of_refraction>
              <float sid="ior">1.45</float>
            </index_of_refraction>
          </lambert>
        </technique>
      </profile_COMMON>
    </effect>
    <effect id="pineTree_002-effect">
      <profile_COMMON>
        <technique sid="common">
          <lambert>
            <emission>
              <color sid="emission">0 0 0 1</color>
            </emission>
            <diffuse>
              <color sid="diffuse">1 1 1 1</color>
            </diffuse>
            <index_of_refraction>
              <float sid="ior">1.45</float>
            </index_of_refraction>
          </lambert>
        </technique>
      </profile_COMMON>
    </effect>
    <effect id="pineTree_003-effect">
      <profile_COMMON>
        <technique sid="common">
          <lambert>
            <emission>
              <color sid="emission">0 0 0 1</color>
            </emission>
            <diffuse>
              <color sid="diffuse">0.19 0.09 0.06 1</color>
            </diffuse>
            <index_of_refraction>
              <float sid="ior">1.45</float>
            </index_of_refraction>
          </lambert>
        </technique>
      </profile_COMMON>
    </effect>
  </library_effects>
  <library_images/>
  <library_materials>
    <material id="pineTree_001-material" name="pineTree.001">
      <instance_effect url="#pineTree_001-effect"/>
    </material>
    <material id="pineTree_002-material" name="pineTree.002">
      <instance_effect url="#pineTree_002-effect"/>
    </material>
    <material id="pineTree_003-material" name="pineTree.003">
      <instance_effect url="#pineTree_003-effect"/>
    </material>
  </library_materials>
  <library_geometries>
    <geometry id="group558928348_001-mesh" name="group558928348.001">
      <mesh>
        <source id="group558928348_001-mesh-positions">
          <float_array id="group558928348_001-mesh-positions-array" count="372">0.008645892 0.1984193 0.01047325 0.06599122 -0.06703734 0.1186762 0.001736283 -0.03714507 0.1237863 0.1053861 -0.04827535 0.06570559 0.129172 -0.06645083 0.004538178 0.06274819 -0.06330847 -0.1076648 0.1041918 -0.04770141 -0.05568271 -0.001682639 -0.03556996 -0.111165 -0.06632584 -0.05349481 -0.1034471 -0.1290861 -0.05353754 0.008415102 -0.1037477 -0.03437626 -0.05107295 -0.09949189 -0.03082859 0.06641161 -0.06270235 -0.05535948 0.1176872 3.7393e-4 -0.08359038 0.1461278 0.07005327 -0.08584094 0.1263407 0.1205289 -0.08689069 0.07435113 0.1382761 -0.08645832 0.004089832 0.1185393 -0.08465969 -0.06561696 0.06660705 -0.08197677 -0.1160912 -0.003605306 -0.07912838 -0.1338084 -0.07328474 -0.07687771 -0.1140214 -0.1237604 -0.07582795 -0.06203186 -0.1415076 -0.07626032 0.008229494 -0.1217707 -0.07805895 0.07793623 -0.06983852 -0.080742 0.1284105 0.007063031 0.3003052 -0.001080036 -0.02979212 0.2142504 0.02274274 -0.04200267 0.203992 0.001640379 -0.01661485 0.2022747 0.04345875 0.03186982 0.2020204 0.04309499 0.006909966 0.2127575 0.04390293 0.05345565 0.2057462 -2.29835e-4 0.04220283 0.2187536 0.02017128 0.02793669 0.2102937 -0.03843647 0.04008311 0.2211968 -0.01988846 -0.01780229 0.206188 -0.03939831 0.005704462 0.2200373 -0.03936344 -0.02975398 0.2175202 -0.01952731 -0.05381876 0.1807978 0.002295494 -0.04520457 0.181288 0.03213125 -0.02282512 0.1815212 0.05366533 0.007323086 0.1814351 0.0611279 0.037162 0.1810527 0.05251914 0.05869621 0.1804763 0.03014588 0.06615561 0.1798607 2.92063e-6 0.05754142 0.1793705 -0.02983278 0.03516197 0.1791372 -0.05136698 0.005013704 0.1792234 -0.05882942 -0.02482521 0.1796058 -0.05022066 -0.04635936 0.180182 -0.0278474 -0.002563059 -0.284111 0.04128128 0.02243685 -0.284111 0.03458255 0.02243685 -0.4541111 0.03458243 -0.002563059 -0.4541111 0.04128128 0.0407381 -0.284111 0.01628124 0.0407381 -0.4541111 0.01628118 0.04743689 -0.284111 -0.008718729 0.04743689 -0.4541111 -0.008718729 0.0407381 -0.284111 -0.0337187 0.0407381 -0.4541111 -0.03371876 0.02243685 -0.284111 -0.05201995 0.02243685 -0.4541111 -0.05202001 -0.002563059 -0.284111 -0.05871874 -0.002563059 -0.4541111 -0.05871874 -0.02756309 -0.284111 -0.05201995 -0.02756309 -0.4541111 -0.05202001 -0.04586434 -0.284111 -0.0337187 -0.04586434 -0.4541111 -0.03371876 -0.05256307 -0.284111 -0.008718729 -0.05256307 -0.4541111 -0.008718729 -0.04586434 -0.284111 0.01628124 -0.04586434 -0.4541111 0.01628118 -0.02756303 -0.284111 0.03458255 -0.02756303 -0.4541111 0.03458255 0.01056021 0.2492307 0.001421988 0.04938429 0.07541704 0.07948487 0.00731796 0.09553861 0.08206629 0.07343733 0.09466183 0.04213756 0.09094333 0.07733225 0.003866255 0.07124501 0.09662532 -0.0338633 0.04653376 0.08260858 -0.0669009 0.005831718 0.09828007 -0.07043772 -0.03528028 0.08578228 -0.06565082 -0.05746197 0.1029794 -0.0318709 -0.07529854 0.08826065 0.005439758 -0.05827265 0.1009473 0.04272627 -0.03511929 0.08358538 0.07797026 0.00659275 0.06115937 0.1001055 0.05393701 0.05965822 0.0868957 0.08832252 0.05806982 0.05177634 0.1005354 0.05681961 0.004157841 0.0873034 0.05624282 -0.04320055 0.05217188 0.05649369 -0.07760924 0.00455445 0.05750519 -0.08984845 -0.04278981 0.05900633 -0.07663863 -0.07717525 0.06059473 -0.04151934 -0.08938819 0.06184494 0.006099164 -0.07615613 0.06242173 0.05345755 -0.04102468 0.06217086 0.0878663 -0.007562935 0.1258888 -0.003718674 0.08652949 -0.2505703 0.1590072 -0.007563114 -0.2108247 0.164638 0.1410554 -0.2173311 0.0820862 0.1805382 -0.2503139 -0.003718793 0.1424398 -0.2205281 -0.09032297 0.08730858 -0.2535979 -0.1680413 -0.007563114 -0.2185841 -0.1759552 -0.09939318 -0.2414309 -0.162773 -0.1509917 -0.205345 -0.08652722 -0.1909112 -0.2408072 -0.003718793 -0.1525674 -0.2089838 0.07999944 -0.1006729 -0.2465504 0.1575522 -0.007563114 -0.2841113 0.2012812 0.09493684 -0.2841113 0.1738164 0.1699721 -0.2841113 0.09878122 0.1974369 -0.2841113 -0.003718793 0.1699721 -0.2841113 -0.1062188 0.09493684 -0.2841113 -0.181254 -0.007563114 -0.2841111 -0.2087188 -0.1100632 -0.2841111 -0.181254 -0.1850984 -0.2841111 -0.1062188 -0.2125632 -0.2841111 -0.003718793 -0.1850984 -0.2841111 0.09878122 -0.1100631 -0.2841113 0.1738165</float_array>
          <technique_common>
            <accessor source="#group558928348_001-mesh-positions-array" count="124" stride="3">
              <param name="X" type="float"/>
              <param name="Y" type="float"/>
              <param name="Z" type="float"/>
            </accessor>
          </technique_common>
        </source>
        <source id="group558928348_001-mesh-normals">
          <float_array id="group558928348_001-mesh-normals-array" count="1008">0.2668839 0.412648 0.870916 0.2668839 0.412648 0.870916 0.2668839 0.4126484 0.8709159 0.6612316 0.4012169 0.6338753 0.8883745 0.3991614 0.22685 0.6527571 0.4224376 -0.628852 0.6527575 0.4224365 -0.6288522 0.652757 0.4224377 -0.6288518 0.2364594 0.4399271 -0.8663436 -0.2255746 0.4571765 -0.8602941 -0.2255746 0.4571767 -0.8602939 -0.2255746 0.4571769 -0.8602938 -0.8564987 0.4699476 -0.2134458 -0.8461369 0.4633778 0.2633125 -0.8461363 0.463379 0.2633121 -0.8461363 0.4633789 0.2633121 -0.6112554 0.4475984 0.6527041 -0.204581 0.4291822 0.879744 0.8817501 0.4065894 -0.2391691 -0.6293526 0.4678922 -0.6204774 -0.8526133 0.4422178 0.2783773 -0.6172738 0.4441379 0.6493957 0.2197515 0.4455386 0.8678736 0.8773386 0.4323133 0.2082839 0.6275854 0.4181027 -0.6567547 -0.2465063 0.4206004 -0.8731151 -0.7732397 0.4446266 -0.4521145 -0.7732462 0.4446121 -0.4521178 -0.7732358 0.4446354 -0.4521126 0.2195138 0.4169597 -0.8820195 -0.2153957 0.4465842 0.8684281 0.6520978 0.4415737 0.6162639 0.868368 0.4237226 -0.2576746 -0.645613 0.4280486 -0.6324226 0.26476 0.4436689 0.8561893 0.6427662 0.4287053 0.6348727 0.8830915 0.4160356 0.2169426 0.8830914 0.4160355 0.2169426 0.8830913 0.4160359 0.2169426 0.885077 0.4049969 -0.2293826 0.8850774 0.4049959 -0.2293828 0.885078 0.4049944 -0.2293832 0.6410613 0.4055794 -0.6515718 0.2460751 0.4103168 -0.8781158 0.2460752 0.4103171 -0.8781157 0.2460751 0.410316 -0.8781161 -0.2308852 0.4241018 -0.8756881 -0.6318951 0.4392605 -0.63856 -0.8605329 0.4531882 -0.2326018 -0.8555323 0.4621527 0.233408 -0.6136722 0.4643368 0.6385905 -0.6136723 0.4643364 0.6385906 -0.6136721 0.4643369 0.6385904 -0.2122228 0.457558 0.8634827 0.2356075 0.4346235 0.8692477 0.6353816 0.4346855 0.6382309 0.8687975 0.4343984 0.2376742 0.8688077 0.4344034 0.2376276 0.8688079 0.4344031 0.2376276 0.8682914 0.4354025 -0.237686 0.8682914 0.4354028 -0.237686 0.8682914 0.4354027 -0.237686 0.6367353 0.4348981 -0.6367353 0.2330614 0.4348983 -0.8697965 -0.2330595 0.4348987 -0.8697969 -0.6345587 0.4345566 -0.6391369 -0.6345266 0.4345516 -0.6391721 -0.6345266 0.4345515 -0.6391721 -0.8697965 0.4348988 -0.2330604 -0.8697966 0.4348987 0.2330597 -0.6367341 0.4348985 0.6367362 -0.2338066 0.4348181 0.8696365 -0.2338066 0.4348181 0.8696365 -0.2338065 0.4348182 0.8696365 -0.03664875 -0.9992095 -0.01540607 -0.637623 0.4649726 -0.6141965 -0.6311 0.458579 -0.6256342 -0.6330351 0.4583318 -0.6238577 -0.8564998 0.4699454 -0.2134472 -0.8498742 0.4625189 0.2525672 -0.6112555 0.4475981 0.6527042 -0.2045807 0.429183 0.8797436 0.26118 0.4122062 0.8728523 0.6612312 0.4012177 0.6338751 0.8883742 0.3991623 0.2268497 0.8799603 0.4042005 -0.2495834 0.8863825 0.3968231 -0.2384483 0.8858712 0.396672 -0.2405903 0.6431328 0.4215114 -0.639303 0.2364579 0.439924 -0.8663457 0.2364583 0.4399238 -0.8663456 -0.2293024 0.456906 -0.8594518 -0.2293053 0.4569008 -0.8594539 -0.007454276 -0.9997997 0.01857751 0.2195142 0.4169607 -0.882019 -0.6427188 0.433412 -0.6317172 -0.6437196 0.4335853 -0.6305782 -0.6436365 0.4335842 -0.6306639 -0.8708549 0.4373083 -0.2244399 -0.8473985 0.4707763 0.2455314 -0.8402103 0.4805951 0.2511478 -0.8436107 0.4768114 0.2469253 -0.6058523 0.4778372 0.6360933 -0.6027457 0.4802121 0.6372551 -0.6040177 0.4790632 0.6369152 -0.2061215 0.4588426 0.8642785 -0.2287076 0.4477672 0.8644058 -0.2195866 0.4490186 0.8661202 0.6637509 0.4329917 0.6098794 0.6514179 0.4289753 0.6258075 0.6568654 0.4273288 0.621223 0.8773385 0.432314 0.2082827 0.8685516 0.4220097 -0.2598579 0.8697421 0.4215845 -0.2565451 0.8695082 0.421202 -0.2579625 -0.2465103 0.4205981 -0.8731151 -0.2465067 0.4206008 -0.8731148 0.2197517 0.4455393 0.8678732 0.2503601 0.4690557 0.8469396 0.6275851 0.4181032 -0.6567547 0.627587 0.4181017 -0.6567538 -0.02624559 -0.9994652 0.01950794 -0.2308848 0.4241011 -0.8756887 -0.6371055 0.4364156 -0.6353251 -0.6321825 0.4335501 -0.6421679 -0.6341416 0.4331805 -0.6404835 -0.8605335 0.4531868 -0.2326025 -0.6182355 0.4637514 0.634602 -0.2145129 0.466812 0.8579457 -0.2106354 0.467327 0.8586258 -0.2107586 0.4673303 0.8585938 0.2537124 0.4452292 0.8587207 0.655748 0.4276122 0.6222078 0.6537739 0.4144832 0.6330746 0.6548938 0.4164865 0.6305975 0.883362 0.4161418 0.2156335 0.8783613 0.4071782 -0.2503744 0.6410619 0.4055786 -0.6515717 0.2350519 0.4117727 -0.8804509 -0.8555327 0.4621517 0.2334087 -0.855533 0.4621514 0.2334087 0.2777166 0.4733522 0.8359494 -7.55402e-7 -1 -5.1179e-7 -0.6367357 0.4348983 -0.6367347 -0.8697968 0.4348978 -0.2330608 -0.8697972 0.4348972 0.2330605 0.2322921 0.4409959 0.8669273 0.6353815 0.434686 0.6382308 0.8697965 0.4348983 0.2330616 0.8697969 0.4348977 -0.2330613 0.6367351 0.4348985 -0.6367352 0.2330614 0.4348993 -0.8697959 -0.2330598 0.4348995 -0.8697963 -0.6367346 0.434898 0.6367361 -0.6367351 0.4348971 0.6367362 -0.2330605 0.4348977 0.869797 -0.2330611 0.4348974 0.8697971 0.2356073 0.434623 0.8692481 -0.03664827 -0.9992096 -0.01540637 -0.03665035 -0.9992095 -0.01540577 -0.03664815 -0.9992096 -0.01540571 -0.03664982 -0.9992095 -0.01540631 -0.03664904 -0.9992096 -0.01540392 -0.03664827 -0.9992096 -0.01540589 -0.03664851 -0.9992095 -0.01540577 -0.03664803 -0.9992095 -0.01540565 -0.03664875 -0.9992096 -0.01540493 -0.6327373 0.4583361 -0.6241567 -0.6330345 0.4583349 -0.6238562 -0.635414 0.4589834 -0.6209535 -0.856496 0.4699515 -0.2134489 -0.8498713 0.4625232 0.2525686 -0.6112557 0.4475979 0.6527041 -0.2045823 0.4291809 0.8797443 0.2611811 0.4122037 0.8728532 0.6612312 0.4012156 0.6338765 0.8883762 0.3991584 0.2268488 0.8859711 0.3966659 -0.2402319 0.8858723 0.3966693 -0.2405906 0.8845024 0.3974546 -0.244306 0.6431328 0.4215062 -0.6393066 -0.007444858 -0.9997996 0.01858448 -0.00745517 -0.9997997 0.01857203 -0.007453501 -0.9997997 0.01857739 -0.007465898 -0.9997997 0.01857 -0.00745356 -0.9997997 0.01857203 -0.00745362 -0.9997997 0.01857429 -0.007454991 -0.9997996 0.01857984 -0.00745505 -0.9997997 0.01857692 -0.007454276 -0.9997997 0.0185787 0.2195151 0.4169595 -0.8820192 -0.6479535 0.4313173 -0.6277911 -0.643636 0.4335823 -0.6306657 -0.6415206 0.4324707 -0.6335775 -0.8708549 0.437308 -0.2244409 -0.8570904 0.4587416 0.2344188 -0.8614219 0.4538566 0.2279617 -0.8638024 0.4499503 0.2266942 -0.6015493 0.5067209 0.6175535 -0.6111555 0.5024688 0.6115669 -0.6226789 0.4853449 0.6137681 -0.2102093 0.4618317 0.861698 -0.2045879 0.4630801 0.8623809 -0.1987531 0.4655026 0.8624411 0.6561165 0.4273804 0.6219785 0.6568659 0.4273284 0.6212227 0.6594144 0.427692 0.6182656 0.8773392 0.4323133 0.2082816 0.8695194 0.4212988 -0.257766 0.8694688 0.4212894 -0.2579523 0.8693034 0.4212923 -0.2585043 -0.02624458 -0.9994652 0.0195077 -0.0262475 -0.9994652 0.01950758 -0.02624547 -0.9994652 0.01950955 -0.02624523 -0.9994652 0.01950979 -0.02624559 -0.9994652 0.01950824 -0.02624678 -0.9994652 0.01950728 -0.02624613 -0.9994652 0.01950812 -0.02624553 -0.9994652 0.01950877 -0.02624487 -0.9994652 0.01950746 -0.2308845 0.4241018 -0.8756884 -0.6338799 0.433179 -0.6407436 -0.6341423 0.4331818 -0.6404819 -0.6353834 0.4334899 -0.6390419 -0.8605334 0.4531869 -0.2326028 -0.618235 0.4637498 0.6346036 -0.2051783 0.4656237 0.8608696 -0.2107588 0.4673287 0.8585946 -0.2200574 0.463406 0.8583879 0.6513361 0.4553954 0.6069401 0.6534115 0.4584149 0.6024196 0.654762 0.4648905 0.5959561 0.8833616 0.4161424 0.2156335 0.8783615 0.4071775 -0.2503749 0.6410623 0.4055804 -0.6515703 0.2350505 0.4117745 -0.8804504 8.72259e-7 -1 -3.30826e-6 0 -1 0 0 -1 -6.61652e-7 -2.38307e-6 -1 3.30826e-6 -1.0072e-6 -1 0 -2.51801e-7 -1 -4.09432e-7 -0.6367355 0.4348974 -0.6367355 -0.8697962 0.4348991 -0.2330613 -0.8697962 0.4348991 0.2330613 0.6351131 0.4396156 0.6351138 0.8697966 0.434898 0.2330614 0.8697963 0.4348987 -0.2330614 0.6367355 0.4348972 -0.6367358 0.233062 0.4348979 -0.8697965 -0.2330617 0.434897 -0.8697971 1.08182e-5 0 1 0.02747839 0.117944 0.99264 1.08331e-5 1.23637e-5 1 0.5201146 -0.1179443 0.8459138 0.5000069 -2.5557e-7 0.8660215 0.5000069 -1.27152e-5 0.8660215 0.8733894 -0.1179441 0.4725252 0.8660295 0 0.4999929 0.8660295 -1.25814e-5 0.4999929 0.9926401 -0.1179439 -0.02747589 1 0 -8.29995e-6 1 -1.24223e-5 -8.29995e-6 0.8459138 -0.1179438 -0.5201147 0.8660215 2.5557e-7 -0.5000069 0.8660215 -1.22001e-5 -0.5000069 0.4999935 3.8743e-7 -0.8660292 0.4725259 0.1179443 -0.873389 0.4999935 1.26889e-5 -0.8660292 -7.59959e-6 0 -1 -0.02747517 0.117944 -0.9926401 -7.56979e-6 1.23637e-5 -1 -0.5000069 2.71946e-7 -0.8660215 -0.5201147 0.1179443 -0.8459137 -0.5000069 1.2737e-5 -0.8660215 -0.8660296 1.63913e-7 -0.4999929 -0.8733895 0.1179441 -0.4725252 -0.8660296 1.25647e-5 -0.4999929 -1 0 8.40425e-6 -0.9926401 0.117944 0.02747595 -1 1.23637e-5 8.35955e-6 -0.8660214 -2.57045e-7 0.5000069 -0.8459138 0.1179438 0.5201147 -0.8660215 1.22324e-5 0.5000069 -0.4999932 0 0.8660294 -0.4725255 0.117944 0.8733893 -0.4999932 1.23637e-5 0.8660294 0 1 0 0.212374 0.2558626 0.9430968 8.13603e-6 -3.4502e-7 1 0.001276433 -0.02603751 0.9996602 0.5009354 0.02603685 0.865093 0.5000069 -2.62081e-7 0.8660215 0.6554694 -0.2558633 0.7105588 0.8663691 0.02603721 0.4987251 0.8660292 0 0.4999934 0.9229325 -0.255863 0.2876277 0.9996602 0.02603727 -0.001275956 1 0 -7.7039e-6 0.9430969 -0.2558629 -0.2123734 0.865093 0.02603733 -0.5009354 0.8660215 2.16869e-7 -0.5000069 0.7105589 -0.2558628 -0.6554695 0.2876293 0.255863 -0.922932 0.499995 0 -0.8660283 0.4987266 -0.02603715 -0.8663682 -0.2123755 0.2558633 -0.9430963 -9.90927e-6 3.29045e-7 -1 -0.001278162 -0.02603685 -0.9996601 -0.6554694 0.2558633 -0.7105589 -0.5000069 2.30013e-7 -0.8660215 -0.5009353 -0.02603691 -0.8650931 -0.9229326 0.255863 -0.2876275 -0.8660293 0 -0.4999935 -0.8663691 -0.02603715 -0.4987251 -0.9430968 0.2558629 0.2123736 -1 0 7.7635e-6 -0.9996602 -0.02603727 0.001276016 -0.7105579 0.255863 0.6554706 -0.8660206 0 0.5000084 -0.8650922 -0.02603721 0.5009368 -0.2876275 0.255863 0.9229326 -0.4999933 0 0.8660293 -0.4987251 -0.02603715 0.8663691 0 1 -1.17522e-6 0 1 1.01777e-6 0 1 -6.95148e-7 0 1 -2.78057e-6 0 1 6.9515e-7 0 1 8.60321e-7 0 1 0 0 -1 4.70088e-6 0 -1 4.07107e-6 0 -1 5.56121e-6 0 -1 -2.35044e-6 0 -1 -1.72064e-6</float_array>
          <technique_common>
            <accessor source="#group558928348_001-mesh-normals-array" count="336" stride="3">
              <param name="X" type="float"/>
              <param name="Y" type="float"/>
              <param name="Z" type="float"/>
            </accessor>
          </technique_common>
        </source>
        <source id="group558928348_001-mesh-map-0">
          <float_array id="group558928348_001-mesh-map-0-array" count="1368">0.1214464 0.09585201 0.1158628 0.1002459 0.143402 0.1100552 0.1171206 0.0890522 0.1173164 0.09591221 0.143974 0.1006076 0.1148279 0.07775193 0.1117213 0.08381211 0.1407824 0.0854355 -0.1070837 -0.007498145 -0.1060831 -0.0142526 -0.1342871 -0.006612241 -0.09536933 0.03422719 -0.09968107 0.02868288 -0.1243304 0.03811401 -0.08505147 0.07735162 -0.08547425 0.07061243 -0.1103817 0.08476203 -0.02381783 0.1447149 -0.02785241 0.139311 -0.04143017 0.1646134 0.04103946 0.1466677 0.0345112 0.1488873 0.03542429 0.1748285 0.09425175 0.1251922 0.08750969 0.1258157 0.1031998 0.1495583 0.1151012 0.1022129 0.1127396 0.1085087 0.1344538 0.1230784 0 0 0 0 0 0 0 0 0 0 0 0 0.03990244 0.1740611 0.03748238 0.1751286 0.03829818 0.1847538 0.1043557 0.1489102 0.101624 0.1488891 0.1080884 0.1578197 0.1426584 0.1090279 0.140541 0.1107326 0.1510499 0.1141722 0.1429307 0.07537746 0.1412433 0.07744461 0.1517743 0.07764911 -0.1345894 -0.001488626 -0.1336562 -0.003776252 -0.1433657 -0.001526713 -0.1128931 0.09019666 -0.1123146 0.08753037 -0.1214463 0.09263515 -0.07094842 0.1486811 -0.0717222 0.1460661 -0.07755506 0.1551498 -0.1349078 0.04510819 -0.1250122 0.04392057 -0.1265575 0.04204624 0 0 0 0 0 0 0 0 0 0 0 0 0 0 0 0 0 0 0 0 0 0 0 0 0.1325492 0.1018617 0.1288412 0.1047011 0.1471502 0.1112514 0 0 0 0 0 0 0.1297436 0.07716375 0.1272591 0.08097708 0.1462059 0.08206528 0.1095576 0.07941406 0.1104117 0.08400744 0.1269316 0.0870496 -0.1238479 0.001134574 -0.1229362 -0.003126204 -0.1406332 0.001779615 -0.1134023 0.04015761 -0.1160166 0.03664892 -0.1315791 0.04277527 -0.1013613 0.08460438 -0.1015709 0.0802859 -0.1173827 0.08940416 -0.07739728 0.1237765 -0.08119106 0.1215639 -0.09331136 0.132715 -0.03648024 0.1561294 -0.03881549 0.1524125 -0.04723668 0.1686013 0.03374695 0.1624073 0.02959275 0.1634811 0.03030467 0.1803278 0.09759575 0.1387712 0.09303998 0.1389737 0.1036432 0.1545113 0 0 0 0 0 0 0.1058956 0.08687573 0.09803235 0.09341913 0.1380292 0.106488 0.09971618 0.08053839 0.1009131 0.09046387 0.1389046 0.09586215 0.09972596 0.06815385 0.09501022 0.07697725 0.1370708 0.07697725 0.09537732 0.02929848 0.09988915 0.03813201 0.1374325 0.02861583 -0.08708316 -0.01047271 -0.08409821 -0.02010715 -0.1257767 -0.01216757 -0.07615411 0.03188395 -0.08192348 0.02354091 -0.1183883 0.03593415 -0.06977051 0.06396538 -0.1060469 0.08321571 -0.06878739 0.07346898 -0.04795598 0.1068203 -0.05633389 0.1015677 -0.08442986 0.1256937 -0.01675802 0.1326852 -0.02174562 0.1241877 -0.04186153 0.1599113 0.03968173 0.1300325 0.03031021 0.1326957 0.03112131 0.1701269 0.08630383 0.1096734 0.07625979 0.1102261 0.09972429 0.1446253 0.1005889 0.08916175 0.09785902 0.09877985 0.1295816 0.1190501 -0.05660325 0.0301792 -0.04847693 0.05302572 -0.03275442 0.03456491 -0.06226539 0.1159605 -0.06413006 0.1087737 -0.06764465 0.1119413 -0.02068179 0.1411718 -0.02785241 0.139311 -0.02381783 0.1447149 0.03927558 0.1470302 0.03258603 0.1438475 0.03272789 0.1491934 0.09240829 0.1201722 0.08750969 0.1258157 0.09425175 0.1251922 0.1151012 0.1022129 0.1084583 0.105636 0.1127396 0.1085087 0.1170794 0.09319871 0.1158267 0.1003934 0.1214091 0.09599786 0.1171206 0.0890522 0.1131437 0.09517729 0.1173164 0.09591221 0 0 0 0 0 0 0.08493834 0.08716392 0.08012294 0.09268432 0.08402901 0.09388655 0 0 0 0 0 0 -0.09330368 0.03394997 -0.09509247 0.02692729 -0.09968107 0.02868288 -0.09536933 0.03422719 -0.09330368 0.03394997 -0.09968107 0.02868288 0 0 0 0 0 0 0 0 0 0 0 0 -0.03862082 0.04693865 -0.03461712 0.04246979 -0.04235744 0.03553521 -0.1250122 0.04392051 -0.1223115 0.04048931 -0.1265574 0.04204624 -0.08753424 0.1315755 -0.08674979 0.1276212 -0.08984178 0.1304194 -0.04117798 0.1635046 -0.04495179 0.1640637 -0.04390859 0.1666566 0.03330183 0.1737618 0.03066194 0.1710083 0.0308535 0.1747614 0.0990445 0.1460086 0.09763377 0.1494539 0.100363 0.1495264 0.1327223 0.121747 0.1291494 0.1223992 0.1321962 0.1242685 0.143094 0.09631168 0.1400695 0.09840118 0.1443005 0.0990805 0 0 0 0 0 0 0.1323297 0.05980402 0.129119 0.06216579 0.1337583 0.06225329 0 0 0 0 0 0 0 0 0 0 0 0 0 0 0 0 0 0 0 0 0 0 0 0 0 0 0 0 0 0 0 0 0 0 0 0 -0.04821354 0.03215616 -0.04291528 0.04773432 -0.03207325 0.03535687 -0.09703356 0.08330786 -0.1015709 0.0802859 -0.1013613 0.08460438 -0.07803303 0.1240892 -0.07830947 0.1186447 -0.08182477 0.1218731 -0.03336304 0.1525149 -0.03881549 0.1524125 -0.03648024 0.1561294 0 0 0 0 0 0 0.1231606 0.1133508 0.1183212 0.115328 0.1215551 0.1174772 0.1324021 0.1021153 0.1291341 0.100018 0.1269749 0.1044362 0.1308214 0.09139078 0.1277485 0.09544044 0.131754 0.09614062 0 0 0 0 0 0 0.1048703 0.08387035 0.1011185 0.08742809 0.1054299 0.08850979 -0.1194062 9.63907e-4 -0.1229362 -0.003126204 -0.1238479 0.001134574 -0.1130143 0.04111522 -0.1114068 0.03595703 -0.1156163 0.03759706 0.02940768 0.1591041 0.02959275 0.1634811 0.03374695 0.1624073 0.03431195 0.1594665 0.02940768 0.1591041 0.03374695 0.1624073 0.1265459 0.1023879 0.1282698 0.1029056 0.1319664 0.1000515 -0.06299585 0.04957592 -0.0473718 0.06284773 -0.02438431 0.03578615 -0.04772251 0.1070651 -0.04942327 0.09607595 -0.05610239 0.1018154 -0.0107885 0.1262109 -0.02174562 0.1241877 -0.01675802 0.1326852 0.03968173 0.1300325 0.03012824 0.1242982 0.03031021 0.1326957 0.09874981 0.08249765 0.09431594 0.09213852 0.09789031 0.09331047 0 0 0 0 0 0 0 0 0 0 0 0 0.0950101 0.03135454 0.09245961 0.04189485 0.09937798 0.04026031 -0.07998114 -0.01016157 -0.08409821 -0.02010715 -0.08708316 -0.01047271 -0.07615411 0.03188395 -0.07498699 0.02118343 -0.08192348 0.02354091 -0.06169962 0.07161492 -0.06977051 0.06396538 -0.06878739 0.07346898 0.07389342 0.1067569 0.07625979 0.1102261 0.08630383 0.1096734 0.08329296 0.101832 0.07389342 0.1067569 0.08630383 0.1096734 0 0 0 0 0 0 0 0 0 0 0 0 0.09803235 0.09341913 0.1058956 0.08687573 0.0989018 0.08260715 -0.03275442 0.03456491 -0.03686743 0.02859818 -0.05660325 0.0301792 -0.03686743 0.02859818 -0.0434128 0.02548748 -0.05660325 0.0301792 -0.0434128 0.02548748 -0.05063652 0.02606618 -0.05660325 0.0301792 -0.05660325 0.0301792 -0.05971395 0.0367245 -0.05913525 0.04394835 -0.05913525 0.04394835 -0.05502223 0.04991495 -0.04847693 0.05302572 -0.04847693 0.05302572 -0.04125308 0.05244708 -0.03528642 0.048334 -0.03528642 0.048334 -0.03217571 0.04178863 -0.04847693 0.05302572 -0.03217571 0.04178863 -0.03275442 0.03456491 -0.04847693 0.05302572 -0.05660325 0.0301792 -0.05913525 0.04394835 -0.04847693 0.05302572 -0.06226539 0.1159605 -0.05993402 0.1146824 -0.06413006 0.1087737 -0.02068179 0.1411718 -0.02662783 0.1370291 -0.02785241 0.139311 0.03927558 0.1470302 0.03980404 0.1444951 0.03258603 0.1438475 0.09240829 0.1201722 0.08594042 0.123441 0.08750969 0.1258157 0.1151012 0.1022129 0.1131656 0.100126 0.1084583 0.105636 0.1170794 0.09319871 0.1138758 0.09969902 0.1158267 0.1003934 0.1171206 0.0890522 0.1152184 0.08823364 0.1131437 0.09517729 0 0 0 0 0 0 0.08493834 0.08716392 0.0830422 0.08605134 0.08012294 0.09268432 0 0 0 0 0 0 -0.04235744 0.03553521 -0.04495793 0.03723329 -0.04636102 0.04000413 -0.04636102 0.04000413 -0.04619079 0.04310524 -0.04449284 0.04570579 -0.04449284 0.04570579 -0.04172199 0.04710888 -0.03862082 0.04693865 -0.03862082 0.04693865 -0.03602027 0.0452407 -0.03461712 0.04246979 -0.03461712 0.04246979 -0.03478735 0.03936862 -0.03648543 0.03676807 -0.03648543 0.03676807 -0.03925627 0.03536504 -0.03461712 0.04246979 -0.03925627 0.03536504 -0.04235744 0.03553521 -0.03461712 0.04246979 -0.04235744 0.03553521 -0.04636102 0.04000413 -0.04449284 0.04570579 -0.04449284 0.04570579 -0.03862082 0.04693865 -0.04235744 0.03553521 -0.1250122 0.04392051 -0.121587 0.04350954 -0.1223115 0.04048931 -0.08753424 0.1315755 -0.08494633 0.1301498 -0.08674979 0.1276212 -0.04117798 0.1635046 -0.0437451 0.1617563 -0.04495179 0.1640637 0.03330183 0.1737618 0.03376179 0.1711996 0.03066194 0.1710083 0.0990445 0.1460086 0.09630101 0.1474643 0.09763377 0.1494539 0.1327223 0.121747 0.1311027 0.1199844 0.1291494 0.1223992 0.143094 0.09631168 0.1409136 0.09541225 0.1400695 0.09840118 0 0 0 0 0 0 0.1323297 0.05980402 0.1295365 0.05908823 0.129119 0.06216579 -0.03207325 0.03535687 -0.03480774 0.03126966 -0.03921937 0.02909725 -0.03921937 0.02909725 -0.04412633 0.0294218 -0.04821354 0.03215616 -0.04821354 0.03215616 -0.05038595 0.03656786 -0.05006146 0.04147469 -0.05006146 0.04147469 -0.04732698 0.0455619 -0.04821354 0.03215616 -0.04732698 0.0455619 -0.04291528 0.04773432 -0.04821354 0.03215616 -0.04291528 0.04773432 -0.03800845 0.04740989 -0.03207325 0.03535687 -0.03800845 0.04740989 -0.03392124 0.0446754 -0.03207325 0.03535687 -0.03392124 0.0446754 -0.03174883 0.04026377 -0.03207325 0.03535687 -0.03207325 0.03535687 -0.03921937 0.02909725 -0.04821354 0.03215616 -0.09703356 0.08330786 -0.0989806 0.07879215 -0.1015709 0.0802859 -0.07803303 0.1240892 -0.07542473 0.1226273 -0.07830947 0.1186447 -0.03336304 0.1525149 -0.03743368 0.1497558 -0.03881549 0.1524125 0 0 0 0 0 0 0.1231606 0.1133508 0.1214992 0.1115751 0.1183212 0.115328 0.1308214 0.09139078 0.1291503 0.09072685 0.1277485 0.09544044 0 0 0 0 0 0 0.1048703 0.08387035 0.1028593 0.08282893 0.1011185 0.08742809 -0.1194062 9.63907e-4 -0.1201626 -0.003895044 -0.1229362 -0.003126204 -0.1130143 0.04111522 -0.110164 0.04071497 -0.1114068 0.03595703 -0.02438431 0.03578615 -0.03041827 0.02705705 -0.04000836 0.02251434 -0.04000836 0.02251434 -0.05058503 0.02337533 -0.05931413 0.02940917 -0.05931413 0.02940917 -0.06385684 0.03899925 -0.06299585 0.04957592 -0.06299585 0.04957592 -0.05696189 0.05830502 -0.0473718 0.06284773 -0.0473718 0.06284773 -0.03679513 0.06198674 -0.02806603 0.05595278 -0.02806603 0.05595278 -0.02352339 0.04636263 -0.0473718 0.06284773 -0.02352339 0.04636263 -0.02438431 0.03578615 -0.0473718 0.06284773 -0.02438431 0.03578615 -0.04000836 0.02251434 -0.05931413 0.02940917 -0.05931413 0.02940917 -0.06299585 0.04957592 -0.02438431 0.03578615 -0.04772251 0.1070651 -0.04348534 0.1048706 -0.04942327 0.09607595 -0.0107885 0.1262109 -0.01937001 0.119969 -0.02174562 0.1241877 0.03968173 0.1300325 0.04069256 0.1252978 0.03012824 0.1242982 0 0 0 0 0 0 0 0 0 0 0 0 0.0950101 0.03135454 0.0912314 0.03135454 0.09245961 0.04189485 -0.07998114 -0.01016157 -0.080747 -0.02074557 -0.08409821 -0.02010715 -0.07615411 0.03188395 -0.07275813 0.03155827 -0.07498699 0.02118343 -0.06169962 0.07161492 -0.06555545 0.06172853 -0.06977051 0.06396538 0.08385252 0.07379019 0.1001759 0.07915675 0.08497059 0.07155412 0.07560533 0.09219413 0.0898599 0.1017888 0.09093928 0.09953379 0.05955582 0.1090826 0.07270437 0.1201447 0.07401835 0.1180179 0.01720464 0.1204326 0.02505135 0.1357191 0.02708566 0.134266 -0.07165467 0.0882591 -0.08004885 0.1032521 -0.07771295 0.104143 -0.09203726 0.057069 -0.104315 0.06909018 -0.09056675 0.05909079 -0.08608859 0.06931805 -0.1001757 0.07915681 -0.08497053 0.07155412 -0.07668465 0.08993917 -0.09093928 0.09953379 -0.07560533 0.09219413 -0.06086987 0.1069558 -0.07401835 0.1180179 -0.05955582 0.1090826 -0.01923888 0.1189795 -0.02708566 0.134266 -0.01720464 0.1204326 0.06931883 0.08915001 0.07771295 0.104143 0.07165467 0.0882591 0.08909624 0.06111258 0.104315 0.06909018 0.09056675 0.05909085 0.04891151 0.04242205 0.0456745 0.03861141 0.04075568 0.03950929 -0.04309481 0.03840142 -0.04780352 0.04008311 -0.04489076 0.04823881 0.08385252 0.07379019 0.09905779 0.08139282 0.1001759 0.07915675 0.07560533 0.09219413 0.07452595 0.09444916 0.0898599 0.1017888 0.05955582 0.1090826 0.0582419 0.1112095 0.07270437 0.1201447 0.01720464 0.1204326 0.01517021 0.1218857 0.02505135 0.1357191 -0.07165467 0.0882591 -0.07399058 0.08736819 -0.08004885 0.1032521 -0.09203726 0.057069 -0.1057855 0.06706839 -0.104315 0.06909018 -0.08608859 0.06931805 -0.1012939 0.07692074 -0.1001757 0.07915681 -0.07668465 0.08993917 -0.0920186 0.09727883 -0.09093928 0.09953379 -0.06086987 0.1069558 -0.07533234 0.115891 -0.07401835 0.1180179 -0.01923888 0.1189795 -0.02911996 0.1328129 -0.02708566 0.134266 0.06931883 0.08915001 0.0753771 0.1050339 0.07771295 0.104143 0.08909624 0.06111258 0.1028445 0.07111197 0.104315 0.06909018 0.04075568 0.03950929 0.03928411 0.04163843 0.04231113 0.04802876 0.03928411 0.04163843 0.03907412 0.04421812 0.04231113 0.04802876 0.03907412 0.04421812 0.04018205 0.04655706 0.04231113 0.04802876 0.04231113 0.04802876 0.04489076 0.04823881 0.04722976 0.04713082 0.04722976 0.04713082 0.04870152 0.0450018 0.04891151 0.04242205 0.04891151 0.04242205 0.04780352 0.04008311 0.0456745 0.03861141 0.0456745 0.03861141 0.04309481 0.03840142 0.04075568 0.03950929 0.04231113 0.04802876 0.04722976 0.04713082 0.04075568 0.03950929 0.04722976 0.04713082 0.04891151 0.04242205 0.04075568 0.03950929 -0.03928405 0.04163843 -0.04075568 0.03950929 -0.04309481 0.03840142 -0.04309481 0.03840142 -0.0456745 0.03861141 -0.04780352 0.04008311 -0.04780352 0.04008311 -0.04891151 0.04242205 -0.04489076 0.04823881 -0.04891151 0.04242205 -0.04870152 0.0450018 -0.04489076 0.04823881 -0.04870152 0.0450018 -0.04722976 0.04713082 -0.04489076 0.04823881 -0.04489076 0.04823881 -0.04231113 0.04802876 -0.04018205 0.04655706 -0.04018205 0.04655706 -0.03907412 0.04421812 -0.04489076 0.04823881 -0.03907412 0.04421812 -0.03928405 0.04163843 -0.04489076 0.04823881 -0.03928405 0.04163843 -0.04309481 0.03840142 -0.04489076 0.04823881</float_array>
          <technique_common>
            <accessor source="#group558928348_001-mesh-map-0-array" count="684" stride="2">
              <param name="S" type="float"/>
              <param name="T" type="float"/>
            </accessor>
          </technique_common>
        </source>
        <vertices id="group558928348_001-mesh-vertices">
          <input semantic="POSITION" source="#group558928348_001-mesh-positions"/>
        </vertices>
        <triangles count="228">
          <input semantic="VERTEX" source="#group558928348_001-mesh-vertices" offset="0"/>
          <input semantic="NORMAL" source="#group558928348_001-mesh-normals" offset="1"/>
          <input semantic="TEXCOORD" source="#group558928348_001-mesh-map-0" offset="2" set="0"/>
          <p>2 0 0 1 1 1 0 2 2 1 3 3 3 3 4 0 3 5 3 4 6 4 4 7 0 4 8 6 5 9 5 6 10 0 7 11 5 8 12 7 8 13 0 8 14 7 9 15 8 10 16 0 11 17 10 12 18 9 12 19 0 12 20 9 13 21 11 14 22 0 15 23 11 16 24 12 16 25 0 16 26 12 17 27 2 17 28 0 17 29 4 18 30 6 18 31 0 18 32 8 19 33 10 19 34 0 19 35 27 20 36 26 20 37 25 20 38 26 21 39 28 21 40 25 21 41 30 22 42 29 22 43 25 22 44 32 23 45 31 23 46 25 23 47 34 24 48 33 24 49 25 24 50 36 25 51 35 25 52 25 25 53 37 26 54 27 27 55 25 28 56 25 29 57 33 29 58 36 29 59 28 30 60 30 30 61 25 30 62 29 31 63 32 31 64 25 31 65 31 32 66 34 32 67 25 32 68 35 33 69 37 33 70 25 33 71 76 34 72 75 34 73 74 34 74 75 35 75 77 35 76 74 35 77 77 36 78 78 37 79 74 38 80 78 39 81 79 40 82 74 41 83 79 42 84 80 42 85 74 42 86 80 43 87 81 44 88 74 45 89 81 46 90 82 46 91 74 46 92 82 47 93 83 47 94 74 47 95 83 48 96 84 48 97 74 48 98 84 49 99 85 49 100 74 49 101 85 50 102 86 51 103 74 52 104 86 53 105 76 53 106 74 53 107 101 54 108 100 54 109 99 54 110 100 55 111 102 55 112 99 55 113 102 56 114 103 57 115 99 58 116 103 59 117 104 60 118 99 61 119 104 62 120 105 62 121 99 62 122 105 63 123 106 63 124 99 63 125 107 64 126 99 64 127 106 64 128 107 65 129 108 66 130 99 67 131 108 68 132 109 68 133 99 68 134 109 69 135 110 69 136 99 69 137 110 70 138 111 70 139 99 70 140 111 71 141 101 72 142 99 73 143 21 74 144 17 74 145 13 74 146 8 75 147 21 76 148 10 77 149 21 78 150 9 78 151 10 78 152 9 79 153 23 79 154 11 79 155 23 80 156 12 80 157 11 80 158 12 81 159 13 81 160 2 81 161 13 82 162 1 82 163 2 82 164 1 83 165 15 83 166 3 83 167 15 84 168 4 84 169 3 84 170 4 85 171 17 86 172 6 87 173 17 88 174 5 88 175 6 88 176 18 89 177 19 89 178 7 89 179 5 90 180 18 90 181 7 90 182 19 91 183 20 91 184 8 91 185 7 92 186 19 92 187 8 92 188 44 93 189 42 93 190 38 93 191 33 94 192 47 94 193 36 94 194 35 95 195 49 96 196 37 97 197 49 98 198 27 98 199 37 98 200 27 99 201 39 100 202 26 101 203 39 102 204 28 103 205 26 104 206 28 105 207 41 106 208 30 107 209 29 108 210 43 109 211 32 110 212 43 111 213 31 111 214 32 111 215 31 112 216 45 113 217 34 114 218 47 115 219 48 115 220 35 115 221 36 116 222 47 116 223 35 116 224 42 117 225 29 117 226 30 117 227 41 118 228 42 118 229 30 118 230 46 119 231 33 119 232 34 119 233 45 120 234 46 120 235 34 120 236 95 121 237 91 121 238 87 121 239 93 122 240 82 122 241 81 122 242 82 123 243 95 124 244 83 125 245 95 126 246 84 126 247 83 126 248 97 127 249 86 127 250 85 127 251 86 128 252 87 129 253 76 130 254 76 131 255 87 131 256 88 131 257 75 132 258 89 133 259 77 134 260 89 135 261 78 135 262 77 135 263 78 136 264 91 136 265 79 136 266 91 137 267 80 137 268 79 137 269 80 138 270 93 138 271 81 138 272 97 139 273 85 139 274 84 139 275 96 140 276 97 140 277 84 140 278 88 141 279 75 141 280 76 141 281 118 142 282 116 142 283 112 142 284 107 143 285 120 143 286 108 143 287 120 144 288 109 144 289 108 144 290 109 145 291 122 145 292 110 145 293 112 146 294 113 146 295 100 146 296 100 147 297 114 147 298 102 147 299 114 148 300 103 148 301 102 148 302 103 149 303 116 149 304 104 149 305 116 150 306 105 150 307 104 150 308 105 151 309 118 151 310 106 151 311 118 152 312 107 152 313 106 152 314 123 153 315 111 153 316 110 153 317 122 154 318 123 154 319 110 154 320 112 155 321 101 155 322 111 155 323 123 156 324 112 156 325 111 156 326 100 157 327 101 157 328 112 157 329 13 158 330 24 158 331 21 158 332 24 159 333 23 159 334 21 159 335 23 160 336 22 160 337 21 160 338 21 161 339 20 161 340 19 161 341 19 162 342 18 162 343 17 162 344 17 163 345 16 163 346 15 163 347 15 164 348 14 164 349 17 164 350 14 165 351 13 165 352 17 165 353 21 166 354 19 166 355 17 166 356 8 167 357 20 168 358 21 169 359 21 170 360 22 170 361 9 170 362 9 171 363 22 171 364 23 171 365 23 172 366 24 172 367 12 172 368 12 173 369 24 173 370 13 173 371 13 174 372 14 174 373 1 174 374 1 175 375 14 175 376 15 175 377 15 176 378 16 176 379 4 176 380 4 177 381 16 178 382 17 179 383 17 180 384 18 180 385 5 180 386 38 181 387 49 181 388 48 181 389 48 182 390 47 182 391 46 182 392 46 183 393 45 183 394 44 183 395 44 184 396 43 184 397 42 184 398 42 185 399 41 185 400 40 185 401 40 186 402 39 186 403 42 186 404 39 187 405 38 187 406 42 187 407 38 188 408 48 188 409 46 188 410 46 189 411 44 189 412 38 189 413 33 190 414 46 190 415 47 190 416 35 191 417 48 192 418 49 193 419 49 194 420 38 194 421 27 194 422 27 195 423 38 196 424 39 197 425 39 198 426 40 199 427 28 200 428 28 201 429 40 202 430 41 203 431 29 204 432 42 205 433 43 206 434 43 207 435 44 207 436 31 207 437 31 208 438 44 209 439 45 210 440 87 211 441 98 211 442 97 211 443 97 212 444 96 212 445 95 212 446 95 213 447 94 213 448 93 213 449 93 214 450 92 214 451 95 214 452 92 215 453 91 215 454 95 215 455 91 216 456 90 216 457 87 216 458 90 217 459 89 217 460 87 217 461 89 218 462 88 218 463 87 218 464 87 219 465 97 219 466 95 219 467 93 220 468 94 220 469 82 220 470 82 221 471 94 222 472 95 223 473 95 224 474 96 224 475 84 224 476 97 225 477 98 225 478 86 225 479 86 226 480 98 227 481 87 228 482 75 229 483 88 230 484 89 231 485 89 232 486 90 232 487 78 232 488 78 233 489 90 233 490 91 233 491 91 234 492 92 234 493 80 234 494 80 235 495 92 235 496 93 235 497 112 236 498 123 236 499 122 236 500 122 237 501 121 237 502 120 237 503 120 238 504 119 238 505 118 238 506 118 239 507 117 239 508 116 239 509 116 237 510 115 237 511 114 237 512 114 237 513 113 237 514 116 237 515 113 237 516 112 237 517 116 237 518 112 240 519 122 240 520 120 240 521 120 241 522 118 241 523 112 241 524 107 242 525 119 242 526 120 242 527 120 243 528 121 243 529 109 243 530 109 244 531 121 244 532 122 244 533 100 245 534 113 245 535 114 245 536 114 246 537 115 246 538 103 246 539 103 247 540 115 247 541 116 247 542 116 248 543 117 248 544 105 248 545 105 249 546 117 249 547 118 249 548 118 250 549 119 250 550 107 250 551 52 251 552 50 252 553 53 253 554 52 254 555 54 255 556 51 256 557 55 257 558 56 258 559 54 259 560 57 260 561 58 261 562 56 262 563 59 263 564 60 264 565 58 265 566 63 266 567 60 267 568 61 268 569 65 269 570 62 270 571 63 271 572 67 272 573 64 273 574 65 274 575 69 275 576 66 276 577 67 277 578 71 278 579 68 279 580 69 280 581 73 281 582 70 282 583 71 283 584 53 284 585 72 285 586 73 286 587 64 287 588 68 287 589 72 287 590 71 237 591 67 237 592 59 237 593 52 288 594 51 289 595 50 290 596 52 291 597 55 292 598 54 293 599 55 294 600 57 295 601 56 296 602 57 297 603 59 298 604 58 299 605 59 300 606 61 301 607 60 302 608 63 303 609 62 304 610 60 305 611 65 306 612 64 307 613 62 308 614 67 309 615 66 310 616 64 311 617 69 312 618 68 313 619 66 314 620 71 315 621 70 316 622 68 317 623 73 318 624 72 319 625 70 320 626 53 321 627 50 322 628 72 323 629 72 324 630 50 324 631 56 324 632 50 325 633 51 325 634 56 325 635 51 326 636 54 326 637 56 326 638 56 287 639 58 287 640 60 287 641 60 327 642 62 327 643 64 327 644 64 328 645 66 328 646 68 328 647 68 287 648 70 287 649 72 287 650 56 329 651 60 329 652 72 329 653 60 330 654 64 330 655 72 330 656 53 237 657 73 237 658 71 237 659 71 237 660 69 237 661 67 237 662 67 331 663 65 331 664 59 331 665 65 332 666 63 332 667 59 332 668 63 333 669 61 333 670 59 333 671 59 237 672 57 237 673 55 237 674 55 237 675 52 237 676 59 237 677 52 334 678 53 334 679 59 334 680 53 335 681 71 335 682 59 335 683</p>
        </triangles>
      </mesh>
    </geometry>
    <geometry id="group558928348-mesh" name="group558928348">
      <mesh>
        <source id="group558928348-mesh-positions">
          <float_array id="group558928348-mesh-positions-array" count="372">0.008645892 0.1984193 0.01047325 0.06599122 -0.06703734 0.1186762 0.001736283 -0.03714507 0.1237863 0.1053861 -0.04827535 0.06570559 0.129172 -0.06645083 0.004538178 0.06274819 -0.06330847 -0.1076648 0.1041918 -0.04770141 -0.05568271 -0.001682639 -0.03556996 -0.111165 -0.06632584 -0.05349481 -0.1034471 -0.1290861 -0.05353754 0.008415102 -0.1037477 -0.03437626 -0.05107295 -0.09949189 -0.03082859 0.06641161 -0.06270235 -0.05535948 0.1176872 3.7393e-4 -0.08359038 0.1461278 0.07005327 -0.08584094 0.1263407 0.1205289 -0.08689069 0.07435113 0.1382761 -0.08645832 0.004089832 0.1185393 -0.08465969 -0.06561696 0.06660705 -0.08197677 -0.1160912 -0.003605306 -0.07912838 -0.1338084 -0.07328474 -0.07687771 -0.1140214 -0.1237604 -0.07582795 -0.06203186 -0.1415076 -0.07626032 0.008229494 -0.1217707 -0.07805895 0.07793623 -0.06983852 -0.080742 0.1284105 0.007063031 0.3003052 -0.001080036 -0.02979212 0.2142504 0.02274274 -0.04200267 0.203992 0.001640379 -0.01661485 0.2022747 0.04345875 0.03186982 0.2020204 0.04309499 0.006909966 0.2127575 0.04390293 0.05345565 0.2057462 -2.29835e-4 0.04220283 0.2187536 0.02017128 0.02793669 0.2102937 -0.03843647 0.04008311 0.2211968 -0.01988846 -0.01780229 0.206188 -0.03939831 0.005704462 0.2200373 -0.03936344 -0.02975398 0.2175202 -0.01952731 -0.05381876 0.1807978 0.002295494 -0.04520457 0.181288 0.03213125 -0.02282512 0.1815212 0.05366533 0.007323086 0.1814351 0.0611279 0.037162 0.1810527 0.05251914 0.05869621 0.1804763 0.03014588 0.06615561 0.1798607 2.92063e-6 0.05754142 0.1793705 -0.02983278 0.03516197 0.1791372 -0.05136698 0.005013704 0.1792234 -0.05882942 -0.02482521 0.1796058 -0.05022066 -0.04635936 0.180182 -0.0278474 -0.002563059 -0.284111 0.04128128 0.02243685 -0.284111 0.03458255 0.02243685 -0.4541111 0.03458243 -0.002563059 -0.4541111 0.04128128 0.0407381 -0.284111 0.01628124 0.0407381 -0.4541111 0.01628118 0.04743689 -0.284111 -0.008718729 0.04743689 -0.4541111 -0.008718729 0.0407381 -0.284111 -0.0337187 0.0407381 -0.4541111 -0.03371876 0.02243685 -0.284111 -0.05201995 0.02243685 -0.4541111 -0.05202001 -0.002563059 -0.284111 -0.05871874 -0.002563059 -0.4541111 -0.05871874 -0.02756309 -0.284111 -0.05201995 -0.02756309 -0.4541111 -0.05202001 -0.04586434 -0.284111 -0.0337187 -0.04586434 -0.4541111 -0.03371876 -0.05256307 -0.284111 -0.008718729 -0.05256307 -0.4541111 -0.008718729 -0.04586434 -0.284111 0.01628124 -0.04586434 -0.4541111 0.01628118 -0.02756303 -0.284111 0.03458255 -0.02756303 -0.4541111 0.03458255 0.01056021 0.2492307 0.001421988 0.04938429 0.07541704 0.07948487 0.00731796 0.09553861 0.08206629 0.07343733 0.09466183 0.04213756 0.09094333 0.07733225 0.003866255 0.07124501 0.09662532 -0.0338633 0.04653376 0.08260858 -0.0669009 0.005831718 0.09828007 -0.07043772 -0.03528028 0.08578228 -0.06565082 -0.05746197 0.1029794 -0.0318709 -0.07529854 0.08826065 0.005439758 -0.05827265 0.1009473 0.04272627 -0.03511929 0.08358538 0.07797026 0.00659275 0.06115937 0.1001055 0.05393701 0.05965822 0.0868957 0.08832252 0.05806982 0.05177634 0.1005354 0.05681961 0.004157841 0.0873034 0.05624282 -0.04320055 0.05217188 0.05649369 -0.07760924 0.00455445 0.05750519 -0.08984845 -0.04278981 0.05900633 -0.07663863 -0.07717525 0.06059473 -0.04151934 -0.08938819 0.06184494 0.006099164 -0.07615613 0.06242173 0.05345755 -0.04102468 0.06217086 0.0878663 -0.007562935 0.1258888 -0.003718674 0.08652949 -0.2505703 0.1590072 -0.007563114 -0.2108247 0.164638 0.1410554 -0.2173311 0.0820862 0.1805382 -0.2503139 -0.003718793 0.1424398 -0.2205281 -0.09032297 0.08730858 -0.2535979 -0.1680413 -0.007563114 -0.2185841 -0.1759552 -0.09939318 -0.2414309 -0.162773 -0.1509917 -0.205345 -0.08652722 -0.1909112 -0.2408072 -0.003718793 -0.1525674 -0.2089838 0.07999944 -0.1006729 -0.2465504 0.1575522 -0.007563114 -0.2841113 0.2012812 0.09493684 -0.2841113 0.1738164 0.1699721 -0.2841113 0.09878122 0.1974369 -0.2841113 -0.003718793 0.1699721 -0.2841113 -0.1062188 0.09493684 -0.2841113 -0.181254 -0.007563114 -0.2841111 -0.2087188 -0.1100632 -0.2841111 -0.181254 -0.1850984 -0.2841111 -0.1062188 -0.2125632 -0.2841111 -0.003718793 -0.1850984 -0.2841111 0.09878122 -0.1100631 -0.2841113 0.1738165</float_array>
          <technique_common>
            <accessor source="#group558928348-mesh-positions-array" count="124" stride="3">
              <param name="X" type="float"/>
              <param name="Y" type="float"/>
              <param name="Z" type="float"/>
            </accessor>
          </technique_common>
        </source>
        <source id="group558928348-mesh-normals">
          <float_array id="group558928348-mesh-normals-array" count="1008">0.2668839 0.412648 0.870916 0.2668839 0.412648 0.870916 0.2668839 0.4126484 0.8709159 0.6612316 0.4012169 0.6338753 0.8883745 0.3991614 0.22685 0.6527571 0.4224376 -0.628852 0.6527575 0.4224365 -0.6288522 0.652757 0.4224377 -0.6288518 0.2364594 0.4399271 -0.8663436 -0.2255746 0.4571765 -0.8602941 -0.2255746 0.4571767 -0.8602939 -0.2255746 0.4571769 -0.8602938 -0.8564987 0.4699476 -0.2134458 -0.8461369 0.4633778 0.2633125 -0.8461363 0.463379 0.2633121 -0.8461363 0.4633789 0.2633121 -0.6112554 0.4475984 0.6527041 -0.204581 0.4291822 0.879744 0.8817501 0.4065894 -0.2391691 -0.6293526 0.4678922 -0.6204774 -0.8526133 0.4422178 0.2783773 -0.6172738 0.4441379 0.6493957 0.2197515 0.4455386 0.8678736 0.8773386 0.4323133 0.2082839 0.6275854 0.4181027 -0.6567547 -0.2465063 0.4206004 -0.8731151 -0.7732397 0.4446266 -0.4521145 -0.7732462 0.4446121 -0.4521178 -0.7732358 0.4446354 -0.4521126 0.2195138 0.4169597 -0.8820195 -0.2153957 0.4465842 0.8684281 0.6520978 0.4415737 0.6162639 0.868368 0.4237226 -0.2576746 -0.645613 0.4280486 -0.6324226 0.26476 0.4436689 0.8561893 0.6427662 0.4287053 0.6348727 0.8830915 0.4160356 0.2169426 0.8830914 0.4160355 0.2169426 0.8830913 0.4160359 0.2169426 0.885077 0.4049969 -0.2293826 0.8850774 0.4049959 -0.2293828 0.885078 0.4049944 -0.2293832 0.6410613 0.4055794 -0.6515718 0.2460751 0.4103168 -0.8781158 0.2460752 0.4103171 -0.8781157 0.2460751 0.410316 -0.8781161 -0.2308852 0.4241018 -0.8756881 -0.6318951 0.4392605 -0.63856 -0.8605329 0.4531882 -0.2326018 -0.8555323 0.4621527 0.233408 -0.6136722 0.4643368 0.6385905 -0.6136723 0.4643364 0.6385906 -0.6136721 0.4643369 0.6385904 -0.2122228 0.457558 0.8634827 0.2356075 0.4346235 0.8692477 0.6353816 0.4346855 0.6382309 0.8687975 0.4343984 0.2376742 0.8688077 0.4344034 0.2376276 0.8688079 0.4344031 0.2376276 0.8682914 0.4354025 -0.237686 0.8682914 0.4354028 -0.237686 0.8682914 0.4354027 -0.237686 0.6367353 0.4348981 -0.6367353 0.2330614 0.4348983 -0.8697965 -0.2330595 0.4348987 -0.8697969 -0.6345587 0.4345566 -0.6391369 -0.6345266 0.4345516 -0.6391721 -0.6345266 0.4345515 -0.6391721 -0.8697965 0.4348988 -0.2330604 -0.8697966 0.4348987 0.2330597 -0.6367341 0.4348985 0.6367362 -0.2338066 0.4348181 0.8696365 -0.2338066 0.4348181 0.8696365 -0.2338065 0.4348182 0.8696365 -0.03664875 -0.9992095 -0.01540607 -0.637623 0.4649726 -0.6141965 -0.6311 0.458579 -0.6256342 -0.6330351 0.4583318 -0.6238577 -0.8564998 0.4699454 -0.2134472 -0.8498742 0.4625189 0.2525672 -0.6112555 0.4475981 0.6527042 -0.2045807 0.429183 0.8797436 0.26118 0.4122062 0.8728523 0.6612312 0.4012177 0.6338751 0.8883742 0.3991623 0.2268497 0.8799603 0.4042005 -0.2495834 0.8863825 0.3968231 -0.2384483 0.8858712 0.396672 -0.2405903 0.6431328 0.4215114 -0.639303 0.2364579 0.439924 -0.8663457 0.2364583 0.4399238 -0.8663456 -0.2293024 0.456906 -0.8594518 -0.2293053 0.4569008 -0.8594539 -0.007454276 -0.9997997 0.01857751 0.2195142 0.4169607 -0.882019 -0.6427188 0.433412 -0.6317172 -0.6437196 0.4335853 -0.6305782 -0.6436365 0.4335842 -0.6306639 -0.8708549 0.4373083 -0.2244399 -0.8473985 0.4707763 0.2455314 -0.8402103 0.4805951 0.2511478 -0.8436107 0.4768114 0.2469253 -0.6058523 0.4778372 0.6360933 -0.6027457 0.4802121 0.6372551 -0.6040177 0.4790632 0.6369152 -0.2061215 0.4588426 0.8642785 -0.2287076 0.4477672 0.8644058 -0.2195866 0.4490186 0.8661202 0.6637509 0.4329917 0.6098794 0.6514179 0.4289753 0.6258075 0.6568654 0.4273288 0.621223 0.8773385 0.432314 0.2082827 0.8685516 0.4220097 -0.2598579 0.8697421 0.4215845 -0.2565451 0.8695082 0.421202 -0.2579625 -0.2465103 0.4205981 -0.8731151 -0.2465067 0.4206008 -0.8731148 0.2197517 0.4455393 0.8678732 0.2503601 0.4690557 0.8469396 0.6275851 0.4181032 -0.6567547 0.627587 0.4181017 -0.6567538 -0.02624559 -0.9994652 0.01950794 -0.2308848 0.4241011 -0.8756887 -0.6371055 0.4364156 -0.6353251 -0.6321825 0.4335501 -0.6421679 -0.6341416 0.4331805 -0.6404835 -0.8605335 0.4531868 -0.2326025 -0.6182355 0.4637514 0.634602 -0.2145129 0.466812 0.8579457 -0.2106354 0.467327 0.8586258 -0.2107586 0.4673303 0.8585938 0.2537124 0.4452292 0.8587207 0.655748 0.4276122 0.6222078 0.6537739 0.4144832 0.6330746 0.6548938 0.4164865 0.6305975 0.883362 0.4161418 0.2156335 0.8783613 0.4071782 -0.2503744 0.6410619 0.4055786 -0.6515717 0.2350519 0.4117727 -0.8804509 -0.8555327 0.4621517 0.2334087 -0.855533 0.4621514 0.2334087 0.2777166 0.4733522 0.8359494 -7.55402e-7 -1 -5.1179e-7 -0.6367357 0.4348983 -0.6367347 -0.8697968 0.4348978 -0.2330608 -0.8697972 0.4348972 0.2330605 0.2322921 0.4409959 0.8669273 0.6353815 0.434686 0.6382308 0.8697965 0.4348983 0.2330616 0.8697969 0.4348977 -0.2330613 0.6367351 0.4348985 -0.6367352 0.2330614 0.4348993 -0.8697959 -0.2330598 0.4348995 -0.8697963 -0.6367346 0.434898 0.6367361 -0.6367351 0.4348971 0.6367362 -0.2330605 0.4348977 0.869797 -0.2330611 0.4348974 0.8697971 0.2356073 0.434623 0.8692481 -0.03664827 -0.9992096 -0.01540637 -0.03665035 -0.9992095 -0.01540577 -0.03664815 -0.9992096 -0.01540571 -0.03664982 -0.9992095 -0.01540631 -0.03664904 -0.9992096 -0.01540392 -0.03664827 -0.9992096 -0.01540589 -0.03664851 -0.9992095 -0.01540577 -0.03664803 -0.9992095 -0.01540565 -0.03664875 -0.9992096 -0.01540493 -0.6327373 0.4583361 -0.6241567 -0.6330345 0.4583349 -0.6238562 -0.635414 0.4589834 -0.6209535 -0.856496 0.4699515 -0.2134489 -0.8498713 0.4625232 0.2525686 -0.6112557 0.4475979 0.6527041 -0.2045823 0.4291809 0.8797443 0.2611811 0.4122037 0.8728532 0.6612312 0.4012156 0.6338765 0.8883762 0.3991584 0.2268488 0.8859711 0.3966659 -0.2402319 0.8858723 0.3966693 -0.2405906 0.8845024 0.3974546 -0.244306 0.6431328 0.4215062 -0.6393066 -0.007444858 -0.9997996 0.01858448 -0.00745517 -0.9997997 0.01857203 -0.007453501 -0.9997997 0.01857739 -0.007465898 -0.9997997 0.01857 -0.00745356 -0.9997997 0.01857203 -0.00745362 -0.9997997 0.01857429 -0.007454991 -0.9997996 0.01857984 -0.00745505 -0.9997997 0.01857692 -0.007454276 -0.9997997 0.0185787 0.2195151 0.4169595 -0.8820192 -0.6479535 0.4313173 -0.6277911 -0.643636 0.4335823 -0.6306657 -0.6415206 0.4324707 -0.6335775 -0.8708549 0.437308 -0.2244409 -0.8570904 0.4587416 0.2344188 -0.8614219 0.4538566 0.2279617 -0.8638024 0.4499503 0.2266942 -0.6015493 0.5067209 0.6175535 -0.6111555 0.5024688 0.6115669 -0.6226789 0.4853449 0.6137681 -0.2102093 0.4618317 0.861698 -0.2045879 0.4630801 0.8623809 -0.1987531 0.4655026 0.8624411 0.6561165 0.4273804 0.6219785 0.6568659 0.4273284 0.6212227 0.6594144 0.427692 0.6182656 0.8773392 0.4323133 0.2082816 0.8695194 0.4212988 -0.257766 0.8694688 0.4212894 -0.2579523 0.8693034 0.4212923 -0.2585043 -0.02624458 -0.9994652 0.0195077 -0.0262475 -0.9994652 0.01950758 -0.02624547 -0.9994652 0.01950955 -0.02624523 -0.9994652 0.01950979 -0.02624559 -0.9994652 0.01950824 -0.02624678 -0.9994652 0.01950728 -0.02624613 -0.9994652 0.01950812 -0.02624553 -0.9994652 0.01950877 -0.02624487 -0.9994652 0.01950746 -0.2308845 0.4241018 -0.8756884 -0.6338799 0.433179 -0.6407436 -0.6341423 0.4331818 -0.6404819 -0.6353834 0.4334899 -0.6390419 -0.8605334 0.4531869 -0.2326028 -0.618235 0.4637498 0.6346036 -0.2051783 0.4656237 0.8608696 -0.2107588 0.4673287 0.8585946 -0.2200574 0.463406 0.8583879 0.6513361 0.4553954 0.6069401 0.6534115 0.4584149 0.6024196 0.654762 0.4648905 0.5959561 0.8833616 0.4161424 0.2156335 0.8783615 0.4071775 -0.2503749 0.6410623 0.4055804 -0.6515703 0.2350505 0.4117745 -0.8804504 8.72259e-7 -1 -3.30826e-6 0 -1 0 0 -1 -6.61652e-7 -2.38307e-6 -1 3.30826e-6 -1.0072e-6 -1 0 -2.51801e-7 -1 -4.09432e-7 -0.6367355 0.4348974 -0.6367355 -0.8697962 0.4348991 -0.2330613 -0.8697962 0.4348991 0.2330613 0.6351131 0.4396156 0.6351138 0.8697966 0.434898 0.2330614 0.8697963 0.4348987 -0.2330614 0.6367355 0.4348972 -0.6367358 0.233062 0.4348979 -0.8697965 -0.2330617 0.434897 -0.8697971 1.08182e-5 0 1 0.02747839 0.117944 0.99264 1.08331e-5 1.23637e-5 1 0.5201146 -0.1179443 0.8459138 0.5000069 -2.5557e-7 0.8660215 0.5000069 -1.27152e-5 0.8660215 0.8733894 -0.1179441 0.4725252 0.8660295 0 0.4999929 0.8660295 -1.25814e-5 0.4999929 0.9926401 -0.1179439 -0.02747589 1 0 -8.29995e-6 1 -1.24223e-5 -8.29995e-6 0.8459138 -0.1179438 -0.5201147 0.8660215 2.5557e-7 -0.5000069 0.8660215 -1.22001e-5 -0.5000069 0.4999935 3.8743e-7 -0.8660292 0.4725259 0.1179443 -0.873389 0.4999935 1.26889e-5 -0.8660292 -7.59959e-6 0 -1 -0.02747517 0.117944 -0.9926401 -7.56979e-6 1.23637e-5 -1 -0.5000069 2.71946e-7 -0.8660215 -0.5201147 0.1179443 -0.8459137 -0.5000069 1.2737e-5 -0.8660215 -0.8660296 1.63913e-7 -0.4999929 -0.8733895 0.1179441 -0.4725252 -0.8660296 1.25647e-5 -0.4999929 -1 0 8.40425e-6 -0.9926401 0.117944 0.02747595 -1 1.23637e-5 8.35955e-6 -0.8660214 -2.57045e-7 0.5000069 -0.8459138 0.1179438 0.5201147 -0.8660215 1.22324e-5 0.5000069 -0.4999932 0 0.8660294 -0.4725255 0.117944 0.8733893 -0.4999932 1.23637e-5 0.8660294 0 1 0 0.212374 0.2558626 0.9430968 8.13603e-6 -3.4502e-7 1 0.001276433 -0.02603751 0.9996602 0.5009354 0.02603685 0.865093 0.5000069 -2.62081e-7 0.8660215 0.6554694 -0.2558633 0.7105588 0.8663691 0.02603721 0.4987251 0.8660292 0 0.4999934 0.9229325 -0.255863 0.2876277 0.9996602 0.02603727 -0.001275956 1 0 -7.7039e-6 0.9430969 -0.2558629 -0.2123734 0.865093 0.02603733 -0.5009354 0.8660215 2.16869e-7 -0.5000069 0.7105589 -0.2558628 -0.6554695 0.2876293 0.255863 -0.922932 0.499995 0 -0.8660283 0.4987266 -0.02603715 -0.8663682 -0.2123755 0.2558633 -0.9430963 -9.90927e-6 3.29045e-7 -1 -0.001278162 -0.02603685 -0.9996601 -0.6554694 0.2558633 -0.7105589 -0.5000069 2.30013e-7 -0.8660215 -0.5009353 -0.02603691 -0.8650931 -0.9229326 0.255863 -0.2876275 -0.8660293 0 -0.4999935 -0.8663691 -0.02603715 -0.4987251 -0.9430968 0.2558629 0.2123736 -1 0 7.7635e-6 -0.9996602 -0.02603727 0.001276016 -0.7105579 0.255863 0.6554706 -0.8660206 0 0.5000084 -0.8650922 -0.02603721 0.5009368 -0.2876275 0.255863 0.9229326 -0.4999933 0 0.8660293 -0.4987251 -0.02603715 0.8663691 0 1 -1.17522e-6 0 1 1.01777e-6 0 1 -6.95148e-7 0 1 -2.78057e-6 0 1 6.9515e-7 0 1 8.60321e-7 0 1 0 0 -1 4.70088e-6 0 -1 4.07107e-6 0 -1 5.56121e-6 0 -1 -2.35044e-6 0 -1 -1.72064e-6</float_array>
          <technique_common>
            <accessor source="#group558928348-mesh-normals-array" count="336" stride="3">
              <param name="X" type="float"/>
              <param name="Y" type="float"/>
              <param name="Z" type="float"/>
            </accessor>
          </technique_common>
        </source>
        <source id="group558928348-mesh-map-0">
          <float_array id="group558928348-mesh-map-0-array" count="1368">0.1214464 0.09585201 0.1158628 0.1002459 0.143402 0.1100552 0.1171206 0.0890522 0.1173164 0.09591221 0.143974 0.1006076 0.1148279 0.07775193 0.1117213 0.08381211 0.1407824 0.0854355 -0.1070837 -0.007498145 -0.1060831 -0.0142526 -0.1342871 -0.006612241 -0.09536933 0.03422719 -0.09968107 0.02868288 -0.1243304 0.03811401 -0.08505147 0.07735162 -0.08547425 0.07061243 -0.1103817 0.08476203 -0.02381783 0.1447149 -0.02785241 0.139311 -0.04143017 0.1646134 0.04103946 0.1466677 0.0345112 0.1488873 0.03542429 0.1748285 0.09425175 0.1251922 0.08750969 0.1258157 0.1031998 0.1495583 0.1151012 0.1022129 0.1127396 0.1085087 0.1344538 0.1230784 0 0 0 0 0 0 0 0 0 0 0 0 0.03990244 0.1740611 0.03748238 0.1751286 0.03829818 0.1847538 0.1043557 0.1489102 0.101624 0.1488891 0.1080884 0.1578197 0.1426584 0.1090279 0.140541 0.1107326 0.1510499 0.1141722 0.1429307 0.07537746 0.1412433 0.07744461 0.1517743 0.07764911 -0.1345894 -0.001488626 -0.1336562 -0.003776252 -0.1433657 -0.001526713 -0.1128931 0.09019666 -0.1123146 0.08753037 -0.1214463 0.09263515 -0.07094842 0.1486811 -0.0717222 0.1460661 -0.07755506 0.1551498 -0.1349078 0.04510819 -0.1250122 0.04392057 -0.1265575 0.04204624 0 0 0 0 0 0 0 0 0 0 0 0 0 0 0 0 0 0 0 0 0 0 0 0 0.1325492 0.1018617 0.1288412 0.1047011 0.1471502 0.1112514 0 0 0 0 0 0 0.1297436 0.07716375 0.1272591 0.08097708 0.1462059 0.08206528 0.1095576 0.07941406 0.1104117 0.08400744 0.1269316 0.0870496 -0.1238479 0.001134574 -0.1229362 -0.003126204 -0.1406332 0.001779615 -0.1134023 0.04015761 -0.1160166 0.03664892 -0.1315791 0.04277527 -0.1013613 0.08460438 -0.1015709 0.0802859 -0.1173827 0.08940416 -0.07739728 0.1237765 -0.08119106 0.1215639 -0.09331136 0.132715 -0.03648024 0.1561294 -0.03881549 0.1524125 -0.04723668 0.1686013 0.03374695 0.1624073 0.02959275 0.1634811 0.03030467 0.1803278 0.09759575 0.1387712 0.09303998 0.1389737 0.1036432 0.1545113 0 0 0 0 0 0 0.1058956 0.08687573 0.09803235 0.09341913 0.1380292 0.106488 0.09971618 0.08053839 0.1009131 0.09046387 0.1389046 0.09586215 0.09972596 0.06815385 0.09501022 0.07697725 0.1370708 0.07697725 0.09537732 0.02929848 0.09988915 0.03813201 0.1374325 0.02861583 -0.08708316 -0.01047271 -0.08409821 -0.02010715 -0.1257767 -0.01216757 -0.07615411 0.03188395 -0.08192348 0.02354091 -0.1183883 0.03593415 -0.06977051 0.06396538 -0.1060469 0.08321571 -0.06878739 0.07346898 -0.04795598 0.1068203 -0.05633389 0.1015677 -0.08442986 0.1256937 -0.01675802 0.1326852 -0.02174562 0.1241877 -0.04186153 0.1599113 0.03968173 0.1300325 0.03031021 0.1326957 0.03112131 0.1701269 0.08630383 0.1096734 0.07625979 0.1102261 0.09972429 0.1446253 0.1005889 0.08916175 0.09785902 0.09877985 0.1295816 0.1190501 -0.05660325 0.0301792 -0.04847693 0.05302572 -0.03275442 0.03456491 -0.06226539 0.1159605 -0.06413006 0.1087737 -0.06764465 0.1119413 -0.02068179 0.1411718 -0.02785241 0.139311 -0.02381783 0.1447149 0.03927558 0.1470302 0.03258603 0.1438475 0.03272789 0.1491934 0.09240829 0.1201722 0.08750969 0.1258157 0.09425175 0.1251922 0.1151012 0.1022129 0.1084583 0.105636 0.1127396 0.1085087 0.1170794 0.09319871 0.1158267 0.1003934 0.1214091 0.09599786 0.1171206 0.0890522 0.1131437 0.09517729 0.1173164 0.09591221 0 0 0 0 0 0 0.08493834 0.08716392 0.08012294 0.09268432 0.08402901 0.09388655 0 0 0 0 0 0 -0.09330368 0.03394997 -0.09509247 0.02692729 -0.09968107 0.02868288 -0.09536933 0.03422719 -0.09330368 0.03394997 -0.09968107 0.02868288 0 0 0 0 0 0 0 0 0 0 0 0 -0.03862082 0.04693865 -0.03461712 0.04246979 -0.04235744 0.03553521 -0.1250122 0.04392051 -0.1223115 0.04048931 -0.1265574 0.04204624 -0.08753424 0.1315755 -0.08674979 0.1276212 -0.08984178 0.1304194 -0.04117798 0.1635046 -0.04495179 0.1640637 -0.04390859 0.1666566 0.03330183 0.1737618 0.03066194 0.1710083 0.0308535 0.1747614 0.0990445 0.1460086 0.09763377 0.1494539 0.100363 0.1495264 0.1327223 0.121747 0.1291494 0.1223992 0.1321962 0.1242685 0.143094 0.09631168 0.1400695 0.09840118 0.1443005 0.0990805 0 0 0 0 0 0 0.1323297 0.05980402 0.129119 0.06216579 0.1337583 0.06225329 0 0 0 0 0 0 0 0 0 0 0 0 0 0 0 0 0 0 0 0 0 0 0 0 0 0 0 0 0 0 0 0 0 0 0 0 -0.04821354 0.03215616 -0.04291528 0.04773432 -0.03207325 0.03535687 -0.09703356 0.08330786 -0.1015709 0.0802859 -0.1013613 0.08460438 -0.07803303 0.1240892 -0.07830947 0.1186447 -0.08182477 0.1218731 -0.03336304 0.1525149 -0.03881549 0.1524125 -0.03648024 0.1561294 0 0 0 0 0 0 0.1231606 0.1133508 0.1183212 0.115328 0.1215551 0.1174772 0.1324021 0.1021153 0.1291341 0.100018 0.1269749 0.1044362 0.1308214 0.09139078 0.1277485 0.09544044 0.131754 0.09614062 0 0 0 0 0 0 0.1048703 0.08387035 0.1011185 0.08742809 0.1054299 0.08850979 -0.1194062 9.63907e-4 -0.1229362 -0.003126204 -0.1238479 0.001134574 -0.1130143 0.04111522 -0.1114068 0.03595703 -0.1156163 0.03759706 0.02940768 0.1591041 0.02959275 0.1634811 0.03374695 0.1624073 0.03431195 0.1594665 0.02940768 0.1591041 0.03374695 0.1624073 0.1265459 0.1023879 0.1282698 0.1029056 0.1319664 0.1000515 -0.06299585 0.04957592 -0.0473718 0.06284773 -0.02438431 0.03578615 -0.04772251 0.1070651 -0.04942327 0.09607595 -0.05610239 0.1018154 -0.0107885 0.1262109 -0.02174562 0.1241877 -0.01675802 0.1326852 0.03968173 0.1300325 0.03012824 0.1242982 0.03031021 0.1326957 0.09874981 0.08249765 0.09431594 0.09213852 0.09789031 0.09331047 0 0 0 0 0 0 0 0 0 0 0 0 0.0950101 0.03135454 0.09245961 0.04189485 0.09937798 0.04026031 -0.07998114 -0.01016157 -0.08409821 -0.02010715 -0.08708316 -0.01047271 -0.07615411 0.03188395 -0.07498699 0.02118343 -0.08192348 0.02354091 -0.06169962 0.07161492 -0.06977051 0.06396538 -0.06878739 0.07346898 0.07389342 0.1067569 0.07625979 0.1102261 0.08630383 0.1096734 0.08329296 0.101832 0.07389342 0.1067569 0.08630383 0.1096734 0 0 0 0 0 0 0 0 0 0 0 0 0.09803235 0.09341913 0.1058956 0.08687573 0.0989018 0.08260715 -0.03275442 0.03456491 -0.03686743 0.02859818 -0.05660325 0.0301792 -0.03686743 0.02859818 -0.0434128 0.02548748 -0.05660325 0.0301792 -0.0434128 0.02548748 -0.05063652 0.02606618 -0.05660325 0.0301792 -0.05660325 0.0301792 -0.05971395 0.0367245 -0.05913525 0.04394835 -0.05913525 0.04394835 -0.05502223 0.04991495 -0.04847693 0.05302572 -0.04847693 0.05302572 -0.04125308 0.05244708 -0.03528642 0.048334 -0.03528642 0.048334 -0.03217571 0.04178863 -0.04847693 0.05302572 -0.03217571 0.04178863 -0.03275442 0.03456491 -0.04847693 0.05302572 -0.05660325 0.0301792 -0.05913525 0.04394835 -0.04847693 0.05302572 -0.06226539 0.1159605 -0.05993402 0.1146824 -0.06413006 0.1087737 -0.02068179 0.1411718 -0.02662783 0.1370291 -0.02785241 0.139311 0.03927558 0.1470302 0.03980404 0.1444951 0.03258603 0.1438475 0.09240829 0.1201722 0.08594042 0.123441 0.08750969 0.1258157 0.1151012 0.1022129 0.1131656 0.100126 0.1084583 0.105636 0.1170794 0.09319871 0.1138758 0.09969902 0.1158267 0.1003934 0.1171206 0.0890522 0.1152184 0.08823364 0.1131437 0.09517729 0 0 0 0 0 0 0.08493834 0.08716392 0.0830422 0.08605134 0.08012294 0.09268432 0 0 0 0 0 0 -0.04235744 0.03553521 -0.04495793 0.03723329 -0.04636102 0.04000413 -0.04636102 0.04000413 -0.04619079 0.04310524 -0.04449284 0.04570579 -0.04449284 0.04570579 -0.04172199 0.04710888 -0.03862082 0.04693865 -0.03862082 0.04693865 -0.03602027 0.0452407 -0.03461712 0.04246979 -0.03461712 0.04246979 -0.03478735 0.03936862 -0.03648543 0.03676807 -0.03648543 0.03676807 -0.03925627 0.03536504 -0.03461712 0.04246979 -0.03925627 0.03536504 -0.04235744 0.03553521 -0.03461712 0.04246979 -0.04235744 0.03553521 -0.04636102 0.04000413 -0.04449284 0.04570579 -0.04449284 0.04570579 -0.03862082 0.04693865 -0.04235744 0.03553521 -0.1250122 0.04392051 -0.121587 0.04350954 -0.1223115 0.04048931 -0.08753424 0.1315755 -0.08494633 0.1301498 -0.08674979 0.1276212 -0.04117798 0.1635046 -0.0437451 0.1617563 -0.04495179 0.1640637 0.03330183 0.1737618 0.03376179 0.1711996 0.03066194 0.1710083 0.0990445 0.1460086 0.09630101 0.1474643 0.09763377 0.1494539 0.1327223 0.121747 0.1311027 0.1199844 0.1291494 0.1223992 0.143094 0.09631168 0.1409136 0.09541225 0.1400695 0.09840118 0 0 0 0 0 0 0.1323297 0.05980402 0.1295365 0.05908823 0.129119 0.06216579 -0.03207325 0.03535687 -0.03480774 0.03126966 -0.03921937 0.02909725 -0.03921937 0.02909725 -0.04412633 0.0294218 -0.04821354 0.03215616 -0.04821354 0.03215616 -0.05038595 0.03656786 -0.05006146 0.04147469 -0.05006146 0.04147469 -0.04732698 0.0455619 -0.04821354 0.03215616 -0.04732698 0.0455619 -0.04291528 0.04773432 -0.04821354 0.03215616 -0.04291528 0.04773432 -0.03800845 0.04740989 -0.03207325 0.03535687 -0.03800845 0.04740989 -0.03392124 0.0446754 -0.03207325 0.03535687 -0.03392124 0.0446754 -0.03174883 0.04026377 -0.03207325 0.03535687 -0.03207325 0.03535687 -0.03921937 0.02909725 -0.04821354 0.03215616 -0.09703356 0.08330786 -0.0989806 0.07879215 -0.1015709 0.0802859 -0.07803303 0.1240892 -0.07542473 0.1226273 -0.07830947 0.1186447 -0.03336304 0.1525149 -0.03743368 0.1497558 -0.03881549 0.1524125 0 0 0 0 0 0 0.1231606 0.1133508 0.1214992 0.1115751 0.1183212 0.115328 0.1308214 0.09139078 0.1291503 0.09072685 0.1277485 0.09544044 0 0 0 0 0 0 0.1048703 0.08387035 0.1028593 0.08282893 0.1011185 0.08742809 -0.1194062 9.63907e-4 -0.1201626 -0.003895044 -0.1229362 -0.003126204 -0.1130143 0.04111522 -0.110164 0.04071497 -0.1114068 0.03595703 -0.02438431 0.03578615 -0.03041827 0.02705705 -0.04000836 0.02251434 -0.04000836 0.02251434 -0.05058503 0.02337533 -0.05931413 0.02940917 -0.05931413 0.02940917 -0.06385684 0.03899925 -0.06299585 0.04957592 -0.06299585 0.04957592 -0.05696189 0.05830502 -0.0473718 0.06284773 -0.0473718 0.06284773 -0.03679513 0.06198674 -0.02806603 0.05595278 -0.02806603 0.05595278 -0.02352339 0.04636263 -0.0473718 0.06284773 -0.02352339 0.04636263 -0.02438431 0.03578615 -0.0473718 0.06284773 -0.02438431 0.03578615 -0.04000836 0.02251434 -0.05931413 0.02940917 -0.05931413 0.02940917 -0.06299585 0.04957592 -0.02438431 0.03578615 -0.04772251 0.1070651 -0.04348534 0.1048706 -0.04942327 0.09607595 -0.0107885 0.1262109 -0.01937001 0.119969 -0.02174562 0.1241877 0.03968173 0.1300325 0.04069256 0.1252978 0.03012824 0.1242982 0 0 0 0 0 0 0 0 0 0 0 0 0.0950101 0.03135454 0.0912314 0.03135454 0.09245961 0.04189485 -0.07998114 -0.01016157 -0.080747 -0.02074557 -0.08409821 -0.02010715 -0.07615411 0.03188395 -0.07275813 0.03155827 -0.07498699 0.02118343 -0.06169962 0.07161492 -0.06555545 0.06172853 -0.06977051 0.06396538 0.08385252 0.07379019 0.1001759 0.07915675 0.08497059 0.07155412 0.07560533 0.09219413 0.0898599 0.1017888 0.09093928 0.09953379 0.05955582 0.1090826 0.07270437 0.1201447 0.07401835 0.1180179 0.01720464 0.1204326 0.02505135 0.1357191 0.02708566 0.134266 -0.07165467 0.0882591 -0.08004885 0.1032521 -0.07771295 0.104143 -0.09203726 0.057069 -0.104315 0.06909018 -0.09056675 0.05909079 -0.08608859 0.06931805 -0.1001757 0.07915681 -0.08497053 0.07155412 -0.07668465 0.08993917 -0.09093928 0.09953379 -0.07560533 0.09219413 -0.06086987 0.1069558 -0.07401835 0.1180179 -0.05955582 0.1090826 -0.01923888 0.1189795 -0.02708566 0.134266 -0.01720464 0.1204326 0.06931883 0.08915001 0.07771295 0.104143 0.07165467 0.0882591 0.08909624 0.06111258 0.104315 0.06909018 0.09056675 0.05909085 0.04891151 0.04242205 0.0456745 0.03861141 0.04075568 0.03950929 -0.04309481 0.03840142 -0.04780352 0.04008311 -0.04489076 0.04823881 0.08385252 0.07379019 0.09905779 0.08139282 0.1001759 0.07915675 0.07560533 0.09219413 0.07452595 0.09444916 0.0898599 0.1017888 0.05955582 0.1090826 0.0582419 0.1112095 0.07270437 0.1201447 0.01720464 0.1204326 0.01517021 0.1218857 0.02505135 0.1357191 -0.07165467 0.0882591 -0.07399058 0.08736819 -0.08004885 0.1032521 -0.09203726 0.057069 -0.1057855 0.06706839 -0.104315 0.06909018 -0.08608859 0.06931805 -0.1012939 0.07692074 -0.1001757 0.07915681 -0.07668465 0.08993917 -0.0920186 0.09727883 -0.09093928 0.09953379 -0.06086987 0.1069558 -0.07533234 0.115891 -0.07401835 0.1180179 -0.01923888 0.1189795 -0.02911996 0.1328129 -0.02708566 0.134266 0.06931883 0.08915001 0.0753771 0.1050339 0.07771295 0.104143 0.08909624 0.06111258 0.1028445 0.07111197 0.104315 0.06909018 0.04075568 0.03950929 0.03928411 0.04163843 0.04231113 0.04802876 0.03928411 0.04163843 0.03907412 0.04421812 0.04231113 0.04802876 0.03907412 0.04421812 0.04018205 0.04655706 0.04231113 0.04802876 0.04231113 0.04802876 0.04489076 0.04823881 0.04722976 0.04713082 0.04722976 0.04713082 0.04870152 0.0450018 0.04891151 0.04242205 0.04891151 0.04242205 0.04780352 0.04008311 0.0456745 0.03861141 0.0456745 0.03861141 0.04309481 0.03840142 0.04075568 0.03950929 0.04231113 0.04802876 0.04722976 0.04713082 0.04075568 0.03950929 0.04722976 0.04713082 0.04891151 0.04242205 0.04075568 0.03950929 -0.03928405 0.04163843 -0.04075568 0.03950929 -0.04309481 0.03840142 -0.04309481 0.03840142 -0.0456745 0.03861141 -0.04780352 0.04008311 -0.04780352 0.04008311 -0.04891151 0.04242205 -0.04489076 0.04823881 -0.04891151 0.04242205 -0.04870152 0.0450018 -0.04489076 0.04823881 -0.04870152 0.0450018 -0.04722976 0.04713082 -0.04489076 0.04823881 -0.04489076 0.04823881 -0.04231113 0.04802876 -0.04018205 0.04655706 -0.04018205 0.04655706 -0.03907412 0.04421812 -0.04489076 0.04823881 -0.03907412 0.04421812 -0.03928405 0.04163843 -0.04489076 0.04823881 -0.03928405 0.04163843 -0.04309481 0.03840142 -0.04489076 0.04823881</float_array>
          <technique_common>
            <accessor source="#group558928348-mesh-map-0-array" count="684" stride="2">
              <param name="S" type="float"/>
              <param name="T" type="float"/>
            </accessor>
          </technique_common>
        </source>
        <vertices id="group558928348-mesh-vertices">
          <input semantic="POSITION" source="#group558928348-mesh-positions"/>
        </vertices>
        <triangles material="pineTree_001-material" count="48">
          <input semantic="VERTEX" source="#group558928348-mesh-vertices" offset="0"/>
          <input semantic="NORMAL" source="#group558928348-mesh-normals" offset="1"/>
          <input semantic="TEXCOORD" source="#group558928348-mesh-map-0" offset="2" set="0"/>
          <p>2 0 0 1 1 1 0 2 2 1 3 3 3 3 4 0 3 5 3 4 6 4 4 7 0 4 8 6 5 9 5 6 10 0 7 11 5 8 12 7 8 13 0 8 14 7 9 15 8 10 16 0 11 17 10 12 18 9 12 19 0 12 20 9 13 21 11 14 22 0 15 23 11 16 24 12 16 25 0 16 26 12 17 27 2 17 28 0 17 29 4 18 30 6 18 31 0 18 32 8 19 33 10 19 34 0 19 35 27 20 36 26 20 37 25 20 38 26 21 39 28 21 40 25 21 41 30 22 42 29 22 43 25 22 44 32 23 45 31 23 46 25 23 47 34 24 48 33 24 49 25 24 50 36 25 51 35 25 52 25 25 53 37 26 54 27 27 55 25 28 56 25 29 57 33 29 58 36 29 59 28 30 60 30 30 61 25 30 62 29 31 63 32 31 64 25 31 65 31 32 66 34 32 67 25 32 68 35 33 69 37 33 70 25 33 71 76 34 72 75 34 73 74 34 74 75 35 75 77 35 76 74 35 77 77 36 78 78 37 79 74 38 80 78 39 81 79 40 82 74 41 83 79 42 84 80 42 85 74 42 86 80 43 87 81 44 88 74 45 89 81 46 90 82 46 91 74 46 92 82 47 93 83 47 94 74 47 95 83 48 96 84 48 97 74 48 98 84 49 99 85 49 100 74 49 101 85 50 102 86 51 103 74 52 104 86 53 105 76 53 106 74 53 107 101 54 108 100 54 109 99 54 110 100 55 111 102 55 112 99 55 113 102 56 114 103 57 115 99 58 116 103 59 117 104 60 118 99 61 119 104 62 120 105 62 121 99 62 122 105 63 123 106 63 124 99 63 125 107 64 126 99 64 127 106 64 128 107 65 129 108 66 130 99 67 131 108 68 132 109 68 133 99 68 134 109 69 135 110 69 136 99 69 137 110 70 138 111 70 139 99 70 140 111 71 141 101 72 142 99 73 143</p>
        </triangles>
        <triangles material="pineTree_002-material" count="136">
          <input semantic="VERTEX" source="#group558928348-mesh-vertices" offset="0"/>
          <input semantic="NORMAL" source="#group558928348-mesh-normals" offset="1"/>
          <input semantic="TEXCOORD" source="#group558928348-mesh-map-0" offset="2" set="0"/>
          <p>21 74 144 17 74 145 13 74 146 8 75 147 21 76 148 10 77 149 21 78 150 9 78 151 10 78 152 9 79 153 23 79 154 11 79 155 23 80 156 12 80 157 11 80 158 12 81 159 13 81 160 2 81 161 13 82 162 1 82 163 2 82 164 1 83 165 15 83 166 3 83 167 15 84 168 4 84 169 3 84 170 4 85 171 17 86 172 6 87 173 17 88 174 5 88 175 6 88 176 18 89 177 19 89 178 7 89 179 5 90 180 18 90 181 7 90 182 19 91 183 20 91 184 8 91 185 7 92 186 19 92 187 8 92 188 44 93 189 42 93 190 38 93 191 33 94 192 47 94 193 36 94 194 35 95 195 49 96 196 37 97 197 49 98 198 27 98 199 37 98 200 27 99 201 39 100 202 26 101 203 39 102 204 28 103 205 26 104 206 28 105 207 41 106 208 30 107 209 29 108 210 43 109 211 32 110 212 43 111 213 31 111 214 32 111 215 31 112 216 45 113 217 34 114 218 47 115 219 48 115 220 35 115 221 36 116 222 47 116 223 35 116 224 42 117 225 29 117 226 30 117 227 41 118 228 42 118 229 30 118 230 46 119 231 33 119 232 34 119 233 45 120 234 46 120 235 34 120 236 95 121 237 91 121 238 87 121 239 93 122 240 82 122 241 81 122 242 82 123 243 95 124 244 83 125 245 95 126 246 84 126 247 83 126 248 97 127 249 86 127 250 85 127 251 86 128 252 87 129 253 76 130 254 76 131 255 87 131 256 88 131 257 75 132 258 89 133 259 77 134 260 89 135 261 78 135 262 77 135 263 78 136 264 91 136 265 79 136 266 91 137 267 80 137 268 79 137 269 80 138 270 93 138 271 81 138 272 97 139 273 85 139 274 84 139 275 96 140 276 97 140 277 84 140 278 88 141 279 75 141 280 76 141 281 118 142 282 116 142 283 112 142 284 107 143 285 120 143 286 108 143 287 120 144 288 109 144 289 108 144 290 109 145 291 122 145 292 110 145 293 112 146 294 113 146 295 100 146 296 100 147 297 114 147 298 102 147 299 114 148 300 103 148 301 102 148 302 103 149 303 116 149 304 104 149 305 116 150 306 105 150 307 104 150 308 105 151 309 118 151 310 106 151 311 118 152 312 107 152 313 106 152 314 123 153 315 111 153 316 110 153 317 122 154 318 123 154 319 110 154 320 112 155 321 101 155 322 111 155 323 123 156 324 112 156 325 111 156 326 100 157 327 101 157 328 112 157 329 13 158 330 24 158 331 21 158 332 24 159 333 23 159 334 21 159 335 23 160 336 22 160 337 21 160 338 21 161 339 20 161 340 19 161 341 19 162 342 18 162 343 17 162 344 17 163 345 16 163 346 15 163 347 15 164 348 14 164 349 17 164 350 14 165 351 13 165 352 17 165 353 21 166 354 19 166 355 17 166 356 8 167 357 20 168 358 21 169 359 21 170 360 22 170 361 9 170 362 9 171 363 22 171 364 23 171 365 23 172 366 24 172 367 12 172 368 12 173 369 24 173 370 13 173 371 13 174 372 14 174 373 1 174 374 1 175 375 14 175 376 15 175 377 15 176 378 16 176 379 4 176 380 4 177 381 16 178 382 17 179 383 17 180 384 18 180 385 5 180 386 38 181 387 49 181 388 48 181 389 48 182 390 47 182 391 46 182 392 46 183 393 45 183 394 44 183 395 44 184 396 43 184 397 42 184 398 42 185 399 41 185 400 40 185 401 40 186 402 39 186 403 42 186 404 39 187 405 38 187 406 42 187 407 38 188 408 48 188 409 46 188 410 46 189 411 44 189 412 38 189 413 33 190 414 46 190 415 47 190 416 35 191 417 48 192 418 49 193 419 49 194 420 38 194 421 27 194 422 27 195 423 38 196 424 39 197 425 39 198 426 40 199 427 28 200 428 28 201 429 40 202 430 41 203 431 29 204 432 42 205 433 43 206 434 43 207 435 44 207 436 31 207 437 31 208 438 44 209 439 45 210 440 87 211 441 98 211 442 97 211 443 97 212 444 96 212 445 95 212 446 95 213 447 94 213 448 93 213 449 93 214 450 92 214 451 95 214 452 92 215 453 91 215 454 95 215 455 91 216 456 90 216 457 87 216 458 90 217 459 89 217 460 87 217 461 89 218 462 88 218 463 87 218 464 87 219 465 97 219 466 95 219 467 93 220 468 94 220 469 82 220 470 82 221 471 94 222 472 95 223 473 95 224 474 96 224 475 84 224 476 97 225 477 98 225 478 86 225 479 86 226 480 98 227 481 87 228 482 75 229 483 88 230 484 89 231 485 89 232 486 90 232 487 78 232 488 78 233 489 90 233 490 91 233 491 91 234 492 92 234 493 80 234 494 80 235 495 92 235 496 93 235 497 112 236 498 123 236 499 122 236 500 122 237 501 121 237 502 120 237 503 120 238 504 119 238 505 118 238 506 118 239 507 117 239 508 116 239 509 116 237 510 115 237 511 114 237 512 114 237 513 113 237 514 116 237 515 113 237 516 112 237 517 116 237 518 112 240 519 122 240 520 120 240 521 120 241 522 118 241 523 112 241 524 107 242 525 119 242 526 120 242 527 120 243 528 121 243 529 109 243 530 109 244 531 121 244 532 122 244 533 100 245 534 113 245 535 114 245 536 114 246 537 115 246 538 103 246 539 103 247 540 115 247 541 116 247 542 116 248 543 117 248 544 105 248 545 105 249 546 117 249 547 118 249 548 118 250 549 119 250 550 107 250 551</p>
        </triangles>
        <triangles material="pineTree_003-material" count="44">
          <input semantic="VERTEX" source="#group558928348-mesh-vertices" offset="0"/>
          <input semantic="NORMAL" source="#group558928348-mesh-normals" offset="1"/>
          <input semantic="TEXCOORD" source="#group558928348-mesh-map-0" offset="2" set="0"/>
          <p>52 251 552 50 252 553 53 253 554 52 254 555 54 255 556 51 256 557 55 257 558 56 258 559 54 259 560 57 260 561 58 261 562 56 262 563 59 263 564 60 264 565 58 265 566 63 266 567 60 267 568 61 268 569 65 269 570 62 270 571 63 271 572 67 272 573 64 273 574 65 274 575 69 275 576 66 276 577 67 277 578 71 278 579 68 279 580 69 280 581 73 281 582 70 282 583 71 283 584 53 284 585 72 285 586 73 286 587 64 287 588 68 287 589 72 287 590 71 237 591 67 237 592 59 237 593 52 288 594 51 289 595 50 290 596 52 291 597 55 292 598 54 293 599 55 294 600 57 295 601 56 296 602 57 297 603 59 298 604 58 299 605 59 300 606 61 301 607 60 302 608 63 303 609 62 304 610 60 305 611 65 306 612 64 307 613 62 308 614 67 309 615 66 310 616 64 311 617 69 312 618 68 313 619 66 314 620 71 315 621 70 316 622 68 317 623 73 318 624 72 319 625 70 320 626 53 321 627 50 322 628 72 323 629 72 324 630 50 324 631 56 324 632 50 325 633 51 325 634 56 325 635 51 326 636 54 326 637 56 326 638 56 287 639 58 287 640 60 287 641 60 327 642 62 327 643 64 327 644 64 328 645 66 328 646 68 328 647 68 287 648 70 287 649 72 287 650 56 329 651 60 329 652 72 329 653 60 330 654 64 330 655 72 330 656 53 237 657 73 237 658 71 237 659 71 237 660 69 237 661 67 237 662 67 331 663 65 331 664 59 331 665 65 332 666 63 332 667 59 332 668 63 333 669 61 333 670 59 333 671 59 237 672 57 237 673 55 237 674 55 237 675 52 237 676 59 237 677 52 334 678 53 334 679 59 334 680 53 335 681 71 335 682 59 335 683</p>
        </triangles>
      </mesh>
    </geometry>
  </library_geometries>
  <library_visual_scenes>
    <visual_scene id="Scene" name="Scene">
      <node id="base00" name="base00" type="NODE">
        <matrix sid="transform">1 0 0 0 0 1 0 0 0 0 1 0 0 0 0 1</matrix>
        <node id="start01" name="start01" type="NODE">
          <matrix sid="transform">1 0 0 0 0 1 0 0 0 0 1 0 0 0 0 1</matrix>
          <node id="pineTree" name="pineTree" type="NODE">
            <matrix sid="transform">1 0 0 0 0 -2.8213e-7 -1 0 0 1 -2.8213e-7 0 0 0 0 1</matrix>
            <instance_geometry url="#group558928348-mesh" name="pineTree">
              <bind_material>
                <technique_common>
                  <instance_material symbol="pineTree_001-material" target="#pineTree_001-material">
                    <bind_vertex_input semantic="group558928348-mesh-map-0" input_semantic="TEXCOORD" input_set="0"/>
                  </instance_material>
                  <instance_material symbol="pineTree_002-material" target="#pineTree_002-material">
                    <bind_vertex_input semantic="group558928348-mesh-map-0" input_semantic="TEXCOORD" input_set="0"/>
                  </instance_material>
                  <instance_material symbol="pineTree_003-material" target="#pineTree_003-material">
                    <bind_vertex_input semantic="group558928348-mesh-map-0" input_semantic="TEXCOORD" input_set="0"/>
                  </instance_material>
                </technique_common>
              </bind_material>
            </instance_geometry>
          </node>
          <node id="Colmesh-1" name="Colmesh-1" type="NODE">
            <matrix sid="transform">1 0 0 0 0 -2.8213e-7 -1 0 0 1 -2.8213e-7 0 0 0 0 1</matrix>
            <instance_geometry url="#group558928348_001-mesh" name="Colmesh-1"/>
          </node>
        </node>
      </node>
    </visual_scene>
  </library_visual_scenes>
  <scene>
    <instance_visual_scene url="#Scene"/>
  </scene>
</COLLADA>