<?xml version="1.0" encoding="utf-8"?>
<COLLADA xmlns="http://www.collada.org/2005/11/COLLADASchema" version="1.4.1" xmlns:xsi="http://www.w3.org/2001/XMLSchema-instance">
  <asset>
    <contributor>
      <author>Blender User</author>
      <authoring_tool>Blender 3.4.1 commit date:2022-12-19, commit time:17:00, hash:55485cb379f7</authoring_tool>
    </contributor>
    <created>2025-11-28T01:31:02</created>
    <modified>2025-11-28T01:31:02</modified>
    <unit name="meter" meter="1"/>
    <up_axis>Z_UP</up_axis>
  </asset>
  <library_effects>
    <effect id="Apple_1-effect">
      <profile_COMMON>
        <newparam sid="Apple_body_Baked_3_png-surface">
          <surface type="2D">
            <init_from>Apple_body_Baked_3_png</init_from>
          </surface>
        </newparam>
        <newparam sid="Apple_body_Baked_3_png-sampler">
          <sampler2D>
            <source>Apple_body_Baked_3_png-surface</source>
          </sampler2D>
        </newparam>
        <technique sid="common">
          <lambert>
            <emission>
              <color sid="emission">0 0 0 1</color>
            </emission>
            <diffuse>
              <texture texture="Apple_body_Baked_3_png-sampler" texcoord="Apple_body-mesh-map-0"/>
            </diffuse>
            <reflectivity>
              <float sid="specular">1</float>
            </reflectivity>
            <index_of_refraction>
              <float sid="ior">1</float>
            </index_of_refraction>
          </lambert>
        </technique>
      </profile_COMMON>
    </effect>
    <effect id="Apple_003-effect">
      <profile_COMMON>
        <newparam sid="Apple_top_Baked_2_png-surface">
          <surface type="2D">
            <init_from>Apple_top_Baked_2_png</init_from>
          </surface>
        </newparam>
        <newparam sid="Apple_top_Baked_2_png-sampler">
          <sampler2D>
            <source>Apple_top_Baked_2_png-surface</source>
          </sampler2D>
        </newparam>
        <technique sid="common">
          <lambert>
            <emission>
              <color sid="emission">0 0 0 1</color>
            </emission>
            <diffuse>
              <texture texture="Apple_top_Baked_2_png-sampler" texcoord="Apple_top-mesh-map-0"/>
            </diffuse>
            <reflectivity>
              <float sid="specular">1</float>
            </reflectivity>
            <index_of_refraction>
              <float sid="ior">1</float>
            </index_of_refraction>
          </lambert>
        </technique>
      </profile_COMMON>
    </effect>
  </library_effects>
  <library_images>
    <image id="Apple_body_Baked_3_png" name="Apple_body_Baked_3_png">
      <init_from>/C:/Users/Julian/Downloads/Thanksgiving/Texturesidkifthesewillworkatall/Apple_body_Baked_3.png</init_from>
    </image>
    <image id="Apple_top_Baked_2_png" name="Apple_top_Baked_2_png">
      <init_from>/C:/Users/Julian/Downloads/Thanksgiving/Texturesidkifthesewillworkatall/Apple_top_Baked_2.png</init_from>
    </image>
  </library_images>
  <library_materials>
    <material id="Apple_1-material" name="Apple_1">
      <instance_effect url="#Apple_1-effect"/>
    </material>
    <material id="Apple_003-material" name="Apple.003">
      <instance_effect url="#Apple_003-effect"/>
    </material>
  </library_materials>
  <library_geometries>
    <geometry id="Apple_body-mesh" name="Apple_body">
      <mesh>
        <source id="Apple_body-mesh-positions">
          <float_array id="Apple_body-mesh-positions-array" count="738">20.78399 29.86503 -5.206558 0.01656341 22.23485 -0.004455566 -4.027435 -10.55571 36.58905 -31.49914 -0.4375572 23.36945 20.80509 -24.70932 19.10605 -36.62384 11.97838 -11.08835 4.407364 27.21212 26.76944 -10.78769 28.40859 -22.84836 13.83348 -32.5499 -10.97295 38.46523 3.28875 8.134247 0.978981 23.06586 -0.9467468 -13.55595 -27.88933 -20.71275 28.51682 14.40757 -24.59145 13.1334 9.549181 36.65384 15.06991 28.40859 20.29245 17.20411 -30.94086 11.56634 -36.57693 -10.55571 -4.048447 -15.50899 -11.56582 32.82164 26.77185 -26.17738 1.615555 19.77326 -28.97965 -12.53116 -15.28775 -30.94086 13.57005 -18.50275 2.04665 -34.64315 1.636642 -26.17738 -26.75975 -32.52144 7.040022 21.72255 -24.96035 -25.9239 10.27705 1.444328 26.01566 -29.06865 -26.73872 -26.17738 -1.624557 -19.05143 -13.48392 -30.07845 -20.04784 -26.17738 17.76875 0.9624558 -31.85002 -19.26105 -1.603508 -26.17738 26.75075 12.54323 -28.97965 19.75215 -2.955025 -21.7879 -30.70665 -6.6987 -32.5499 16.40355 -23.13393 -2.791897 -31.21895 31.4059 -15.40202 -14.82585 24.40466 -18.80494 -22.10886 8.053791 -34.26263 5.45784 7.157974 -1.614727 38.31804 -10.23552 -17.10348 -32.20915 -22.08778 -18.80494 -24.39255 2.355209 11.97838 -38.21745 27.69199 7.040022 -27.66325 -32.18813 -17.10348 10.24754 -24.37153 -18.80494 22.09985 -19.68982 7.040022 33.79965 20.83302 -10.55571 30.36115 14.83792 -15.40202 31.38484 22.12092 -18.80494 24.38365 -28.48373 14.40757 24.58244 38.83408 -2.791897 -1.911255 35.14959 -2.791897 -16.62096 26.11642 -2.791897 -28.80085 20.18848 -0.4375572 -33.65975 6.150604 -26.60057 25.51344 -9.426445 -2.791897 37.69325 -28.77984 -2.791897 -26.10436 -35.94713 2.04665 -15.94765 -29.46964 -14.49403 19.19754 38.04488 -3.969067 6.57814 24.60355 14.40757 28.49574 -16.59986 -2.791897 35.12854 -1.890175 -2.791897 38.81305 34.7332 7.040022 17.99675 28.81296 -2.791897 26.09535 33.67178 -0.4375572 20.16745 35.38632 18.89619 2.163544 30.22539 24.41043 -6.101257 26.55978 18.89619 -23.48166 -13.18769 -21.7879 -27.92296 -1.26091 20.8507 -34.17375 -36.64184 9.549181 13.11235 -23.46059 18.89619 -26.54775 -31.79734 18.89619 -16.01625 -34.17264 20.8507 1.674957 -32.64983 20.8507 9.942444 -26.52665 18.89619 23.47264 -14.34319 16.65188 33.65996 -2.151466 18.89619 35.36525 7.66497 30.26604 16.16696 23.49373 18.89619 26.53874 9.939843 -1.549797 -37.62715 -25.93062 -9.455868 26.54096 38.2295 11.97838 2.334152 -38.19633 11.97838 -2.343155 29.18299 -11.56582 21.62695 14.26073 -5.068909 35.55455 -38.43214 3.28875 -8.14325 28.24364 26.01566 7.06604 10.98507 -32.5499 13.81245 -22.69294 -25.89524 -14.70035 -2.750542 14.40757 37.53384 7.940422 22.80521 31.62895 -26.79668 -21.7879 15.18645 -9.843186 -23.80555 27.38374 8.356713 29.4582 10.04715 -6.588821 27.21212 26.36534 -5.06279 -26.799 -25.69916 6.284973 26.46122 -0.6609497 -21.55256 -29.50568 -7.396149 14.44998 -22.75853 26.28275 -9.558747 28.22972 2.131653 -27.37166 -23.80555 -9.864258 -0.3614884 24.44698 -3.307037 -30.26363 -11.56582 -20.28336 -5.444641 26.26125 -2.402649 -5.900688 -30.94086 -19.75745 17.21065 -18.80494 -27.93195 23.33357 27.21212 -13.98004 -23.87306 11.97838 -29.89005 -12.60989 -8.445748 -35.20445 9.292714 -11.56582 -35.16135 -26.2915 7.040022 29.02165 3.870529 2.04665 -39.09345 23.225 29.13681 2.186142 25.68849 24.41043 17.04535 14.1177 29.86503 -15.56276 -26.00541 27.21212 7.99115 1.860199 29.13681 -23.24785 -7.195969 29.86503 -20.16205 -19.41877 29.13681 -12.87685 -21.36672 29.86503 -1.054947 5.907921 26.97007 4.186142 -18.1896 29.86503 10.61325 19.44285 22.80521 26.18865 -7.838844 29.86503 19.64964 -15.41582 -33.24977 -3.870041 7.090408 29.86503 19.76575 18.09011 16.65188 -31.81165 20.09818 29.13681 11.58714 18.01782 7.040022 -34.72115 12.23335 -34.09822 -4.88736 -38.30604 -1.614727 7.136963 6.616402 -34.09822 -11.32126 21.74362 7.040022 32.53355 -1.499931 -33.674 -14.67296 -12.27238 -34.09822 -4.40155 -3.549721 28.22972 -8.876358 6.255333 -33.65991 -2.392654 -26.87376 27.21212 -3.993256 -20.11874 14.40757 31.79596 -4.568176 -34.09822 12.12535 -5.865585 30.26604 -16.44415 10.78336 30.26604 -13.46655 1.258759 23.01444 0.4298401 12.14641 -34.09822 4.580246 -13.10027 9.549181 -36.66285 26.30385 -22.75853 -14.43796 35.24082 -11.56582 8.818848 4.891899 -12.4738 35.70044 6.969978 27.91438 -5.872147 -9.015435 30.07913 13.36745 9.876324 -23.80555 -27.39275 -33.63863 -0.4375572 -20.17635 -19.23996 -31.85002 -0.9503479 5.501076 -20.29642 31.30997 25.53453 -26.60057 -6.13855 9.727704 16.65188 35.26645 -24.16378 -28.15234 4.116852 1.633942 26.11848 -5.577957 -33.02404 -18.01146 -4.065948 1.184715 -33.35439 -5.741745 16.54184 30.26604 4.134842 -3.829918 7.040022 38.93214 -4.044876 -18.01146 33.03604 21.64798 -11.56582 -29.17095 -36.70753 14.40757 8.243958 36.65694 11.97838 11.07935 11.10045 11.97838 -36.64485 9.920594 -28.15234 -22.33815 -21.87447 27.21212 16.23114 -15.14888 -26.23471 22.14035 -38.80093 -2.791897 -1.911255 -9.774552 -34.26263 -2.457046 31.33106 -20.29642 -5.489044 32.55459 7.040022 -21.73155 15.44896 -33.24977 3.861053 5.764145 7.040022 38.74405 26.20972 22.80521 -19.43076 -35.68834 -12.4738 4.87085 -32.78513 11.97838 -19.64766 1.875099 -7.345917 -37.84055 -26.17659 22.80521 19.42175 -33.34563 20.8507 -7.009949 -16.73788 -32.5499 5.778854 1.986389 25.7508 4.707153 -5.815346 -33.42716 0.3367462 0.01656341 -31.12469 -0.004455566 -0.6703415 28.29313 9.670441 4.899391 -34.09822 12.21225 -4.768341 22.80521 32.25334 32.27438 22.80521 4.780441 -15.94613 27.21212 22.03955 36.98332 -7.345917 -8.32045 1.990456 -32.19995 18.16005 13.65107 26.01566 25.50375 31.82373 16.65188 18.06905 31.23105 -2.791897 -23.15495 -9.694581 16.65188 -35.27545 -4.493774 25.57636 1.792343 27.67534 7.040022 27.67096 -30.68564 -21.7879 2.967041 -12.15274 -33.674 7.797745 12.76941 29.4582 -2.438156 4.078011 -18.01146 -33.04504 35.28755 16.65188 -9.715653 27.40479 -23.80555 9.85524 6.951836 -33.24977 -14.66795 -25.72683 -11.56582 -25.80235 22.35024 -28.15234 9.899552 -35.54254 -5.068909 14.23965 -15.76733 30.26604 -7.469757 -7.537888 -2.791897 -38.03045 9.219456 27.21212 -25.72435 23.16707 -2.791897 31.20996 -17.03323 24.41043 -25.67645 -14.03014 30.07913 7.258148 -27.91086 -18.80494 -17.19855 38.76509 7.040022 -5.752045 -16.74864 22.80521 27.96675 -34.08784 -9.455868 -14.66286 37.60244 2.04665 -11.41086 -38.73193 7.040022 5.743042 16.78177 22.80521 -27.97575 -8.830124 -29.24267 21.35324 33.05713 -18.01146 4.056961 7.041191 20.8507 -33.44275 19.12706 -24.70932 -20.79305 -18.20034 -23.10754 -23.48135 0.3578491 -33.42716 5.827454 -14.05751 -31.74538 -12.87816 -25.55962 24.41043 -17.19756 -27.64221 7.040022 -27.67995 19.27309 -31.85002 0.941452 27.94399 -18.80494 17.18955 35.39508 11.97838 -14.62656 -11.35271 7.040022 37.43344 35.90166 -12.4738 -3.059845 16.21044 27.21212 -21.83925 -1.975021 25.67998 4.473541 -17.17752 -18.80494 27.92296 -5.731018 7.040022 -38.75304 30.3822 -10.55571 -20.82095 -7.855011 24.41043 -29.95805 -23.13393 -2.791897 31.20996 -3.03875 -13.48392 -35.49655</float_array>
          <technique_common>
            <accessor source="#Apple_body-mesh-positions-array" count="246" stride="3">
              <param name="X" type="float"/>
              <param name="Y" type="float"/>
              <param name="Z" type="float"/>
            </accessor>
          </technique_common>
        </source>
        <source id="Apple_body-mesh-normals">
          <float_array id="Apple_body-mesh-normals-array" count="738">-0.1347123 -0.9898623 -0.04500478 0.2089076 -0.9761399 -0.05923372 0.1653475 -0.9824133 0.08674317 -0.8458441 -0.5136916 -0.1437662 -0.8909937 -0.309803 -0.3318918 -0.7401268 -0.517596 -0.4293097 0.7913508 -0.1227636 -0.5989099 0.8466907 0.07702773 -0.5264805 0.8903903 -0.1538892 -0.428396 -0.1484194 -0.8560509 -0.4951251 -0.1571577 -0.7414198 -0.6523789 0.05238336 -0.7360092 -0.6749418 -0.9892895 0.08684235 0.1173227 -0.9015721 0.2101471 0.3781617 -0.9180016 0.3521453 0.1823916 -0.8103966 0.237305 -0.5356713 -0.7040174 0.06547206 -0.7071585 -0.8431774 -0.08889031 -0.5302362 0.003543198 -0.9983077 -0.05804449 0.3418884 0.8431431 -0.4149964 0.1837187 0.8447255 -0.5026792 0.1770529 0.9589494 -0.2215139 0.9061714 -0.3494229 0.2382376 0.9591228 -0.1948177 0.2052549 0.8737646 -0.1280885 0.4691788 0.008199632 0.9452319 -0.3262967 -0.103283 0.9900392 0.09568244 0.2276175 -0.8940232 -0.3858922 0.04084026 -0.867505 -0.4957492 0.2460379 -0.7945974 -0.55505 -0.1277258 0.1165825 -0.9849338 -0.3650565 0.1950663 -0.9103203 -0.2522379 0.4458209 -0.858848 -0.8250112 -0.4921178 0.2778067 -0.6464363 -0.7165695 0.262008 -0.6955959 -0.601069 0.3935257 0.07524025 -0.9939043 0.08058071 0.04888051 -0.8844408 0.4640854 -0.007080495 -0.9911229 0.1327604 -0.3083335 0.8582874 0.4102111 -0.4193807 0.8555173 0.3036613 -0.5707201 0.7035697 0.4234009 -0.6019239 -0.7861454 0.1402248 -0.7882171 -0.6078598 0.0960232 -0.68991 -0.7212613 -0.06169581 0.5822933 -0.7760246 0.2423231 0.4911341 -0.8710336 -0.009375214 0.6972281 -0.7152804 0.04740405 -0.7655528 0.5031052 -0.4010163 -0.5580964 0.4937103 -0.6669173 -0.06541901 -0.9595377 -0.2738756 -0.2899074 -0.9518889 0.09930378 -0.1320699 -0.5163938 0.8461058 -0.03743165 -0.7238088 0.6889846 0.1467752 -0.577839 0.8028445 0.6736238 0.09474855 -0.7329761 0.7196832 0.3172735 -0.6175708 -0.4792609 0.09776127 0.8722109 -0.2980388 0.1128239 0.9478627 -0.340698 0.4284255 0.836885 -0.4711077 -0.6352629 -0.611963 -0.5606505 -0.7172653 -0.4137651 -0.5836954 -0.5419064 -0.6046795 -0.09701007 0.9952507 0.0080747 -0.005137264 0.9992139 -0.03931051 0.2777009 0.9456064 0.1694434 0.9259998 -0.2718968 -0.2619096 0.9534757 -0.02433842 -0.3004859 0.989899 -0.1403154 -0.02028501 0.7048006 -0.6557981 0.2705275 0.8422219 -0.5243737 0.1252784 0.3712742 0.1877332 0.9093469 0.60424 0.3214768 0.7290726 0.5402992 0.5040984 0.6737668 0.644547 0.7548604 -0.1214289 0.2722802 0.9594864 -0.07245343 0.3696919 0.9287116 0.02868121 0.5995374 0.6838527 -0.4158129 0.4387694 0.8605395 -0.2587533 -0.3791364 0.675723 0.6321821 -0.6499802 0.508107 0.5651134 -0.2386136 -0.1560854 0.958489 -0.1277518 -0.340512 0.9315208 -0.01529783 -0.1447865 0.9893447 0.6694205 0.5071138 -0.5428737 0.8610157 0.4477664 -0.2411578 0.562129 -0.3338233 0.7566855 0.7587461 -0.3513011 0.548536 0.7196815 -0.1798349 0.6706103 0.02743095 0.9994312 -0.01962321 0.05951046 0.9966642 0.05584734 -0.2666005 0.9461175 -0.1838099 -0.844194 0.0823993 0.5296667 -0.673642 0.0957424 0.73283 -0.7372576 0.3185236 0.5958137 0.9763471 0.2133313 0.03515809 0.8620057 0.5015878 0.07318508 0.2258501 -0.9732376 -0.04242897 0.04230546 -0.9857774 0.1626448 -0.01462364 -0.9998928 -7.9171e-4 0.1130405 0.1176789 0.986597 0.2485722 0.42691 0.8694595 -0.3690873 0.8583016 0.3565012 0.09641838 0.8476904 0.5216554 0.06073224 0.9967246 -0.05340105 -0.3896551 -0.3595178 0.8478891 -0.6395822 -0.3384404 0.6902122 -0.4313962 -0.5161029 0.7399563 -0.5339588 0.7641927 -0.3617979 -0.3808671 0.7071545 -0.595712 0.4569018 -0.7176911 -0.5255096 0.190942 0.5776851 -0.7936127 0.3945192 0.6720471 -0.6266636 -0.09994596 0.06713378 0.9927256 -0.5986961 0.2529305 -0.7599929 -0.4706329 -0.02671468 -0.8819247 -0.2480401 -0.6568334 0.7120717 -0.4058446 -0.7145337 0.5698525 -0.2041846 -0.812492 0.5460453 -0.9868178 -0.1393442 -0.08230406 -0.9802931 0.01492762 -0.1969841 -0.9309583 -0.04717111 -0.3620656 0.1650511 -0.7444755 0.6469269 0.3608519 -0.6433562 0.6751879 -0.5737147 -0.1768609 -0.7997323 -0.5941416 -0.1527696 0.7897198 -0.4049522 -0.848895 0.3396927 0.819829 -0.4539017 -0.3490758 0.6751887 -0.6433542 -0.3608541 0.6386852 -0.5154562 -0.5713022 0.406956 0.8818206 0.2382839 0.8809377 0.2712587 -0.3877728 0.9803089 0.1287242 -0.1497483 0.1004989 0.9269617 -0.3614445 0.2426171 0.8271396 -0.5069292 0.4563527 0.8654641 -0.2066744 -0.1183039 0.8638622 0.4896389 0.5509853 -0.3513329 -0.7569547 0.2685865 -0.3563473 -0.8949179 0.4961009 -0.1299765 -0.8584812 -0.5335813 -0.7216768 0.4409916 -0.6028656 -0.5459898 0.581763 0.4789443 0.3907071 -0.7861045 0.4565032 0.1149761 -0.8822615 0.2740465 0.2213277 -0.935902 -0.1053621 -0.9930735 -0.05199974 0.9758841 0.006550252 0.2181908 0.8786757 0.1233686 0.4612041 -0.933761 -0.3383716 -0.116598 -0.9224644 -0.3681168 0.1164022 0.4186025 0.6516323 0.6325721 0.3036257 0.7979246 0.5206995 0.1735738 0.6699087 0.7218689 0.7329765 0.09474915 0.6736232 0.5820745 -0.1247412 0.8035104 -0.7888242 -0.1340971 0.599812 0.3350378 -0.9102117 -0.2434429 0.08339297 0.8539559 0.5136197 0.2704849 0.8898513 0.367427 0.07172864 0.9634054 0.2582736 0.02779322 0.790426 -0.6119266 -0.1733123 0.7512908 -0.6368085 -0.1775863 0.8674077 -0.4648302 -0.3479303 -0.8895107 -0.2961679 0.7881318 0.4268759 0.4434247 0.3778957 -0.1894602 0.9062559 -0.4916689 0.8554181 -0.1628546 -0.4665619 0.8842399 0.02097803 0.05073106 -0.9987052 -0.003789961 0.1537317 0.986237 -0.06085437 -0.2438712 0.9697701 -0.008530437 -0.4713725 -0.4214475 -0.7747193 -0.3414408 -0.2826988 -0.8963814 -0.1753714 -0.9119188 0.371011 -0.5353909 0.3435999 0.7715542 0.747907 -0.5214754 0.4107292 0.1314997 -0.365475 0.9214857 0.2011361 -0.1236894 0.9717228 -0.3500426 -0.7721811 -0.5302892 -0.3999229 -0.9060818 0.1381213 -0.4946112 -0.86715 -0.05840224 -0.3231377 -0.9441536 -0.06446921 0.4076988 0.9088206 0.08846926 0.05658501 -0.2474172 -0.9672553 -0.1945431 -0.1388182 -0.9710214 0.08147245 -0.0159955 -0.9965472 0.6705919 -0.1797957 -0.7197083 0.5575857 0.8193058 0.1335532 0.7756364 -0.3311015 -0.537364 -0.9717175 -0.1236664 0.2011757 -0.9071806 -0.1966008 0.3719834 -0.07898193 0.9756118 0.2048012 -0.7710267 0.5573472 0.3080292 -0.7926479 0.6085924 0.03639841 0.02381134 0.996919 -0.07473719 0.2761198 -0.09890276 -0.9560211 0.3636353 -0.4492124 0.8160745 -0.2684545 -0.4681842 -0.8418645 -0.07170128 0.3125011 0.9472076 -0.03716069 0.5184993 0.8542703 -0.3234165 -0.6178089 -0.7167384 -0.1313284 0.8773439 0.4615417 -0.5318566 0.8331966 0.1513673 -0.6581937 -0.3655261 -0.6581579 -0.7343679 -0.1653785 -0.6582962 -0.07409745 -0.3942599 -0.916007 -0.08357733 0.9733995 -0.2133271 -0.2127304 -0.9677845 0.1346815 -0.2586958 0.936717 -0.2358765 -0.1116374 0.6856133 0.7193549 0.5551692 0.7361118 0.3872038 -0.1914349 0.9730111 0.1288486 -0.9225224 0.2597429 -0.2854576 -0.9671081 0.2487723 -0.05305105 -0.7896665 0.5873798 -0.1772339 0.04024749 0.2924506 -0.9554334 -0.03590053 0.572934 -0.8188148 -0.09228926 -0.5966945 -0.7971439 -0.3808855 0.9127674 0.147587 -0.3630141 0.9026519 0.231172 0.7411314 0.6513798 0.1625687 0.6484446 -0.743582 -0.1631118 0.4864698 -0.8074554 -0.3337107 -0.2264916 0.879537 -0.4184689 0.5403158 -0.6996365 0.4675123 0.3138833 -0.8014085 0.5091382 0.1405443 -0.5275318 -0.8378291 0.08623975 -0.9611649 -0.2621544 0.5713025 -0.5154561 0.6386849 0.9186999 -0.388771 -0.06962531 0.05503457 0.9119118 0.4066793 0.4114843 -0.5234197 -0.7461317 -0.4464244 0.8589194 -0.2509238 -0.7824677 -0.3348781 -0.5249773 -0.7803041 -0.3919073 0.4873749 0.5293803 0.06979173 0.8455092 -0.4182708 -0.1304138 0.8989115 0.2705261 -0.6557992 -0.7048 -0.5522129 0.828427 -0.09364598 -0.7125732 -0.6566378 -0.247116 -0.554974 -0.8060038 -0.2058199 0.8048273 -0.5756909 -0.1443369 0.3260577 -0.939159 0.108013 0.4395918 -0.8478273 0.2965606 0.2508653 -0.9180108 0.3071202 0.9217831 0.2747833 0.2735148</float_array>
          <technique_common>
            <accessor source="#Apple_body-mesh-normals-array" count="246" stride="3">
              <param name="X" type="float"/>
              <param name="Y" type="float"/>
              <param name="Z" type="float"/>
            </accessor>
          </technique_common>
        </source>
        <source id="Apple_body-mesh-map-0">
          <float_array id="Apple_body-mesh-map-0-array" count="2928">0.131298 0.412332 0.138564 0.35817 0.149666 0.403198 0.617854 0.627645 0.57837 0.654325 0.564826 0.616936 0.335801 0.692911 0.339783 0.725006 0.311127 0.700657 0.474669 0.529544 0.462544 0.569148 0.429318 0.574527 0.630151 0.718583 0.649421 0.733871 0.63044 0.742729 0.553869 0.714064 0.529982 0.697489 0.558916 0.679945 0.131298 0.412332 0.104088 0.334473 0.138564 0.35817 0.402977 0.781931 0.427945 0.772817 0.405059 0.807333 0.1985149 0.698434 0.222754 0.728629 0.166838 0.773091 0.453122 0.781618 0.416558 0.818734 0.405059 0.807333 0.371847 0.497984 0.427688 0.519739 0.38217 0.563052 0.463116 0.697097 0.483929 0.702757 0.477234 0.722918 0.672308 0.642246 0.693686 0.595152 0.705687 0.625097 0.124561 0.448222 0.102592 0.474657 0.07953596 0.459325 0.667987 0.836443 0.642733 0.813835 0.658089 0.792869 0.66629 0.571823 0.649444 0.614217 0.632695 0.583141 0.154023 0.585695 0.209735 0.539256 0.212246 0.601319 0.553869 0.714064 0.557551 0.7352 0.521084 0.730171 0.427688 0.519739 0.412616 0.494898 0.439976 0.493091 0.131298 0.412332 0.11304 0.377395 0.104088 0.334473 0.849704 0.678549 0.866976 0.613843 0.912903 0.668848 0.339783 0.725006 0.362238 0.717239 0.361777 0.741582 0.738135 0.768357 0.770675 0.788686 0.731187 0.812479 0.427688 0.519739 0.474669 0.529544 0.429318 0.574527 0.52204 0.592488 0.566118 0.577724 0.530141 0.614207 0.349418 0.888733 0.332624 0.981998 0.305173 0.902426 0.276198 0.694047 0.297901 0.723454 0.25808 0.719992 0.167252 0.626272 0.212246 0.601319 0.210654 0.659139 0.08955198 0.908317 0.1611199 0.888622 0.188884 0.907829 0.329424 0.806015 0.362217 0.837042 0.331744 0.856829 0.366624 0.772952 0.369639 0.799138 0.329424 0.806015 0.731187 0.812479 0.696431 0.822957 0.676201 0.784334 0.800812 0.752761 0.840582 0.724346 0.836028 0.769453 0.368637 0.755174 0.366624 0.772952 0.317299 0.771559 0.043796 0.746308 0.123484 0.719301 0.121183 0.779637 0.542877 0.805162 0.487543 0.798751 0.537103 0.781342 0.680773 0.738706 0.710922 0.753239 0.683669 0.768637 0.269073 0.779569 0.317299 0.771559 0.285423 0.804064 0.05960392 0.404892 0.08509898 0.367923 0.08653599 0.396196 0.362217 0.837042 0.349418 0.888733 0.331744 0.856829 0.844284 0.840883 0.872465 0.887653 0.81888 0.907915 0.2143 0.447528 0.217221 0.461163 0.208948 0.446848 0.784036 0.70018 0.730588 0.692511 0.776292 0.658031 0.542165 0.753431 0.507189 0.749529 0.521084 0.730171 0.341068 0.594535 0.371847 0.497984 0.38217 0.563052 0.433148 0.742153 0.427945 0.772817 0.403709 0.757554 0.331744 0.856829 0.349418 0.888733 0.305173 0.902426 0.844284 0.840883 0.801016 0.809328 0.836028 0.769453 0.517599 0.709988 0.49926 0.682382 0.529982 0.697489 0.816327 0.631248 0.777518 0.606527 0.812889 0.580131 0.123484 0.719301 0.1985149 0.698434 0.166838 0.773091 0.615905 0.683543 0.593667 0.697068 0.571415 0.68896 0.912903 0.668848 0.923345 0.606038 0.977505 0.653357 0.529982 0.697489 0.49926 0.682382 0.515899 0.669148 0.730588 0.692511 0.784036 0.70018 0.740109 0.725641 0.748246 0.55327 0.812889 0.580131 0.777518 0.606527 0.553869 0.714064 0.558916 0.679945 0.571415 0.68896 0.297734 0.652953 0.298759 0.613573 0.334142 0.629182 0.209112 0.476685 0.20116 0.475585 0.208948 0.446848 0.323426 0.749406 0.286441 0.748183 0.297901 0.723454 0.601795 0.926489 0.562578 0.907936 0.554419 0.894411 0.698117 0.873895 0.667987 0.836443 0.696431 0.822957 0.889034 0.533381 0.923345 0.606038 0.866976 0.613843 0.364958 0.654326 0.411397 0.646655 0.384413 0.688024 0.740796 0.600572 0.777518 0.606527 0.73346 0.648044 0.399582 0.736284 0.396353 0.707808 0.419013 0.717132 0.08509898 0.367923 0.022879 0.39028 0.104088 0.334473 0.230409 0.760168 0.197394 0.800436 0.166838 0.773091 0.614084 0.656873 0.645845 0.655969 0.615905 0.683543 0.796752 0.983333 0.757901 0.991627 0.774661 0.928813 0.141558 0.838791 0.07355999 0.801046 0.121183 0.779637 0.730588 0.692511 0.740109 0.725641 0.697031 0.717643 0.113265 0.320183 0.13137 0.330055 0.104088 0.334473 0.725101 0.9309 0.72076 0.993962 0.686465 0.960974 0.451556 0.759968 0.477759 0.749702 0.453122 0.781618 0.567021 0.937511 0.567432 0.929387 0.601795 0.926489 0.405059 0.807333 0.416558 0.818734 0.362217 0.837042 0.812889 0.580131 0.889034 0.533381 0.866976 0.613843 0.026537 0.342413 0.05774092 0.329677 0.022879 0.39028 0.141558 0.838791 0.197394 0.800436 0.222649 0.843733 0.507189 0.749529 0.477759 0.749702 0.477234 0.722918 0.143131 0.338979 0.154147 0.352856 0.138564 0.35817 0.396353 0.707808 0.362238 0.717239 0.384413 0.688024 0.043796 0.746308 0.07355999 0.801046 0.02357596 0.80037 0.2143 0.447528 0.211847 0.44254 0.233543 0.430219 0.08509898 0.367923 0.03711396 0.396468 0.022879 0.39028 0.402977 0.781931 0.369639 0.799138 0.366624 0.772952 0.599291 0.844522 0.542877 0.805162 0.576233 0.801546 0.508578 0.634329 0.515899 0.669148 0.482663 0.651719 0.748246 0.55327 0.824952 0.533093 0.812889 0.580131 0.717827 0.790303 0.731187 0.812479 0.676201 0.784334 0.167252 0.626272 0.210654 0.659139 0.1324509 0.667396 0.894825 0.726897 0.881537 0.800179 0.836028 0.769453 0.451556 0.759968 0.453122 0.781618 0.427945 0.772817 0.462544 0.569148 0.474669 0.529544 0.512768 0.559931 0.69542 0.521618 0.641472 0.527933 0.664954 0.504604 0.776292 0.658031 0.730588 0.692511 0.73346 0.648044 0.487543 0.798751 0.563431 0.859919 0.521701 0.858185 0.43765 0.6578 0.466686 0.669475 0.435379 0.686226 0.303596 0.974408 0.273807 0.960134 0.305173 0.902426 0.693686 0.595152 0.649444 0.614217 0.66629 0.571823 0.717827 0.790303 0.738135 0.768357 0.731187 0.812479 0.364958 0.654326 0.384413 0.688024 0.359661 0.686353 0.427945 0.772817 0.453122 0.781618 0.405059 0.807333 0.840582 0.724346 0.784036 0.70018 0.849704 0.678549 0.295396 0.85149 0.329424 0.806015 0.331744 0.856829 0.32382 0.667472 0.335801 0.692911 0.311127 0.700657 0.649421 0.733871 0.642378 0.694545 0.669634 0.690668 0.659816 0.97957 0.66133 0.877925 0.686465 0.960974 0.63044 0.742729 0.628789 0.766698 0.60501 0.756307 0.659816 0.97957 0.626386 0.874329 0.66133 0.877925 0.66629 0.571823 0.748246 0.55327 0.693686 0.595152 0.416089 0.678319 0.396353 0.707808 0.384413 0.688024 0.985646 0.773244 0.940747 0.800063 0.975271 0.71618 0.599291 0.844522 0.626386 0.874329 0.601795 0.926489 0.508578 0.634329 0.482663 0.651719 0.477688 0.620361 0.286441 0.748183 0.323426 0.749406 0.317299 0.771559 0.1386539 0.335096 0.138564 0.35817 0.104088 0.334473 0.339783 0.725006 0.323426 0.749406 0.297901 0.723454 0.361777 0.741582 0.399582 0.736284 0.368637 0.755174 0.78115 0.841962 0.81888 0.907915 0.764617 0.861878 0.494155 0.599192 0.52204 0.592488 0.508578 0.634329 0.2143 0.447528 0.228426 0.463929 0.217221 0.461163 0.658089 0.792869 0.614174 0.794696 0.628789 0.766698 0.515899 0.669148 0.534413 0.642541 0.537806 0.670626 0.482663 0.651719 0.451795 0.635471 0.477688 0.620361 0.38217 0.563052 0.427688 0.519739 0.429318 0.574527 0.486889 0.78442 0.487543 0.798751 0.453122 0.781618 0.03711396 0.396468 0.0344659 0.445759 0.022879 0.39028 0.317299 0.771559 0.329424 0.806015 0.285423 0.804064 0.66629 0.571823 0.69542 0.521618 0.748246 0.55327 0.365936 0.952588 0.349418 0.888733 0.425707 0.902148 0.710922 0.753239 0.738135 0.768357 0.717827 0.790303 0.764617 0.861878 0.735756 0.865666 0.731187 0.812479 0.03711396 0.396468 0.07953596 0.459325 0.0344659 0.445759 0.529982 0.697489 0.553869 0.714064 0.517599 0.709988 0.25546 0.8869 0.305173 0.902426 0.273807 0.960134 0.57837 0.654325 0.615905 0.683543 0.571415 0.68896 0.466686 0.669475 0.463116 0.697097 0.435379 0.686226 0.339783 0.725006 0.297901 0.723454 0.311127 0.700657 0.276198 0.694047 0.32382 0.667472 0.311127 0.700657 0.618153 0.828168 0.599291 0.844522 0.576233 0.801546 0.323426 0.749406 0.361777 0.741582 0.368637 0.755174 0.579087 0.718967 0.603232 0.725411 0.580562 0.748085 0.07355999 0.801046 0.043796 0.746308 0.121183 0.779637 0.66133 0.877925 0.698117 0.873895 0.686465 0.960974 0.614174 0.794696 0.642733 0.813835 0.618153 0.828168 0.442937 0.71292 0.477234 0.722918 0.456232 0.738144 0.774661 0.928813 0.725101 0.9309 0.735756 0.865666 0.05960392 0.404892 0.124561 0.448222 0.07953596 0.459325 0.419013 0.717132 0.442937 0.71292 0.433148 0.742153 0.08509898 0.367923 0.11304 0.377395 0.08653599 0.396196 0.45131 0.600275 0.477688 0.620361 0.451795 0.635471 0.487543 0.798751 0.542877 0.805162 0.563431 0.859919 0.425707 0.902148 0.390779 0.869913 0.426196 0.867186 0.710922 0.753239 0.717827 0.790303 0.683669 0.768637 0.483929 0.702757 0.517599 0.709988 0.521084 0.730171 0.881537 0.800179 0.894825 0.726897 0.940747 0.800063 0.66133 0.877925 0.626386 0.874329 0.618153 0.828168 0.403709 0.757554 0.402977 0.781931 0.366624 0.772952 0.329424 0.806015 0.289254 0.827 0.285423 0.804064 0.554419 0.894411 0.599291 0.844522 0.601795 0.926489 0.185903 0.435773 0.208948 0.446848 0.183181 0.449524 0.748246 0.55327 0.69542 0.521618 0.72594 0.512423 0.390779 0.869913 0.349418 0.888733 0.416558 0.818734 0.649444 0.614217 0.672308 0.642246 0.645845 0.655969 0.166838 0.773091 0.141558 0.838791 0.121183 0.779637 0.256088 0.591876 0.255872 0.522828 0.300349 0.565598 0.436343 0.875607 0.416558 0.818734 0.466264 0.859658 0.477759 0.749702 0.507189 0.749529 0.494299 0.770143 0.425707 0.902148 0.349418 0.888733 0.390779 0.869913 0.553869 0.714064 0.579087 0.718967 0.557551 0.7352 0.696431 0.822957 0.667987 0.836443 0.658089 0.792869 0.366624 0.772952 0.329424 0.806015 0.317299 0.771559 0.580562 0.748085 0.542165 0.753431 0.557551 0.7352 0.092018 0.618993 0.03143292 0.600065 0.05405491 0.560766 0.08653599 0.396196 0.11304 0.377395 0.131298 0.412332 0.212246 0.601319 0.167252 0.626272 0.154023 0.585695 0.416089 0.678319 0.419013 0.717132 0.396353 0.707808 0.371847 0.497984 0.341068 0.594535 0.300349 0.565598 0.735756 0.865666 0.698117 0.873895 0.696431 0.822957 0.451795 0.635471 0.411397 0.646655 0.42503 0.619913 0.384413 0.688024 0.362238 0.717239 0.359661 0.686353 0.2387149 0.447412 0.233835 0.459147 0.2143 0.447528 0.09523296 0.423127 0.05960392 0.404892 0.08653599 0.396196 0.451556 0.759968 0.427945 0.772817 0.433148 0.742153 0.297901 0.723454 0.276198 0.694047 0.311127 0.700657 0.01368492 0.706752 0.02219498 0.631776 0.07128399 0.673101 0.25041 0.678615 0.276198 0.694047 0.25808 0.719992 0.492034 0.838139 0.483791 0.868108 0.466264 0.859658 0.641472 0.527933 0.66629 0.571823 0.632695 0.583141 0.370715 0.623038 0.364958 0.654326 0.334142 0.629182 0.451556 0.759968 0.433148 0.742153 0.456232 0.738144 0.414753 0.937694 0.421271 0.949032 0.365936 0.952588 0.483929 0.702757 0.463116 0.697097 0.466686 0.669475 0.683669 0.768637 0.717827 0.790303 0.676201 0.784334 0.975271 0.71618 0.894825 0.726897 0.912903 0.668848 0.25041 0.678615 0.1985149 0.698434 0.210654 0.659139 0.923345 0.606038 0.889034 0.533381 0.957673 0.568143 0.770675 0.788686 0.801016 0.809328 0.78115 0.841962 0.557548 0.644555 0.558916 0.679945 0.537806 0.670626 0.626386 0.874329 0.659816 0.97957 0.601795 0.926489 0.849704 0.678549 0.784036 0.70018 0.776292 0.658031 0.11304 0.377395 0.08509898 0.367923 0.104088 0.334473 0.735756 0.865666 0.696431 0.822957 0.731187 0.812479 0.705863 0.662808 0.697031 0.717643 0.669634 0.690668 0.141558 0.838791 0.07488697 0.865983 0.07355999 0.801046 0.362238 0.717239 0.396353 0.707808 0.399582 0.736284 0.599291 0.844522 0.554419 0.894411 0.563431 0.859919 0.881537 0.800179 0.844284 0.840883 0.836028 0.769453 0.812889 0.580131 0.824952 0.533093 0.889034 0.533381 0.628789 0.766698 0.614174 0.794696 0.60501 0.756307 0.751181 0.959078 0.725101 0.9309 0.774661 0.928813 0.557551 0.7352 0.542165 0.753431 0.521084 0.730171 0.416089 0.678319 0.43765 0.6578 0.435379 0.686226 0.419013 0.717132 0.433148 0.742153 0.399582 0.736284 0.774661 0.928813 0.735756 0.865666 0.764617 0.861878 0.141558 0.838791 0.222649 0.843733 0.1611199 0.888622 0.123484 0.719301 0.166838 0.773091 0.121183 0.779637 0.425707 0.902148 0.427706 0.913702 0.414569 0.926035 0.416089 0.678319 0.411397 0.646655 0.43765 0.6578 0.466686 0.669475 0.482663 0.651719 0.49926 0.682382 0.558916 0.679945 0.557548 0.644555 0.57837 0.654325 0.81888 0.907915 0.774661 0.928813 0.764617 0.861878 0.784036 0.70018 0.840582 0.724346 0.800812 0.752761 0.369639 0.799138 0.405059 0.807333 0.362217 0.837042 0.494155 0.599192 0.462544 0.569148 0.512768 0.559931 0.399582 0.736284 0.403709 0.757554 0.368637 0.755174 0.730588 0.692511 0.705863 0.662808 0.73346 0.648044 0.738135 0.768357 0.740109 0.725641 0.769125 0.738281 0.1611199 0.888622 0.222649 0.843733 0.188884 0.907829 0.558916 0.679945 0.57837 0.654325 0.571415 0.68896 0.394241 0.593938 0.341068 0.594535 0.38217 0.563052 0.508578 0.634329 0.534413 0.642541 0.515899 0.669148 0.487543 0.798751 0.486889 0.78442 0.537103 0.781342 0.362217 0.837042 0.329424 0.806015 0.369639 0.799138 0.614174 0.794696 0.57688 0.777521 0.60501 0.756307 0.230409 0.760168 0.222754 0.728629 0.25808 0.719992 0.740109 0.725641 0.710922 0.753239 0.697031 0.717643 0.211847 0.44254 0.208948 0.446848 0.207868 0.419879 0.09093195 0.476648 0.07134497 0.47483 0.07953596 0.459325 0.42503 0.619913 0.429318 0.574527 0.45131 0.600275 0.124561 0.448222 0.09523296 0.423127 0.131298 0.412332 0.757901 0.991627 0.72076 0.993962 0.725101 0.9309 0.632695 0.583141 0.593928 0.594635 0.600189 0.55151 0.517599 0.709988 0.553869 0.714064 0.521084 0.730171 0.365936 0.952588 0.425707 0.902148 0.414569 0.926035 0.189788 0.464174 0.184155 0.453196 0.208948 0.446848 0.474669 0.529544 0.427688 0.519739 0.457023 0.492746 0.844284 0.840883 0.81888 0.907915 0.78115 0.841962 0.211847 0.44254 0.2143 0.447528 0.208948 0.446848 0.698117 0.873895 0.725101 0.9309 0.686465 0.960974 0.748246 0.55327 0.740796 0.600572 0.693686 0.595152 0.25546 0.8869 0.23711 0.968384 0.208741 0.941639 0.667987 0.836443 0.66133 0.877925 0.618153 0.828168 0.517599 0.709988 0.483929 0.702757 0.49926 0.682382 0.253847 0.636595 0.25041 0.678615 0.210654 0.659139 0.442937 0.71292 0.419013 0.717132 0.435379 0.686226 0.124561 0.448222 0.131298 0.412332 0.149666 0.403198 0.483929 0.702757 0.466686 0.669475 0.49926 0.682382 0.253847 0.636595 0.298759 0.613573 0.297734 0.652953 0.209735 0.539256 0.256088 0.591876 0.212246 0.601319 0.546071 0.518849 0.641472 0.527933 0.600189 0.55151 0.614174 0.794696 0.618153 0.828168 0.576233 0.801546 0.529982 0.697489 0.515899 0.669148 0.537806 0.670626 0.369639 0.799138 0.402977 0.781931 0.405059 0.807333 0.154074 0.511366 0.127373 0.549528 0.09845 0.514886 0.725101 0.9309 0.698117 0.873895 0.735756 0.865666 0.362238 0.717239 0.335801 0.692911 0.359661 0.686353 0.835184 0.968552 0.796752 0.983333 0.81888 0.907915 0.269073 0.779569 0.2384819 0.800515 0.230409 0.760168 0.295396 0.85149 0.331744 0.856829 0.305173 0.902426 0.521084 0.730171 0.507189 0.749529 0.477234 0.722918 0.580562 0.748085 0.603232 0.725411 0.60501 0.756307 0.162546 0.422925 0.152674 0.441028 0.149666 0.403198 0.507189 0.749529 0.542165 0.753431 0.494299 0.770143 0.453122 0.781618 0.494299 0.770143 0.486889 0.78442 0.349418 0.888733 0.365936 0.952588 0.332624 0.981998 0.477759 0.749702 0.451556 0.759968 0.456232 0.738144 0.298759 0.613573 0.341068 0.594535 0.334142 0.629182 0.680773 0.738706 0.649421 0.733871 0.669634 0.690668 0.57837 0.654325 0.614084 0.656873 0.615905 0.683543 0.285423 0.804064 0.289254 0.827 0.222649 0.843733 0.579087 0.718967 0.553869 0.714064 0.571415 0.68896 0.298759 0.613573 0.256088 0.591876 0.300349 0.565598 0.138564 0.35817 0.165001 0.380142 0.149666 0.403198 0.542877 0.805162 0.599291 0.844522 0.563431 0.859919 0.2384819 0.800515 0.285423 0.804064 0.222649 0.843733 0.600189 0.55151 0.593928 0.594635 0.566118 0.577724 0.508578 0.634329 0.52204 0.592488 0.530141 0.614207 0.341068 0.594535 0.370715 0.623038 0.334142 0.629182 0.770675 0.788686 0.738135 0.768357 0.769125 0.738281 0.451795 0.635471 0.482663 0.651719 0.466686 0.669475 0.477234 0.722918 0.477759 0.749702 0.456232 0.738144 0.894825 0.726897 0.840582 0.724346 0.849704 0.678549 0.341068 0.594535 0.394241 0.593938 0.370715 0.623038 0.680773 0.738706 0.683669 0.768637 0.649421 0.733871 0.42503 0.619913 0.411397 0.646655 0.370715 0.623038 0.222649 0.843733 0.197394 0.800436 0.2384819 0.800515 0.534413 0.642541 0.508578 0.634329 0.530141 0.614207 0.494155 0.599192 0.45131 0.600275 0.462544 0.569148 0.542165 0.753431 0.537103 0.781342 0.494299 0.770143 0.411397 0.646655 0.364958 0.654326 0.370715 0.623038 0.14375 0.452788 0.129875 0.463803 0.124561 0.448222 0.394241 0.593938 0.42503 0.619913 0.370715 0.623038 0.289254 0.827 0.295396 0.85149 0.25546 0.8869 0.210654 0.659139 0.212246 0.601319 0.253847 0.636595 0.209735 0.539256 0.127373 0.549528 0.154074 0.511366 0.801016 0.809328 0.770675 0.788686 0.800812 0.752761 0.362238 0.717239 0.399582 0.736284 0.361777 0.741582 0.558916 0.679945 0.529982 0.697489 0.537806 0.670626 0.394241 0.593938 0.429318 0.574527 0.42503 0.619913 0.801016 0.809328 0.800812 0.752761 0.836028 0.769453 0.542877 0.805162 0.537103 0.781342 0.576233 0.801546 0.57837 0.654325 0.557548 0.644555 0.564826 0.616936 0.433148 0.742153 0.442937 0.71292 0.456232 0.738144 0.521701 0.858185 0.502848 0.867411 0.492034 0.838139 0.626386 0.874329 0.599291 0.844522 0.618153 0.828168 0.487543 0.798751 0.521701 0.858185 0.492034 0.838139 0.630151 0.718583 0.603232 0.725411 0.615905 0.683543 0.45131 0.600275 0.451795 0.635471 0.42503 0.619913 0.889034 0.533381 0.941464 0.526587 0.957673 0.568143 0.748246 0.55327 0.777518 0.606527 0.740796 0.600572 0.416558 0.818734 0.487543 0.798751 0.492034 0.838139 0.696431 0.822957 0.658089 0.792869 0.676201 0.784334 0.104088 0.334473 0.022879 0.39028 0.05774092 0.329677 0.641472 0.527933 0.546071 0.518849 0.590108 0.496611 0.45131 0.600275 0.494155 0.599192 0.477688 0.620361 0.571574 0.948373 0.601795 0.926489 0.612285 0.96728 0.429318 0.574527 0.394241 0.593938 0.38217 0.563052 0.43765 0.6578 0.411397 0.646655 0.451795 0.635471 0.642378 0.694545 0.645845 0.655969 0.669634 0.690668 0.339783 0.725006 0.361777 0.741582 0.323426 0.749406 0.453122 0.781618 0.477759 0.749702 0.494299 0.770143 0.738135 0.768357 0.710922 0.753239 0.740109 0.725641 0.269073 0.779569 0.230409 0.760168 0.25808 0.719992 0.494155 0.599192 0.508578 0.634329 0.477688 0.620361 0.542165 0.753431 0.57688 0.777521 0.537103 0.781342 0.1985149 0.698434 0.123484 0.719301 0.1324509 0.667396 0.123484 0.719301 0.043796 0.746308 0.07128399 0.673101 0.934159 0.886907 0.872465 0.887653 0.940747 0.800063 0.253847 0.636595 0.256088 0.591876 0.298759 0.613573 0.940747 0.800063 0.894825 0.726897 0.975271 0.71618 0.297901 0.723454 0.286441 0.748183 0.25808 0.719992 0.705863 0.662808 0.669634 0.690668 0.672308 0.642246 0.335801 0.692911 0.32382 0.667472 0.359661 0.686353 0.676201 0.784334 0.658089 0.792869 0.628789 0.766698 0.286441 0.748183 0.317299 0.771559 0.269073 0.779569 0.63044 0.742729 0.649421 0.733871 0.628789 0.766698 0.256088 0.591876 0.253847 0.636595 0.212246 0.601319 0.534413 0.642541 0.557548 0.644555 0.537806 0.670626 0.52204 0.592488 0.494155 0.599192 0.512768 0.559931 0.541867 0.882175 0.535463 0.877838 0.563431 0.859919 0.222649 0.843733 0.25546 0.8869 0.188884 0.907829 0.566118 0.577724 0.564826 0.616936 0.530141 0.614207 0.01052188 0.369468 0.01969999 0.352066 0.022879 0.39028 0.08214098 0.31574 0.104088 0.334473 0.05774092 0.329677 0.32382 0.667472 0.364958 0.654326 0.359661 0.686353 0.645845 0.655969 0.642378 0.694545 0.615905 0.683543 0.566118 0.577724 0.593928 0.594635 0.564826 0.616936 0.2384819 0.800515 0.269073 0.779569 0.285423 0.804064 0.32382 0.667472 0.297734 0.652953 0.334142 0.629182 0.427945 0.772817 0.402977 0.781931 0.403709 0.757554 0.807816 0.519195 0.748246 0.55327 0.773647 0.517341 0.566118 0.577724 0.52204 0.592488 0.512768 0.559931 0.474669 0.529544 0.530019 0.505881 0.512768 0.559931 0.1985149 0.698434 0.25041 0.678615 0.25808 0.719992 0.25546 0.8869 0.295396 0.85149 0.305173 0.902426 0.593928 0.594635 0.617854 0.627645 0.564826 0.616936 0.230409 0.760168 0.2384819 0.800515 0.197394 0.800436 0.208948 0.446848 0.185903 0.435773 0.201305 0.420245 0.667987 0.836443 0.698117 0.873895 0.66133 0.877925 0.21592 0.421999 0.219397 0.43177 0.207868 0.419879 0.341068 0.594535 0.298759 0.613573 0.300349 0.565598 0.530019 0.505881 0.474669 0.529544 0.501504 0.492182 0.593928 0.594635 0.632695 0.583141 0.617854 0.627645 0.332624 0.981998 0.303596 0.974408 0.305173 0.902426 0.276198 0.694047 0.25041 0.678615 0.297734 0.652953 0.537103 0.781342 0.57688 0.777521 0.576233 0.801546 0.482663 0.651719 0.515899 0.669148 0.49926 0.682382 0.642733 0.813835 0.614174 0.794696 0.658089 0.792869 0.564826 0.616936 0.534413 0.642541 0.530141 0.614207 0.07685697 0.522878 0.127373 0.549528 0.05405491 0.560766 0.486889 0.78442 0.494299 0.770143 0.537103 0.781342 0.649444 0.614217 0.645845 0.655969 0.617854 0.627645 0.435379 0.686226 0.419013 0.717132 0.416089 0.678319 0.127373 0.549528 0.209735 0.539256 0.154023 0.585695 0.579087 0.718967 0.580562 0.748085 0.557551 0.7352 0.131298 0.412332 0.09523296 0.423127 0.08653599 0.396196 0.197394 0.800436 0.141558 0.838791 0.166838 0.773091 0.233543 0.430219 0.238035 0.440896 0.2143 0.447528 0.649444 0.614217 0.693686 0.595152 0.672308 0.642246 0.614084 0.656873 0.57837 0.654325 0.617854 0.627645 0.801016 0.809328 0.844284 0.840883 0.78115 0.841962 0.800812 0.752761 0.770675 0.788686 0.769125 0.738281 0.557548 0.644555 0.534413 0.642541 0.564826 0.616936 0.043796 0.746308 0.01368492 0.706752 0.07128399 0.673101 0.255872 0.522828 0.321508 0.51611 0.300349 0.565598 0.433148 0.742153 0.403709 0.757554 0.399582 0.736284 0.25546 0.8869 0.208741 0.941639 0.188884 0.907829 0.705687 0.625097 0.705863 0.662808 0.672308 0.642246 0.642733 0.813835 0.667987 0.836443 0.618153 0.828168 0.705863 0.662808 0.705687 0.625097 0.73346 0.648044 0.416558 0.818734 0.492034 0.838139 0.466264 0.859658 0.321508 0.51611 0.371847 0.497984 0.300349 0.565598 0.57688 0.777521 0.614174 0.794696 0.576233 0.801546 0.796752 0.983333 0.774661 0.928813 0.81888 0.907915 0.705687 0.625097 0.740796 0.600572 0.73346 0.648044 0.697031 0.717643 0.705863 0.662808 0.730588 0.692511 0.092018 0.618993 0.127373 0.549528 0.154023 0.585695 0.03711396 0.396468 0.05960392 0.404892 0.07953596 0.459325 0.705687 0.625097 0.693686 0.595152 0.740796 0.600572 0.32382 0.667472 0.276198 0.694047 0.297734 0.652953 0.03711396 0.396468 0.08509898 0.367923 0.05960392 0.404892 0.649421 0.733871 0.630151 0.718583 0.642378 0.694545 0.603232 0.725411 0.579087 0.718967 0.593667 0.697068 0.362238 0.717239 0.339783 0.725006 0.335801 0.692911 0.451795 0.635471 0.466686 0.669475 0.43765 0.6578 0.777518 0.606527 0.776292 0.658031 0.73346 0.648044 0.462544 0.569148 0.45131 0.600275 0.429318 0.574527 0.210654 0.659139 0.1985149 0.698434 0.1324509 0.667396 0.57688 0.777521 0.580562 0.748085 0.60501 0.756307 0.159186 0.361348 0.165001 0.380142 0.138564 0.35817 0.777518 0.606527 0.816327 0.631248 0.776292 0.658031 0.871467 0.947316 0.835184 0.968552 0.81888 0.907915 0.617854 0.627645 0.632695 0.583141 0.649444 0.614217 0.09866398 0.871812 0.141558 0.838791 0.1611199 0.888622 0.872465 0.887653 0.881537 0.800179 0.940747 0.800063 0.127373 0.549528 0.092018 0.618993 0.05405491 0.560766 0.05981093 0.472207 0.0417059 0.462336 0.07953596 0.459325 0.463116 0.697097 0.442937 0.71292 0.435379 0.686226 0.1324509 0.667396 0.123484 0.719301 0.07128399 0.673101 0.816327 0.631248 0.849704 0.678549 0.776292 0.658031 0.222754 0.728629 0.1985149 0.698434 0.25808 0.719992 0.923345 0.606038 0.912903 0.668848 0.866976 0.613843 0.649421 0.733871 0.683669 0.768637 0.676201 0.784334 0.323426 0.749406 0.368637 0.755174 0.317299 0.771559 0.286441 0.748183 0.269073 0.779569 0.25808 0.719992 0.57688 0.777521 0.542165 0.753431 0.580562 0.748085 0.816327 0.631248 0.866976 0.613843 0.849704 0.678549 0.124561 0.448222 0.05960392 0.404892 0.09523296 0.423127 0.23711 0.968384 0.25546 0.8869 0.273807 0.960134 0.403709 0.757554 0.366624 0.772952 0.368637 0.755174 0.593667 0.697068 0.579087 0.718967 0.571415 0.68896 0.487543 0.798751 0.416558 0.818734 0.453122 0.781618 0.483929 0.702757 0.521084 0.730171 0.477234 0.722918 0.784036 0.70018 0.800812 0.752761 0.769125 0.738281 0.07355999 0.801046 0.07488697 0.865983 0.031717 0.819395 0.912903 0.668848 0.894825 0.726897 0.849704 0.678549 0.731187 0.812479 0.78115 0.841962 0.764617 0.861878 0.603232 0.725411 0.593667 0.697068 0.615905 0.683543 0.680773 0.738706 0.697031 0.717643 0.710922 0.753239 0.912903 0.668848 0.977505 0.653357 0.975271 0.71618 0.289254 0.827 0.25546 0.8869 0.222649 0.843733 0.546071 0.518849 0.600189 0.55151 0.566118 0.577724 0.669634 0.690668 0.645845 0.655969 0.672308 0.642246 0.364958 0.654326 0.32382 0.667472 0.334142 0.629182 0.01388889 0.431047 0.008071959 0.412253 0.0344659 0.445759 0.740109 0.725641 0.784036 0.70018 0.769125 0.738281 0.222754 0.728629 0.230409 0.760168 0.166838 0.773091 0.770675 0.788686 0.78115 0.841962 0.731187 0.812479 0.630151 0.718583 0.63044 0.742729 0.603232 0.725411 0.641472 0.527933 0.69542 0.521618 0.66629 0.571823 0.600189 0.55151 0.641472 0.527933 0.632695 0.583141 0.167252 0.626272 0.092018 0.618993 0.154023 0.585695 0.840582 0.724346 0.894825 0.726897 0.836028 0.769453 0.147633 0.448312 0.124561 0.448222 0.149666 0.403198 0.390779 0.869913 0.416558 0.818734 0.426196 0.867186 0.09866398 0.871812 0.1611199 0.888622 0.08955198 0.908317 0.411397 0.646655 0.416089 0.678319 0.384413 0.688024 0.601795 0.926489 0.659816 0.97957 0.612285 0.96728 0.02219498 0.631776 0.092018 0.618993 0.07128399 0.673101 0.329424 0.806015 0.295396 0.85149 0.289254 0.827 0.649421 0.733871 0.676201 0.784334 0.628789 0.766698 0.645845 0.655969 0.614084 0.656873 0.617854 0.627645 0.0344659 0.445759 0.008071959 0.412253 0.022879 0.39028 0.981519 0.607585 0.923345 0.606038 0.957673 0.568143 0.697031 0.717643 0.680773 0.738706 0.669634 0.690668 0.463116 0.697097 0.477234 0.722918 0.442937 0.71292 0.866976 0.613843 0.816327 0.631248 0.812889 0.580131 0.297734 0.652953 0.25041 0.678615 0.253847 0.636595 0.872465 0.887653 0.844284 0.840883 0.881537 0.800179 0.092018 0.618993 0.1324509 0.667396 0.07128399 0.673101 0.642378 0.694545 0.630151 0.718583 0.615905 0.683543 0.416558 0.818734 0.349418 0.888733 0.362217 0.837042 0.603232 0.725411 0.63044 0.742729 0.60501 0.756307 0.546071 0.518849 0.566118 0.577724 0.512768 0.559931 0.092018 0.618993 0.167252 0.626272 0.1324509 0.667396</float_array>
          <technique_common>
            <accessor source="#Apple_body-mesh-map-0-array" count="1464" stride="2">
              <param name="S" type="float"/>
              <param name="T" type="float"/>
            </accessor>
          </technique_common>
        </source>
        <vertices id="Apple_body-mesh-vertices">
          <input semantic="POSITION" source="#Apple_body-mesh-positions"/>
        </vertices>
        <triangles material="Apple_1-material" count="488">
          <input semantic="VERTEX" source="#Apple_body-mesh-vertices" offset="0"/>
          <input semantic="NORMAL" source="#Apple_body-mesh-normals" offset="1"/>
          <input semantic="TEXCOORD" source="#Apple_body-mesh-map-0" offset="2" set="0"/>
          <p>37 0 0 131 1 1 145 2 2 160 3 3 220 4 4 217 5 5 197 6 6 175 7 7 51 8 8 106 9 9 97 10 10 22 11 11 222 12 12 71 13 13 166 14 14 180 15 15 232 16 16 153 17 17 37 0 18 133 18 19 131 1 20 238 19 21 213 20 22 116 21 23 148 22 24 59 23 25 65 24 26 118 25 27 143 26 28 116 21 29 207 27 30 29 28 31 169 29 32 241 30 33 146 31 34 198 32 35 43 33 36 24 34 37 93 35 38 189 36 39 194 37 40 141 38 41 192 39 42 170 40 43 182 41 44 158 42 45 201 43 46 26 44 47 209 45 48 233 46 49 18 47 50 180 15 51 73 48 52 72 49 53 29 28 54 207 27 55 135 50 56 37 0 57 138 51 58 133 18 59 164 52 60 30 53 61 155 54 62 175 7 63 42 55 64 12 56 65 45 57 66 236 58 67 77 59 68 29 28 69 106 9 70 22 11 71 228 60 72 90 61 73 40 62 74 162 63 75 79 64 76 129 65 77 193 66 78 221 67 79 50 68 80 206 69 81 18 47 82 225 70 83 13 71 84 60 72 85 80 73 86 67 74 87 0 75 88 114 76 89 178 77 90 108 78 91 67 74 92 77 59 93 219 79 94 76 80 95 55 81 96 2 82 97 62 83 98 68 84 99 178 77 100 205 85 101 46 86 102 85 87 103 64 88 104 211 89 105 142 90 106 120 91 107 23 92 108 112 93 109 49 94 110 83 95 111 205 85 112 66 96 113 186 97 114 161 98 115 187 99 116 0 75 117 162 63 118 114 76 119 177 100 120 13 71 121 157 101 122 10 102 123 103 103 124 1 104 125 17 105 126 82 106 127 240 107 128 231 108 129 215 109 130 72 49 131 227 110 132 207 27 133 169 29 134 226 111 135 213 20 136 223 112 137 114 76 138 162 63 139 129 65 140 177 100 141 163 113 142 62 83 143 109 114 144 21 115 145 232 16 146 94 116 147 171 117 148 224 118 149 85 87 150 148 22 151 65 24 152 172 119 153 87 120 154 57 121 155 155 54 156 54 122 157 100 123 158 232 16 159 21 115 160 34 124 161 82 106 162 17 105 163 244 125 164 20 126 165 224 118 166 171 117 167 180 15 168 153 17 169 57 121 170 35 127 171 147 128 172 36 129 173 103 103 174 105 130 175 1 104 176 235 131 177 218 132 178 221 67 179 188 133 180 239 134 181 199 135 182 96 136 183 192 39 184 219 79 185 194 37 186 54 122 187 30 53 188 165 137 189 111 138 190 53 139 191 28 140 192 171 117 193 44 141 194 128 142 195 130 143 196 168 144 197 161 98 198 136 145 199 133 18 200 9 146 201 63 147 202 65 24 203 16 148 204 179 149 205 172 119 206 124 150 207 195 151 208 92 152 209 200 153 210 214 154 211 64 88 212 82 106 213 244 125 214 3 155 215 207 27 216 8 156 217 133 18 218 6 157 219 14 158 220 127 159 221 25 160 222 243 161 223 118 25 224 185 162 225 239 134 226 188 133 227 116 21 228 143 26 229 0 75 230 224 118 231 194 37 232 30 53 233 230 163 234 135 50 235 136 145 236 200 153 237 63 147 238 196 164 239 215 109 240 243 161 241 198 32 242 8 156 243 233 46 244 131 1 245 130 143 246 42 55 247 53 139 248 46 86 249 214 154 250 86 165 251 10 102 252 144 166 253 98 167 254 161 98 255 173 168 256 136 145 257 238 19 258 108 78 259 178 77 260 216 169 261 211 89 262 121 170 263 27 171 264 34 124 265 110 172 266 20 126 267 33 173 268 224 118 269 140 174 270 77 59 271 76 80 272 206 69 273 225 70 274 234 175 275 149 176 276 38 177 277 62 83 278 25 160 279 118 25 280 213 20 281 97 10 282 106 9 283 11 178 284 184 179 285 154 180 286 126 181 287 240 107 288 82 106 289 44 141 290 142 90 291 101 182 292 105 130 293 181 183 294 212 184 295 113 185 296 127 159 297 14 158 298 129 65 299 24 34 300 201 43 301 158 42 302 140 174 303 45 57 304 77 59 305 165 137 306 53 139 307 52 186 308 213 20 309 118 25 310 116 21 311 2 82 312 17 105 313 164 52 314 88 187 315 67 74 316 114 76 317 242 188 318 197 6 319 51 8 320 71 13 321 132 189 322 210 190 323 79 64 324 125 191 325 127 159 326 166 14 327 75 192 328 74 193 329 79 64 330 151 194 331 125 191 332 158 42 333 20 126 334 24 34 335 81 195 336 130 143 337 53 139 338 46 86 339 86 165 340 47 196 341 216 169 342 151 194 343 188 133 344 27 171 345 110 172 346 39 197 347 218 132 348 235 131 349 205 85 350 8 156 351 131 1 352 133 18 353 175 7 354 235 131 355 221 67 356 12 56 357 128 142 358 68 84 359 91 198 360 157 101 361 78 199 362 69 200 363 228 60 364 27 171 365 10 102 366 159 201 367 103 103 368 182 41 369 117 202 370 75 192 371 34 124 372 208 203 373 56 204 374 110 172 375 245 205 376 39 197 377 169 29 378 29 28 379 22 11 380 119 206 381 142 90 382 118 25 383 173 168 384 202 207 385 136 145 386 205 85 387 67 74 388 66 96 389 158 42 390 184 179 391 20 126 392 95 208 393 162 63 394 98 167 395 112 93 396 45 57 397 140 174 398 78 199 399 190 209 400 77 59 401 173 168 402 141 38 403 202 207 404 232 16 405 180 15 406 109 114 407 115 210 408 129 65 409 14 158 410 220 4 411 172 119 412 57 121 413 212 184 414 241 30 415 113 185 416 175 7 417 221 67 418 51 8 419 193 66 420 242 188 421 51 8 422 123 211 423 216 169 424 121 170 425 235 131 426 12 56 427 68 84 428 5 212 429 84 213 430 183 214 431 214 154 432 46 86 433 64 88 434 125 191 435 96 136 436 127 159 437 117 202 438 170 40 439 123 211 440 41 215 441 198 32 442 70 216 443 92 152 444 6 157 445 190 209 446 186 97 447 189 36 448 141 38 449 168 144 450 41 215 451 226 111 452 161 98 453 138 51 454 187 99 455 32 217 456 39 197 457 245 205 458 142 90 459 211 89 460 101 182 461 98 167 462 203 218 463 150 219 464 112 93 465 140 174 466 49 94 467 146 31 468 109 114 469 72 49 470 38 177 471 149 176 472 86 165 473 125 191 474 151 194 475 123 211 476 223 112 477 238 19 478 178 77 479 67 74 480 191 220 481 66 96 482 199 135 483 216 169 484 188 133 485 239 134 486 1 104 487 199 135 488 20 126 489 184 179 490 202 207 491 203 218 492 162 63 493 143 26 494 201 43 495 43 33 496 179 149 497 65 24 498 200 153 499 64 88 500 156 221 501 233 46 502 19 222 503 150 219 504 143 26 505 159 201 506 243 161 507 215 109 508 7 223 509 98 167 510 162 63 511 203 218 512 180 15 513 5 212 514 73 48 515 219 79 516 192 39 517 182 41 518 178 77 519 67 74 520 205 85 521 183 214 522 231 108 523 73 48 524 4 224 525 100 123 526 31 225 527 187 99 528 138 51 529 37 0 530 18 47 531 206 69 532 209 45 533 81 195 534 168 144 535 130 143 536 207 27 537 227 110 538 19 222 539 190 209 540 96 136 541 219 79 542 245 205 543 111 138 544 204 226 545 53 139 546 42 55 547 52 186 548 150 219 549 159 201 550 10 102 551 229 227 552 186 97 553 187 99 554 25 160 555 213 20 556 226 111 557 221 67 558 193 66 559 51 8 560 47 196 561 100 123 562 48 228 563 237 229 564 193 66 565 50 68 566 137 230 567 103 103 568 159 201 569 154 180 570 158 42 571 26 44 572 107 231 573 165 137 574 36 129 575 25 160 576 226 111 577 70 216 578 122 232 579 185 162 580 95 208 581 146 31 582 241 30 583 212 184 584 49 94 585 140 174 586 76 80 587 47 196 588 149 176 589 155 54 590 237 229 591 148 22 592 225 70 593 54 122 594 194 37 595 31 225 596 236 58 597 163 113 598 91 198 599 104 233 600 153 17 601 56 204 602 151 194 603 79 64 604 188 133 605 164 52 606 17 105 607 240 107 608 138 51 609 161 98 610 133 18 611 190 209 612 219 79 613 77 59 614 58 234 615 3 155 616 210 190 617 200 153 618 134 235 619 214 154 620 42 55 621 130 143 622 128 142 623 216 169 624 199 135 625 101 182 626 38 177 627 177 100 628 62 83 629 224 118 630 33 173 631 194 37 632 75 192 633 117 202 634 74 193 635 195 151 636 6 157 637 92 152 638 73 48 639 231 108 640 72 49 641 81 195 642 181 183 643 113 185 644 168 144 645 226 111 646 128 142 647 92 152 648 190 209 649 78 199 650 200 153 651 196 164 652 60 72 653 85 87 654 65 24 655 64 88 656 98 167 657 144 166 658 122 232 659 81 195 660 111 138 661 181 183 662 212 184 663 110 172 664 21 115 665 153 17 666 104 233 667 220 4 668 157 101 669 92 152 670 78 199 671 17 105 672 2 82 673 55 81 674 108 78 675 116 21 676 0 75 677 69 200 678 97 10 679 11 178 680 128 142 681 223 112 682 68 84 683 82 106 684 58 234 685 44 141 686 45 57 687 244 125 688 61 236 689 60 72 690 196 164 691 80 73 692 153 17 693 220 4 694 57 121 695 152 237 696 227 110 697 169 29 698 27 171 699 208 203 700 34 124 701 142 90 702 119 206 703 120 91 704 0 75 705 67 74 706 108 78 707 117 202 708 139 238 709 74 193 710 9 146 711 59 23 712 50 68 713 244 125 714 112 93 715 3 155 716 144 166 717 1 104 718 185 162 719 194 37 720 33 173 721 141 38 722 204 226 723 22 11 724 32 217 725 189 36 726 229 227 727 37 0 728 195 151 729 14 158 730 6 157 731 26 44 732 102 239 733 99 240 734 109 114 735 180 15 736 72 49 737 95 208 738 98 167 739 122 232 740 105 130 741 199 135 742 1 104 743 106 9 744 29 28 745 135 50 746 177 100 747 157 101 748 91 198 749 144 166 750 10 102 751 1 104 752 96 136 753 6 157 754 127 159 755 20 126 756 28 140 757 24 34 758 115 210 759 195 151 760 124 150 761 192 39 762 125 191 763 123 211 764 109 114 765 146 31 766 21 115 767 174 241 768 237 229 769 225 70 770 41 215 771 168 144 772 113 185 773 189 36 774 37 0 775 145 2 776 146 31 777 212 184 778 21 115 779 174 241 780 147 128 781 35 127 782 233 46 783 156 221 784 18 47 785 230 163 786 154 180 787 99 240 788 117 202 789 123 211 790 121 170 791 232 16 792 34 124 793 56 204 794 108 78 795 238 19 796 116 21 797 176 242 798 15 243 799 89 244 800 6 157 801 96 136 802 190 209 803 42 55 804 197 6 805 52 186 806 80 73 807 124 150 808 157 101 809 83 95 810 167 245 811 9 146 812 88 187 813 114 76 814 129 65 815 72 49 816 215 109 817 198 32 818 183 214 819 84 213 820 74 193 821 176 242 822 89 244 823 145 2 824 215 109 825 231 108 826 7 223 827 118 25 828 7 223 829 119 206 830 162 63 831 95 208 832 79 64 833 243 161 834 25 160 835 70 216 836 147 128 837 227 110 838 36 129 839 23 92 840 71 13 841 210 190 842 220 4 843 16 148 844 172 119 845 66 96 846 191 220 847 196 164 848 5 212 849 180 15 850 57 121 851 147 128 852 156 221 853 19 222 854 131 1 855 176 242 856 145 2 857 211 89 858 216 169 859 101 182 860 167 245 861 66 96 862 196 164 863 99 240 864 102 239 865 90 61 866 27 171 867 228 60 868 40 62 869 227 110 870 107 231 871 36 129 872 236 58 873 45 57 874 61 236 875 245 205 876 110 172 877 212 184 878 198 32 879 243 161 880 70 216 881 149 176 882 2 82 883 164 52 884 227 110 885 152 237 886 107 231 887 23 92 888 49 94 889 71 13 890 204 226 891 111 138 892 107 231 893 196 164 894 63 147 895 167 245 896 208 203 897 27 171 898 40 62 899 69 200 900 32 217 901 97 10 902 231 108 903 120 91 904 7 223 905 111 138 906 165 137 907 107 231 908 89 244 909 194 37 910 189 36 911 152 237 912 204 226 913 107 231 914 191 220 915 88 187 916 115 210 917 225 70 918 18 47 919 174 241 920 233 46 921 15 243 922 176 242 923 163 113 924 236 58 925 55 81 926 42 55 927 128 142 928 12 56 929 153 17 930 232 16 931 56 204 932 152 237 933 22 11 934 204 226 935 163 113 936 55 81 937 62 83 938 211 89 939 120 91 940 121 170 941 220 4 942 104 233 943 217 5 944 226 111 945 41 215 946 70 216 947 105 130 948 103 103 949 137 230 950 151 194 951 216 169 952 123 211 953 142 90 954 105 130 955 137 230 956 222 12 957 84 213 958 172 119 959 32 217 960 245 205 961 204 226 962 194 37 963 89 244 964 31 225 965 20 126 966 171 117 967 28 140 968 143 26 969 142 90 970 137 230 971 219 79 972 182 41 973 76 80 974 133 18 975 136 145 976 135 50 977 154 180 978 230 163 979 126 181 980 32 217 981 69 200 982 39 197 983 185 162 984 188 133 985 95 208 986 22 11 987 152 237 988 169 29 989 181 183 990 111 138 991 245 205 992 132 189 993 179 149 994 210 190 995 175 7 996 12 56 997 235 131 998 118 25 999 243 161 1000 7 223 1001 45 57 1002 112 93 1003 244 125 1004 83 95 1005 9 146 1006 50 68 1007 69 200 1008 27 171 1009 39 197 1010 231 108 1011 139 238 1012 120 91 1013 148 22 1014 85 87 1015 234 175 1016 85 87 1017 46 86 1018 48 228 1019 134 235 1020 13 71 1021 86 165 1022 174 241 1023 156 221 1024 147 128 1025 86 165 1026 149 176 1027 47 196 1028 221 67 1029 218 132 1030 50 68 1031 58 234 1032 210 190 1033 43 33 1034 197 6 1035 242 188 1036 52 186 1037 76 80 1038 182 41 1039 75 192 1040 218 132 1041 205 85 1042 83 95 1043 166 14 1044 71 13 1045 75 192 1046 156 221 1047 174 241 1048 18 47 1049 208 203 1050 104 233 1051 56 204 1052 228 60 1053 69 200 1054 11 178 1055 199 135 1056 105 130 1057 101 182 1058 196 164 1059 115 210 1060 80 73 1061 90 61 1062 217 5 1063 40 62 1064 126 181 1065 230 163 1066 136 145 1067 207 27 1068 133 18 1069 135 50 1070 242 188 1071 165 137 1072 52 186 1073 179 149 1074 132 189 1075 172 119 1076 90 61 1077 102 239 1078 217 5 1079 167 245 1080 83 95 1081 66 96 1082 242 188 1083 35 127 1084 36 129 1085 213 20 1086 238 19 1087 223 112 1088 33 173 1089 20 126 1090 202 207 1091 90 61 1092 228 60 1093 11 178 1094 106 9 1095 230 163 1096 11 178 1097 148 22 1098 237 229 1099 50 68 1100 115 210 1101 88 187 1102 129 65 1103 102 239 1104 160 3 1105 217 5 1106 9 146 1107 167 245 1108 63 147 1109 1 104 1110 239 134 1111 185 162 1112 192 39 1113 96 136 1114 125 191 1115 122 232 1116 144 166 1117 185 162 1118 227 110 1119 147 128 1120 19 222 1121 230 163 1122 106 9 1123 135 50 1124 102 239 1125 26 44 1126 160 3 1127 79 64 1128 127 159 1129 129 65 1130 193 66 1131 237 229 1132 35 127 1133 120 91 1134 139 238 1135 121 170 1136 110 172 1137 34 124 1138 21 115 1139 170 40 1140 117 202 1141 182 41 1142 217 5 1143 208 203 1144 40 62 1145 89 244 1146 15 243 1147 31 225 1148 119 206 1149 7 223 1150 120 91 1151 201 43 1152 179 149 1153 160 3 1154 113 185 1155 168 144 1156 81 195 1157 15 243 1158 233 46 1159 209 45 1160 5 212 1161 183 214 1162 73 48 1163 37 0 1164 229 227 1165 187 99 1166 63 147 1167 200 153 1168 65 24 1169 98 167 1170 150 219 1171 10 102 1172 201 43 1173 24 34 1174 43 33 1175 16 148 1176 220 4 1177 160 3 1178 163 113 1179 177 100 1180 91 198 1181 55 81 1182 236 58 1183 61 236 1184 104 233 1185 208 203 1186 217 5 1187 46 86 1188 47 196 1189 48 228 1190 233 46 1191 8 156 1192 19 222 1193 226 111 1194 223 112 1195 128 142 1196 115 210 1197 124 150 1198 80 73 1199 93 35 1200 58 234 1201 43 33 1202 170 40 1203 192 39 1204 123 211 1205 58 234 1206 93 35 1207 44 141 1208 143 26 1209 137 230 1210 159 201 1211 8 156 1212 207 27 1213 19 222 1214 139 238 1215 117 202 1216 121 170 1217 124 150 1218 92 152 1219 157 101 1220 93 35 1221 28 140 1222 44 141 1223 3 155 1224 58 234 1225 82 106 1226 4 224 1227 15 243 1228 209 45 1229 173 168 1230 186 97 1231 141 38 1232 93 35 1233 24 34 1234 28 140 1235 242 188 1236 193 66 1237 35 127 1238 173 168 1239 161 98 1240 186 97 1241 71 13 1242 222 12 1243 132 189 1244 84 213 1245 5 212 1246 87 120 1247 42 55 1248 175 7 1249 197 6 1250 245 205 1251 212 184 1252 181 183 1253 171 117 1254 240 107 1255 44 141 1256 97 10 1257 32 217 1258 22 11 1259 225 70 1260 148 22 1261 234 175 1262 139 238 1263 183 214 1264 74 193 1265 233 46 1266 176 242 1267 131 1 1268 171 117 1269 94 116 1270 240 107 1271 13 71 1272 80 73 1273 157 101 1274 160 3 1275 26 44 1276 201 43 1277 134 235 1278 200 153 1279 60 72 1280 13 71 1281 38 177 1282 86 165 1283 15 243 1284 4 224 1285 31 225 1286 33 173 1287 202 207 1288 141 38 1289 241 30 1290 41 215 1291 113 185 1292 234 175 1293 85 87 1294 48 228 1295 94 116 1296 164 52 1297 240 107 1298 59 23 1299 148 22 1300 50 68 1301 54 122 1302 155 54 1303 30 53 1304 71 13 1305 49 94 1306 76 80 1307 235 131 1308 68 84 1309 205 85 1310 218 132 1311 83 95 1312 50 68 1313 139 238 1314 231 108 1315 183 214 1316 94 116 1317 30 53 1318 164 52 1319 189 36 1320 186 97 1321 229 227 1322 195 151 1323 115 210 1324 14 158 1325 223 112 1326 178 77 1327 68 84 1328 87 120 1329 5 212 1330 57 121 1331 142 90 1332 143 26 1333 118 25 1334 146 31 1335 72 49 1336 198 32 1337 17 105 1338 55 81 1339 61 236 1340 214 154 1341 134 235 1342 86 165 1343 155 54 1344 149 176 1345 164 52 1346 77 59 1347 91 198 1348 78 199 1349 84 213 1350 87 120 1351 172 119 1352 23 92 1353 3 155 1354 112 93 1355 155 54 1356 100 123 1357 47 196 1358 191 220 1359 115 210 1360 196 164 1361 230 163 1362 99 240 1363 90 61 1364 210 190 1365 179 149 1366 43 33 1367 165 137 1368 242 188 1369 36 129 1370 184 179 1371 126 181 1372 202 207 1373 244 125 1374 17 105 1375 61 236 1376 59 23 1377 9 146 1378 65 24 1379 236 58 1380 91 198 1381 77 59 1382 222 12 1383 166 14 1384 84 213 1385 154 180 1386 184 179 1387 158 42 1388 99 240 1389 154 180 1390 26 44 1391 206 69 1392 4 224 1393 209 45 1394 2 82 1395 149 176 1396 62 83 1397 89 244 1398 189 36 1399 145 2 1400 203 218 1401 143 26 1402 150 219 1403 134 235 1404 60 72 1405 13 71 1406 111 138 1407 81 195 1408 53 139 1409 188 133 1410 79 64 1411 95 208 1412 100 123 1413 4 224 1414 48 228 1415 67 74 1416 88 187 1417 191 220 1418 71 13 1419 76 80 1420 75 192 1421 179 149 1422 16 148 1423 160 3 1424 202 207 1425 126 181 1426 136 145 1427 100 123 1428 54 122 1429 31 225 1430 3 155 1431 23 92 1432 210 190 1433 241 30 1434 198 32 1435 41 215 1436 30 53 1437 94 116 1438 224 118 1439 35 127 1440 237 229 1441 174 241 1442 13 71 1443 177 100 1444 38 177 1445 4 224 1446 234 175 1447 48 228 1448 132 189 1449 222 12 1450 172 119 1451 143 26 1452 162 63 1453 0 75 1454 84 213 1455 166 14 1456 74 193 1457 230 163 1458 90 61 1459 11 178 1460 4 224 1461 206 69 1462 234 175 1463</p>
        </triangles>
      </mesh>
    </geometry>
    <geometry id="Apple_top-mesh" name="Apple_top">
      <mesh>
        <source id="Apple_top-mesh-positions">
          <float_array id="Apple_top-mesh-positions-array" count="81">-0.05748748 -2.760485 -0.7178955 0.1528625 7.988469 0.04959106 0.9626618 7.809549 -1.141815 -1.17131 -9.341765 0.7118988 0.02046966 6.033526 0.7481079 -0.220581 -10.80399 0.1931915 -0.05198669 5.848104 -0.6848145 -0.9677582 -3.903295 -0.8106079 1.938354 7.248249 1.143295 1.205139 7.902535 0.06109619 2.15081 7.226059 -1.078812 -0.8242951 -11.58265 -0.318512 1.410965 4.948227 0.5541077 0.1325607 -2.720611 0.4377899 -1.558998 -9.654185 -0.09860229 -0.04365539 -10.17264 -0.3035126 1.125969 7.564109 1.210999 -0.5548782 -10.02173 -0.7373047 -1.072266 -1.62523 0.6904907 0.5837784 5.017702 -0.956604 1.48394 5.055438 -0.5366058 -0.3696213 -10.30672 0.640686 0.5109329 4.971099 0.9744873 -1.468437 -2.101083 0.009887695 2.53212 7.069246 0.1241912 -1.01226 -11.26898 0.2685852 -0.9786148 0.4028754 -0.5718994</float_array>
          <technique_common>
            <accessor source="#Apple_top-mesh-positions-array" count="27" stride="3">
              <param name="X" type="float"/>
              <param name="Y" type="float"/>
              <param name="Z" type="float"/>
            </accessor>
          </technique_common>
        </source>
        <source id="Apple_top-mesh-normals">
          <float_array id="Apple_top-mesh-normals-array" count="174">0.912105 -0.4032062 0.07409095 0.9487071 -0.2961923 0.110567 0.9345815 -0.3441794 -0.08998906 -0.8822951 0.06848835 0.4656876 -0.9828218 0.1420304 0.1178506 -0.9841629 0.07585215 0.1602185 -0.3144801 0.0194624 0.9490646 -0.2709723 0.02361148 0.9622976 -0.1977425 0.005257546 0.9802399 0.9884201 -0.1215326 -0.09085983 0.9939871 -0.06955736 0.08456611 0.9977982 -0.02952361 0.05939197 -0.8803689 -0.0549786 0.4710923 -0.9431721 -0.181633 0.2782732 0.1824195 -0.1073329 0.9773448 -0.0446586 -0.1103297 0.9928913 0.3865478 -0.05114269 0.9208503 0.2793394 -0.1734594 0.9443947 0.4800717 -0.1167095 0.8694308 0.4668375 -0.7091603 0.5283507 0.4336147 -0.6344628 0.6398712 0.433615 -0.634476 0.6398581 0.3285356 0.9395366 0.0966196 0.07992988 0.9919422 0.09829545 0.2239232 0.9306758 0.2893112 -0.5546218 0.153262 0.8178664 -0.4865748 0.1163318 0.8658592 -0.1986434 -0.2352465 0.95142 0.9451336 -0.05105584 0.3226701 -0.7249361 -0.007395505 -0.6887764 -0.8222976 0.09169119 -0.561622 -0.2419559 -0.01851624 -0.9701106 0.3594561 0.9279976 -0.09804016 0.5022706 0.8646132 -0.01297527 0.4416739 0.8968787 -0.02308523 0.6077114 -0.214461 -0.7646525 0.2513095 -0.0539205 -0.9664037 0.2040059 -0.2174724 0.954509 -0.8234279 0.1298712 -0.5523586 -0.4217241 0.07073622 -0.903961 -0.01799768 -0.06561553 -0.9976827 0.4462938 0.8669694 0.2217793 -0.9325151 -0.3420617 -0.1157999 -0.9420337 -0.2753374 0.1917338 0.3920594 -0.5476636 0.7391577 -0.9414561 0.1864858 -0.2808625 0.4209745 -0.2021085 -0.8842697 0.7949132 -0.315091 0.5184889 -0.6800022 0.2871121 0.6746582 0.2211923 -0.2097079 -0.9524163 0.617278 -0.1363099 -0.7748468 -0.7286423 -0.05734634 -0.6824895 -0.5940176 -0.06249135 -0.8020213 0.7321238 -0.3994639 -0.5517457 0.9288671 -0.05167859 0.3667905 0.8785099 -0.350882 -0.3241949 0.8391628 -0.4615338 -0.287737 -0.0144723 -0.245012 0.969412</float_array>
          <technique_common>
            <accessor source="#Apple_top-mesh-normals-array" count="58" stride="3">
              <param name="X" type="float"/>
              <param name="Y" type="float"/>
              <param name="Z" type="float"/>
            </accessor>
          </technique_common>
        </source>
        <source id="Apple_top-mesh-map-0">
          <float_array id="Apple_top-mesh-map-0-array" count="300">0.009932994 0.953738 0.137234 0.930176 0.097166 0.998948 0.496365 0.75297 0.102289 0.729533 0.521763 0.651685 0.148631 0.812574 0.496365 0.75297 0.892411 0.763785 0.130937 0.36958 0.412069 0.318878 0.54998 0.413023 0.54998 0.413023 0.508131 0.304422 0.573604 0.333333 0.892411 0.763785 0.521763 0.651685 0.908281 0.637164 0.892411 0.763785 0.94264 0.88258 0.548079 0.941088 0.445021 0.955601 0.367406 0.962797 0.148631 0.812574 0.32959 0.137095 0.34269 0.215762 0.277289 0.233569 0.115222 0.181488 0.08828198 0.289197 0.01738095 0.167524 0.148631 0.812574 0.01112097 0.818073 0.102289 0.729533 0.892411 0.763785 0.978689 0.751138 0.94264 0.88258 0.496365 0.75297 0.521763 0.651685 0.892411 0.763785 0.702708 0.962811 0.96378 0.934817 0.868622 0.998948 0.908281 0.637164 0.393281 0.572057 0.612006 0.5143 0.210664 0.110992 0.108098 0.0236169 0.209001 0.03929096 0.936566 0.350683 0.612006 0.5143 0.54998 0.413023 0.393281 0.572057 0.908281 0.637164 0.521763 0.651685 0.01112097 0.818073 0.148631 0.812574 0.137234 0.930176 0.112384 0.579744 8.34e-4 0.507139 0.1453779 0.483545 0.148631 0.812574 0.892411 0.763785 0.548079 0.941088 0.01738095 0.167524 0.03855788 0.05561399 0.115222 0.181488 0.908281 0.637164 0.971331 0.559201 0.972482 0.667081 0.997506 0.846522 0.997506 0.899194 0.94264 0.88258 0.112384 0.579744 0.102289 0.729533 0.005006909 0.637282 0.1453779 0.483545 0.130937 0.36958 0.54998 0.413023 0.892411 0.763785 0.908281 0.637164 0.971768 0.697915 0.393281 0.572057 0.1453779 0.483545 0.612006 0.5143 0.009932994 0.953738 0.01241499 0.879577 0.137234 0.930176 0.148631 0.812574 0.102289 0.729533 0.496365 0.75297 0.03855788 0.05561399 0.108098 0.0236169 0.115222 0.181488 8.34e-4 0.507139 0.112384 0.579744 0.005006909 0.637282 0.005006909 0.637282 0.102289 0.729533 0.01112097 0.818073 0.1453779 0.483545 0.009190976 0.405792 0.130937 0.36958 0.936566 0.350683 0.92821 0.452293 0.612006 0.5143 0.54998 0.413023 0.612006 0.5143 0.1453779 0.483545 0.612006 0.5143 0.92821 0.452293 0.971331 0.559201 0.2307929 0.21044 0.112464 0.290785 0.115222 0.181488 0.112384 0.579744 0.393281 0.572057 0.102289 0.729533 0.115222 0.181488 0.108098 0.0236169 0.210664 0.110992 0.936566 0.350683 0.997506 0.45275 0.92821 0.452293 0.1453779 0.483545 8.34e-4 0.507139 0.009190976 0.405792 0.96378 0.934817 0.702708 0.962811 0.94264 0.88258 0.00397098 0.336904 0.148579 0.347784 0.009190976 0.405792 0.936566 0.350683 0.990741 0.357364 0.997506 0.45275 0.393281 0.572057 0.112384 0.579744 0.1453779 0.483545 0.54998 0.413023 0.470642 0.340573 0.508131 0.304422 0.971331 0.559201 0.908281 0.637164 0.612006 0.5143 0.01241499 0.879577 0.01112097 0.818073 0.137234 0.930176 0.393281 0.572057 0.521763 0.651685 0.102289 0.729533</float_array>
          <technique_common>
            <accessor source="#Apple_top-mesh-map-0-array" count="150" stride="2">
              <param name="S" type="float"/>
              <param name="T" type="float"/>
            </accessor>
          </technique_common>
        </source>
        <vertices id="Apple_top-mesh-vertices">
          <input semantic="POSITION" source="#Apple_top-mesh-positions"/>
        </vertices>
        <triangles material="Apple_003-material" count="50">
          <input semantic="VERTEX" source="#Apple_top-mesh-vertices" offset="0"/>
          <input semantic="NORMAL" source="#Apple_top-mesh-normals" offset="1"/>
          <input semantic="TEXCOORD" source="#Apple_top-mesh-map-0" offset="2" set="0"/>
          <p>24 0 0 12 1 1 20 2 2 18 3 3 4 4 4 23 5 5 22 6 6 18 7 7 3 8 8 20 2 9 12 1 10 0 9 11 0 9 12 13 10 13 15 11 14 3 12 15 23 5 16 14 13 17 3 14 18 21 15 19 13 16 20 13 16 21 12 17 22 22 18 23 11 19 24 5 20 25 25 21 26 9 22 27 1 23 28 16 24 29 22 6 30 16 25 31 4 26 32 3 14 33 25 27 34 21 15 35 18 3 36 23 5 37 3 12 38 13 10 39 5 28 40 15 11 41 14 29 42 26 30 43 7 31 44 2 32 45 24 33 46 10 34 47 15 35 48 7 31 49 0 36 50 26 30 51 14 29 52 23 5 53 16 37 54 22 18 55 12 17 56 6 38 57 2 39 58 19 40 59 22 18 60 3 14 61 13 16 62 16 24 63 8 41 64 9 22 65 14 13 66 11 42 67 25 43 68 25 21 69 5 20 70 21 44 71 6 38 72 4 4 73 1 45 74 19 40 75 20 46 76 0 36 77 3 12 78 14 13 79 25 43 80 26 30 81 19 40 82 7 31 83 24 0 84 8 47 85 12 1 86 22 6 87 4 26 88 18 7 89 8 41 90 24 33 91 9 22 92 2 39 93 6 38 94 1 45 95 1 48 96 4 26 97 16 25 98 19 40 99 10 49 100 20 46 101 15 35 102 17 50 103 7 31 104 0 36 105 7 31 106 19 40 107 7 31 108 17 51 109 11 52 110 2 32 111 1 23 112 9 22 113 6 38 114 26 30 115 4 4 116 9 22 117 24 33 118 2 32 119 15 35 120 11 53 121 17 50 122 19 40 123 2 39 124 10 49 125 5 28 126 13 10 127 21 54 128 24 0 129 20 2 130 10 55 131 15 35 132 5 56 133 11 53 134 26 30 135 6 38 136 19 40 137 0 9 138 12 1 139 13 10 140 11 52 141 14 29 142 7 31 143 8 57 144 16 37 145 12 17 146 26 30 147 23 5 148 4 4 149</p>
        </triangles>
      </mesh>
    </geometry>
  </library_geometries>
  <library_visual_scenes>
    <visual_scene id="Scene" name="Scene">
      <node id="Apple_body" name="Apple_body" type="NODE">
        <matrix sid="transform">1 0 0 -0.3755951 0 -1.62921e-7 -1 -0.007072449 0 1 -1.62921e-7 -14.41449 0 0 0 1</matrix>
        <instance_geometry url="#Apple_body-mesh" name="Apple_body">
          <bind_material>
            <technique_common>
              <instance_material symbol="Apple_1-material" target="#Apple_1-material">
                <bind_vertex_input semantic="Apple_body-mesh-map-0" input_semantic="TEXCOORD" input_set="0"/>
              </instance_material>
            </technique_common>
          </bind_material>
        </instance_geometry>
      </node>
      <node id="Apple_top" name="Apple_top" type="NODE">
        <matrix sid="transform">1 0 0 0.3755951 0 -1.62921e-7 -1 0.007072449 0 1 -1.62921e-7 14.41449 0 0 0 1</matrix>
        <instance_geometry url="#Apple_top-mesh" name="Apple_top">
          <bind_material>
            <technique_common>
              <instance_material symbol="Apple_003-material" target="#Apple_003-material">
                <bind_vertex_input semantic="Apple_top-mesh-map-0" input_semantic="TEXCOORD" input_set="0"/>
              </instance_material>
            </technique_common>
          </bind_material>
        </instance_geometry>
      </node>
    </visual_scene>
  </library_visual_scenes>
  <scene>
    <instance_visual_scene url="#Scene"/>
  </scene>
</COLLADA>